$MeshFormat
2.2 0 8
$EndMeshFormat
$Nodes
976
1 0 0 0
2 220 0 0
3 220 60 0
4 0 60 0
5 3.666666666657668 0 0
6 7.333333333314816 0 0
7 10.99999999997191 0 0
8 14.66666666663003 0 0
9 18.33333333329005 0 0
10 21.99999999995023 0 0
11 25.6666666666104 0 0
12 29.33333333326763 0 0
13 32.99999999992188 0 0
14 36.66666666657613 0 0
15 40.33333333323038 0 0
16 43.99999999988463 0 0
17 47.66666666653888 0 0
18 51.33333333319314 0 0
19 54.99999999984739 0 0
20 58.66666666650165 0 0
21 62.3333333331559 0 0
22 65.99999999981016 0 0
23 69.66666666646439 0 0
24 73.33333333311866 0 0
25 76.99999999977291 0 0
26 80.66666666642716 0 0
27 84.33333333308141 0 0
28 87.99999999973566 0 0
29 91.66666666638992 0 0
30 95.33333333304417 0 0
31 98.99999999969842 0 0
32 102.6666666663527 0 0
33 106.3333333330069 0 0
34 109.999999999664 0 0
35 113.6666666663391 0 0
36 117.3333333330171 0 0
37 120.9999999996951 0 0
38 124.666666666373 0 0
39 128.333333333051 0 0
40 131.9999999997289 0 0
41 135.6666666664069 0 0
42 139.3333333330849 0 0
43 142.9999999997628 0 0
44 146.6666666664408 0 0
45 150.3333333331187 0 0
46 153.9999999997967 0 0
47 157.6666666664747 0 0
48 161.3333333331526 0 0
49 164.9999999998306 0 0
50 168.6666666665086 0 0
51 172.3333333331865 0 0
52 175.9999999998645 0 0
53 179.6666666665424 0 0
54 183.3333333332204 0 0
55 186.9999999998984 0 0
56 190.6666666665763 0 0
57 194.3333333332543 0 0
58 197.9999999999322 0 0
59 201.6666666666102 0 0
60 205.3333333332882 0 0
61 208.9999999999661 0 0
62 212.6666666666441 0 0
63 216.333333333322 0 0
64 220 3.999999999998082 0
65 220 7.999999999999502 0
66 220 11.99999999999586 0
67 220 15.99999999999213 0
68 220 19.99999999997725 0
69 220 23.99999999996176 0
70 220 27.99999999994628 0
71 220 31.99999999994264 0
72 220 35.99999999995083 0
73 220 39.99999999995903 0
74 220 43.99999999996722 0
75 220 47.99999999997542 0
76 220 51.99999999998361 0
77 220 55.9999999999918 0
78 216.3333333333175 60 0
79 212.666666666635 60 0
80 208.9999999999526 60 0
81 205.3333333332701 60 0
82 201.6666666665876 60 0
83 197.9999999999051 60 0
84 194.3333333332226 60 0
85 190.6666666665638 60 0
86 186.9999999999287 60 0
87 183.3333333332936 60 0
88 179.6666666666585 60 0
89 176.0000000000234 60 0
90 172.3333333333882 60 0
91 168.6666666667531 60 0
92 165.000000000118 60 0
93 161.3333333334829 60 0
94 157.6666666668478 60 0
95 154.0000000002127 60 0
96 150.3333333335776 60 0
97 146.6666666669425 60 0
98 143.0000000003074 60 0
99 139.3333333336723 60 0
100 135.6666666670372 60 0
101 132.0000000004021 60 0
102 128.3333333337651 60 0
103 124.66666666711 60 0
104 121.0000000004512 60 0
105 117.3333333337924 60 0
106 113.6666666671337 60 0
107 110.0000000004721 60 0
108 106.3333333337924 60 0
109 102.6666666671099 60 0
110 99.00000000042738 60 0
111 95.33333333374489 60 0
112 91.6666666670624 60 0
113 88.00000000037991 60 0
114 84.3333333336974 60 0
115 80.66666666701494 60 0
116 77.00000000033242 60 0
117 73.33333333364993 60 0
118 69.66666666696742 60 0
119 66.00000000028493 60 0
120 62.33333333360241 60 0
121 58.66666666691995 60 0
122 55.00000000023744 60 0
123 51.33333333355492 60 0
124 47.66666666687246 60 0
125 44.00000000018994 60 0
126 40.33333333350745 60 0
127 36.66666666682497 60 0
128 33.00000000014248 60 0
129 29.33333333345996 60 0
130 25.6666666667775 60 0
131 22.00000000009499 60 0
132 18.3333333334125 60 0
133 14.66666666672998 60 0
134 11.00000000004749 60 0
135 7.333333333364976 60 0
136 3.666666666682517 60 0
137 0 55.99999999998991 0
138 0 51.99999999997982 0
139 0 47.99999999996973 0
140 0 43.99999999996001 0
141 0 39.99999999999488 0
142 0 36.00000000003215 0
143 0 32.0000000000684 0
144 0 28.00000000007054 0
145 0 24.00000000006046 0
146 0 20.00000000005039 0
147 0 16.00000000004031 0
148 0 12.00000000003023 0
149 0 8.000000000020158 0
150 0 4.000000000010076 0
151	3.76630954920252	4.83540021070595	0
152	3.88866065103469	7.09741612143715	0
153	3.06334154424212	13.0160918151227	0
154	4.39359209228063	15.7260631965141	0
155	4.32250125452685	19.1691592767671	0
156	3.86912517282448	23.5746212210029	0
157	3.52176653031285	28.9063253549754	0
158	3.77973890990464	32.6383185634297	0
159	3.33242160212611	35.3021932972424	0
160	4.79374482059387	39.2587722926055	0
161	3.35968949888291	44.8941226159568	0
162	4.72641740884837	48.6155267889226	0
163	2.58626389523563	52.6640671074080	0
164	4.29827610212713	55.3488333576428	0
165	7.19734982378295	3.30294655785442	0
166	7.62999777632877	8.33358078251796	0
167	6.91055716300490	11.1163417035197	0
168	8.29224264507737	16.0134408861045	0
169	6.70436940656129	20.4203807312895	0
170	7.04800397925998	23.2203235146498	0
171	6.89718949263257	27.7121435737702	0
172	6.28266886118545	32.7010200488931	0
173	7.57241471305487	36.9305082717492	0
174	8.09685111729861	39.2286482377666	0
175	7.53395642818882	44.5409250167026	0
176	7.02292621211983	48.1266124376341	0
177	6.51468720219916	51.2904068988406	0
178	6.46160251026300	56.4319581109433	0
179	12.0939477431075	3.54492402609708	0
180	11.0947788834939	8.30068396260755	0
181	10.0600162827610	11.3993587475710	0
182	10.4455355058549	15.9757737564238	0
183	10.3402338539311	20.5871099776259	0
184	10.5785539496583	24.2732665653374	0
185	11.9178452734138	27.4266195628721	0
186	11.0470487494340	32.3482863336596	0
187	10.2321638236900	35.6153269040241	0
188	10.1898264824646	39.1343375925989	0
189	10.0089653440871	44.3565799516109	0
190	11.8062126839578	49.0168887239353	0
191	12.0785788150726	52.7755434258603	0
192	11.9752993357523	55.1961368324591	0
193	14.4609797094981	4.42622584671694	0
194	15.5796462402588	8.37330428988224	0
195	14.6314243408630	12.0238449774975	0
196	14.5977264502776	15.8516038020864	0
197	13.9115431685661	19.7353621314612	0
198	13.7183821707059	24.7781347449107	0
199	14.9693810824556	27.4335752401649	0
200	14.2369665518785	31.5259726998648	0
201	14.5901795630532	36.1385999973236	0
202	14.0098430947481	40.2879435539231	0
203	13.5333072096045	43.8856976418712	0
204	15.3432239745965	48.8284451701888	0
205	14.3666999360657	53.0319770882923	0
206	13.5644327885277	56.7195590740364	0
207	18.8220421612970	4.50026771222752	0
208	17.6935806845091	7.14079066275157	0
209	18.7623427926153	11.0519331825241	0
210	17.7559335813698	16.7709263667556	0
211	17.8015759045885	19.6602592383033	0
212	17.4969228804587	24.9221312512487	0
213	17.9791779352047	28.1770698952606	0
214	18.9116360483818	30.9794886058198	0
215	19.2181864348488	35.3535986812735	0
216	18.8117166649142	39.1968108491756	0
217	17.7569970364588	43.8097285077462	0
218	18.2228271282071	48.8583002435448	0
219	19.3136320263338	51.0746762819061	0
220	18.5962795181362	56.9771630687229	0
221	21.4505225462958	4.99078639654190	0
222	22.2980357967285	7.46659007050680	0
223	22.4445017727262	10.9444624891083	0
224	21.7809907715757	15.9237701958397	0
225	21.3031947586008	20.1918203726193	0
226	21.5614233784548	24.5154525794799	0
227	22.4386419516672	27.6214840813753	0
228	22.2963453573480	31.0081223875486	0
229	21.4312768752766	36.8903063905603	0
230	20.9620649255844	40.7478280067476	0
231	22.0714983379473	43.7111773025799	0
232	21.2639113421442	48.6034752937919	0
233	22.0497897266469	51.8576941055639	0
234	22.8440327088988	56.0415369409612	0
235	25.9249417952572	4.13682700603360	0
236	25.1470651369058	7.42146055653391	0
237	26.4726387262412	11.1550293865353	0
238	24.8879735423399	16.2511607775679	0
239	25.1197549813779	20.2581725597749	0
240	26.0544459086108	23.3974214539432	0
241	25.0436878002335	28.8129518408533	0
242	26.4076837705937	31.1254751910220	0
243	25.2667861525279	36.8695683278093	0
244	25.6402659624547	39.7474579697001	0
245	26.2661877654771	43.5449379497351	0
246	26.2069724847929	48.5749476982062	0
247	25.9758933620837	51.4661617062728	0
248	25.0963907705754	56.0580788017797	0
249	29.8660039033468	3.38447144992496	0
250	28.9684816472959	6.99153482244479	0
251	28.8849670381758	12.7451420431422	0
252	28.4857181997383	15.1266332981804	0
253	28.2197391933036	20.0953032228995	0
254	30.2993205227928	24.2834430620509	0
255	30.2653971378256	26.8642083536305	0
256	29.0654211250342	31.2352989438373	0
257	29.7911563056295	34.8849879301549	0
258	29.7251168620712	40.5751461830584	0
259	28.4869279121042	44.4630917556610	0
260	28.6535486411048	47.6734212827135	0
261	30.2490756922821	52.3873964971546	0
262	30.2240916784088	55.0702123288312	0
263	32.7219348663557	4.73348900851426	0
264	32.4321155209730	7.82545658153165	0
265	33.2334704533641	11.0942936165806	0
266	33.2851857213796	15.0852031019242	0
267	31.9080989551846	19.1051352661244	0
268	33.7268455671944	24.2698372062083	0
269	33.0407932504472	27.3202569392947	0
270	33.9307635918365	31.8254067092574	0
271	32.1330231894112	36.7024975895014	0
272	34.0142270463640	39.6110771855279	0
273	33.9707975678416	43.4847579735980	0
274	32.0788734736496	48.7247909858402	0
275	32.8073553007975	51.3327123989107	0
276	32.5973143218899	56.3513755772902	0
277	37.4538021130886	4.17279992197757	0
278	37.6849885445594	8.14483772379146	0
279	37.1877519715425	11.5787078118292	0
280	37.0846107751768	15.1944903984171	0
281	36.9881372204640	19.1593749168397	0
282	36.2481140554670	24.7789814837227	0
283	37.1944040696745	27.9422849570258	0
284	35.8884015348196	31.3900697307750	0
285	37.2578832885293	36.6388906495562	0
286	35.7389587143461	40.4147038453355	0
287	37.7297807454426	43.2298508737040	0
288	36.9143789947404	47.1843285461063	0
289	37.5645088896504	52.3836017266472	0
290	35.9713724219289	56.3608461970881	0
291	41.4428315484440	4.32691288546051	0
292	39.7452664775645	7.28797758163029	0
293	39.7045884046668	12.7322238632222	0
294	40.1105460383799	16.2585780426568	0
295	40.9719155267638	20.9825667906346	0
296	41.1044612886546	24.3669460631037	0
297	40.1275998948622	27.4298655611049	0
298	40.1114612448874	30.9694990079366	0
299	40.9511005099223	34.9477852857159	0
300	39.7630204898125	40.4961897257165	0
301	41.1647695697640	43.4167144158210	0
302	40.7474954616443	47.1945188056141	0
303	41.4185869766895	50.9632768948763	0
304	39.6184373437709	56.7020617984035	0
305	43.3548005399174	4.77456457079366	0
306	43.5747167567817	7.38511322848980	0
307	44.5728969492113	12.5634105212877	0
308	43.6993266864485	15.5043017178123	0
309	44.2374589971839	19.6322984592265	0
310	43.7350134711644	23.6117357712845	0
311	44.1147735783812	27.0148334604490	0
312	43.7395771737925	31.0387463283972	0
313	44.3760821377282	35.9882507848247	0
314	42.8968035903647	39.7183315497631	0
315	44.7118233499446	43.8103770959443	0
316	43.6586787888603	48.2720793571621	0
317	44.4899297196096	52.3717503694224	0
318	45.0431996133764	56.3080517860775	0
319	47.6835279477530	3.63673166267505	0
320	48.0444155523726	8.55640013539946	0
321	47.5063210028177	12.4444413170460	0
322	48.4611789097332	16.1968149062106	0
323	48.0172841693637	20.8700849416392	0
324	47.6763457702117	25.0393699981090	0
325	47.3677652766972	28.8185650903801	0
326	48.0877927117112	31.5916311542473	0
327	46.7555483173280	36.3718832547266	0
328	46.6383358400631	40.9221214513330	0
329	48.5062750476142	44.4214938121899	0
330	48.0119055346852	49.1346563203268	0
331	47.9177715486097	51.9986224571055	0
332	47.4892264630266	55.4837347436856	0
333	51.3417612790498	4.43967816553383	0
334	50.5698275812242	9.12530802090877	0
335	50.4084947899355	11.3416037314834	0
336	51.7546308652085	15.8084313499049	0
337	50.5210208538843	19.2316443699277	0
338	51.3986033050211	23.4310449728209	0
339	50.2048092903779	27.7583665244567	0
340	51.1629678090563	31.6366521483431	0
341	50.7066797184205	36.9741621898559	0
342	51.6969285032855	39.8925275149100	0
343	51.3403848496832	44.0603935861333	0
344	51.5607926562798	48.0026236633859	0
345	50.6517405108048	52.7054624803621	0
346	50.5090399701885	56.6929862424284	0
347	53.9174334083557	3.13119515553280	0
348	55.9992088994234	8.26904462861838	0
349	55.4444315952867	12.6199892954546	0
350	55.1232878610206	15.5108749807534	0
351	54.5349169401175	19.4751428837416	0
352	53.9602684105541	23.9229723496664	0
353	55.8042002515545	27.7073143934851	0
354	55.2197866464414	31.9528079739223	0
355	53.9054707800295	35.8595280286041	0
356	55.9847695482022	39.4435576692331	0
357	53.8856057193827	43.1842010761478	0
358	55.3204331007518	47.4684405862158	0
359	55.6562661731247	51.6555592578016	0
360	55.0602489313083	55.4374101628853	0
361	58.1921133635476	2.90363225229924	0
362	58.9583949119206	7.88803466096596	0
363	58.4972351938746	12.9197323320940	0
364	58.7720800424778	16.3570545724728	0
365	57.9637581497727	19.1894176842641	0
366	59.2224611839320	23.4509927906688	0
367	58.0139050071322	28.6621297481183	0
368	57.7576282446907	32.5169008853394	0
369	59.5677654850229	36.7345427589260	0
370	59.3994327342337	40.9918436023382	0
371	59.5368459035275	43.2979428507021	0
372	57.7303529226024	48.0612508083104	0
373	59.1217516449724	51.5012623785519	0
374	57.9169900329034	55.7917378702228	0
375	63.0904402102164	3.40860969590674	0
376	62.8517736794568	7.67618224362014	0
377	62.9605187174097	11.2369035949895	0
378	62.9323349804323	14.8691047342457	0
379	61.3264910916000	19.7878064402693	0
380	62.5830492801089	23.4990066096500	0
381	63.2391760895492	27.2663530220430	0
382	62.3700031803750	32.1947255940253	0
383	62.3473630415402	36.5035755265362	0
384	61.7777784062095	40.5029906673049	0
385	63.4054249673595	44.0195187570410	0
386	62.5177516974290	47.6042785805827	0
387	63.3981124221631	51.8973333531088	0
388	61.2908888552267	55.5382502891424	0
389	65.2921610446250	4.41607348314510	0
390	66.0449203840724	8.96553109011418	0
391	66.3202020886433	11.5265770582745	0
392	65.6379357895831	15.9454278866565	0
393	66.3371969913347	19.7534486183211	0
394	65.6713682835726	23.5882974626655	0
395	66.7966297702448	27.7730932393420	0
396	66.0973075394916	32.8583781001369	0
397	66.3934615782789	37.0301658599310	0
398	65.4466183920991	38.8733188351005	0
399	65.1391913338923	44.2305757782718	0
400	64.9556643087127	48.6492013102832	0
401	66.8819080211289	52.3148660062358	0
402	66.5755686998350	55.1293627873684	0
403	70.3533808611847	4.47855698242946	0
404	69.5334645463437	7.08556769873262	0
405	68.7009099042930	12.1926969795928	0
406	68.8806298036051	16.7901162136129	0
407	69.0920788112230	19.3878601368273	0
408	68.7101244687731	23.3088917539898	0
409	70.4695014762955	26.9493484479275	0
410	68.8873295544504	32.7446092949794	0
411	69.9318750122949	34.9276010368989	0
412	69.7313416979387	39.6981945965639	0
413	68.9647191615091	43.2607515079569	0
414	70.2571559920857	48.0092591391038	0
415	69.9280916675859	51.9908754560105	0
416	68.8757056477114	56.8294820441695	0
417	73.2302110039971	4.16172104518441	0
418	73.7472943500544	7.25212235322789	0
419	72.8360714442304	12.9283056111248	0
420	73.6171836669031	16.3719963355916	0
421	74.3375148871646	20.0061128637829	0
422	73.4851968227412	24.7321931860976	0
423	73.7723414798876	27.5173729199531	0
424	74.4212999929150	32.8660449079195	0
425	74.2406436774405	36.0714680689629	0
426	73.6708714932453	39.0738463896698	0
427	74.4311533587561	43.9625913121536	0
428	72.5690865901871	47.5948928920401	0
429	73.3555817178197	52.0979348891913	0
430	73.6228334999643	57.0382212655346	0
431	77.6819896601704	3.69884377275107	0
432	76.8130651211424	6.92350686122778	0
433	75.9880086752335	12.5444773913636	0
434	77.0435203421953	15.6019123988723	0
435	76.1691848277626	20.3757445564488	0
436	76.6975940464798	23.9951039994943	0
437	77.4469766904011	28.8131228413632	0
438	76.1579351901424	32.5652130585270	0
439	77.6498194498329	35.7679328510419	0
440	75.9777209873507	40.0320860508765	0
441	77.7174862361947	44.1904025901391	0
442	77.8341591807385	48.0187405317020	0
443	76.3109571331770	52.5316566407173	0
444	77.2441374692462	56.5196519699855	0
445	81.7957647729912	3.30466757630171	0
446	79.6263498861259	7.89745789504210	0
447	79.8456058889748	12.0423202979967	0
448	80.0368601522537	15.2022694679704	0
449	80.8553737220955	20.6409318135442	0
450	81.0556416743792	23.2394314689404	0
451	81.1740563141028	27.9891426689911	0
452	80.6767567028039	31.4525345217268	0
453	80.9954534862318	36.2767931626970	0
454	79.6126987980231	39.9025025400407	0
455	79.9707024705776	43.4440796062655	0
456	81.2339569378551	48.0782026600603	0
457	80.2306001033178	51.0716364149379	0
458	81.2328349313016	56.1398824410645	0
459	85.1336169594535	4.80065316261828	0
460	83.4225513427807	8.51715256737377	0
461	84.5556117302837	12.0879707425572	0
462	84.8348266764567	16.3901357257392	0
463	84.4895399381242	20.8199366815607	0
464	83.7311612225113	24.1180468546065	0
465	85.2668293817739	28.9336026405305	0
466	85.3577236222569	32.1290082032558	0
467	84.3704227626425	36.8146065135061	0
468	84.8041051233007	39.8926160637908	0
469	85.0125820552828	43.2284808548223	0
470	83.6506395732710	47.4026131749743	0
471	83.4395670226630	52.2540253210448	0
472	84.6028885763674	55.8493300860565	0
473	86.9138755065675	4.24359532011309	0
474	86.9487434932419	7.40134181677929	0
475	87.1256103345576	12.9855287642278	0
476	88.7244918870360	16.4624079496631	0
477	87.7201559947748	20.3992702263688	0
478	87.3842932111220	23.7582031476399	0
479	87.7002435192238	28.3353190648103	0
480	87.2601353493426	31.8846421396863	0
481	88.6246543548436	37.1138489659591	0
482	87.6136099555312	39.0761678049681	0
483	87.5812144660664	43.9281049857653	0
484	88.5105516047500	48.4402962661362	0
485	88.1931274845129	53.0043817773054	0
486	88.6314194116093	56.2989644018915	0
487	91.3474427918699	4.26623883673479	0
488	90.9499727218723	8.32628310425758	0
489	91.8341835265205	11.2078321583347	0
490	91.6282357209037	15.4195563213881	0
491	91.4885018173328	20.1139880637312	0
492	91.2513934878980	23.4119166773042	0
493	92.7409596934340	28.0092382997155	0
494	91.1170361303822	32.6848333932812	0
495	91.8192043318605	36.3717174282466	0
496	91.3303715448507	38.9469505953447	0
497	91.2393550806033	43.3362664122912	0
498	90.5513841620955	47.7797706340757	0
499	92.0488695495978	52.9507776146462	0
500	92.5434473855904	56.2454959557277	0
501	95.1544655501371	3.35961358624406	0
502	96.1484904983789	7.65654081567742	0
503	96.3517510806095	11.4724129840507	0
504	95.0516878555229	15.7394487460254	0
505	94.6588322487237	20.8599297898874	0
506	94.6039919135008	24.1250873836402	0
507	94.8929832226781	27.6019649074283	0
508	96.1296946542722	32.3376651136694	0
509	95.3915353624684	36.2509796647285	0
510	96.0799784771726	39.0655920331092	0
511	94.4396487325044	43.6972099799632	0
512	95.5996313771332	49.0001403280203	0
513	95.4852495236964	52.9611785755904	0
514	94.7898714117055	55.4563587871747	0
515	97.8686010087293	3.46480634710568	0
516	98.5163686361998	8.63727375865018	0
517	99.7303407081325	11.7770077674188	0
518	99.8982126884297	16.8785271436359	0
519	100.127116154386	19.8913072350589	0
520	97.8825369513107	23.9931540419294	0
521	99.5293206712386	27.7112052264541	0
522	98.0557137583628	31.7310912479563	0
523	99.3031402332072	35.9047164455311	0
524	99.6935505308290	40.4950887749067	0
525	99.7501065368467	44.5227463790238	0
526	99.1528139841674	47.6274803301030	0
527	98.4545085595909	51.9188388063245	0
528	99.6468244320272	55.7219893748362	0
529	101.914673798591	3.00873062514101	0
530	102.153489968474	9.09732248989435	0
531	101.541167058855	12.2189025207399	0
532	102.433793454157	15.8866464636554	0
533	101.590380100152	21.0730178949902	0
534	103.473001178996	24.4288665239257	0
535	101.995799304548	27.9726826882943	0
536	103.485848759961	31.6757068506695	0
537	101.657608518337	35.8442520938713	0
538	102.038128190884	39.3320949226630	0
539	101.632956505798	44.1019569403843	0
540	103.237244256841	49.0400358355316	0
541	103.116906651053	51.2884713561483	0
542	103.618693825095	56.6142543995945	0
543	107.262933818107	4.76696439398437	0
544	107.027878272003	8.92821635945041	0
545	107.469246072315	12.2970353132779	0
546	107.017062901759	16.2127675120026	0
547	105.930768175646	20.6197054104530	0
548	105.253848315300	23.4841187743743	0
549	106.862609068055	26.8820805043870	0
550	106.271469566582	31.4735483213809	0
551	106.089155407413	36.0769614804347	0
552	107.151750342846	39.3751655330193	0
553	105.327314440836	44.9377125174293	0
554	106.070870720684	47.1196416233942	0
555	105.519132026584	51.4688272360763	0
556	105.300534489851	55.9540705620876	0
557	110.450099842203	4.36585070878926	0
558	110.940032389331	8.76370583511208	0
559	109.735265217347	12.3062413721151	0
560	109.416015875960	16.6975383197922	0
561	110.925452018780	20.1646325714114	0
562	110.459245705167	23.9811573803262	0
563	110.899400443213	28.6854286078109	0
564	111.018374708533	31.8659926203439	0
565	110.992728335718	34.9744491598448	0
566	111.129341074189	41.1081395796107	0
567	109.765720146091	44.5666168450899	0
568	110.363582251185	48.1787825306331	0
569	110.734160329090	51.6230122317679	0
570	110.278175308808	56.2122163386750	0
571	114.122476075381	4.91305475581565	0
572	113.642831437870	8.77961444393319	0
573	113.686709830224	12.8375174499265	0
574	114.302536663641	15.0989516140371	0
575	112.622056657669	20.6531409100959	0
576	114.578273586851	23.7862216541354	0
577	114.194174348169	27.5611792745581	0
578	113.929875390072	30.9236424417006	0
579	114.246783606805	36.4784276584485	0
580	113.176697644143	40.7811658048482	0
581	112.998885129097	42.9767635486094	0
582	114.012630367291	47.4217459034866	0
583	114.639908297080	53.0233378835517	0
584	114.359051201801	55.1135988565236	0
585	116.993330831831	5.04111087704308	0
586	116.810904474963	7.64851730723405	0
587	117.889420823475	12.8648698407503	0
588	117.840259513049	15.4908496711560	0
589	118.144262864521	20.4875041428131	0
590	118.285431951212	22.9763724048199	0
591	116.808221906935	27.1071726648245	0
592	117.761057268240	32.8160908080747	0
593	117.601575087113	35.8278651206115	0
594	116.359349271139	40.1421391394937	0
595	116.624971534000	44.5290509584002	0
596	116.959534722643	49.0477215969377	0
597	116.903785310109	50.9977850857788	0
598	117.151933766138	55.1351626313466	0
599	120.062809909742	3.16070093831764	0
600	121.136098543041	8.68817212616836	0
601	121.381061139356	11.2274691282458	0
602	120.125468463099	16.0580377232862	0
603	120.580942237430	20.4741908725000	0
604	122.092990478799	25.1148137594889	0
605	121.877194133171	28.2510513868944	0
606	119.915090328319	31.5262057038355	0
607	121.825854032930	36.1156654688596	0
608	120.420296038604	40.0925470585175	0
609	120.849057342512	44.9104904343815	0
610	120.171103636532	47.0245955224429	0
611	120.353475751531	53.0997086559628	0
612	121.624539045285	56.9222609361508	0
613	123.728220495916	4.99795838167524	0
614	124.440196373772	8.39068886847723	0
615	124.871515208172	12.5150223064557	0
616	123.976776123955	15.0756108772369	0
617	125.114078867087	19.1713246000692	0
618	124.878013066536	24.7061824322781	0
619	124.585260025016	28.7849508957089	0
620	124.078236280495	31.0974391092604	0
621	124.468368438875	36.5817278325195	0
622	125.281579583259	39.5934757250056	0
623	123.610356286578	43.4049375552549	0
624	124.911159901580	48.7720098015393	0
625	123.710687477262	51.8214194891603	0
626	124.474292639301	56.3636329961811	0
627	129.436965623275	2.94468943069312	0
628	129.112273279874	8.54741567659785	0
629	127.315813749345	13.1311141409938	0
630	128.850547979790	15.7366329302543	0
631	127.458020502645	20.0665088878346	0
632	128.300099990270	24.6459883126020	0
633	129.171255961001	27.2320837865210	0
634	127.234660128190	32.9125437727676	0
635	129.058305198005	35.5687293087052	0
636	128.978661082027	40.4076224295289	0
637	127.637041573063	43.9072164496625	0
638	129.271848958315	48.3732383738883	0
639	128.750914208529	52.4157812809663	0
640	129.216265189505	55.4142378602634	0
641	132.483914995826	4.09941097977708	0
642	131.965655153253	7.23669590958360	0
643	132.757501910499	12.9242947496978	0
644	131.069647112280	16.1653183818514	0
645	130.921304206083	20.7849240553473	0
646	131.626561482993	25.0814099824714	0
647	131.970271311106	28.6737302885850	0
648	131.375669512474	32.1230397355922	0
649	132.124369076342	36.8481795383237	0
650	132.411803192247	39.4715801414816	0
651	132.761423716378	45.0026695470627	0
652	132.899934499585	49.1145118642132	0
653	131.858141847265	52.9488047599264	0
654	131.771887171258	54.9479251731568	0
655	135.530541837223	4.19545834377482	0
656	135.233891788198	7.82042578990047	0
657	135.546076191557	10.9668557986738	0
658	136.722361018633	16.9666362890773	0
659	135.581073204414	20.5713830205965	0
660	135.657555340480	23.0006576370251	0
661	134.578987132662	28.5049755254410	0
662	134.967140917825	31.5142702514425	0
663	136.571742096173	37.0558840556614	0
664	135.414995563991	39.2028266987415	0
665	134.762001372561	44.2209717634246	0
666	135.324987655051	47.9208182764302	0
667	134.935908067502	51.7984417003893	0
668	135.096277386366	56.8649625150297	0
669	139.653832155171	3.37459051781183	0
670	140.414861459436	8.09766588445255	0
671	140.289625101933	13.0175311014760	0
672	138.319006193346	16.3485881099601	0
673	140.249662509399	18.9408666266185	0
674	138.628611400911	23.7473363147484	0
675	140.453191521424	28.8500280323589	0
676	138.938916252059	31.7461005749925	0
677	138.713960142033	36.5612915284438	0
678	140.342017384608	40.5481043744542	0
679	140.039979045716	43.3857063695172	0
680	140.298218846951	48.9634257759938	0
681	139.830052183074	51.2544523906506	0
682	140.195494240287	56.7507608668412	0
683	143.829891995295	3.79732353708239	0
684	142.675885594003	8.61455456920466	0
685	142.173150205161	11.6363230265090	0
686	143.695128158189	16.8896192740648	0
687	143.411749664920	20.8079880598424	0
688	142.844022880535	23.1632081884128	0
689	144.016423905151	28.4145715566089	0
690	144.025647373688	31.2033919418404	0
691	141.936282588061	35.7962401991598	0
692	142.491161686146	40.1135456725640	0
693	142.017376382893	44.1177625697955	0
694	143.743251232213	48.6206045169811	0
695	142.764312917696	52.5472952508230	0
696	143.184538369366	56.9267651632046	0
697	146.310973260260	3.91751423313268	0
698	147.737864006916	7.77449661079514	0
699	146.901738257273	13.0091168102009	0
700	147.047763951656	15.0807143254228	0
701	147.492610848845	20.1335503574436	0
702	146.485001193128	23.5848862349957	0
703	145.696905310707	29.0110935629589	0
704	147.510960627868	32.2702988711464	0
705	147.109172601259	35.9190386358323	0
706	147.442824681850	40.8616493566532	0
707	147.067324912620	44.5289614187930	0
708	147.124511560093	48.2028127257705	0
709	147.565565463381	51.0921480115483	0
710	146.865384054269	54.9130897201575	0
711	149.935951349361	3.05498563816063	0
712	151.458273347197	7.89804915684048	0
713	149.668482778179	11.2914572454608	0
714	149.847423115669	15.0341368591317	0
715	151.090585854557	19.6114187202396	0
716	150.947685375567	23.3800436715832	0
717	149.652662214280	27.6298421980426	0
718	150.935224437229	32.1192281958386	0
719	150.596861054666	37.0646084328175	0
720	151.388748736041	39.3799134221973	0
721	150.341724642878	43.7730019404020	0
722	150.284916357615	49.1156668183262	0
723	150.528147305805	51.9136569692615	0
724	151.423585367831	57.1014792009893	0
725	153.656958165306	3.99645439099753	0
726	153.456689479031	9.10937538384896	0
727	154.204465373192	12.0866110664168	0
728	154.557831401951	15.1654665352648	0
729	153.049727353646	19.6344619167478	0
730	153.715738108668	24.5206027729245	0
731	153.061149600446	27.8082339020161	0
732	153.586605044887	32.9655158330277	0
733	153.893678009488	35.0231474374883	0
734	153.229537933324	39.7258308978951	0
735	152.999451783587	44.1481254733425	0
736	153.874662540862	48.5833080548855	0
737	153.511864573772	52.5311900535298	0
738	153.316144261672	55.7300349715299	0
739	157.688971970098	4.91990219071563	0
740	156.574300832453	7.30214631686888	0
741	158.417086255141	12.8873752015922	0
742	156.985555564244	15.4502627422243	0
743	157.499723436407	19.8037174438611	0
744	158.196544874000	22.8708089017461	0
745	157.727583556181	28.1041993719327	0
746	157.142214817949	31.6476558146549	0
747	158.275534347262	36.3309640893631	0
748	158.699678908207	40.9824837984082	0
749	156.797558426362	44.1993865400388	0
750	156.586598858400	47.4557807416275	0
751	157.489441082895	52.9091937074242	0
752	156.676384209033	54.9025597296176	0
753	160.482218845908	3.38148529816549	0
754	160.406779873660	8.49298199461360	0
755	160.725657997108	11.0898372028569	0
756	160.676790829639	16.4933441961811	0
757	161.582965756748	19.4079905560266	0
758	161.093562525988	23.8018573886461	0
759	161.848684973994	27.5213353365091	0
760	162.381998736090	31.2080265747676	0
761	161.902150102241	35.5676235909874	0
762	160.375685829142	40.3033464977833	0
763	162.169798060877	42.9147131230412	0
764	161.021371436089	48.2822514781337	0
765	162.008517259628	51.3184416477080	0
766	161.984375036620	55.7659791473393	0
767	164.616620096731	3.92232290223691	0
768	166.022961975312	8.67825381903370	0
769	165.746752878513	11.3657614377458	0
770	165.293549620736	15.7326289350987	0
771	164.535392837404	20.9247466233321	0
772	165.265985448737	23.1449604935046	0
773	166.110510940814	26.9657824385948	0
774	164.645386662236	32.4310247878619	0
775	164.408136302626	35.5410699486042	0
776	163.864256737703	41.1288266303274	0
777	165.930435346955	43.2814840838340	0
778	165.289936701211	48.1253646573357	0
779	165.650682774026	52.2075480735047	0
780	165.565404857005	55.9978103789071	0
781	168.932409123315	3.91488724495297	0
782	167.946946013864	7.21064280687320	0
783	169.447754446377	11.4511337122745	0
784	169.157681687881	16.5055356601957	0
785	169.011755428347	21.1283426062343	0
786	168.923110080002	24.1257364891293	0
787	169.516391702090	28.3266239046103	0
788	169.332007567254	32.4110264588654	0
789	169.176850169123	37.0293684766059	0
790	168.460148157480	39.6962860083766	0
791	169.797978164904	43.9300321389001	0
792	168.948119547505	47.1555622896810	0
793	168.332868412375	51.0447779374912	0
794	167.945403721851	56.1000433180841	0
795	171.926196627862	4.39170402930120	0
796	171.777756150532	8.78089159681846	0
797	173.336047760566	12.2235208723971	0
798	173.226524935538	15.0052099617374	0
799	173.442818285863	20.5402378726606	0
800	173.361934254404	23.2124985735894	0
801	173.184014925492	27.0568279063284	0
802	171.565514185562	30.9747611991588	0
803	171.530152929438	35.0461339430026	0
804	172.673879522963	39.3482255816901	0
805	172.992783382645	43.7466149523649	0
806	171.361050003146	47.5180220416811	0
807	171.752551420995	51.2036915940865	0
808	171.221027816476	56.3042051238021	0
809	175.391988523671	3.12180665323244	0
810	175.442713557484	8.53304475453940	0
811	176.937023596088	12.8866348168889	0
812	175.698894683389	15.8702184473809	0
813	174.949816441325	19.7910535280761	0
814	176.342885898568	23.8041638456638	0
815	176.719194260017	28.8608999743164	0
816	175.053743132528	32.0618704881437	0
817	174.889453773119	35.1537529518603	0
818	175.694504387277	39.3442373861004	0
819	175.801690377597	43.2458298973191	0
820	175.809091188295	47.6697454755705	0
821	175.916742987836	51.6921023442873	0
822	175.922722876940	56.1174763501951	0
823	179.776145072876	3.16193241792514	0
824	179.740982677529	8.47827273732025	0
825	179.684154088202	11.6703449467190	0
826	180.305669333835	16.3343562602597	0
827	179.189196117766	19.8301464911954	0
828	179.781472189208	24.5849976362543	0
829	179.836402765380	27.4156825379912	0
830	178.993525600858	31.2917426839466	0
831	179.792236434102	35.2105673460362	0
832	179.016768910813	41.1166724296513	0
833	179.778414249584	45.0791752776327	0
834	178.688627862831	48.9595592825569	0
835	180.486069117735	51.8892967949298	0
836	179.003735408143	55.3221068424825	0
837	182.739167767256	3.71712782493107	0
838	183.061868658441	8.55278803358992	0
839	182.849955052753	12.9118191992285	0
840	183.902845559169	16.8194155895062	0
841	182.921728745076	21.0759240502972	0
842	182.440769957236	23.2077694210953	0
843	184.029269553657	27.1433274528177	0
844	182.769689801340	31.3039276499962	0
845	183.342210202203	35.4490201456043	0
846	182.287279926286	40.5187131606433	0
847	183.615662001173	43.3711306635485	0
848	183.077455240504	48.2206052268712	0
849	182.897483809584	51.2591081325012	0
850	182.951533856370	56.1710000267363	0
851	187.981137474142	3.90675587894738	0
852	186.927230923439	8.87052982965887	0
853	185.863515388163	10.8781349207405	0
854	187.513265013515	15.6985868538087	0
855	186.771495324429	19.2333025406429	0
856	185.915466113633	23.0367871939032	0
857	187.313128671048	28.9119325080155	0
858	186.862129415601	31.8360765930340	0
859	187.208618043498	36.1056549921418	0
860	187.268213470766	39.0612153069221	0
861	186.895648332708	44.2020859805266	0
862	185.974939164936	47.7905964735552	0
863	187.499429005272	52.2559225258575	0
864	187.545801183243	54.9550737760302	0
865	190.450246527939	2.97239940681279	0
866	189.646896349253	7.90320882872015	0
867	191.685112060982	12.7263785265781	0
868	191.524577174118	16.4520486275574	0
869	191.411510671454	20.1135390657750	0
870	190.549902645088	23.3201167947782	0
871	191.540689958551	28.3136852767535	0
872	191.470771733141	30.9664012126296	0
873	191.002515425072	36.5018193577230	0
874	190.682087013299	39.8279219355787	0
875	189.702842936380	44.0358976925122	0
876	190.353877337845	48.9349612062229	0
877	190.055358342328	52.5674904494106	0
878	191.485462124236	57.0504311409841	0
879	194.638841172066	4.58508861234502	0
880	194.859502940617	7.85925601224230	0
881	193.552128548098	11.8988320861202	0
882	195.355512120027	16.0263311984513	0
883	194.106965630672	19.3944179581455	0
884	194.586547771225	23.8628902371915	0
885	195.011886518408	27.1912031450403	0
886	194.757006352994	32.0531682974217	0
887	193.196797234531	35.7812984788679	0
888	194.339374957614	38.9883024160493	0
889	195.437289384619	43.6915646890197	0
890	193.212608836029	47.0874459782215	0
891	193.289731638899	52.2499913055635	0
892	193.431797810180	55.3712093341431	0
893	198.235073301790	4.18337831530623	0
894	196.968358008312	7.61470007335116	0
895	197.822392117114	12.5603544736812	0
896	197.672334745628	16.6401743919288	0
897	198.449362668588	19.1341815655664	0
898	197.688508359967	23.8431172519344	0
899	197.601162393257	27.1937640877263	0
900	198.403454187023	31.0895665961052	0
901	198.189256946287	36.0310882942213	0
902	197.409977966899	39.2840369756080	0
903	197.715535166223	44.5121213262533	0
904	197.328775557088	46.9511231601498	0
905	197.451322981870	51.2617412818885	0
906	198.789547257173	56.7925472122122	0
907	201.500809424593	4.74997911548835	0
908	202.023534780544	7.32701824704296	0
909	201.737756481249	11.9716466463296	0
910	202.660138555777	16.0805559687127	0
911	201.287987186823	19.3077879362444	0
912	201.350478647569	24.9415674641527	0
913	202.227018460169	27.5061801564016	0
914	202.493984616514	33.0253647305836	0
915	200.580155325359	36.4163950966980	0
916	202.461236613874	40.2680440716177	0
917	202.365989089209	44.1107816989605	0
918	201.763924794240	48.6318708220262	0
919	201.516136260110	51.3934699176450	0
920	201.899535695327	55.1283657373923	0
921	204.958479310502	3.66679941891804	0
922	205.965552216985	7.08981949966489	0
923	204.416559574960	11.7291075816304	0
924	205.224112960040	17.0866177044498	0
925	205.928820048127	20.2594077982431	0
926	205.619389015714	24.1725939987719	0
927	204.200078001165	27.8856818580975	0
928	204.235725224529	31.8767286491860	0
929	205.235250040706	35.7895893074620	0
930	204.700367130167	40.9061029116599	0
931	205.041035006944	43.8098199131139	0
932	205.199736882424	48.4095467724559	0
933	204.334652394999	50.9450922255574	0
934	205.024261950058	55.2681619956209	0
935	208.720087450962	3.07683616310138	0
936	208.548161021402	7.14796151356932	0
937	209.951120776081	11.2919353968570	0
938	208.948511472389	15.9214367870433	0
939	208.273438686195	19.2538451018619	0
940	208.538607289450	24.0478613082288	0
941	209.748593859022	28.3984880288293	0
942	209.268530328036	32.8385940505127	0
943	209.371909528879	36.5840926782131	0
944	209.264164286412	41.1008001690405	0
945	208.457289554351	43.3631145666437	0
946	209.846798352526	47.2566302371385	0
947	207.875557321036	52.9609841072955	0
948	208.693685932902	56.9069008813350	0
949	212.875745511104	3.72083392695976	0
950	213.632449901487	7.17524639156885	0
951	212.571199536289	11.1867382772669	0
952	212.494369829272	14.8787482932232	0
953	213.018939659653	20.7000141794434	0
954	213.267352952667	24.7383778285854	0
955	212.393061349020	28.9433165515305	0
956	212.562252016924	31.6566026807194	0
957	212.993570630770	35.9014243909715	0
958	213.201241570126	40.3310245826093	0
959	212.970882154943	44.3944256521472	0
960	213.309881616312	49.0818760770167	0
961	211.608419731762	52.2576973464352	0
962	211.759310215346	56.9724003263365	0
963	215.291576311746	4.97335978198657	0
964	215.561592581105	9.13145787890459	0
965	217.094892852942	11.4732637344363	0
966	216.468444357508	17.0142159004535	0
967	215.587742887361	19.1182528870665	0
968	217.330851610356	24.8410369994556	0
969	216.429173798439	27.1123049521147	0
970	217.084105875611	32.9054486793714	0
971	215.918329716868	36.3073334974941	0
972	215.725771850422	40.2295883961479	0
973	216.792524251314	43.9282133810842	0
974	216.378307342183	48.0316100976564	0
975	215.847181408801	52.1017823082133	0
976	215.259595976214	56.4324876421489	0
$EndNodes
$Elements
1054
1 15 2 101 1 1
2 15 2 102 2 2
3 15 2 102 3 3
4 15 2 101 4 4
5 1 2 201 1 1 5
6 1 2 201 1 5 6
7 1 2 201 1 6 7
8 1 2 201 1 7 8
9 1 2 201 1 8 9
10 1 2 201 1 9 10
11 1 2 201 1 10 11
12 1 2 201 1 11 12
13 1 2 201 1 12 13
14 1 2 201 1 13 14
15 1 2 201 1 14 15
16 1 2 201 1 15 16
17 1 2 201 1 16 17
18 1 2 201 1 17 18
19 1 2 201 1 18 19
20 1 2 201 1 19 20
21 1 2 201 1 20 21
22 1 2 201 1 21 22
23 1 2 201 1 22 23
24 1 2 201 1 23 24
25 1 2 201 1 24 25
26 1 2 201 1 25 26
27 1 2 201 1 26 27
28 1 2 201 1 27 28
29 1 2 201 1 28 29
30 1 2 201 1 29 30
31 1 2 201 1 30 31
32 1 2 201 1 31 32
33 1 2 201 1 32 33
34 1 2 201 1 33 34
35 1 2 201 1 34 35
36 1 2 201 1 35 36
37 1 2 201 1 36 37
38 1 2 201 1 37 38
39 1 2 201 1 38 39
40 1 2 201 1 39 40
41 1 2 201 1 40 41
42 1 2 201 1 41 42
43 1 2 201 1 42 43
44 1 2 201 1 43 44
45 1 2 201 1 44 45
46 1 2 201 1 45 46
47 1 2 201 1 46 47
48 1 2 201 1 47 48
49 1 2 201 1 48 49
50 1 2 201 1 49 50
51 1 2 201 1 50 51
52 1 2 201 1 51 52
53 1 2 201 1 52 53
54 1 2 201 1 53 54
55 1 2 201 1 54 55
56 1 2 201 1 55 56
57 1 2 201 1 56 57
58 1 2 201 1 57 58
59 1 2 201 1 58 59
60 1 2 201 1 59 60
61 1 2 201 1 60 61
62 1 2 201 1 61 62
63 1 2 201 1 62 63
64 1 2 201 1 63 2
65 1 2 102 2 2 64
66 1 2 102 2 64 65
67 1 2 102 2 65 66
68 1 2 102 2 66 67
69 1 2 102 2 67 68
70 1 2 102 2 68 69
71 1 2 102 2 69 70
72 1 2 102 2 70 71
73 1 2 102 2 71 72
74 1 2 102 2 72 73
75 1 2 102 2 73 74
76 1 2 102 2 74 75
77 1 2 102 2 75 76
78 1 2 102 2 76 77
79 1 2 102 2 77 3
80 1 2 201 3 3 78
81 1 2 201 3 78 79
82 1 2 201 3 79 80
83 1 2 201 3 80 81
84 1 2 201 3 81 82
85 1 2 201 3 82 83
86 1 2 201 3 83 84
87 1 2 201 3 84 85
88 1 2 201 3 85 86
89 1 2 201 3 86 87
90 1 2 201 3 87 88
91 1 2 201 3 88 89
92 1 2 201 3 89 90
93 1 2 201 3 90 91
94 1 2 201 3 91 92
95 1 2 201 3 92 93
96 1 2 201 3 93 94
97 1 2 201 3 94 95
98 1 2 201 3 95 96
99 1 2 201 3 96 97
100 1 2 201 3 97 98
101 1 2 201 3 98 99
102 1 2 201 3 99 100
103 1 2 201 3 100 101
104 1 2 201 3 101 102
105 1 2 201 3 102 103
106 1 2 201 3 103 104
107 1 2 201 3 104 105
108 1 2 201 3 105 106
109 1 2 201 3 106 107
110 1 2 201 3 107 108
111 1 2 201 3 108 109
112 1 2 201 3 109 110
113 1 2 201 3 110 111
114 1 2 201 3 111 112
115 1 2 201 3 112 113
116 1 2 201 3 113 114
117 1 2 201 3 114 115
118 1 2 201 3 115 116
119 1 2 201 3 116 117
120 1 2 201 3 117 118
121 1 2 201 3 118 119
122 1 2 201 3 119 120
123 1 2 201 3 120 121
124 1 2 201 3 121 122
125 1 2 201 3 122 123
126 1 2 201 3 123 124
127 1 2 201 3 124 125
128 1 2 201 3 125 126
129 1 2 201 3 126 127
130 1 2 201 3 127 128
131 1 2 201 3 128 129
132 1 2 201 3 129 130
133 1 2 201 3 130 131
134 1 2 201 3 131 132
135 1 2 201 3 132 133
136 1 2 201 3 133 134
137 1 2 201 3 134 135
138 1 2 201 3 135 136
139 1 2 201 3 136 4
140 1 2 101 4 4 137
141 1 2 101 4 137 138
142 1 2 101 4 138 139
143 1 2 101 4 139 140
144 1 2 101 4 140 141
145 1 2 103 4 141 142
146 1 2 103 4 142 143
147 1 2 103 4 143 144
148 1 2 103 4 144 145
149 1 2 103 4 145 146
150 1 2 101 4 146 147
151 1 2 101 4 147 148
152 1 2 101 4 148 149
153 1 2 101 4 149 150
154 1 2 101 4 150 1
155 3 2 1 6 1 5 151 150
156 3 2 1 6 150 151 152 149
157 3 2 1 6 149 152 153 148
158 3 2 1 6 148 153 154 147
159 3 2 1 6 147 154 155 146
160 3 2 1 6 146 155 156 145
161 3 2 1 6 145 156 157 144
162 3 2 1 6 144 157 158 143
163 3 2 1 6 143 158 159 142
164 3 2 1 6 142 159 160 141
165 3 2 1 6 141 160 161 140
166 3 2 1 6 140 161 162 139
167 3 2 1 6 139 162 163 138
168 3 2 1 6 138 163 164 137
169 3 2 1 6 137 164 136 4
170 3 2 1 6 5 6 165 151
171 3 2 1 6 151 165 166 152
172 3 2 1 6 152 166 167 153
173 3 2 1 6 153 167 168 154
174 3 2 1 6 154 168 169 155
175 3 2 1 6 155 169 170 156
176 3 2 1 6 156 170 171 157
177 3 2 1 6 157 171 172 158
178 3 2 1 6 158 172 173 159
179 3 2 1 6 159 173 174 160
180 3 2 1 6 160 174 175 161
181 3 2 1 6 161 175 176 162
182 3 2 1 6 162 176 177 163
183 3 2 1 6 163 177 178 164
184 3 2 1 6 164 178 135 136
185 3 2 1 6 6 7 179 165
186 3 2 1 6 165 179 180 166
187 3 2 1 6 166 180 181 167
188 3 2 1 6 167 181 182 168
189 3 2 1 6 168 182 183 169
190 3 2 1 6 169 183 184 170
191 3 2 1 6 170 184 185 171
192 3 2 1 6 171 185 186 172
193 3 2 1 6 172 186 187 173
194 3 2 1 6 173 187 188 174
195 3 2 1 6 174 188 189 175
196 3 2 1 6 175 189 190 176
197 3 2 1 6 176 190 191 177
198 3 2 1 6 177 191 192 178
199 3 2 1 6 178 192 134 135
200 3 2 1 6 7 8 193 179
201 3 2 1 6 179 193 194 180
202 3 2 1 6 180 194 195 181
203 3 2 1 6 181 195 196 182
204 3 2 1 6 182 196 197 183
205 3 2 1 6 183 197 198 184
206 3 2 1 6 184 198 199 185
207 3 2 1 6 185 199 200 186
208 3 2 1 6 186 200 201 187
209 3 2 1 6 187 201 202 188
210 3 2 1 6 188 202 203 189
211 3 2 1 6 189 203 204 190
212 3 2 1 6 190 204 205 191
213 3 2 1 6 191 205 206 192
214 3 2 1 6 192 206 133 134
215 3 2 1 6 8 9 207 193
216 3 2 1 6 193 207 208 194
217 3 2 1 6 194 208 209 195
218 3 2 1 6 195 209 210 196
219 3 2 1 6 196 210 211 197
220 3 2 1 6 197 211 212 198
221 3 2 1 6 198 212 213 199
222 3 2 1 6 199 213 214 200
223 3 2 1 6 200 214 215 201
224 3 2 1 6 201 215 216 202
225 3 2 1 6 202 216 217 203
226 3 2 1 6 203 217 218 204
227 3 2 1 6 204 218 219 205
228 3 2 1 6 205 219 220 206
229 3 2 1 6 206 220 132 133
230 3 2 1 6 9 10 221 207
231 3 2 1 6 207 221 222 208
232 3 2 1 6 208 222 223 209
233 3 2 1 6 209 223 224 210
234 3 2 1 6 210 224 225 211
235 3 2 1 6 211 225 226 212
236 3 2 1 6 212 226 227 213
237 3 2 1 6 213 227 228 214
238 3 2 1 6 214 228 229 215
239 3 2 1 6 215 229 230 216
240 3 2 1 6 216 230 231 217
241 3 2 1 6 217 231 232 218
242 3 2 1 6 218 232 233 219
243 3 2 1 6 219 233 234 220
244 3 2 1 6 220 234 131 132
245 3 2 1 6 10 11 235 221
246 3 2 1 6 221 235 236 222
247 3 2 1 6 222 236 237 223
248 3 2 1 6 223 237 238 224
249 3 2 1 6 224 238 239 225
250 3 2 1 6 225 239 240 226
251 3 2 1 6 226 240 241 227
252 3 2 1 6 227 241 242 228
253 3 2 1 6 228 242 243 229
254 3 2 1 6 229 243 244 230
255 3 2 1 6 230 244 245 231
256 3 2 1 6 231 245 246 232
257 3 2 1 6 232 246 247 233
258 3 2 1 6 233 247 248 234
259 3 2 1 6 234 248 130 131
260 3 2 1 6 11 12 249 235
261 3 2 1 6 235 249 250 236
262 3 2 1 6 236 250 251 237
263 3 2 1 6 237 251 252 238
264 3 2 1 6 238 252 253 239
265 3 2 1 6 239 253 254 240
266 3 2 1 6 240 254 255 241
267 3 2 1 6 241 255 256 242
268 3 2 1 6 242 256 257 243
269 3 2 1 6 243 257 258 244
270 3 2 1 6 244 258 259 245
271 3 2 1 6 245 259 260 246
272 3 2 1 6 246 260 261 247
273 3 2 1 6 247 261 262 248
274 3 2 1 6 248 262 129 130
275 3 2 1 6 12 13 263 249
276 3 2 1 6 249 263 264 250
277 3 2 1 6 250 264 265 251
278 3 2 1 6 251 265 266 252
279 3 2 1 6 252 266 267 253
280 3 2 1 6 253 267 268 254
281 3 2 1 6 254 268 269 255
282 3 2 1 6 255 269 270 256
283 3 2 1 6 256 270 271 257
284 3 2 1 6 257 271 272 258
285 3 2 1 6 258 272 273 259
286 3 2 1 6 259 273 274 260
287 3 2 1 6 260 274 275 261
288 3 2 1 6 261 275 276 262
289 3 2 1 6 262 276 128 129
290 3 2 1 6 13 14 277 263
291 3 2 1 6 263 277 278 264
292 3 2 1 6 264 278 279 265
293 3 2 1 6 265 279 280 266
294 3 2 1 6 266 280 281 267
295 3 2 1 6 267 281 282 268
296 3 2 1 6 268 282 283 269
297 3 2 1 6 269 283 284 270
298 3 2 1 6 270 284 285 271
299 3 2 1 6 271 285 286 272
300 3 2 1 6 272 286 287 273
301 3 2 1 6 273 287 288 274
302 3 2 1 6 274 288 289 275
303 3 2 1 6 275 289 290 276
304 3 2 1 6 276 290 127 128
305 3 2 1 6 14 15 291 277
306 3 2 1 6 277 291 292 278
307 3 2 1 6 278 292 293 279
308 3 2 1 6 279 293 294 280
309 3 2 1 6 280 294 295 281
310 3 2 1 6 281 295 296 282
311 3 2 1 6 282 296 297 283
312 3 2 1 6 283 297 298 284
313 3 2 1 6 284 298 299 285
314 3 2 1 6 285 299 300 286
315 3 2 1 6 286 300 301 287
316 3 2 1 6 287 301 302 288
317 3 2 1 6 288 302 303 289
318 3 2 1 6 289 303 304 290
319 3 2 1 6 290 304 126 127
320 3 2 1 6 15 16 305 291
321 3 2 1 6 291 305 306 292
322 3 2 1 6 292 306 307 293
323 3 2 1 6 293 307 308 294
324 3 2 1 6 294 308 309 295
325 3 2 1 6 295 309 310 296
326 3 2 1 6 296 310 311 297
327 3 2 1 6 297 311 312 298
328 3 2 1 6 298 312 313 299
329 3 2 1 6 299 313 314 300
330 3 2 1 6 300 314 315 301
331 3 2 1 6 301 315 316 302
332 3 2 1 6 302 316 317 303
333 3 2 1 6 303 317 318 304
334 3 2 1 6 304 318 125 126
335 3 2 1 6 16 17 319 305
336 3 2 1 6 305 319 320 306
337 3 2 1 6 306 320 321 307
338 3 2 1 6 307 321 322 308
339 3 2 1 6 308 322 323 309
340 3 2 1 6 309 323 324 310
341 3 2 1 6 310 324 325 311
342 3 2 1 6 311 325 326 312
343 3 2 1 6 312 326 327 313
344 3 2 1 6 313 327 328 314
345 3 2 1 6 314 328 329 315
346 3 2 1 6 315 329 330 316
347 3 2 1 6 316 330 331 317
348 3 2 1 6 317 331 332 318
349 3 2 1 6 318 332 124 125
350 3 2 1 6 17 18 333 319
351 3 2 1 6 319 333 334 320
352 3 2 1 6 320 334 335 321
353 3 2 1 6 321 335 336 322
354 3 2 1 6 322 336 337 323
355 3 2 1 6 323 337 338 324
356 3 2 1 6 324 338 339 325
357 3 2 1 6 325 339 340 326
358 3 2 1 6 326 340 341 327
359 3 2 1 6 327 341 342 328
360 3 2 1 6 328 342 343 329
361 3 2 1 6 329 343 344 330
362 3 2 1 6 330 344 345 331
363 3 2 1 6 331 345 346 332
364 3 2 1 6 332 346 123 124
365 3 2 1 6 18 19 347 333
366 3 2 1 6 333 347 348 334
367 3 2 1 6 334 348 349 335
368 3 2 1 6 335 349 350 336
369 3 2 1 6 336 350 351 337
370 3 2 1 6 337 351 352 338
371 3 2 1 6 338 352 353 339
372 3 2 1 6 339 353 354 340
373 3 2 1 6 340 354 355 341
374 3 2 1 6 341 355 356 342
375 3 2 1 6 342 356 357 343
376 3 2 1 6 343 357 358 344
377 3 2 1 6 344 358 359 345
378 3 2 1 6 345 359 360 346
379 3 2 1 6 346 360 122 123
380 3 2 1 6 19 20 361 347
381 3 2 1 6 347 361 362 348
382 3 2 1 6 348 362 363 349
383 3 2 1 6 349 363 364 350
384 3 2 1 6 350 364 365 351
385 3 2 1 6 351 365 366 352
386 3 2 1 6 352 366 367 353
387 3 2 1 6 353 367 368 354
388 3 2 1 6 354 368 369 355
389 3 2 1 6 355 369 370 356
390 3 2 1 6 356 370 371 357
391 3 2 1 6 357 371 372 358
392 3 2 1 6 358 372 373 359
393 3 2 1 6 359 373 374 360
394 3 2 1 6 360 374 121 122
395 3 2 1 6 20 21 375 361
396 3 2 1 6 361 375 376 362
397 3 2 1 6 362 376 377 363
398 3 2 1 6 363 377 378 364
399 3 2 1 6 364 378 379 365
400 3 2 1 6 365 379 380 366
401 3 2 1 6 366 380 381 367
402 3 2 1 6 367 381 382 368
403 3 2 1 6 368 382 383 369
404 3 2 1 6 369 383 384 370
405 3 2 1 6 370 384 385 371
406 3 2 1 6 371 385 386 372
407 3 2 1 6 372 386 387 373
408 3 2 1 6 373 387 388 374
409 3 2 1 6 374 388 120 121
410 3 2 1 6 21 22 389 375
411 3 2 1 6 375 389 390 376
412 3 2 1 6 376 390 391 377
413 3 2 1 6 377 391 392 378
414 3 2 1 6 378 392 393 379
415 3 2 1 6 379 393 394 380
416 3 2 1 6 380 394 395 381
417 3 2 1 6 381 395 396 382
418 3 2 1 6 382 396 397 383
419 3 2 1 6 383 397 398 384
420 3 2 1 6 384 398 399 385
421 3 2 1 6 385 399 400 386
422 3 2 1 6 386 400 401 387
423 3 2 1 6 387 401 402 388
424 3 2 1 6 388 402 119 120
425 3 2 1 6 22 23 403 389
426 3 2 1 6 389 403 404 390
427 3 2 1 6 390 404 405 391
428 3 2 1 6 391 405 406 392
429 3 2 1 6 392 406 407 393
430 3 2 1 6 393 407 408 394
431 3 2 1 6 394 408 409 395
432 3 2 1 6 395 409 410 396
433 3 2 1 6 396 410 411 397
434 3 2 1 6 397 411 412 398
435 3 2 1 6 398 412 413 399
436 3 2 1 6 399 413 414 400
437 3 2 1 6 400 414 415 401
438 3 2 1 6 401 415 416 402
439 3 2 1 6 402 416 118 119
440 3 2 1 6 23 24 417 403
441 3 2 1 6 403 417 418 404
442 3 2 1 6 404 418 419 405
443 3 2 1 6 405 419 420 406
444 3 2 1 6 406 420 421 407
445 3 2 1 6 407 421 422 408
446 3 2 1 6 408 422 423 409
447 3 2 1 6 409 423 424 410
448 3 2 1 6 410 424 425 411
449 3 2 1 6 411 425 426 412
450 3 2 1 6 412 426 427 413
451 3 2 1 6 413 427 428 414
452 3 2 1 6 414 428 429 415
453 3 2 1 6 415 429 430 416
454 3 2 1 6 416 430 117 118
455 3 2 1 6 24 25 431 417
456 3 2 1 6 417 431 432 418
457 3 2 1 6 418 432 433 419
458 3 2 1 6 419 433 434 420
459 3 2 1 6 420 434 435 421
460 3 2 1 6 421 435 436 422
461 3 2 1 6 422 436 437 423
462 3 2 1 6 423 437 438 424
463 3 2 1 6 424 438 439 425
464 3 2 1 6 425 439 440 426
465 3 2 1 6 426 440 441 427
466 3 2 1 6 427 441 442 428
467 3 2 1 6 428 442 443 429
468 3 2 1 6 429 443 444 430
469 3 2 1 6 430 444 116 117
470 3 2 1 6 25 26 445 431
471 3 2 1 6 431 445 446 432
472 3 2 1 6 432 446 447 433
473 3 2 1 6 433 447 448 434
474 3 2 1 6 434 448 449 435
475 3 2 1 6 435 449 450 436
476 3 2 1 6 436 450 451 437
477 3 2 1 6 437 451 452 438
478 3 2 1 6 438 452 453 439
479 3 2 1 6 439 453 454 440
480 3 2 1 6 440 454 455 441
481 3 2 1 6 441 455 456 442
482 3 2 1 6 442 456 457 443
483 3 2 1 6 443 457 458 444
484 3 2 1 6 444 458 115 116
485 3 2 1 6 26 27 459 445
486 3 2 1 6 445 459 460 446
487 3 2 1 6 446 460 461 447
488 3 2 1 6 447 461 462 448
489 3 2 1 6 448 462 463 449
490 3 2 1 6 449 463 464 450
491 3 2 1 6 450 464 465 451
492 3 2 1 6 451 465 466 452
493 3 2 1 6 452 466 467 453
494 3 2 1 6 453 467 468 454
495 3 2 1 6 454 468 469 455
496 3 2 1 6 455 469 470 456
497 3 2 1 6 456 470 471 457
498 3 2 1 6 457 471 472 458
499 3 2 1 6 458 472 114 115
500 3 2 1 6 27 28 473 459
501 3 2 1 6 459 473 474 460
502 3 2 1 6 460 474 475 461
503 3 2 1 6 461 475 476 462
504 3 2 1 6 462 476 477 463
505 3 2 1 6 463 477 478 464
506 3 2 1 6 464 478 479 465
507 3 2 1 6 465 479 480 466
508 3 2 1 6 466 480 481 467
509 3 2 1 6 467 481 482 468
510 3 2 1 6 468 482 483 469
511 3 2 1 6 469 483 484 470
512 3 2 1 6 470 484 485 471
513 3 2 1 6 471 485 486 472
514 3 2 1 6 472 486 113 114
515 3 2 1 6 28 29 487 473
516 3 2 1 6 473 487 488 474
517 3 2 1 6 474 488 489 475
518 3 2 1 6 475 489 490 476
519 3 2 1 6 476 490 491 477
520 3 2 1 6 477 491 492 478
521 3 2 1 6 478 492 493 479
522 3 2 1 6 479 493 494 480
523 3 2 1 6 480 494 495 481
524 3 2 1 6 481 495 496 482
525 3 2 1 6 482 496 497 483
526 3 2 1 6 483 497 498 484
527 3 2 1 6 484 498 499 485
528 3 2 1 6 485 499 500 486
529 3 2 1 6 486 500 112 113
530 3 2 1 6 29 30 501 487
531 3 2 1 6 487 501 502 488
532 3 2 1 6 488 502 503 489
533 3 2 1 6 489 503 504 490
534 3 2 1 6 490 504 505 491
535 3 2 1 6 491 505 506 492
536 3 2 1 6 492 506 507 493
537 3 2 1 6 493 507 508 494
538 3 2 1 6 494 508 509 495
539 3 2 1 6 495 509 510 496
540 3 2 1 6 496 510 511 497
541 3 2 1 6 497 511 512 498
542 3 2 1 6 498 512 513 499
543 3 2 1 6 499 513 514 500
544 3 2 1 6 500 514 111 112
545 3 2 1 6 30 31 515 501
546 3 2 1 6 501 515 516 502
547 3 2 1 6 502 516 517 503
548 3 2 1 6 503 517 518 504
549 3 2 1 6 504 518 519 505
550 3 2 1 6 505 519 520 506
551 3 2 1 6 506 520 521 507
552 3 2 1 6 507 521 522 508
553 3 2 1 6 508 522 523 509
554 3 2 1 6 509 523 524 510
555 3 2 1 6 510 524 525 511
556 3 2 1 6 511 525 526 512
557 3 2 1 6 512 526 527 513
558 3 2 1 6 513 527 528 514
559 3 2 1 6 514 528 110 111
560 3 2 1 6 31 32 529 515
561 3 2 1 6 515 529 530 516
562 3 2 1 6 516 530 531 517
563 3 2 1 6 517 531 532 518
564 3 2 1 6 518 532 533 519
565 3 2 1 6 519 533 534 520
566 3 2 1 6 520 534 535 521
567 3 2 1 6 521 535 536 522
568 3 2 1 6 522 536 537 523
569 3 2 1 6 523 537 538 524
570 3 2 1 6 524 538 539 525
571 3 2 1 6 525 539 540 526
572 3 2 1 6 526 540 541 527
573 3 2 1 6 527 541 542 528
574 3 2 1 6 528 542 109 110
575 3 2 1 6 32 33 543 529
576 3 2 1 6 529 543 544 530
577 3 2 1 6 530 544 545 531
578 3 2 1 6 531 545 546 532
579 3 2 1 6 532 546 547 533
580 3 2 1 6 533 547 548 534
581 3 2 1 6 534 548 549 535
582 3 2 1 6 535 549 550 536
583 3 2 1 6 536 550 551 537
584 3 2 1 6 537 551 552 538
585 3 2 1 6 538 552 553 539
586 3 2 1 6 539 553 554 540
587 3 2 1 6 540 554 555 541
588 3 2 1 6 541 555 556 542
589 3 2 1 6 542 556 108 109
590 3 2 1 6 33 34 557 543
591 3 2 1 6 543 557 558 544
592 3 2 1 6 544 558 559 545
593 3 2 1 6 545 559 560 546
594 3 2 1 6 546 560 561 547
595 3 2 1 6 547 561 562 548
596 3 2 1 6 548 562 563 549
597 3 2 1 6 549 563 564 550
598 3 2 1 6 550 564 565 551
599 3 2 1 6 551 565 566 552
600 3 2 1 6 552 566 567 553
601 3 2 1 6 553 567 568 554
602 3 2 1 6 554 568 569 555
603 3 2 1 6 555 569 570 556
604 3 2 1 6 556 570 107 108
605 3 2 1 6 34 35 571 557
606 3 2 1 6 557 571 572 558
607 3 2 1 6 558 572 573 559
608 3 2 1 6 559 573 574 560
609 3 2 1 6 560 574 575 561
610 3 2 1 6 561 575 576 562
611 3 2 1 6 562 576 577 563
612 3 2 1 6 563 577 578 564
613 3 2 1 6 564 578 579 565
614 3 2 1 6 565 579 580 566
615 3 2 1 6 566 580 581 567
616 3 2 1 6 567 581 582 568
617 3 2 1 6 568 582 583 569
618 3 2 1 6 569 583 584 570
619 3 2 1 6 570 584 106 107
620 3 2 1 6 35 36 585 571
621 3 2 1 6 571 585 586 572
622 3 2 1 6 572 586 587 573
623 3 2 1 6 573 587 588 574
624 3 2 1 6 574 588 589 575
625 3 2 1 6 575 589 590 576
626 3 2 1 6 576 590 591 577
627 3 2 1 6 577 591 592 578
628 3 2 1 6 578 592 593 579
629 3 2 1 6 579 593 594 580
630 3 2 1 6 580 594 595 581
631 3 2 1 6 581 595 596 582
632 3 2 1 6 582 596 597 583
633 3 2 1 6 583 597 598 584
634 3 2 1 6 584 598 105 106
635 3 2 1 6 36 37 599 585
636 3 2 1 6 585 599 600 586
637 3 2 1 6 586 600 601 587
638 3 2 1 6 587 601 602 588
639 3 2 1 6 588 602 603 589
640 3 2 1 6 589 603 604 590
641 3 2 1 6 590 604 605 591
642 3 2 1 6 591 605 606 592
643 3 2 1 6 592 606 607 593
644 3 2 1 6 593 607 608 594
645 3 2 1 6 594 608 609 595
646 3 2 1 6 595 609 610 596
647 3 2 1 6 596 610 611 597
648 3 2 1 6 597 611 612 598
649 3 2 1 6 598 612 104 105
650 3 2 1 6 37 38 613 599
651 3 2 1 6 599 613 614 600
652 3 2 1 6 600 614 615 601
653 3 2 1 6 601 615 616 602
654 3 2 1 6 602 616 617 603
655 3 2 1 6 603 617 618 604
656 3 2 1 6 604 618 619 605
657 3 2 1 6 605 619 620 606
658 3 2 1 6 606 620 621 607
659 3 2 1 6 607 621 622 608
660 3 2 1 6 608 622 623 609
661 3 2 1 6 609 623 624 610
662 3 2 1 6 610 624 625 611
663 3 2 1 6 611 625 626 612
664 3 2 1 6 612 626 103 104
665 3 2 1 6 38 39 627 613
666 3 2 1 6 613 627 628 614
667 3 2 1 6 614 628 629 615
668 3 2 1 6 615 629 630 616
669 3 2 1 6 616 630 631 617
670 3 2 1 6 617 631 632 618
671 3 2 1 6 618 632 633 619
672 3 2 1 6 619 633 634 620
673 3 2 1 6 620 634 635 621
674 3 2 1 6 621 635 636 622
675 3 2 1 6 622 636 637 623
676 3 2 1 6 623 637 638 624
677 3 2 1 6 624 638 639 625
678 3 2 1 6 625 639 640 626
679 3 2 1 6 626 640 102 103
680 3 2 1 6 39 40 641 627
681 3 2 1 6 627 641 642 628
682 3 2 1 6 628 642 643 629
683 3 2 1 6 629 643 644 630
684 3 2 1 6 630 644 645 631
685 3 2 1 6 631 645 646 632
686 3 2 1 6 632 646 647 633
687 3 2 1 6 633 647 648 634
688 3 2 1 6 634 648 649 635
689 3 2 1 6 635 649 650 636
690 3 2 1 6 636 650 651 637
691 3 2 1 6 637 651 652 638
692 3 2 1 6 638 652 653 639
693 3 2 1 6 639 653 654 640
694 3 2 1 6 640 654 101 102
695 3 2 1 6 40 41 655 641
696 3 2 1 6 641 655 656 642
697 3 2 1 6 642 656 657 643
698 3 2 1 6 643 657 658 644
699 3 2 1 6 644 658 659 645
700 3 2 1 6 645 659 660 646
701 3 2 1 6 646 660 661 647
702 3 2 1 6 647 661 662 648
703 3 2 1 6 648 662 663 649
704 3 2 1 6 649 663 664 650
705 3 2 1 6 650 664 665 651
706 3 2 1 6 651 665 666 652
707 3 2 1 6 652 666 667 653
708 3 2 1 6 653 667 668 654
709 3 2 1 6 654 668 100 101
710 3 2 1 6 41 42 669 655
711 3 2 1 6 655 669 670 656
712 3 2 1 6 656 670 671 657
713 3 2 1 6 657 671 672 658
714 3 2 1 6 658 672 673 659
715 3 2 1 6 659 673 674 660
716 3 2 1 6 660 674 675 661
717 3 2 1 6 661 675 676 662
718 3 2 1 6 662 676 677 663
719 3 2 1 6 663 677 678 664
720 3 2 1 6 664 678 679 665
721 3 2 1 6 665 679 680 666
722 3 2 1 6 666 680 681 667
723 3 2 1 6 667 681 682 668
724 3 2 1 6 668 682 99 100
725 3 2 1 6 42 43 683 669
726 3 2 1 6 669 683 684 670
727 3 2 1 6 670 684 685 671
728 3 2 1 6 671 685 686 672
729 3 2 1 6 672 686 687 673
730 3 2 1 6 673 687 688 674
731 3 2 1 6 674 688 689 675
732 3 2 1 6 675 689 690 676
733 3 2 1 6 676 690 691 677
734 3 2 1 6 677 691 692 678
735 3 2 1 6 678 692 693 679
736 3 2 1 6 679 693 694 680
737 3 2 1 6 680 694 695 681
738 3 2 1 6 681 695 696 682
739 3 2 1 6 682 696 98 99
740 3 2 1 6 43 44 697 683
741 3 2 1 6 683 697 698 684
742 3 2 1 6 684 698 699 685
743 3 2 1 6 685 699 700 686
744 3 2 1 6 686 700 701 687
745 3 2 1 6 687 701 702 688
746 3 2 1 6 688 702 703 689
747 3 2 1 6 689 703 704 690
748 3 2 1 6 690 704 705 691
749 3 2 1 6 691 705 706 692
750 3 2 1 6 692 706 707 693
751 3 2 1 6 693 707 708 694
752 3 2 1 6 694 708 709 695
753 3 2 1 6 695 709 710 696
754 3 2 1 6 696 710 97 98
755 3 2 1 6 44 45 711 697
756 3 2 1 6 697 711 712 698
757 3 2 1 6 698 712 713 699
758 3 2 1 6 699 713 714 700
759 3 2 1 6 700 714 715 701
760 3 2 1 6 701 715 716 702
761 3 2 1 6 702 716 717 703
762 3 2 1 6 703 717 718 704
763 3 2 1 6 704 718 719 705
764 3 2 1 6 705 719 720 706
765 3 2 1 6 706 720 721 707
766 3 2 1 6 707 721 722 708
767 3 2 1 6 708 722 723 709
768 3 2 1 6 709 723 724 710
769 3 2 1 6 710 724 96 97
770 3 2 1 6 45 46 725 711
771 3 2 1 6 711 725 726 712
772 3 2 1 6 712 726 727 713
773 3 2 1 6 713 727 728 714
774 3 2 1 6 714 728 729 715
775 3 2 1 6 715 729 730 716
776 3 2 1 6 716 730 731 717
777 3 2 1 6 717 731 732 718
778 3 2 1 6 718 732 733 719
779 3 2 1 6 719 733 734 720
780 3 2 1 6 720 734 735 721
781 3 2 1 6 721 735 736 722
782 3 2 1 6 722 736 737 723
783 3 2 1 6 723 737 738 724
784 3 2 1 6 724 738 95 96
785 3 2 1 6 46 47 739 725
786 3 2 1 6 725 739 740 726
787 3 2 1 6 726 740 741 727
788 3 2 1 6 727 741 742 728
789 3 2 1 6 728 742 743 729
790 3 2 1 6 729 743 744 730
791 3 2 1 6 730 744 745 731
792 3 2 1 6 731 745 746 732
793 3 2 1 6 732 746 747 733
794 3 2 1 6 733 747 748 734
795 3 2 1 6 734 748 749 735
796 3 2 1 6 735 749 750 736
797 3 2 1 6 736 750 751 737
798 3 2 1 6 737 751 752 738
799 3 2 1 6 738 752 94 95
800 3 2 1 6 47 48 753 739
801 3 2 1 6 739 753 754 740
802 3 2 1 6 740 754 755 741
803 3 2 1 6 741 755 756 742
804 3 2 1 6 742 756 757 743
805 3 2 1 6 743 757 758 744
806 3 2 1 6 744 758 759 745
807 3 2 1 6 745 759 760 746
808 3 2 1 6 746 760 761 747
809 3 2 1 6 747 761 762 748
810 3 2 1 6 748 762 763 749
811 3 2 1 6 749 763 764 750
812 3 2 1 6 750 764 765 751
813 3 2 1 6 751 765 766 752
814 3 2 1 6 752 766 93 94
815 3 2 1 6 48 49 767 753
816 3 2 1 6 753 767 768 754
817 3 2 1 6 754 768 769 755
818 3 2 1 6 755 769 770 756
819 3 2 1 6 756 770 771 757
820 3 2 1 6 757 771 772 758
821 3 2 1 6 758 772 773 759
822 3 2 1 6 759 773 774 760
823 3 2 1 6 760 774 775 761
824 3 2 1 6 761 775 776 762
825 3 2 1 6 762 776 777 763
826 3 2 1 6 763 777 778 764
827 3 2 1 6 764 778 779 765
828 3 2 1 6 765 779 780 766
829 3 2 1 6 766 780 92 93
830 3 2 1 6 49 50 781 767
831 3 2 1 6 767 781 782 768
832 3 2 1 6 768 782 783 769
833 3 2 1 6 769 783 784 770
834 3 2 1 6 770 784 785 771
835 3 2 1 6 771 785 786 772
836 3 2 1 6 772 786 787 773
837 3 2 1 6 773 787 788 774
838 3 2 1 6 774 788 789 775
839 3 2 1 6 775 789 790 776
840 3 2 1 6 776 790 791 777
841 3 2 1 6 777 791 792 778
842 3 2 1 6 778 792 793 779
843 3 2 1 6 779 793 794 780
844 3 2 1 6 780 794 91 92
845 3 2 1 6 50 51 795 781
846 3 2 1 6 781 795 796 782
847 3 2 1 6 782 796 797 783
848 3 2 1 6 783 797 798 784
849 3 2 1 6 784 798 799 785
850 3 2 1 6 785 799 800 786
851 3 2 1 6 786 800 801 787
852 3 2 1 6 787 801 802 788
853 3 2 1 6 788 802 803 789
854 3 2 1 6 789 803 804 790
855 3 2 1 6 790 804 805 791
856 3 2 1 6 791 805 806 792
857 3 2 1 6 792 806 807 793
858 3 2 1 6 793 807 808 794
859 3 2 1 6 794 808 90 91
860 3 2 1 6 51 52 809 795
861 3 2 1 6 795 809 810 796
862 3 2 1 6 796 810 811 797
863 3 2 1 6 797 811 812 798
864 3 2 1 6 798 812 813 799
865 3 2 1 6 799 813 814 800
866 3 2 1 6 800 814 815 801
867 3 2 1 6 801 815 816 802
868 3 2 1 6 802 816 817 803
869 3 2 1 6 803 817 818 804
870 3 2 1 6 804 818 819 805
871 3 2 1 6 805 819 820 806
872 3 2 1 6 806 820 821 807
873 3 2 1 6 807 821 822 808
874 3 2 1 6 808 822 89 90
875 3 2 1 6 52 53 823 809
876 3 2 1 6 809 823 824 810
877 3 2 1 6 810 824 825 811
878 3 2 1 6 811 825 826 812
879 3 2 1 6 812 826 827 813
880 3 2 1 6 813 827 828 814
881 3 2 1 6 814 828 829 815
882 3 2 1 6 815 829 830 816
883 3 2 1 6 816 830 831 817
884 3 2 1 6 817 831 832 818
885 3 2 1 6 818 832 833 819
886 3 2 1 6 819 833 834 820
887 3 2 1 6 820 834 835 821
888 3 2 1 6 821 835 836 822
889 3 2 1 6 822 836 88 89
890 3 2 1 6 53 54 837 823
891 3 2 1 6 823 837 838 824
892 3 2 1 6 824 838 839 825
893 3 2 1 6 825 839 840 826
894 3 2 1 6 826 840 841 827
895 3 2 1 6 827 841 842 828
896 3 2 1 6 828 842 843 829
897 3 2 1 6 829 843 844 830
898 3 2 1 6 830 844 845 831
899 3 2 1 6 831 845 846 832
900 3 2 1 6 832 846 847 833
901 3 2 1 6 833 847 848 834
902 3 2 1 6 834 848 849 835
903 3 2 1 6 835 849 850 836
904 3 2 1 6 836 850 87 88
905 3 2 1 6 54 55 851 837
906 3 2 1 6 837 851 852 838
907 3 2 1 6 838 852 853 839
908 3 2 1 6 839 853 854 840
909 3 2 1 6 840 854 855 841
910 3 2 1 6 841 855 856 842
911 3 2 1 6 842 856 857 843
912 3 2 1 6 843 857 858 844
913 3 2 1 6 844 858 859 845
914 3 2 1 6 845 859 860 846
915 3 2 1 6 846 860 861 847
916 3 2 1 6 847 861 862 848
917 3 2 1 6 848 862 863 849
918 3 2 1 6 849 863 864 850
919 3 2 1 6 850 864 86 87
920 3 2 1 6 55 56 865 851
921 3 2 1 6 851 865 866 852
922 3 2 1 6 852 866 867 853
923 3 2 1 6 853 867 868 854
924 3 2 1 6 854 868 869 855
925 3 2 1 6 855 869 870 856
926 3 2 1 6 856 870 871 857
927 3 2 1 6 857 871 872 858
928 3 2 1 6 858 872 873 859
929 3 2 1 6 859 873 874 860
930 3 2 1 6 860 874 875 861
931 3 2 1 6 861 875 876 862
932 3 2 1 6 862 876 877 863
933 3 2 1 6 863 877 878 864
934 3 2 1 6 864 878 85 86
935 3 2 1 6 56 57 879 865
936 3 2 1 6 865 879 880 866
937 3 2 1 6 866 880 881 867
938 3 2 1 6 867 881 882 868
939 3 2 1 6 868 882 883 869
940 3 2 1 6 869 883 884 870
941 3 2 1 6 870 884 885 871
942 3 2 1 6 871 885 886 872
943 3 2 1 6 872 886 887 873
944 3 2 1 6 873 887 888 874
945 3 2 1 6 874 888 889 875
946 3 2 1 6 875 889 890 876
947 3 2 1 6 876 890 891 877
948 3 2 1 6 877 891 892 878
949 3 2 1 6 878 892 84 85
950 3 2 1 6 57 58 893 879
951 3 2 1 6 879 893 894 880
952 3 2 1 6 880 894 895 881
953 3 2 1 6 881 895 896 882
954 3 2 1 6 882 896 897 883
955 3 2 1 6 883 897 898 884
956 3 2 1 6 884 898 899 885
957 3 2 1 6 885 899 900 886
958 3 2 1 6 886 900 901 887
959 3 2 1 6 887 901 902 888
960 3 2 1 6 888 902 903 889
961 3 2 1 6 889 903 904 890
962 3 2 1 6 890 904 905 891
963 3 2 1 6 891 905 906 892
964 3 2 1 6 892 906 83 84
965 3 2 1 6 58 59 907 893
966 3 2 1 6 893 907 908 894
967 3 2 1 6 894 908 909 895
968 3 2 1 6 895 909 910 896
969 3 2 1 6 896 910 911 897
970 3 2 1 6 897 911 912 898
971 3 2 1 6 898 912 913 899
972 3 2 1 6 899 913 914 900
973 3 2 1 6 900 914 915 901
974 3 2 1 6 901 915 916 902
975 3 2 1 6 902 916 917 903
976 3 2 1 6 903 917 918 904
977 3 2 1 6 904 918 919 905
978 3 2 1 6 905 919 920 906
979 3 2 1 6 906 920 82 83
980 3 2 1 6 59 60 921 907
981 3 2 1 6 907 921 922 908
982 3 2 1 6 908 922 923 909
983 3 2 1 6 909 923 924 910
984 3 2 1 6 910 924 925 911
985 3 2 1 6 911 925 926 912
986 3 2 1 6 912 926 927 913
987 3 2 1 6 913 927 928 914
988 3 2 1 6 914 928 929 915
989 3 2 1 6 915 929 930 916
990 3 2 1 6 916 930 931 917
991 3 2 1 6 917 931 932 918
992 3 2 1 6 918 932 933 919
993 3 2 1 6 919 933 934 920
994 3 2 1 6 920 934 81 82
995 3 2 1 6 60 61 935 921
996 3 2 1 6 921 935 936 922
997 3 2 1 6 922 936 937 923
998 3 2 1 6 923 937 938 924
999 3 2 1 6 924 938 939 925
1000 3 2 1 6 925 939 940 926
1001 3 2 1 6 926 940 941 927
1002 3 2 1 6 927 941 942 928
1003 3 2 1 6 928 942 943 929
1004 3 2 1 6 929 943 944 930
1005 3 2 1 6 930 944 945 931
1006 3 2 1 6 931 945 946 932
1007 3 2 1 6 932 946 947 933
1008 3 2 1 6 933 947 948 934
1009 3 2 1 6 934 948 80 81
1010 3 2 1 6 61 62 949 935
1011 3 2 1 6 935 949 950 936
1012 3 2 1 6 936 950 951 937
1013 3 2 1 6 937 951 952 938
1014 3 2 1 6 938 952 953 939
1015 3 2 1 6 939 953 954 940
1016 3 2 1 6 940 954 955 941
1017 3 2 1 6 941 955 956 942
1018 3 2 1 6 942 956 957 943
1019 3 2 1 6 943 957 958 944
1020 3 2 1 6 944 958 959 945
1021 3 2 1 6 945 959 960 946
1022 3 2 1 6 946 960 961 947
1023 3 2 1 6 947 961 962 948
1024 3 2 1 6 948 962 79 80
1025 3 2 1 6 62 63 963 949
1026 3 2 1 6 949 963 964 950
1027 3 2 1 6 950 964 965 951
1028 3 2 1 6 951 965 966 952
1029 3 2 1 6 952 966 967 953
1030 3 2 1 6 953 967 968 954
1031 3 2 1 6 954 968 969 955
1032 3 2 1 6 955 969 970 956
1033 3 2 1 6 956 970 971 957
1034 3 2 1 6 957 971 972 958
1035 3 2 1 6 958 972 973 959
1036 3 2 1 6 959 973 974 960
1037 3 2 1 6 960 974 975 961
1038 3 2 1 6 961 975 976 962
1039 3 2 1 6 962 976 78 79
1040 3 2 1 6 63 2 64 963
1041 3 2 1 6 963 64 65 964
1042 3 2 1 6 964 65 66 965
1043 3 2 1 6 965 66 67 966
1044 3 2 1 6 966 67 68 967
1045 3 2 1 6 967 68 69 968
1046 3 2 1 6 968 69 70 969
1047 3 2 1 6 969 70 71 970
1048 3 2 1 6 970 71 72 971
1049 3 2 1 6 971 72 73 972
1050 3 2 1 6 972 73 74 973
1051 3 2 1 6 973 74 75 974
1052 3 2 1 6 974 75 76 975
1053 3 2 1 6 975 76 77 976
1054 3 2 1 6 976 77 3 78
$EndElements
