$MeshFormat
2.2 0 8
$EndMeshFormat
$Nodes
289
1 0 0 0
2 7.62 0 0
3 15.24 0 0
4 15.24 1.587 0
5 15.24 7.62 0
6 15.24 13.716 0
7 15.24 15.24 0
8 7.62 15.24 0
9 0 15.24 0
10 0 13.487 0
11 0 7.62 0
12 0 2.4734 0
13 9.144 7.62 0
14 12.192 12.192 0
15 6.096 3.81 0
16 0.9524999999982753 0 0
17 1.904999999995465 0 0
18 2.857499999992637 0 0
19 3.809999999989896 0 0
20 4.76249999999253 0 0
21 5.714999999994904 0 0
22 6.667499999997625 0 0
23 8.572499999999435 0 0
24 9.524999999996442 0 0
25 10.4774999999931 0 0
26 11.42999999999011 0 0
27 12.38249999999267 0 0
28 13.33499999999523 0 0
29 14.28749999999779 0 0
30 15.24 0.3967499999990443 0
31 15.24 0.7934999999979253 0
32 15.24 1.190249999998974 0
33 15.24 3.095249999996294 0
34 15.24 4.603499999991804 0
35 15.24 6.111749999995989 0
36 15.24 9.143999999992451 0
37 15.24 10.66799999999185 0
38 15.24 12.19199999999748 0
39 15.24 14.097 0
40 15.24 14.478 0
41 15.24 14.859 0
42 14.28750000000057 15.24 0
43 13.33500000000356 15.24 0
44 12.3825000000062 15.24 0
45 11.43000000000885 15.24 0
46 10.47750000000698 15.24 0
47 9.525000000004424 15.24 0
48 8.572500000002558 15.24 0
49 6.66750000000193 15.24 0
50 5.715000000004728 15.24 0
51 4.762500000007524 15.24 0
52 3.810000000010234 15.24 0
53 2.857500000007736 15.24 0
54 1.90500000000515 15.24 0
55 0.9525000000025659 15.24 0
56 0 14.80175000000139 0
57 0 14.36350000000278 0
58 0 13.92525000000139 0
59 0 12.02025000000321 0
60 0 10.55350000000816 0
61 0 9.086750000004425 0
62 0 6.333350000002644 0
63 0 5.046700000006851 0
64 0 3.760050000003339 0
65 0 1.855050000001532 0
66 0 1.236700000003235 0
67 0 0.6183500000016015 0
68 7.239000000000314 0.9524999999992136 0
69 6.858000000002029 1.904999999994927 0
70 6.477000000001657 2.857499999995859 0
71 6.857999999997812 4.762499999997266 0
72 7.619999999994742 5.714999999993428 0
73 8.381999999995214 6.667499999994018 0
74 9.905999999999722 8.762999999999583 0
75 10.66799999999528 9.905999999992918 0
76 11.42999999999521 11.04899999999282 0
77 11.04899999999922 12.95400000000052 0
78 9.906000000005401 13.7159999999964 0
79 8.763000000005745 14.47799999999617 0
80 1.523999999997581 13.32512500000026 0
81 3.047999999993427 13.1632500000007 0
82 4.571999999989279 13.00137500000114 0
83 6.095999999985167 12.83950000000158 0
84 7.619999999989432 12.67762500000112 0
85 9.143999999991461 12.51575000000091 0
86 10.6679999999958 12.35387500000045 0
87 12.57300000000344 12.38250000000172 0
88 12.95400000000493 12.57300000000246 0
89 13.33500000000129 12.76350000000064 0
90 13.71599999999584 12.95399999999792 0
91 14.09699999999081 13.1444999999954 0
92 14.47799999999064 13.33499999999532 0
93 14.85899999999629 13.52549999999815 0
94 1.142999999998002 7.62 0
95 2.285999999994843 7.62 0
96 3.428999999991601 7.62 0
97 4.571999999987837 7.62 0
98 5.714999999989712 7.62 0
99 6.857999999993663 7.62 0
100 8.000999999997612 7.62 0
101 9.905999999996878 7.62 0
102 10.66799999999688 7.62 0
103 11.42999999999688 7.62 0
104 12.19199999999271 7.62 0
105 12.95399999999618 7.62 0
106 13.71599999999618 7.62 0
107 14.47799999999618 7.62 0
108 0.7619999999987924 2.640474999999735 0
109 1.523999999996766 2.807549999999291 0
110 2.285999999994669 2.974624999998831 0
111 3.047999999992572 3.141699999998371 0
112 3.809999999994629 3.308774999998823 0
113 4.571999999995764 3.475849999999071 0
114 5.333999999997891 3.642924999999538 0
115 7.238999999998718 3.532125000000312 0
116 8.381999999993814 3.254250000001504 0
117 9.524999999988728 2.976375000002741 0
118 10.66799999998657 2.698500000003266 0
119 11.8109999999923 2.420625000001871 0
120 12.95399999999148 2.142750000002071 0
121 14.09699999999722 1.864875000000677 0
122 0.9048749999984438 0.6601187500012368 0
123 0.8572499999987875 1.320237500002064 0
124 0.8096249999988703 1.980356250000624 0
125 1.809749999995869 0.7018875000008272 0
126 1.714499999996623 1.403775000000803 0
127 1.619249999996855 2.105662499999582 0
128 2.714624999993263 0.7436562500004138 0
129 2.571749999994414 1.487312499999534 0
130 2.428874999994782 2.230968749998528 0
131 3.619499999990722 0.7854250000000003 0
132 3.428999999992248 1.570849999998266 0
133 3.238499999992731 2.356274999997474 0
134 4.524374999993251 0.8271937499998147 0
135 4.286249999994848 1.654387499997453 0
136 4.04812499999514 2.481581249997102 0
137 5.429249999995355 0.8689624999995783 0
138 5.143499999996855 1.737924999996539 0
139 4.857749999996791 2.60688749999658 0
140 6.334124999997967 0.9107312499993965 0
141 6.000749999999534 1.821462499995734 0
142 5.667374999999274 2.732193749996222 0
143 8.239124999999531 0.8830312499992703 0
144 9.239249999996021 0.8135624999995471 0
145 10.23937499999221 0.7440937499998354 0
146 11.23949999998938 0.6746249999999452 0
147 12.2396249999927 0.6051562499995756 0
148 13.23974999999437 0.5356874999996045 0
149 14.23987499999769 0.4662187499992347 0
150 7.905750000000852 1.766062499995457 0
151 8.95349999999665 1.627124999996428 0
152 10.00124999999218 1.488187499997421 0
153 11.04899999998935 1.349249999998058 0
154 12.09674999999325 1.210312499997736 0
155 13.14449999999386 1.071374999998211 0
156 14.19224999999776 0.9324374999978891 0
157 7.572375000000347 2.649093749996482 0
158 8.667749999995714 2.440687499997766 0
159 9.763124999990858 2.232281249999082 0
160 10.85849999998828 2.023874999999865 0
161 11.95387499999302 1.81546874999921 0
162 13.04924999999283 1.607062499999749 0
163 14.14462499999757 1.398656249999092 0
164 7.905749999996344 4.554093749997378 0
165 8.572499999993198 5.57606249999338 0
166 9.239249999993151 6.598031249994342 0
167 8.953499999992939 4.345687499998151 0
168 9.524999999991401 5.437124999993775 0
169 10.09649999999252 6.528562499994886 0
170 10.0012499999894 4.137281249998956 0
171 10.47749999998952 5.29818749999419 0
172 10.95374999999185 6.459093749995441 0
173 11.04899999998701 3.928874999999229 0
174 11.42999999998701 5.15924999999425 0
175 11.81099999998878 6.389624999995819 0
176 12.09674999999245 3.720468749998062 0
177 12.38249999999227 5.020312499993349 0
178 12.66824999999342 6.320156249995717 0
179 13.14449999999211 3.512062499998091 0
180 13.33499999999252 4.881374999993246 0
181 13.52549999999381 6.250687499996014 0
182 14.19224999999669 3.303656249996924 0
183 14.28749999999604 4.742437499992346 0
184 14.38274999999584 6.181218749995911 0
185 10.57274999999827 8.810624999999122 0
186 11.23949999999603 10.00124999999365 0
187 11.90624999999761 11.19187499999469 0
188 11.23949999999868 8.858249999998414 0
189 11.81099999999736 10.09649999999388 0
190 12.38249999999932 11.33474999999583 0
191 11.90624999999781 8.905874999997069 0
192 12.38249999999613 10.19174999999284 0
193 12.85874999999719 11.47762499999505 0
194 12.57299999999336 8.953499999995497 0
195 12.95399999999192 10.28699999999134 0
196 13.33499999999266 11.62049999999359 0
197 13.23974999999473 9.001124999993975 0
198 13.52549999999173 10.38224999998995 0
199 13.81124999999036 11.76337499999229 0
200 13.90649999999473 9.048749999993063 0
201 14.09699999999223 10.47749999998977 0
202 14.28749999999083 11.9062499999928 0
203 14.57324999999618 9.096374999992879 0
204 14.66849999999565 10.57274999999105 0
205 14.76374999999566 12.04912499999551 0
206 11.57287500000253 13.09687500000175 0
207 10.57275000000772 13.81124999999771 0
208 9.572625000007804 14.52562499999708 0
209 12.09675000000422 13.23975000000224 0
210 11.23950000000873 13.90649999999854 0
211 10.38225000000886 14.57324999999775 0
212 12.62062500000222 13.38262500000081 0
213 11.90625000000751 14.00174999999807 0
214 11.19187500000915 14.62087499999777 0
215 13.1444999999987 13.5254999999987 0
216 12.57300000000504 14.09699999999716 0
217 12.00150000000847 14.66849999999757 0
218 13.66837499999437 13.66837499999675 0
219 13.23975000000053 14.19224999999635 0
220 12.81112500000451 14.71612499999742 0
221 14.19224999999367 13.81124999999662 0
222 13.90649999999845 14.28749999999676 0
223 13.62075000000177 14.76374999999787 0
224 14.71612499999726 13.95412499999867 0
225 14.5732499999991 14.38274999999862 0
226 14.43037500000021 14.81137499999906 0
227 9.667874999996649 13.07540625000097 0
228 8.286749999994189 13.19681250000142 0
229 6.905624999993465 13.31821875000169 0
230 5.524499999991042 13.43962500000214 0
231 4.143374999993599 13.56103125000192 0
232 2.762249999996162 13.6824375000017 0
233 1.381124999998729 13.80384375000148 0
234 8.667750000003592 13.79693749999742 0
235 7.429500000002144 13.87787499999845 0
236 6.191250000001853 13.95881249999935 0
237 4.953000000000401 14.03975000000037 0
238 3.714750000000533 14.12068750000096 0
239 2.476500000000639 14.20162500000153 0
240 1.238250000000749 14.28256250000211 0
241 7.667625000005425 14.51846874999693 0
242 6.572250000005719 14.5589374999977 0
243 5.476875000006591 14.59940624999841 0
244 4.38150000000684 14.63987499999917 0
245 3.286125000005276 14.68034374999972 0
246 2.190750000003656 14.72081250000026 0
247 1.095375000002038 14.7612812500008 0
248 1.428749999997088 11.89884375000211 0
249 1.333499999997202 10.47256250000638 0
250 1.238249999997862 9.046281250003885 0
251 2.857499999992584 11.77743750000114 0
252 2.666999999992955 10.3916250000047 0
253 2.476499999994419 9.005812500003389 0
254 4.286249999988064 11.65603125000017 0
255 4.000499999988669 10.31068750000301 0
256 3.714749999990916 8.965343750002894 0
257 5.71499999998344 11.53462499999919 0
258 5.333999999984142 10.22975000000133 0
259 4.95299999998703 8.924875000002396 0
260 7.143749999986508 11.41321874999756 0
261 6.667499999986622 10.1488124999992 0
262 6.191249999989468 8.88440625000168 0
263 8.57249999998842 11.29181249999609 0
264 8.000999999989022 10.06787499999718 0
265 7.429499999992903 8.843937500001021 0
266 10.00124999999207 11.17040624999445 0
267 9.334499999992577 9.986937499995047 0
268 8.667749999996916 8.803468750000297 0
269 1.047749999997601 6.375118750001498 0
270 2.095499999994127 6.41688750000031 0
271 3.143249999990573 6.458656249999116 0
272 4.190999999986627 6.500424999997923 0
273 5.238749999987951 6.542193749996958 0
274 6.286499999990598 6.583962499995941 0
275 7.334249999993494 6.62573124999498 0
276 0.9524999999977399 5.130237500005041 0
277 1.90499999999449 5.213775000003142 0
278 2.857499999991163 5.297312500001233 0
279 3.809999999987576 5.380849999999326 0
280 4.762499999988885 5.464387499997873 0
281 5.71499999999077 5.54792499999632 0
282 6.667499999993151 5.631462499994874 0
283 0.8572499999983213 3.885356250002382 0
284 1.714499999995738 4.010662500001288 0
285 2.571749999993081 4.135968750000185 0
286 3.428999999990294 4.261274999999082 0
287 4.286249999992032 4.38658124999866 0
288 5.143499999993598 4.511887499998088 0
289 6.000749999995906 4.637193749997677 0
$EndNodes
$Elements
399
1 15 2 101 1 1
2 15 2 101 2 2
3 15 2 101 3 3
4 15 2 101 4 4
5 15 2 101 5 5
6 15 2 101 6 6
7 15 2 101 7 7
8 15 2 102 8 8
9 15 2 101 9 9
10 15 2 101 10 10
11 15 2 101 11 11
12 15 2 101 12 12
13 15 2 101 14 13
14 15 2 101 15 14
15 15 2 101 16 15
16 1 2 101 1 1 16
17 1 2 101 1 16 17
18 1 2 101 1 17 18
19 1 2 101 1 18 19
20 1 2 101 1 19 20
21 1 2 101 1 20 21
22 1 2 101 1 21 22
23 1 2 101 1 22 2
24 1 2 101 2 2 23
25 1 2 101 2 23 24
26 1 2 101 2 24 25
27 1 2 101 2 25 26
28 1 2 101 2 26 27
29 1 2 101 2 27 28
30 1 2 101 2 28 29
31 1 2 101 2 29 3
32 1 2 101 3 3 30
33 1 2 101 3 30 31
34 1 2 101 3 31 32
35 1 2 101 3 32 4
36 1 2 101 4 4 33
37 1 2 101 4 33 34
38 1 2 101 4 34 35
39 1 2 101 4 35 5
40 1 2 101 5 5 36
41 1 2 101 5 36 37
42 1 2 101 5 37 38
43 1 2 101 5 38 6
44 1 2 101 6 6 39
45 1 2 101 6 39 40
46 1 2 101 6 40 41
47 1 2 101 6 41 7
48 1 2 102 7 7 42
49 1 2 102 7 42 43
50 1 2 102 7 43 44
51 1 2 102 7 44 45
52 1 2 102 7 45 46
53 1 2 102 7 46 47
54 1 2 102 7 47 48
55 1 2 102 7 48 8
56 1 2 102 8 8 49
57 1 2 102 8 49 50
58 1 2 102 8 50 51
59 1 2 102 8 51 52
60 1 2 102 8 52 53
61 1 2 102 8 53 54
62 1 2 102 8 54 55
63 1 2 102 8 55 9
64 1 2 101 9 9 56
65 1 2 101 9 56 57
66 1 2 101 9 57 58
67 1 2 101 9 58 10
68 1 2 101 10 10 59
69 1 2 101 10 59 60
70 1 2 101 10 60 61
71 1 2 101 10 61 11
72 1 2 101 11 11 62
73 1 2 101 11 62 63
74 1 2 101 11 63 64
75 1 2 101 11 64 12
76 1 2 101 12 12 65
77 1 2 101 12 65 66
78 1 2 101 12 66 67
79 1 2 101 12 67 1
80 1 2 0 13 2 68
81 1 2 0 13 68 69
82 1 2 0 13 69 70
83 1 2 0 13 70 15
84 1 2 0 14 15 71
85 1 2 0 14 71 72
86 1 2 0 14 72 73
87 1 2 0 14 73 13
88 1 2 0 15 13 74
89 1 2 0 15 74 75
90 1 2 0 15 75 76
91 1 2 0 15 76 14
92 1 2 0 16 14 77
93 1 2 0 16 77 78
94 1 2 0 16 78 79
95 1 2 0 16 79 8
96 1 2 0 17 10 80
97 1 2 0 17 80 81
98 1 2 0 17 81 82
99 1 2 0 17 82 83
100 1 2 0 17 83 84
101 1 2 0 17 84 85
102 1 2 0 17 85 86
103 1 2 0 17 86 14
104 1 2 0 18 14 87
105 1 2 0 18 87 88
106 1 2 0 18 88 89
107 1 2 0 18 89 90
108 1 2 0 18 90 91
109 1 2 0 18 91 92
110 1 2 0 18 92 93
111 1 2 0 18 93 6
112 1 2 0 19 11 94
113 1 2 0 19 94 95
114 1 2 0 19 95 96
115 1 2 0 19 96 97
116 1 2 0 19 97 98
117 1 2 0 19 98 99
118 1 2 0 19 99 100
119 1 2 0 19 100 13
120 1 2 0 20 13 101
121 1 2 0 20 101 102
122 1 2 0 20 102 103
123 1 2 0 20 103 104
124 1 2 0 20 104 105
125 1 2 0 20 105 106
126 1 2 0 20 106 107
127 1 2 0 20 107 5
128 1 2 0 21 12 108
129 1 2 0 21 108 109
130 1 2 0 21 109 110
131 1 2 0 21 110 111
132 1 2 0 21 111 112
133 1 2 0 21 112 113
134 1 2 0 21 113 114
135 1 2 0 21 114 15
136 1 2 0 22 15 115
137 1 2 0 22 115 116
138 1 2 0 22 116 117
139 1 2 0 22 117 118
140 1 2 0 22 118 119
141 1 2 0 22 119 120
142 1 2 0 22 120 121
143 1 2 0 22 121 4
144 3 2 0 24 1 16 122 67
145 3 2 0 24 67 122 123 66
146 3 2 0 24 66 123 124 65
147 3 2 0 24 65 124 108 12
148 3 2 0 24 16 17 125 122
149 3 2 0 24 122 125 126 123
150 3 2 0 24 123 126 127 124
151 3 2 0 24 124 127 109 108
152 3 2 0 24 17 18 128 125
153 3 2 0 24 125 128 129 126
154 3 2 0 24 126 129 130 127
155 3 2 0 24 127 130 110 109
156 3 2 0 24 18 19 131 128
157 3 2 0 24 128 131 132 129
158 3 2 0 24 129 132 133 130
159 3 2 0 24 130 133 111 110
160 3 2 0 24 19 20 134 131
161 3 2 0 24 131 134 135 132
162 3 2 0 24 132 135 136 133
163 3 2 0 24 133 136 112 111
164 3 2 0 24 20 21 137 134
165 3 2 0 24 134 137 138 135
166 3 2 0 24 135 138 139 136
167 3 2 0 24 136 139 113 112
168 3 2 0 24 21 22 140 137
169 3 2 0 24 137 140 141 138
170 3 2 0 24 138 141 142 139
171 3 2 0 24 139 142 114 113
172 3 2 0 24 22 2 68 140
173 3 2 0 24 140 68 69 141
174 3 2 0 24 141 69 70 142
175 3 2 0 24 142 70 15 114
176 3 2 0 26 2 68 143 23
177 3 2 0 26 23 143 144 24
178 3 2 0 26 24 144 145 25
179 3 2 0 26 25 145 146 26
180 3 2 0 26 26 146 147 27
181 3 2 0 26 27 147 148 28
182 3 2 0 26 28 148 149 29
183 3 2 0 26 29 149 30 3
184 3 2 0 26 68 69 150 143
185 3 2 0 26 143 150 151 144
186 3 2 0 26 144 151 152 145
187 3 2 0 26 145 152 153 146
188 3 2 0 26 146 153 154 147
189 3 2 0 26 147 154 155 148
190 3 2 0 26 148 155 156 149
191 3 2 0 26 149 156 31 30
192 3 2 0 26 69 70 157 150
193 3 2 0 26 150 157 158 151
194 3 2 0 26 151 158 159 152
195 3 2 0 26 152 159 160 153
196 3 2 0 26 153 160 161 154
197 3 2 0 26 154 161 162 155
198 3 2 0 26 155 162 163 156
199 3 2 0 26 156 163 32 31
200 3 2 0 26 70 15 115 157
201 3 2 0 26 157 115 116 158
202 3 2 0 26 158 116 117 159
203 3 2 0 26 159 117 118 160
204 3 2 0 26 160 118 119 161
205 3 2 0 26 161 119 120 162
206 3 2 0 26 162 120 121 163
207 3 2 0 26 163 121 4 32
208 3 2 0 28 15 115 164 71
209 3 2 0 28 71 164 165 72
210 3 2 0 28 72 165 166 73
211 3 2 0 28 73 166 101 13
212 3 2 0 28 115 116 167 164
213 3 2 0 28 164 167 168 165
214 3 2 0 28 165 168 169 166
215 3 2 0 28 166 169 102 101
216 3 2 0 28 116 117 170 167
217 3 2 0 28 167 170 171 168
218 3 2 0 28 168 171 172 169
219 3 2 0 28 169 172 103 102
220 3 2 0 28 117 118 173 170
221 3 2 0 28 170 173 174 171
222 3 2 0 28 171 174 175 172
223 3 2 0 28 172 175 104 103
224 3 2 0 28 118 119 176 173
225 3 2 0 28 173 176 177 174
226 3 2 0 28 174 177 178 175
227 3 2 0 28 175 178 105 104
228 3 2 0 28 119 120 179 176
229 3 2 0 28 176 179 180 177
230 3 2 0 28 177 180 181 178
231 3 2 0 28 178 181 106 105
232 3 2 0 28 120 121 182 179
233 3 2 0 28 179 182 183 180
234 3 2 0 28 180 183 184 181
235 3 2 0 28 181 184 107 106
236 3 2 0 28 121 4 33 182
237 3 2 0 28 182 33 34 183
238 3 2 0 28 183 34 35 184
239 3 2 0 28 184 35 5 107
240 3 2 0 30 13 101 185 74
241 3 2 0 30 74 185 186 75
242 3 2 0 30 75 186 187 76
243 3 2 0 30 76 187 87 14
244 3 2 0 30 101 102 188 185
245 3 2 0 30 185 188 189 186
246 3 2 0 30 186 189 190 187
247 3 2 0 30 187 190 88 87
248 3 2 0 30 102 103 191 188
249 3 2 0 30 188 191 192 189
250 3 2 0 30 189 192 193 190
251 3 2 0 30 190 193 89 88
252 3 2 0 30 103 104 194 191
253 3 2 0 30 191 194 195 192
254 3 2 0 30 192 195 196 193
255 3 2 0 30 193 196 90 89
256 3 2 0 30 104 105 197 194
257 3 2 0 30 194 197 198 195
258 3 2 0 30 195 198 199 196
259 3 2 0 30 196 199 91 90
260 3 2 0 30 105 106 200 197
261 3 2 0 30 197 200 201 198
262 3 2 0 30 198 201 202 199
263 3 2 0 30 199 202 92 91
264 3 2 0 30 106 107 203 200
265 3 2 0 30 200 203 204 201
266 3 2 0 30 201 204 205 202
267 3 2 0 30 202 205 93 92
268 3 2 0 30 107 5 36 203
269 3 2 0 30 203 36 37 204
270 3 2 0 30 204 37 38 205
271 3 2 0 30 205 38 6 93
272 3 2 0 32 14 87 206 77
273 3 2 0 32 77 206 207 78
274 3 2 0 32 78 207 208 79
275 3 2 0 32 79 208 48 8
276 3 2 0 32 87 88 209 206
277 3 2 0 32 206 209 210 207
278 3 2 0 32 207 210 211 208
279 3 2 0 32 208 211 47 48
280 3 2 0 32 88 89 212 209
281 3 2 0 32 209 212 213 210
282 3 2 0 32 210 213 214 211
283 3 2 0 32 211 214 46 47
284 3 2 0 32 89 90 215 212
285 3 2 0 32 212 215 216 213
286 3 2 0 32 213 216 217 214
287 3 2 0 32 214 217 45 46
288 3 2 0 32 90 91 218 215
289 3 2 0 32 215 218 219 216
290 3 2 0 32 216 219 220 217
291 3 2 0 32 217 220 44 45
292 3 2 0 32 91 92 221 218
293 3 2 0 32 218 221 222 219
294 3 2 0 32 219 222 223 220
295 3 2 0 32 220 223 43 44
296 3 2 0 32 92 93 224 221
297 3 2 0 32 221 224 225 222
298 3 2 0 32 222 225 226 223
299 3 2 0 32 223 226 42 43
300 3 2 0 32 93 6 39 224
301 3 2 0 32 224 39 40 225
302 3 2 0 32 225 40 41 226
303 3 2 0 32 226 41 7 42
304 3 2 0 34 14 77 227 86
305 3 2 0 34 86 227 228 85
306 3 2 0 34 85 228 229 84
307 3 2 0 34 84 229 230 83
308 3 2 0 34 83 230 231 82
309 3 2 0 34 82 231 232 81
310 3 2 0 34 81 232 233 80
311 3 2 0 34 80 233 58 10
312 3 2 0 34 77 78 234 227
313 3 2 0 34 227 234 235 228
314 3 2 0 34 228 235 236 229
315 3 2 0 34 229 236 237 230
316 3 2 0 34 230 237 238 231
317 3 2 0 34 231 238 239 232
318 3 2 0 34 232 239 240 233
319 3 2 0 34 233 240 57 58
320 3 2 0 34 78 79 241 234
321 3 2 0 34 234 241 242 235
322 3 2 0 34 235 242 243 236
323 3 2 0 34 236 243 244 237
324 3 2 0 34 237 244 245 238
325 3 2 0 34 238 245 246 239
326 3 2 0 34 239 246 247 240
327 3 2 0 34 240 247 56 57
328 3 2 0 34 79 8 49 241
329 3 2 0 34 241 49 50 242
330 3 2 0 34 242 50 51 243
331 3 2 0 34 243 51 52 244
332 3 2 0 34 244 52 53 245
333 3 2 0 34 245 53 54 246
334 3 2 0 34 246 54 55 247
335 3 2 0 34 247 55 9 56
336 3 2 0 36 10 80 248 59
337 3 2 0 36 59 248 249 60
338 3 2 0 36 60 249 250 61
339 3 2 0 36 61 250 94 11
340 3 2 0 36 80 81 251 248
341 3 2 0 36 248 251 252 249
342 3 2 0 36 249 252 253 250
343 3 2 0 36 250 253 95 94
344 3 2 0 36 81 82 254 251
345 3 2 0 36 251 254 255 252
346 3 2 0 36 252 255 256 253
347 3 2 0 36 253 256 96 95
348 3 2 0 36 82 83 257 254
349 3 2 0 36 254 257 258 255
350 3 2 0 36 255 258 259 256
351 3 2 0 36 256 259 97 96
352 3 2 0 36 83 84 260 257
353 3 2 0 36 257 260 261 258
354 3 2 0 36 258 261 262 259
355 3 2 0 36 259 262 98 97
356 3 2 0 36 84 85 263 260
357 3 2 0 36 260 263 264 261
358 3 2 0 36 261 264 265 262
359 3 2 0 36 262 265 99 98
360 3 2 0 36 85 86 266 263
361 3 2 0 36 263 266 267 264
362 3 2 0 36 264 267 268 265
363 3 2 0 36 265 268 100 99
364 3 2 0 36 86 14 76 266
365 3 2 0 36 266 76 75 267
366 3 2 0 36 267 75 74 268
367 3 2 0 36 268 74 13 100
368 3 2 0 38 11 62 269 94
369 3 2 0 38 94 269 270 95
370 3 2 0 38 95 270 271 96
371 3 2 0 38 96 271 272 97
372 3 2 0 38 97 272 273 98
373 3 2 0 38 98 273 274 99
374 3 2 0 38 99 274 275 100
375 3 2 0 38 100 275 73 13
376 3 2 0 38 62 63 276 269
377 3 2 0 38 269 276 277 270
378 3 2 0 38 270 277 278 271
379 3 2 0 38 271 278 279 272
380 3 2 0 38 272 279 280 273
381 3 2 0 38 273 280 281 274
382 3 2 0 38 274 281 282 275
383 3 2 0 38 275 282 72 73
384 3 2 0 38 63 64 283 276
385 3 2 0 38 276 283 284 277
386 3 2 0 38 277 284 285 278
387 3 2 0 38 278 285 286 279
388 3 2 0 38 279 286 287 280
389 3 2 0 38 280 287 288 281
390 3 2 0 38 281 288 289 282
391 3 2 0 38 282 289 71 72
392 3 2 0 38 64 12 108 283
393 3 2 0 38 283 108 109 284
394 3 2 0 38 284 109 110 285
395 3 2 0 38 285 110 111 286
396 3 2 0 38 286 111 112 287
397 3 2 0 38 287 112 113 288
398 3 2 0 38 288 113 114 289
399 3 2 0 38 289 114 15 71
$EndElements
