$MeshFormat
2.2 0 8
$EndMeshFormat
$Nodes
802
1 0 0 0
2 1 0 0
3 1 100 0
4 0 100 0
5 1 0.2499999999990077 0
6 1 0.4999999999980153 0
7 1 0.7499999999970231 0
8 1 0.9999999999960427 0
9 1 1.249999999995064 0
10 1 1.499999999994086 0
11 1 1.749999999993118 0
12 1 1.999999999992153 0
13 1 2.249999999991188 0
14 1 2.499999999990207 0
15 1 2.749999999989214 0
16 1 2.999999999988222 0
17 1 3.249999999987201 0
18 1 3.499999999986154 0
19 1 3.749999999985106 0
20 1 3.999999999984047 0
21 1 4.249999999982972 0
22 1 4.499999999981895 0
23 1 4.749999999980821 0
24 1 4.999999999979745 0
25 1 5.249999999978669 0
26 1 5.4999999999776 0
27 1 5.749999999976581 0
28 1 5.999999999975561 0
29 1 6.24999999997454 0
30 1 6.499999999973631 0
31 1 6.749999999972724 0
32 1 6.999999999971815 0
33 1 7.249999999970953 0
34 1 7.4999999999701 0
35 1 7.749999999969245 0
36 1 7.999999999968392 0
37 1 8.249999999967539 0
38 1 8.499999999966684 0
39 1 8.749999999965832 0
40 1 8.999999999964976 0
41 1 9.249999999964123 0
42 1 9.499999999963269 0
43 1 9.749999999962414 0
44 1 9.99999999996156 0
45 1 10.24999999996071 0
46 1 10.49999999995985 0
47 1 10.749999999959 0
48 1 10.99999999995815 0
49 1 11.24999999995729 0
50 1 11.49999999995644 0
51 1 11.74999999995557 0
52 1 11.99999999995461 0
53 1 12.24999999995364 0
54 1 12.49999999995268 0
55 1 12.74999999995149 0
56 1 12.9999999999503 0
57 1 13.24999999994911 0
58 1 13.49999999994783 0
59 1 13.74999999994653 0
60 1 13.99999999994524 0
61 1 14.24999999994394 0
62 1 14.49999999994264 0
63 1 14.74999999994134 0
64 1 14.99999999994004 0
65 1 15.24999999993875 0
66 1 15.49999999993745 0
67 1 15.74999999993615 0
68 1 15.99999999993485 0
69 1 16.24999999993355 0
70 1 16.49999999993226 0
71 1 16.74999999993096 0
72 1 16.99999999992966 0
73 1 17.24999999992836 0
74 1 17.49999999992707 0
75 1 17.74999999992577 0
76 1 17.99999999992447 0
77 1 18.24999999992317 0
78 1 18.49999999992187 0
79 1 18.74999999992058 0
80 1 18.99999999991928 0
81 1 19.24999999991798 0
82 1 19.49999999991668 0
83 1 19.74999999991538 0
84 1 19.99999999991409 0
85 1 20.24999999991279 0
86 1 20.49999999991149 0
87 1 20.74999999991019 0
88 1 20.99999999990889 0
89 1 21.24999999990759 0
90 1 21.4999999999063 0
91 1 21.749999999905 0
92 1 21.9999999999037 0
93 1 22.2499999999024 0
94 1 22.4999999999011 0
95 1 22.74999999989981 0
96 1 22.99999999989851 0
97 1 23.24999999989721 0
98 1 23.49999999989591 0
99 1 23.74999999989462 0
100 1 23.99999999989332 0
101 1 24.24999999989202 0
102 1 24.49999999989072 0
103 1 24.74999999988943 0
104 1 24.99999999988813 0
105 1 25.24999999988683 0
106 1 25.49999999988553 0
107 1 25.74999999988423 0
108 1 25.99999999988294 0
109 1 26.24999999988164 0
110 1 26.49999999988034 0
111 1 26.74999999987905 0
112 1 26.99999999987775 0
113 1 27.24999999987646 0
114 1 27.49999999987516 0
115 1 27.74999999987386 0
116 1 27.99999999987256 0
117 1 28.24999999987126 0
118 1 28.49999999986997 0
119 1 28.74999999986867 0
120 1 28.99999999986737 0
121 1 29.24999999986608 0
122 1 29.49999999986478 0
123 1 29.74999999986349 0
124 1 29.99999999986219 0
125 1 30.24999999986089 0
126 1 30.4999999998596 0
127 1 30.74999999985829 0
128 1 30.999999999857 0
129 1 31.2499999998557 0
130 1 31.49999999985484 0
131 1 31.74999999985399 0
132 1 31.99999999985314 0
133 1 32.24999999985268 0
134 1 32.49999999985227 0
135 1 32.74999999985186 0
136 1 32.99999999985145 0
137 1 33.24999999985104 0
138 1 33.49999999985063 0
139 1 33.74999999985023 0
140 1 33.99999999984981 0
141 1 34.24999999984941 0
142 1 34.499999999849 0
143 1 34.74999999984859 0
144 1 34.99999999984818 0
145 1 35.24999999984777 0
146 1 35.49999999984736 0
147 1 35.74999999984696 0
148 1 35.99999999984654 0
149 1 36.24999999984613 0
150 1 36.49999999984572 0
151 1 36.74999999984532 0
152 1 36.99999999984491 0
153 1 37.24999999984451 0
154 1 37.49999999984409 0
155 1 37.74999999984368 0
156 1 37.99999999984328 0
157 1 38.24999999984286 0
158 1 38.49999999984246 0
159 1 38.74999999984205 0
160 1 38.99999999984163 0
161 1 39.24999999984123 0
162 1 39.49999999984082 0
163 1 39.74999999984041 0
164 1 39.99999999984 0
165 1 40.2499999998396 0
166 1 40.49999999983919 0
167 1 40.74999999983878 0
168 1 40.99999999983837 0
169 1 41.24999999983796 0
170 1 41.49999999983754 0
171 1 41.74999999983714 0
172 1 41.99999999983673 0
173 1 42.24999999983633 0
174 1 42.49999999983591 0
175 1 42.7499999998355 0
176 1 42.9999999998351 0
177 1 43.24999999983469 0
178 1 43.49999999983428 0
179 1 43.74999999983388 0
180 1 43.99999999983346 0
181 1 44.24999999983305 0
182 1 44.49999999983264 0
183 1 44.74999999983223 0
184 1 44.99999999983182 0
185 1 45.24999999983142 0
186 1 45.49999999983101 0
187 1 45.7499999998306 0
188 1 45.99999999983019 0
189 1 46.24999999982978 0
190 1 46.49999999982937 0
191 1 46.74999999982896 0
192 1 46.99999999982855 0
193 1 47.24999999982815 0
194 1 47.49999999982774 0
195 1 47.74999999982732 0
196 1 47.99999999982692 0
197 1 48.24999999982651 0
198 1 48.4999999998261 0
199 1 48.7499999998257 0
200 1 48.99999999982529 0
201 1 49.24999999982488 0
202 1 49.49999999982446 0
203 1 49.74999999982406 0
204 1 49.99999999982364 0
205 1 50.24999999982324 0
206 1 50.49999999982283 0
207 1 50.74999999982243 0
208 1 50.99999999982201 0
209 1 51.2499999998216 0
210 1 51.49999999982119 0
211 1 51.74999999982079 0
212 1 51.99999999982038 0
213 1 52.24999999981998 0
214 1 52.49999999981956 0
215 1 52.74999999981915 0
216 1 52.99999999981873 0
217 1 53.24999999981834 0
218 1 53.49999999981792 0
219 1 53.74999999981751 0
220 1 53.99999999981711 0
221 1 54.24999999981669 0
222 1 54.4999999998163 0
223 1 54.74999999981588 0
224 1 54.99999999981547 0
225 1 55.24999999981506 0
226 1 55.49999999981466 0
227 1 55.74999999981425 0
228 1 55.99999999981385 0
229 1 56.24999999981343 0
230 1 56.49999999981301 0
231 1 56.74999999981261 0
232 1 56.9999999998122 0
233 1 57.2499999998118 0
234 1 57.49999999981138 0
235 1 57.74999999981097 0
236 1 57.99999999981056 0
237 1 58.24999999981016 0
238 1 58.49999999980975 0
239 1 58.74999999980933 0
240 1 58.99999999980893 0
241 1 59.24999999980851 0
242 1 59.49999999980812 0
243 1 59.7499999998077 0
244 1 59.99999999980729 0
245 1 60.24999999980688 0
246 1 60.49999999980648 0
247 1 60.74999999980607 0
248 1 60.99999999980567 0
249 1 61.24999999980525 0
250 1 61.49999999980484 0
251 1 61.74999999980443 0
252 1 61.99999999980403 0
253 1 62.24999999980362 0
254 1 62.4999999998032 0
255 1 62.7499999998028 0
256 1 62.99999999980238 0
257 1 63.24999999980199 0
258 1 63.49999999980235 0
259 1 63.74999999980283 0
260 1 63.9999999998033 0
261 1 64.24999999980444 0
262 1 64.49999999980582 0
263 1 64.74999999980719 0
264 1 64.99999999980855 0
265 1 65.24999999980992 0
266 1 65.49999999981128 0
267 1 65.74999999981266 0
268 1 65.99999999981404 0
269 1 66.24999999981539 0
270 1 66.49999999981677 0
271 1 66.74999999981812 0
272 1 66.99999999981949 0
273 1 67.24999999982086 0
274 1 67.49999999982222 0
275 1 67.7499999998236 0
276 1 67.99999999982495 0
277 1 68.24999999982634 0
278 1 68.49999999982769 0
279 1 68.74999999982907 0
280 1 68.99999999983044 0
281 1 69.2499999998318 0
282 1 69.49999999983318 0
283 1 69.74999999983453 0
284 1 69.99999999983591 0
285 1 70.24999999983727 0
286 1 70.49999999983864 0
287 1 70.74999999984001 0
288 1 70.99999999984138 0
289 1 71.24999999984274 0
290 1 71.49999999984411 0
291 1 71.74999999984547 0
292 1 71.99999999984684 0
293 1 72.24999999984821 0
294 1 72.49999999984958 0
295 1 72.74999999985094 0
296 1 72.99999999985231 0
297 1 73.24999999985369 0
298 1 73.49999999985505 0
299 1 73.74999999985641 0
300 1 73.99999999985778 0
301 1 74.24999999985916 0
302 1 74.49999999986052 0
303 1 74.74999999986189 0
304 1 74.99999999986325 0
305 1 75.24999999986461 0
306 1 75.49999999986599 0
307 1 75.74999999986736 0
308 1 75.99999999986873 0
309 1 76.24999999987008 0
310 1 76.49999999987146 0
311 1 76.74999999987281 0
312 1 76.99999999987421 0
313 1 77.24999999987557 0
314 1 77.49999999987692 0
315 1 77.7499999998783 0
316 1 77.99999999987965 0
317 1 78.24999999988104 0
318 1 78.49999999988239 0
319 1 78.74999999988377 0
320 1 78.99999999988513 0
321 1 79.2499999998865 0
322 1 79.49999999988788 0
323 1 79.74999999988924 0
324 1 79.99999999989061 0
325 1 80.24999999989197 0
326 1 80.49999999989333 0
327 1 80.74999999989471 0
328 1 80.99999999989608 0
329 1 81.24999999989744 0
330 1 81.49999999989881 0
331 1 81.74999999990017 0
332 1 81.99999999990155 0
333 1 82.24999999990291 0
334 1 82.49999999990429 0
335 1 82.74999999990564 0
336 1 82.999999999907 0
337 1 83.24999999990838 0
338 1 83.49999999990975 0
339 1 83.74999999991111 0
340 1 83.99999999991248 0
341 1 84.24999999991385 0
342 1 84.49999999991522 0
343 1 84.7499999999166 0
344 1 84.99999999991795 0
345 1 85.24999999991933 0
346 1 85.49999999992069 0
347 1 85.74999999992205 0
348 1 85.99999999992343 0
349 1 86.24999999992478 0
350 1 86.49999999992616 0
351 1 86.74999999992753 0
352 1 86.9999999999289 0
353 1 87.24999999993027 0
354 1 87.49999999993163 0
355 1 87.749999999933 0
356 1 87.99999999993436 0
357 1 88.24999999993574 0
358 1 88.4999999999371 0
359 1 88.74999999993847 0
360 1 88.99999999993983 0
361 1 89.2499999999412 0
362 1 89.49999999994257 0
363 1 89.74999999994394 0
364 1 89.9999999999453 0
365 1 90.24999999994667 0
366 1 90.49999999994803 0
367 1 90.74999999994941 0
368 1 90.99999999995077 0
369 1 91.24999999995214 0
370 1 91.4999999999535 0
371 1 91.74999999995487 0
372 1 91.99999999995625 0
373 1 92.24999999995761 0
374 1 92.49999999995899 0
375 1 92.74999999996034 0
376 1 92.99999999996172 0
377 1 93.24999999996308 0
378 1 93.49999999996444 0
379 1 93.74999999996582 0
380 1 93.99999999996717 0
381 1 94.24999999996855 0
382 1 94.49999999996992 0
383 1 94.74999999997129 0
384 1 94.99999999997264 0
385 1 95.24999999997402 0
386 1 95.49999999997539 0
387 1 95.74999999997677 0
388 1 95.99999999997813 0
389 1 96.24999999997948 0
390 1 96.49999999998086 0
391 1 96.74999999998222 0
392 1 96.9999999999836 0
393 1 97.24999999998497 0
394 1 97.49999999998633 0
395 1 97.74999999998769 0
396 1 97.99999999998906 0
397 1 98.24999999999044 0
398 1 98.4999999999918 0
399 1 98.74999999999317 0
400 1 98.99999999999453 0
401 1 99.24999999999589 0
402 1 99.49999999999727 0
403 1 99.74999999999864 0
404 0 99.75000000000178 0
405 0 99.50000000000355 0
406 0 99.25000000000533 0
407 0 99.00000000000711 0
408 0 98.75000000000888 0
409 0 98.50000000001066 0
410 0 98.25000000001243 0
411 0 98.00000000001421 0
412 0 97.75000000001599 0
413 0 97.50000000001776 0
414 0 97.25000000001954 0
415 0 97.00000000002132 0
416 0 96.75000000002309 0
417 0 96.50000000002487 0
418 0 96.25000000002665 0
419 0 96.00000000002842 0
420 0 95.7500000000302 0
421 0 95.50000000003197 0
422 0 95.25000000003375 0
423 0 95.00000000003553 0
424 0 94.7500000000373 0
425 0 94.50000000003908 0
426 0 94.25000000004086 0
427 0 94.00000000004263 0
428 0 93.75000000004441 0
429 0 93.50000000004619 0
430 0 93.25000000004796 0
431 0 93.00000000004974 0
432 0 92.75000000005151 0
433 0 92.50000000005329 0
434 0 92.25000000005507 0
435 0 92.00000000005684 0
436 0 91.75000000005862 0
437 0 91.5000000000604 0
438 0 91.25000000006217 0
439 0 91.00000000006395 0
440 0 90.75000000006573 0
441 0 90.5000000000675 0
442 0 90.25000000006928 0
443 0 90.00000000007105 0
444 0 89.75000000007283 0
445 0 89.50000000007461 0
446 0 89.25000000007638 0
447 0 89.00000000007816 0
448 0 88.75000000007994 0
449 0 88.50000000008171 0
450 0 88.25000000008349 0
451 0 88.00000000008527 0
452 0 87.75000000008704 0
453 0 87.50000000008882 0
454 0 87.25000000009059 0
455 0 87.00000000009237 0
456 0 86.75000000009415 0
457 0 86.50000000009592 0
458 0 86.2500000000977 0
459 0 86.00000000009948 0
460 0 85.75000000010125 0
461 0 85.50000000010303 0
462 0 85.25000000010481 0
463 0 85.00000000010658 0
464 0 84.75000000010836 0
465 0 84.50000000011013 0
466 0 84.25000000011191 0
467 0 84.00000000011369 0
468 0 83.75000000011546 0
469 0 83.50000000011724 0
470 0 83.25000000011902 0
471 0 83.00000000012079 0
472 0 82.75000000012257 0
473 0 82.50000000012435 0
474 0 82.25000000012612 0
475 0 82.0000000001279 0
476 0 81.75000000012967 0
477 0 81.50000000013145 0
478 0 81.25000000013323 0
479 0 81.000000000135 0
480 0 80.75000000013678 0
481 0 80.50000000013856 0
482 0 80.25000000014033 0
483 0 80.00000000014211 0
484 0 79.75000000014389 0
485 0 79.50000000014566 0
486 0 79.25000000014744 0
487 0 79.00000000014921 0
488 0 78.75000000015099 0
489 0 78.50000000015277 0
490 0 78.25000000015454 0
491 0 78.00000000015632 0
492 0 77.7500000001581 0
493 0 77.50000000015987 0
494 0 77.25000000016165 0
495 0 77.00000000016343 0
496 0 76.7500000001652 0
497 0 76.50000000016698 0
498 0 76.25000000016875 0
499 0 76.00000000017053 0
500 0 75.75000000017231 0
501 0 75.50000000017408 0
502 0 75.25000000017586 0
503 0 75.00000000017764 0
504 0 74.75000000017941 0
505 0 74.50000000018119 0
506 0 74.25000000018297 0
507 0 74.00000000018474 0
508 0 73.75000000018652 0
509 0 73.50000000018829 0
510 0 73.25000000019007 0
511 0 73.00000000019185 0
512 0 72.75000000019362 0
513 0 72.5000000001954 0
514 0 72.25000000019718 0
515 0 72.00000000019895 0
516 0 71.75000000020073 0
517 0 71.50000000020251 0
518 0 71.25000000020428 0
519 0 71.00000000020606 0
520 0 70.75000000020783 0
521 0 70.50000000020961 0
522 0 70.25000000021139 0
523 0 70.00000000021316 0
524 0 69.75000000021494 0
525 0 69.50000000021672 0
526 0 69.25000000021849 0
527 0 69.00000000022027 0
528 0 68.75000000022205 0
529 0 68.50000000022382 0
530 0 68.2500000002256 0
531 0 68.00000000022737 0
532 0 67.75000000022915 0
533 0 67.50000000023093 0
534 0 67.2500000002327 0
535 0 67.00000000023448 0
536 0 66.75000000023626 0
537 0 66.50000000023803 0
538 0 66.25000000023981 0
539 0 66.00000000024159 0
540 0 65.75000000024336 0
541 0 65.50000000024514 0
542 0 65.25000000024691 0
543 0 65.00000000024869 0
544 0 64.75000000025047 0
545 0 64.50000000025224 0
546 0 64.25000000025401 0
547 0 64.00000000025557 0
548 0 63.75000000025646 0
549 0 63.50000000025735 0
550 0 63.25000000025813 0
551 0 63.00000000025813 0
552 0 62.75000000025813 0
553 0 62.50000000025813 0
554 0 62.25000000025813 0
555 0 62.00000000025813 0
556 0 61.75000000025813 0
557 0 61.50000000025813 0
558 0 61.25000000025813 0
559 0 61.00000000025813 0
560 0 60.75000000025813 0
561 0 60.50000000025813 0
562 0 60.25000000025813 0
563 0 60.00000000025813 0
564 0 59.75000000025813 0
565 0 59.50000000025813 0
566 0 59.25000000025813 0
567 0 59.00000000025813 0
568 0 58.75000000025813 0
569 0 58.50000000025813 0
570 0 58.25000000025813 0
571 0 58.00000000025813 0
572 0 57.75000000025813 0
573 0 57.50000000025813 0
574 0 57.25000000025812 0
575 0 57.00000000025812 0
576 0 56.75000000025812 0
577 0 56.50000000025812 0
578 0 56.25000000025812 0
579 0 56.00000000025813 0
580 0 55.75000000025813 0
581 0 55.50000000025813 0
582 0 55.25000000025813 0
583 0 55.00000000025813 0
584 0 54.75000000025813 0
585 0 54.50000000025813 0
586 0 54.25000000025813 0
587 0 54.00000000025813 0
588 0 53.75000000025813 0
589 0 53.50000000025813 0
590 0 53.25000000025813 0
591 0 53.00000000025813 0
592 0 52.75000000025813 0
593 0 52.50000000025813 0
594 0 52.25000000025813 0
595 0 52.00000000025813 0
596 0 51.75000000025813 0
597 0 51.50000000025813 0
598 0 51.25000000025813 0
599 0 51.00000000025812 0
600 0 50.75000000025812 0
601 0 50.50000000025812 0
602 0 50.25000000025813 0
603 0 50.00000000025813 0
604 0 49.75000000025813 0
605 0 49.50000000025813 0
606 0 49.25000000025813 0
607 0 49.00000000025813 0
608 0 48.75000000025813 0
609 0 48.50000000025813 0
610 0 48.25000000025813 0
611 0 48.00000000025813 0
612 0 47.75000000025813 0
613 0 47.50000000025813 0
614 0 47.25000000025813 0
615 0 47.00000000025813 0
616 0 46.75000000025813 0
617 0 46.50000000025813 0
618 0 46.25000000025813 0
619 0 46.00000000025813 0
620 0 45.75000000025813 0
621 0 45.50000000025813 0
622 0 45.25000000025813 0
623 0 45.00000000025813 0
624 0 44.75000000025813 0
625 0 44.50000000025812 0
626 0 44.25000000025813 0
627 0 44.00000000025813 0
628 0 43.75000000025813 0
629 0 43.50000000025813 0
630 0 43.25000000025813 0
631 0 43.00000000025813 0
632 0 42.75000000025813 0
633 0 42.50000000025813 0
634 0 42.25000000025813 0
635 0 42.00000000025813 0
636 0 41.75000000025813 0
637 0 41.50000000025813 0
638 0 41.25000000025813 0
639 0 41.00000000025813 0
640 0 40.75000000025813 0
641 0 40.50000000025813 0
642 0 40.25000000025813 0
643 0 40.00000000025813 0
644 0 39.75000000025813 0
645 0 39.50000000025813 0
646 0 39.25000000025813 0
647 0 39.00000000025813 0
648 0 38.75000000025813 0
649 0 38.50000000025813 0
650 0 38.25000000025812 0
651 0 38.00000000025813 0
652 0 37.75000000025812 0
653 0 37.50000000025813 0
654 0 37.25000000025812 0
655 0 37.00000000025813 0
656 0 36.75000000025812 0
657 0 36.50000000025735 0
658 0 36.25000000025646 0
659 0 36.00000000025558 0
660 0 35.75000000025402 0
661 0 35.50000000025224 0
662 0 35.25000000025047 0
663 0 35.00000000024869 0
664 0 34.75000000024691 0
665 0 34.50000000024514 0
666 0 34.25000000024336 0
667 0 34.00000000024159 0
668 0 33.75000000023981 0
669 0 33.50000000023803 0
670 0 33.25000000023626 0
671 0 33.00000000023448 0
672 0 32.7500000002327 0
673 0 32.50000000023093 0
674 0 32.25000000022915 0
675 0 32.00000000022737 0
676 0 31.7500000002256 0
677 0 31.50000000022382 0
678 0 31.25000000022205 0
679 0 31.00000000022027 0
680 0 30.75000000021849 0
681 0 30.50000000021672 0
682 0 30.25000000021494 0
683 0 30.00000000021316 0
684 0 29.75000000021139 0
685 0 29.50000000020961 0
686 0 29.25000000020783 0
687 0 29.00000000020604 0
688 0 28.75000000020428 0
689 0 28.50000000020249 0
690 0 28.25000000020073 0
691 0 28.00000000019894 0
692 0 27.75000000019718 0
693 0 27.5000000001954 0
694 0 27.25000000019362 0
695 0 27.00000000019185 0
696 0 26.75000000019007 0
697 0 26.50000000018829 0
698 0 26.25000000018652 0
699 0 26.00000000018474 0
700 0 25.75000000018297 0
701 0 25.50000000018119 0
702 0 25.25000000017941 0
703 0 25.00000000017764 0
704 0 24.75000000017586 0
705 0 24.50000000017408 0
706 0 24.25000000017231 0
707 0 24.00000000017053 0
708 0 23.75000000016875 0
709 0 23.50000000016698 0
710 0 23.25000000016519 0
711 0 23.00000000016343 0
712 0 22.75000000016163 0
713 0 22.50000000015987 0
714 0 22.25000000015808 0
715 0 22.00000000015632 0
716 0 21.75000000015453 0
717 0 21.50000000015277 0
718 0 21.25000000015098 0
719 0 21.00000000014921 0
720 0 20.75000000014742 0
721 0 20.50000000014566 0
722 0 20.25000000014387 0
723 0 20.00000000014211 0
724 0 19.75000000014033 0
725 0 19.50000000013856 0
726 0 19.25000000013678 0
727 0 19.000000000135 0
728 0 18.75000000013323 0
729 0 18.50000000013145 0
730 0 18.25000000012967 0
731 0 18.0000000001279 0
732 0 17.75000000012612 0
733 0 17.50000000012435 0
734 0 17.25000000012257 0
735 0 17.00000000012079 0
736 0 16.75000000011902 0
737 0 16.50000000011723 0
738 0 16.25000000011546 0
739 0 16.00000000011367 0
740 0 15.75000000011191 0
741 0 15.50000000011012 0
742 0 15.25000000010836 0
743 0 15.00000000010657 0
744 0 14.75000000010481 0
745 0 14.50000000010301 0
746 0 14.25000000010125 0
747 0 14.00000000009946 0
748 0 13.7500000000977 0
749 0 13.50000000009591 0
750 0 13.25000000009415 0
751 0 13.00000000009236 0
752 0 12.75000000009059 0
753 0 12.5000000000888 0
754 0 12.25000000008704 0
755 0 12.00000000008527 0
756 0 11.75000000008349 0
757 0 11.50000000008171 0
758 0 11.25000000007994 0
759 0 11.00000000007816 0
760 0 10.75000000007637 0
761 0 10.50000000007461 0
762 0 10.25000000007282 0
763 0 10.00000000007105 0
764 0 9.750000000069264 0
765 0 9.500000000067502 0
766 0 9.250000000065711 0
767 0 9.000000000063949 0
768 0 8.750000000062158 0
769 0 8.500000000060396 0
770 0 8.250000000058606 0
771 0 8.000000000056843 0
772 0 7.750000000055053 0
773 0 7.500000000053291 0
774 0 7.2500000000515 0
775 0 7.000000000049738 0
776 0 6.750000000047947 0
777 0 6.500000000046185 0
778 0 6.250000000044395 0
779 0 6.000000000042633 0
780 0 5.750000000040842 0
781 0 5.50000000003908 0
782 0 5.250000000037289 0
783 0 5.000000000035527 0
784 0 4.750000000033737 0
785 0 4.500000000031974 0
786 0 4.250000000030184 0
787 0 4.000000000028408 0
788 0 3.750000000026645 0
789 0 3.500000000024855 0
790 0 3.250000000023093 0
791 0 3.000000000021302 0
792 0 2.75000000001954 0
793 0 2.500000000017749 0
794 0 2.250000000015987 0
795 0 2.000000000014197 0
796 0 1.750000000012435 0
797 0 1.500000000010644 0
798 0 1.250000000008882 0
799 0 1.000000000007091 0
800 0 0.7500000000053291 0
801 0 0.5000000000035385 0
802 0 0.2500000000017764 0
$EndNodes
$Elements
1206
1 15 2 202 1 1
2 15 2 202 2 2
3 15 2 102 3 3
4 15 2 102 4 4
5 1 2 202 1 1 2
6 1 2 201 2 2 5
7 1 2 201 2 5 6
8 1 2 201 2 6 7
9 1 2 201 2 7 8
10 1 2 201 2 8 9
11 1 2 201 2 9 10
12 1 2 201 2 10 11
13 1 2 201 2 11 12
14 1 2 201 2 12 13
15 1 2 201 2 13 14
16 1 2 201 2 14 15
17 1 2 201 2 15 16
18 1 2 201 2 16 17
19 1 2 201 2 17 18
20 1 2 201 2 18 19
21 1 2 201 2 19 20
22 1 2 201 2 20 21
23 1 2 201 2 21 22
24 1 2 201 2 22 23
25 1 2 201 2 23 24
26 1 2 201 2 24 25
27 1 2 201 2 25 26
28 1 2 201 2 26 27
29 1 2 201 2 27 28
30 1 2 201 2 28 29
31 1 2 201 2 29 30
32 1 2 201 2 30 31
33 1 2 201 2 31 32
34 1 2 201 2 32 33
35 1 2 201 2 33 34
36 1 2 201 2 34 35
37 1 2 201 2 35 36
38 1 2 201 2 36 37
39 1 2 201 2 37 38
40 1 2 201 2 38 39
41 1 2 201 2 39 40
42 1 2 201 2 40 41
43 1 2 201 2 41 42
44 1 2 201 2 42 43
45 1 2 201 2 43 44
46 1 2 201 2 44 45
47 1 2 201 2 45 46
48 1 2 201 2 46 47
49 1 2 201 2 47 48
50 1 2 201 2 48 49
51 1 2 201 2 49 50
52 1 2 201 2 50 51
53 1 2 201 2 51 52
54 1 2 201 2 52 53
55 1 2 201 2 53 54
56 1 2 201 2 54 55
57 1 2 201 2 55 56
58 1 2 201 2 56 57
59 1 2 201 2 57 58
60 1 2 201 2 58 59
61 1 2 201 2 59 60
62 1 2 201 2 60 61
63 1 2 201 2 61 62
64 1 2 201 2 62 63
65 1 2 201 2 63 64
66 1 2 201 2 64 65
67 1 2 201 2 65 66
68 1 2 201 2 66 67
69 1 2 201 2 67 68
70 1 2 201 2 68 69
71 1 2 201 2 69 70
72 1 2 201 2 70 71
73 1 2 201 2 71 72
74 1 2 201 2 72 73
75 1 2 201 2 73 74
76 1 2 201 2 74 75
77 1 2 201 2 75 76
78 1 2 201 2 76 77
79 1 2 201 2 77 78
80 1 2 201 2 78 79
81 1 2 201 2 79 80
82 1 2 201 2 80 81
83 1 2 201 2 81 82
84 1 2 201 2 82 83
85 1 2 201 2 83 84
86 1 2 201 2 84 85
87 1 2 201 2 85 86
88 1 2 201 2 86 87
89 1 2 201 2 87 88
90 1 2 201 2 88 89
91 1 2 201 2 89 90
92 1 2 201 2 90 91
93 1 2 201 2 91 92
94 1 2 201 2 92 93
95 1 2 201 2 93 94
96 1 2 201 2 94 95
97 1 2 201 2 95 96
98 1 2 201 2 96 97
99 1 2 201 2 97 98
100 1 2 201 2 98 99
101 1 2 201 2 99 100
102 1 2 201 2 100 101
103 1 2 201 2 101 102
104 1 2 201 2 102 103
105 1 2 201 2 103 104
106 1 2 201 2 104 105
107 1 2 201 2 105 106
108 1 2 201 2 106 107
109 1 2 201 2 107 108
110 1 2 201 2 108 109
111 1 2 201 2 109 110
112 1 2 201 2 110 111
113 1 2 201 2 111 112
114 1 2 201 2 112 113
115 1 2 201 2 113 114
116 1 2 201 2 114 115
117 1 2 201 2 115 116
118 1 2 201 2 116 117
119 1 2 201 2 117 118
120 1 2 201 2 118 119
121 1 2 201 2 119 120
122 1 2 201 2 120 121
123 1 2 201 2 121 122
124 1 2 201 2 122 123
125 1 2 201 2 123 124
126 1 2 201 2 124 125
127 1 2 201 2 125 126
128 1 2 201 2 126 127
129 1 2 201 2 127 128
130 1 2 201 2 128 129
131 1 2 201 2 129 130
132 1 2 201 2 130 131
133 1 2 201 2 131 132
134 1 2 201 2 132 133
135 1 2 201 2 133 134
136 1 2 201 2 134 135
137 1 2 201 2 135 136
138 1 2 201 2 136 137
139 1 2 201 2 137 138
140 1 2 201 2 138 139
141 1 2 201 2 139 140
142 1 2 201 2 140 141
143 1 2 201 2 141 142
144 1 2 201 2 142 143
145 1 2 201 2 143 144
146 1 2 201 2 144 145
147 1 2 201 2 145 146
148 1 2 201 2 146 147
149 1 2 201 2 147 148
150 1 2 201 2 148 149
151 1 2 201 2 149 150
152 1 2 201 2 150 151
153 1 2 201 2 151 152
154 1 2 201 2 152 153
155 1 2 201 2 153 154
156 1 2 201 2 154 155
157 1 2 201 2 155 156
158 1 2 201 2 156 157
159 1 2 201 2 157 158
160 1 2 201 2 158 159
161 1 2 201 2 159 160
162 1 2 201 2 160 161
163 1 2 201 2 161 162
164 1 2 201 2 162 163
165 1 2 201 2 163 164
166 1 2 201 2 164 165
167 1 2 201 2 165 166
168 1 2 201 2 166 167
169 1 2 201 2 167 168
170 1 2 201 2 168 169
171 1 2 201 2 169 170
172 1 2 201 2 170 171
173 1 2 201 2 171 172
174 1 2 201 2 172 173
175 1 2 201 2 173 174
176 1 2 201 2 174 175
177 1 2 201 2 175 176
178 1 2 201 2 176 177
179 1 2 201 2 177 178
180 1 2 201 2 178 179
181 1 2 201 2 179 180
182 1 2 201 2 180 181
183 1 2 201 2 181 182
184 1 2 201 2 182 183
185 1 2 201 2 183 184
186 1 2 201 2 184 185
187 1 2 201 2 185 186
188 1 2 201 2 186 187
189 1 2 201 2 187 188
190 1 2 201 2 188 189
191 1 2 201 2 189 190
192 1 2 201 2 190 191
193 1 2 201 2 191 192
194 1 2 201 2 192 193
195 1 2 201 2 193 194
196 1 2 201 2 194 195
197 1 2 201 2 195 196
198 1 2 201 2 196 197
199 1 2 201 2 197 198
200 1 2 201 2 198 199
201 1 2 201 2 199 200
202 1 2 201 2 200 201
203 1 2 201 2 201 202
204 1 2 201 2 202 203
205 1 2 201 2 203 204
206 1 2 201 2 204 205
207 1 2 201 2 205 206
208 1 2 201 2 206 207
209 1 2 201 2 207 208
210 1 2 201 2 208 209
211 1 2 201 2 209 210
212 1 2 201 2 210 211
213 1 2 201 2 211 212
214 1 2 201 2 212 213
215 1 2 201 2 213 214
216 1 2 201 2 214 215
217 1 2 201 2 215 216
218 1 2 201 2 216 217
219 1 2 201 2 217 218
220 1 2 201 2 218 219
221 1 2 201 2 219 220
222 1 2 201 2 220 221
223 1 2 201 2 221 222
224 1 2 201 2 222 223
225 1 2 201 2 223 224
226 1 2 201 2 224 225
227 1 2 201 2 225 226
228 1 2 201 2 226 227
229 1 2 201 2 227 228
230 1 2 201 2 228 229
231 1 2 201 2 229 230
232 1 2 201 2 230 231
233 1 2 201 2 231 232
234 1 2 201 2 232 233
235 1 2 201 2 233 234
236 1 2 201 2 234 235
237 1 2 201 2 235 236
238 1 2 201 2 236 237
239 1 2 201 2 237 238
240 1 2 201 2 238 239
241 1 2 201 2 239 240
242 1 2 201 2 240 241
243 1 2 201 2 241 242
244 1 2 201 2 242 243
245 1 2 201 2 243 244
246 1 2 201 2 244 245
247 1 2 201 2 245 246
248 1 2 201 2 246 247
249 1 2 201 2 247 248
250 1 2 201 2 248 249
251 1 2 201 2 249 250
252 1 2 201 2 250 251
253 1 2 201 2 251 252
254 1 2 201 2 252 253
255 1 2 201 2 253 254
256 1 2 201 2 254 255
257 1 2 201 2 255 256
258 1 2 201 2 256 257
259 1 2 201 2 257 258
260 1 2 201 2 258 259
261 1 2 201 2 259 260
262 1 2 201 2 260 261
263 1 2 201 2 261 262
264 1 2 201 2 262 263
265 1 2 201 2 263 264
266 1 2 201 2 264 265
267 1 2 201 2 265 266
268 1 2 201 2 266 267
269 1 2 201 2 267 268
270 1 2 201 2 268 269
271 1 2 201 2 269 270
272 1 2 201 2 270 271
273 1 2 201 2 271 272
274 1 2 201 2 272 273
275 1 2 201 2 273 274
276 1 2 201 2 274 275
277 1 2 201 2 275 276
278 1 2 201 2 276 277
279 1 2 201 2 277 278
280 1 2 201 2 278 279
281 1 2 201 2 279 280
282 1 2 201 2 280 281
283 1 2 201 2 281 282
284 1 2 201 2 282 283
285 1 2 201 2 283 284
286 1 2 201 2 284 285
287 1 2 201 2 285 286
288 1 2 201 2 286 287
289 1 2 201 2 287 288
290 1 2 201 2 288 289
291 1 2 201 2 289 290
292 1 2 201 2 290 291
293 1 2 201 2 291 292
294 1 2 201 2 292 293
295 1 2 201 2 293 294
296 1 2 201 2 294 295
297 1 2 201 2 295 296
298 1 2 201 2 296 297
299 1 2 201 2 297 298
300 1 2 201 2 298 299
301 1 2 201 2 299 300
302 1 2 201 2 300 301
303 1 2 201 2 301 302
304 1 2 201 2 302 303
305 1 2 201 2 303 304
306 1 2 201 2 304 305
307 1 2 201 2 305 306
308 1 2 201 2 306 307
309 1 2 201 2 307 308
310 1 2 201 2 308 309
311 1 2 201 2 309 310
312 1 2 201 2 310 311
313 1 2 201 2 311 312
314 1 2 201 2 312 313
315 1 2 201 2 313 314
316 1 2 201 2 314 315
317 1 2 201 2 315 316
318 1 2 201 2 316 317
319 1 2 201 2 317 318
320 1 2 201 2 318 319
321 1 2 201 2 319 320
322 1 2 201 2 320 321
323 1 2 201 2 321 322
324 1 2 201 2 322 323
325 1 2 201 2 323 324
326 1 2 201 2 324 325
327 1 2 201 2 325 326
328 1 2 201 2 326 327
329 1 2 201 2 327 328
330 1 2 201 2 328 329
331 1 2 201 2 329 330
332 1 2 201 2 330 331
333 1 2 201 2 331 332
334 1 2 201 2 332 333
335 1 2 201 2 333 334
336 1 2 201 2 334 335
337 1 2 201 2 335 336
338 1 2 201 2 336 337
339 1 2 201 2 337 338
340 1 2 201 2 338 339
341 1 2 201 2 339 340
342 1 2 201 2 340 341
343 1 2 201 2 341 342
344 1 2 201 2 342 343
345 1 2 201 2 343 344
346 1 2 201 2 344 345
347 1 2 201 2 345 346
348 1 2 201 2 346 347
349 1 2 201 2 347 348
350 1 2 201 2 348 349
351 1 2 201 2 349 350
352 1 2 201 2 350 351
353 1 2 201 2 351 352
354 1 2 201 2 352 353
355 1 2 201 2 353 354
356 1 2 201 2 354 355
357 1 2 201 2 355 356
358 1 2 201 2 356 357
359 1 2 201 2 357 358
360 1 2 201 2 358 359
361 1 2 201 2 359 360
362 1 2 201 2 360 361
363 1 2 201 2 361 362
364 1 2 201 2 362 363
365 1 2 201 2 363 364
366 1 2 201 2 364 365
367 1 2 201 2 365 366
368 1 2 201 2 366 367
369 1 2 201 2 367 368
370 1 2 201 2 368 369
371 1 2 201 2 369 370
372 1 2 201 2 370 371
373 1 2 201 2 371 372
374 1 2 201 2 372 373
375 1 2 201 2 373 374
376 1 2 201 2 374 375
377 1 2 201 2 375 376
378 1 2 201 2 376 377
379 1 2 201 2 377 378
380 1 2 201 2 378 379
381 1 2 201 2 379 380
382 1 2 201 2 380 381
383 1 2 201 2 381 382
384 1 2 201 2 382 383
385 1 2 201 2 383 384
386 1 2 201 2 384 385
387 1 2 201 2 385 386
388 1 2 201 2 386 387
389 1 2 201 2 387 388
390 1 2 201 2 388 389
391 1 2 201 2 389 390
392 1 2 201 2 390 391
393 1 2 201 2 391 392
394 1 2 201 2 392 393
395 1 2 201 2 393 394
396 1 2 201 2 394 395
397 1 2 201 2 395 396
398 1 2 201 2 396 397
399 1 2 201 2 397 398
400 1 2 201 2 398 399
401 1 2 201 2 399 400
402 1 2 201 2 400 401
403 1 2 201 2 401 402
404 1 2 201 2 402 403
405 1 2 201 2 403 3
406 1 2 102 3 3 4
407 1 2 201 4 4 404
408 1 2 201 4 404 405
409 1 2 201 4 405 406
410 1 2 201 4 406 407
411 1 2 201 4 407 408
412 1 2 201 4 408 409
413 1 2 201 4 409 410
414 1 2 201 4 410 411
415 1 2 201 4 411 412
416 1 2 201 4 412 413
417 1 2 201 4 413 414
418 1 2 201 4 414 415
419 1 2 201 4 415 416
420 1 2 201 4 416 417
421 1 2 201 4 417 418
422 1 2 201 4 418 419
423 1 2 201 4 419 420
424 1 2 201 4 420 421
425 1 2 201 4 421 422
426 1 2 201 4 422 423
427 1 2 201 4 423 424
428 1 2 201 4 424 425
429 1 2 201 4 425 426
430 1 2 201 4 426 427
431 1 2 201 4 427 428
432 1 2 201 4 428 429
433 1 2 201 4 429 430
434 1 2 201 4 430 431
435 1 2 201 4 431 432
436 1 2 201 4 432 433
437 1 2 201 4 433 434
438 1 2 201 4 434 435
439 1 2 201 4 435 436
440 1 2 201 4 436 437
441 1 2 201 4 437 438
442 1 2 201 4 438 439
443 1 2 201 4 439 440
444 1 2 201 4 440 441
445 1 2 201 4 441 442
446 1 2 201 4 442 443
447 1 2 201 4 443 444
448 1 2 201 4 444 445
449 1 2 201 4 445 446
450 1 2 201 4 446 447
451 1 2 201 4 447 448
452 1 2 201 4 448 449
453 1 2 201 4 449 450
454 1 2 201 4 450 451
455 1 2 201 4 451 452
456 1 2 201 4 452 453
457 1 2 201 4 453 454
458 1 2 201 4 454 455
459 1 2 201 4 455 456
460 1 2 201 4 456 457
461 1 2 201 4 457 458
462 1 2 201 4 458 459
463 1 2 201 4 459 460
464 1 2 201 4 460 461
465 1 2 201 4 461 462
466 1 2 201 4 462 463
467 1 2 201 4 463 464
468 1 2 201 4 464 465
469 1 2 201 4 465 466
470 1 2 201 4 466 467
471 1 2 201 4 467 468
472 1 2 201 4 468 469
473 1 2 201 4 469 470
474 1 2 201 4 470 471
475 1 2 201 4 471 472
476 1 2 201 4 472 473
477 1 2 201 4 473 474
478 1 2 201 4 474 475
479 1 2 201 4 475 476
480 1 2 201 4 476 477
481 1 2 201 4 477 478
482 1 2 201 4 478 479
483 1 2 201 4 479 480
484 1 2 201 4 480 481
485 1 2 201 4 481 482
486 1 2 201 4 482 483
487 1 2 201 4 483 484
488 1 2 201 4 484 485
489 1 2 201 4 485 486
490 1 2 201 4 486 487
491 1 2 201 4 487 488
492 1 2 201 4 488 489
493 1 2 201 4 489 490
494 1 2 201 4 490 491
495 1 2 201 4 491 492
496 1 2 201 4 492 493
497 1 2 201 4 493 494
498 1 2 201 4 494 495
499 1 2 201 4 495 496
500 1 2 201 4 496 497
501 1 2 201 4 497 498
502 1 2 201 4 498 499
503 1 2 201 4 499 500
504 1 2 201 4 500 501
505 1 2 201 4 501 502
506 1 2 201 4 502 503
507 1 2 201 4 503 504
508 1 2 201 4 504 505
509 1 2 201 4 505 506
510 1 2 201 4 506 507
511 1 2 201 4 507 508
512 1 2 201 4 508 509
513 1 2 201 4 509 510
514 1 2 201 4 510 511
515 1 2 201 4 511 512
516 1 2 201 4 512 513
517 1 2 201 4 513 514
518 1 2 201 4 514 515
519 1 2 201 4 515 516
520 1 2 201 4 516 517
521 1 2 201 4 517 518
522 1 2 201 4 518 519
523 1 2 201 4 519 520
524 1 2 201 4 520 521
525 1 2 201 4 521 522
526 1 2 201 4 522 523
527 1 2 201 4 523 524
528 1 2 201 4 524 525
529 1 2 201 4 525 526
530 1 2 201 4 526 527
531 1 2 201 4 527 528
532 1 2 201 4 528 529
533 1 2 201 4 529 530
534 1 2 201 4 530 531
535 1 2 201 4 531 532
536 1 2 201 4 532 533
537 1 2 201 4 533 534
538 1 2 201 4 534 535
539 1 2 201 4 535 536
540 1 2 201 4 536 537
541 1 2 201 4 537 538
542 1 2 201 4 538 539
543 1 2 201 4 539 540
544 1 2 201 4 540 541
545 1 2 201 4 541 542
546 1 2 201 4 542 543
547 1 2 201 4 543 544
548 1 2 201 4 544 545
549 1 2 201 4 545 546
550 1 2 201 4 546 547
551 1 2 201 4 547 548
552 1 2 201 4 548 549
553 1 2 201 4 549 550
554 1 2 201 4 550 551
555 1 2 201 4 551 552
556 1 2 201 4 552 553
557 1 2 201 4 553 554
558 1 2 201 4 554 555
559 1 2 201 4 555 556
560 1 2 201 4 556 557
561 1 2 201 4 557 558
562 1 2 201 4 558 559
563 1 2 201 4 559 560
564 1 2 201 4 560 561
565 1 2 201 4 561 562
566 1 2 201 4 562 563
567 1 2 201 4 563 564
568 1 2 201 4 564 565
569 1 2 201 4 565 566
570 1 2 201 4 566 567
571 1 2 201 4 567 568
572 1 2 201 4 568 569
573 1 2 201 4 569 570
574 1 2 201 4 570 571
575 1 2 201 4 571 572
576 1 2 201 4 572 573
577 1 2 201 4 573 574
578 1 2 201 4 574 575
579 1 2 201 4 575 576
580 1 2 201 4 576 577
581 1 2 201 4 577 578
582 1 2 201 4 578 579
583 1 2 201 4 579 580
584 1 2 201 4 580 581
585 1 2 201 4 581 582
586 1 2 201 4 582 583
587 1 2 201 4 583 584
588 1 2 201 4 584 585
589 1 2 201 4 585 586
590 1 2 201 4 586 587
591 1 2 201 4 587 588
592 1 2 201 4 588 589
593 1 2 201 4 589 590
594 1 2 201 4 590 591
595 1 2 201 4 591 592
596 1 2 201 4 592 593
597 1 2 201 4 593 594
598 1 2 201 4 594 595
599 1 2 201 4 595 596
600 1 2 201 4 596 597
601 1 2 201 4 597 598
602 1 2 201 4 598 599
603 1 2 201 4 599 600
604 1 2 201 4 600 601
605 1 2 201 4 601 602
606 1 2 201 4 602 603
607 1 2 201 4 603 604
608 1 2 201 4 604 605
609 1 2 201 4 605 606
610 1 2 201 4 606 607
611 1 2 201 4 607 608
612 1 2 201 4 608 609
613 1 2 201 4 609 610
614 1 2 201 4 610 611
615 1 2 201 4 611 612
616 1 2 201 4 612 613
617 1 2 201 4 613 614
618 1 2 201 4 614 615
619 1 2 201 4 615 616
620 1 2 201 4 616 617
621 1 2 201 4 617 618
622 1 2 201 4 618 619
623 1 2 201 4 619 620
624 1 2 201 4 620 621
625 1 2 201 4 621 622
626 1 2 201 4 622 623
627 1 2 201 4 623 624
628 1 2 201 4 624 625
629 1 2 201 4 625 626
630 1 2 201 4 626 627
631 1 2 201 4 627 628
632 1 2 201 4 628 629
633 1 2 201 4 629 630
634 1 2 201 4 630 631
635 1 2 201 4 631 632
636 1 2 201 4 632 633
637 1 2 201 4 633 634
638 1 2 201 4 634 635
639 1 2 201 4 635 636
640 1 2 201 4 636 637
641 1 2 201 4 637 638
642 1 2 201 4 638 639
643 1 2 201 4 639 640
644 1 2 201 4 640 641
645 1 2 201 4 641 642
646 1 2 201 4 642 643
647 1 2 201 4 643 644
648 1 2 201 4 644 645
649 1 2 201 4 645 646
650 1 2 201 4 646 647
651 1 2 201 4 647 648
652 1 2 201 4 648 649
653 1 2 201 4 649 650
654 1 2 201 4 650 651
655 1 2 201 4 651 652
656 1 2 201 4 652 653
657 1 2 201 4 653 654
658 1 2 201 4 654 655
659 1 2 201 4 655 656
660 1 2 201 4 656 657
661 1 2 201 4 657 658
662 1 2 201 4 658 659
663 1 2 201 4 659 660
664 1 2 201 4 660 661
665 1 2 201 4 661 662
666 1 2 201 4 662 663
667 1 2 201 4 663 664
668 1 2 201 4 664 665
669 1 2 201 4 665 666
670 1 2 201 4 666 667
671 1 2 201 4 667 668
672 1 2 201 4 668 669
673 1 2 201 4 669 670
674 1 2 201 4 670 671
675 1 2 201 4 671 672
676 1 2 201 4 672 673
677 1 2 201 4 673 674
678 1 2 201 4 674 675
679 1 2 201 4 675 676
680 1 2 201 4 676 677
681 1 2 201 4 677 678
682 1 2 201 4 678 679
683 1 2 201 4 679 680
684 1 2 201 4 680 681
685 1 2 201 4 681 682
686 1 2 201 4 682 683
687 1 2 201 4 683 684
688 1 2 201 4 684 685
689 1 2 201 4 685 686
690 1 2 201 4 686 687
691 1 2 201 4 687 688
692 1 2 201 4 688 689
693 1 2 201 4 689 690
694 1 2 201 4 690 691
695 1 2 201 4 691 692
696 1 2 201 4 692 693
697 1 2 201 4 693 694
698 1 2 201 4 694 695
699 1 2 201 4 695 696
700 1 2 201 4 696 697
701 1 2 201 4 697 698
702 1 2 201 4 698 699
703 1 2 201 4 699 700
704 1 2 201 4 700 701
705 1 2 201 4 701 702
706 1 2 201 4 702 703
707 1 2 201 4 703 704
708 1 2 201 4 704 705
709 1 2 201 4 705 706
710 1 2 201 4 706 707
711 1 2 201 4 707 708
712 1 2 201 4 708 709
713 1 2 201 4 709 710
714 1 2 201 4 710 711
715 1 2 201 4 711 712
716 1 2 201 4 712 713
717 1 2 201 4 713 714
718 1 2 201 4 714 715
719 1 2 201 4 715 716
720 1 2 201 4 716 717
721 1 2 201 4 717 718
722 1 2 201 4 718 719
723 1 2 201 4 719 720
724 1 2 201 4 720 721
725 1 2 201 4 721 722
726 1 2 201 4 722 723
727 1 2 201 4 723 724
728 1 2 201 4 724 725
729 1 2 201 4 725 726
730 1 2 201 4 726 727
731 1 2 201 4 727 728
732 1 2 201 4 728 729
733 1 2 201 4 729 730
734 1 2 201 4 730 731
735 1 2 201 4 731 732
736 1 2 201 4 732 733
737 1 2 201 4 733 734
738 1 2 201 4 734 735
739 1 2 201 4 735 736
740 1 2 201 4 736 737
741 1 2 201 4 737 738
742 1 2 201 4 738 739
743 1 2 201 4 739 740
744 1 2 201 4 740 741
745 1 2 201 4 741 742
746 1 2 201 4 742 743
747 1 2 201 4 743 744
748 1 2 201 4 744 745
749 1 2 201 4 745 746
750 1 2 201 4 746 747
751 1 2 201 4 747 748
752 1 2 201 4 748 749
753 1 2 201 4 749 750
754 1 2 201 4 750 751
755 1 2 201 4 751 752
756 1 2 201 4 752 753
757 1 2 201 4 753 754
758 1 2 201 4 754 755
759 1 2 201 4 755 756
760 1 2 201 4 756 757
761 1 2 201 4 757 758
762 1 2 201 4 758 759
763 1 2 201 4 759 760
764 1 2 201 4 760 761
765 1 2 201 4 761 762
766 1 2 201 4 762 763
767 1 2 201 4 763 764
768 1 2 201 4 764 765
769 1 2 201 4 765 766
770 1 2 201 4 766 767
771 1 2 201 4 767 768
772 1 2 201 4 768 769
773 1 2 201 4 769 770
774 1 2 201 4 770 771
775 1 2 201 4 771 772
776 1 2 201 4 772 773
777 1 2 201 4 773 774
778 1 2 201 4 774 775
779 1 2 201 4 775 776
780 1 2 201 4 776 777
781 1 2 201 4 777 778
782 1 2 201 4 778 779
783 1 2 201 4 779 780
784 1 2 201 4 780 781
785 1 2 201 4 781 782
786 1 2 201 4 782 783
787 1 2 201 4 783 784
788 1 2 201 4 784 785
789 1 2 201 4 785 786
790 1 2 201 4 786 787
791 1 2 201 4 787 788
792 1 2 201 4 788 789
793 1 2 201 4 789 790
794 1 2 201 4 790 791
795 1 2 201 4 791 792
796 1 2 201 4 792 793
797 1 2 201 4 793 794
798 1 2 201 4 794 795
799 1 2 201 4 795 796
800 1 2 201 4 796 797
801 1 2 201 4 797 798
802 1 2 201 4 798 799
803 1 2 201 4 799 800
804 1 2 201 4 800 801
805 1 2 201 4 801 802
806 1 2 201 4 802 1
807 3 2 1 6 1 2 5 802
808 3 2 1 6 802 5 6 801
809 3 2 1 6 801 6 7 800
810 3 2 1 6 800 7 8 799
811 3 2 1 6 799 8 9 798
812 3 2 1 6 798 9 10 797
813 3 2 1 6 797 10 11 796
814 3 2 1 6 796 11 12 795
815 3 2 1 6 795 12 13 794
816 3 2 1 6 794 13 14 793
817 3 2 1 6 793 14 15 792
818 3 2 1 6 792 15 16 791
819 3 2 1 6 791 16 17 790
820 3 2 1 6 790 17 18 789
821 3 2 1 6 789 18 19 788
822 3 2 1 6 788 19 20 787
823 3 2 1 6 787 20 21 786
824 3 2 1 6 786 21 22 785
825 3 2 1 6 785 22 23 784
826 3 2 1 6 784 23 24 783
827 3 2 1 6 783 24 25 782
828 3 2 1 6 782 25 26 781
829 3 2 1 6 781 26 27 780
830 3 2 1 6 780 27 28 779
831 3 2 1 6 779 28 29 778
832 3 2 1 6 778 29 30 777
833 3 2 1 6 777 30 31 776
834 3 2 1 6 776 31 32 775
835 3 2 1 6 775 32 33 774
836 3 2 1 6 774 33 34 773
837 3 2 1 6 773 34 35 772
838 3 2 1 6 772 35 36 771
839 3 2 1 6 771 36 37 770
840 3 2 1 6 770 37 38 769
841 3 2 1 6 769 38 39 768
842 3 2 1 6 768 39 40 767
843 3 2 1 6 767 40 41 766
844 3 2 1 6 766 41 42 765
845 3 2 1 6 765 42 43 764
846 3 2 1 6 764 43 44 763
847 3 2 1 6 763 44 45 762
848 3 2 1 6 762 45 46 761
849 3 2 1 6 761 46 47 760
850 3 2 1 6 760 47 48 759
851 3 2 1 6 759 48 49 758
852 3 2 1 6 758 49 50 757
853 3 2 1 6 757 50 51 756
854 3 2 1 6 756 51 52 755
855 3 2 1 6 755 52 53 754
856 3 2 1 6 754 53 54 753
857 3 2 1 6 753 54 55 752
858 3 2 1 6 752 55 56 751
859 3 2 1 6 751 56 57 750
860 3 2 1 6 750 57 58 749
861 3 2 1 6 749 58 59 748
862 3 2 1 6 748 59 60 747
863 3 2 1 6 747 60 61 746
864 3 2 1 6 746 61 62 745
865 3 2 1 6 745 62 63 744
866 3 2 1 6 744 63 64 743
867 3 2 1 6 743 64 65 742
868 3 2 1 6 742 65 66 741
869 3 2 1 6 741 66 67 740
870 3 2 1 6 740 67 68 739
871 3 2 1 6 739 68 69 738
872 3 2 1 6 738 69 70 737
873 3 2 1 6 737 70 71 736
874 3 2 1 6 736 71 72 735
875 3 2 1 6 735 72 73 734
876 3 2 1 6 734 73 74 733
877 3 2 1 6 733 74 75 732
878 3 2 1 6 732 75 76 731
879 3 2 1 6 731 76 77 730
880 3 2 1 6 730 77 78 729
881 3 2 1 6 729 78 79 728
882 3 2 1 6 728 79 80 727
883 3 2 1 6 727 80 81 726
884 3 2 1 6 726 81 82 725
885 3 2 1 6 725 82 83 724
886 3 2 1 6 724 83 84 723
887 3 2 1 6 723 84 85 722
888 3 2 1 6 722 85 86 721
889 3 2 1 6 721 86 87 720
890 3 2 1 6 720 87 88 719
891 3 2 1 6 719 88 89 718
892 3 2 1 6 718 89 90 717
893 3 2 1 6 717 90 91 716
894 3 2 1 6 716 91 92 715
895 3 2 1 6 715 92 93 714
896 3 2 1 6 714 93 94 713
897 3 2 1 6 713 94 95 712
898 3 2 1 6 712 95 96 711
899 3 2 1 6 711 96 97 710
900 3 2 1 6 710 97 98 709
901 3 2 1 6 709 98 99 708
902 3 2 1 6 708 99 100 707
903 3 2 1 6 707 100 101 706
904 3 2 1 6 706 101 102 705
905 3 2 1 6 705 102 103 704
906 3 2 1 6 704 103 104 703
907 3 2 1 6 703 104 105 702
908 3 2 1 6 702 105 106 701
909 3 2 1 6 701 106 107 700
910 3 2 1 6 700 107 108 699
911 3 2 1 6 699 108 109 698
912 3 2 1 6 698 109 110 697
913 3 2 1 6 697 110 111 696
914 3 2 1 6 696 111 112 695
915 3 2 1 6 695 112 113 694
916 3 2 1 6 694 113 114 693
917 3 2 1 6 693 114 115 692
918 3 2 1 6 692 115 116 691
919 3 2 1 6 691 116 117 690
920 3 2 1 6 690 117 118 689
921 3 2 1 6 689 118 119 688
922 3 2 1 6 688 119 120 687
923 3 2 1 6 687 120 121 686
924 3 2 1 6 686 121 122 685
925 3 2 1 6 685 122 123 684
926 3 2 1 6 684 123 124 683
927 3 2 1 6 683 124 125 682
928 3 2 1 6 682 125 126 681
929 3 2 1 6 681 126 127 680
930 3 2 1 6 680 127 128 679
931 3 2 1 6 679 128 129 678
932 3 2 1 6 678 129 130 677
933 3 2 1 6 677 130 131 676
934 3 2 1 6 676 131 132 675
935 3 2 1 6 675 132 133 674
936 3 2 1 6 674 133 134 673
937 3 2 1 6 673 134 135 672
938 3 2 1 6 672 135 136 671
939 3 2 1 6 671 136 137 670
940 3 2 1 6 670 137 138 669
941 3 2 1 6 669 138 139 668
942 3 2 1 6 668 139 140 667
943 3 2 1 6 667 140 141 666
944 3 2 1 6 666 141 142 665
945 3 2 1 6 665 142 143 664
946 3 2 1 6 664 143 144 663
947 3 2 1 6 663 144 145 662
948 3 2 1 6 662 145 146 661
949 3 2 1 6 661 146 147 660
950 3 2 1 6 660 147 148 659
951 3 2 1 6 659 148 149 658
952 3 2 1 6 658 149 150 657
953 3 2 1 6 657 150 151 656
954 3 2 1 6 656 151 152 655
955 3 2 1 6 655 152 153 654
956 3 2 1 6 654 153 154 653
957 3 2 1 6 653 154 155 652
958 3 2 1 6 652 155 156 651
959 3 2 1 6 651 156 157 650
960 3 2 1 6 650 157 158 649
961 3 2 1 6 649 158 159 648
962 3 2 1 6 648 159 160 647
963 3 2 1 6 647 160 161 646
964 3 2 1 6 646 161 162 645
965 3 2 1 6 645 162 163 644
966 3 2 1 6 644 163 164 643
967 3 2 1 6 643 164 165 642
968 3 2 1 6 642 165 166 641
969 3 2 1 6 641 166 167 640
970 3 2 1 6 640 167 168 639
971 3 2 1 6 639 168 169 638
972 3 2 1 6 638 169 170 637
973 3 2 1 6 637 170 171 636
974 3 2 1 6 636 171 172 635
975 3 2 1 6 635 172 173 634
976 3 2 1 6 634 173 174 633
977 3 2 1 6 633 174 175 632
978 3 2 1 6 632 175 176 631
979 3 2 1 6 631 176 177 630
980 3 2 1 6 630 177 178 629
981 3 2 1 6 629 178 179 628
982 3 2 1 6 628 179 180 627
983 3 2 1 6 627 180 181 626
984 3 2 1 6 626 181 182 625
985 3 2 1 6 625 182 183 624
986 3 2 1 6 624 183 184 623
987 3 2 1 6 623 184 185 622
988 3 2 1 6 622 185 186 621
989 3 2 1 6 621 186 187 620
990 3 2 1 6 620 187 188 619
991 3 2 1 6 619 188 189 618
992 3 2 1 6 618 189 190 617
993 3 2 1 6 617 190 191 616
994 3 2 1 6 616 191 192 615
995 3 2 1 6 615 192 193 614
996 3 2 1 6 614 193 194 613
997 3 2 1 6 613 194 195 612
998 3 2 1 6 612 195 196 611
999 3 2 1 6 611 196 197 610
1000 3 2 1 6 610 197 198 609
1001 3 2 1 6 609 198 199 608
1002 3 2 1 6 608 199 200 607
1003 3 2 1 6 607 200 201 606
1004 3 2 1 6 606 201 202 605
1005 3 2 1 6 605 202 203 604
1006 3 2 1 6 604 203 204 603
1007 3 2 1 6 603 204 205 602
1008 3 2 1 6 602 205 206 601
1009 3 2 1 6 601 206 207 600
1010 3 2 1 6 600 207 208 599
1011 3 2 1 6 599 208 209 598
1012 3 2 1 6 598 209 210 597
1013 3 2 1 6 597 210 211 596
1014 3 2 1 6 596 211 212 595
1015 3 2 1 6 595 212 213 594
1016 3 2 1 6 594 213 214 593
1017 3 2 1 6 593 214 215 592
1018 3 2 1 6 592 215 216 591
1019 3 2 1 6 591 216 217 590
1020 3 2 1 6 590 217 218 589
1021 3 2 1 6 589 218 219 588
1022 3 2 1 6 588 219 220 587
1023 3 2 1 6 587 220 221 586
1024 3 2 1 6 586 221 222 585
1025 3 2 1 6 585 222 223 584
1026 3 2 1 6 584 223 224 583
1027 3 2 1 6 583 224 225 582
1028 3 2 1 6 582 225 226 581
1029 3 2 1 6 581 226 227 580
1030 3 2 1 6 580 227 228 579
1031 3 2 1 6 579 228 229 578
1032 3 2 1 6 578 229 230 577
1033 3 2 1 6 577 230 231 576
1034 3 2 1 6 576 231 232 575
1035 3 2 1 6 575 232 233 574
1036 3 2 1 6 574 233 234 573
1037 3 2 1 6 573 234 235 572
1038 3 2 1 6 572 235 236 571
1039 3 2 1 6 571 236 237 570
1040 3 2 1 6 570 237 238 569
1041 3 2 1 6 569 238 239 568
1042 3 2 1 6 568 239 240 567
1043 3 2 1 6 567 240 241 566
1044 3 2 1 6 566 241 242 565
1045 3 2 1 6 565 242 243 564
1046 3 2 1 6 564 243 244 563
1047 3 2 1 6 563 244 245 562
1048 3 2 1 6 562 245 246 561
1049 3 2 1 6 561 246 247 560
1050 3 2 1 6 560 247 248 559
1051 3 2 1 6 559 248 249 558
1052 3 2 1 6 558 249 250 557
1053 3 2 1 6 557 250 251 556
1054 3 2 1 6 556 251 252 555
1055 3 2 1 6 555 252 253 554
1056 3 2 1 6 554 253 254 553
1057 3 2 1 6 553 254 255 552
1058 3 2 1 6 552 255 256 551
1059 3 2 1 6 551 256 257 550
1060 3 2 1 6 550 257 258 549
1061 3 2 1 6 549 258 259 548
1062 3 2 1 6 548 259 260 547
1063 3 2 1 6 547 260 261 546
1064 3 2 1 6 546 261 262 545
1065 3 2 1 6 545 262 263 544
1066 3 2 1 6 544 263 264 543
1067 3 2 1 6 543 264 265 542
1068 3 2 1 6 542 265 266 541
1069 3 2 1 6 541 266 267 540
1070 3 2 1 6 540 267 268 539
1071 3 2 1 6 539 268 269 538
1072 3 2 1 6 538 269 270 537
1073 3 2 1 6 537 270 271 536
1074 3 2 1 6 536 271 272 535
1075 3 2 1 6 535 272 273 534
1076 3 2 1 6 534 273 274 533
1077 3 2 1 6 533 274 275 532
1078 3 2 1 6 532 275 276 531
1079 3 2 1 6 531 276 277 530
1080 3 2 1 6 530 277 278 529
1081 3 2 1 6 529 278 279 528
1082 3 2 1 6 528 279 280 527
1083 3 2 1 6 527 280 281 526
1084 3 2 1 6 526 281 282 525
1085 3 2 1 6 525 282 283 524
1086 3 2 1 6 524 283 284 523
1087 3 2 1 6 523 284 285 522
1088 3 2 1 6 522 285 286 521
1089 3 2 1 6 521 286 287 520
1090 3 2 1 6 520 287 288 519
1091 3 2 1 6 519 288 289 518
1092 3 2 1 6 518 289 290 517
1093 3 2 1 6 517 290 291 516
1094 3 2 1 6 516 291 292 515
1095 3 2 1 6 515 292 293 514
1096 3 2 1 6 514 293 294 513
1097 3 2 1 6 513 294 295 512
1098 3 2 1 6 512 295 296 511
1099 3 2 1 6 511 296 297 510
1100 3 2 1 6 510 297 298 509
1101 3 2 1 6 509 298 299 508
1102 3 2 1 6 508 299 300 507
1103 3 2 1 6 507 300 301 506
1104 3 2 1 6 506 301 302 505
1105 3 2 1 6 505 302 303 504
1106 3 2 1 6 504 303 304 503
1107 3 2 1 6 503 304 305 502
1108 3 2 1 6 502 305 306 501
1109 3 2 1 6 501 306 307 500
1110 3 2 1 6 500 307 308 499
1111 3 2 1 6 499 308 309 498
1112 3 2 1 6 498 309 310 497
1113 3 2 1 6 497 310 311 496
1114 3 2 1 6 496 311 312 495
1115 3 2 1 6 495 312 313 494
1116 3 2 1 6 494 313 314 493
1117 3 2 1 6 493 314 315 492
1118 3 2 1 6 492 315 316 491
1119 3 2 1 6 491 316 317 490
1120 3 2 1 6 490 317 318 489
1121 3 2 1 6 489 318 319 488
1122 3 2 1 6 488 319 320 487
1123 3 2 1 6 487 320 321 486
1124 3 2 1 6 486 321 322 485
1125 3 2 1 6 485 322 323 484
1126 3 2 1 6 484 323 324 483
1127 3 2 1 6 483 324 325 482
1128 3 2 1 6 482 325 326 481
1129 3 2 1 6 481 326 327 480
1130 3 2 1 6 480 327 328 479
1131 3 2 1 6 479 328 329 478
1132 3 2 1 6 478 329 330 477
1133 3 2 1 6 477 330 331 476
1134 3 2 1 6 476 331 332 475
1135 3 2 1 6 475 332 333 474
1136 3 2 1 6 474 333 334 473
1137 3 2 1 6 473 334 335 472
1138 3 2 1 6 472 335 336 471
1139 3 2 1 6 471 336 337 470
1140 3 2 1 6 470 337 338 469
1141 3 2 1 6 469 338 339 468
1142 3 2 1 6 468 339 340 467
1143 3 2 1 6 467 340 341 466
1144 3 2 1 6 466 341 342 465
1145 3 2 1 6 465 342 343 464
1146 3 2 1 6 464 343 344 463
1147 3 2 1 6 463 344 345 462
1148 3 2 1 6 462 345 346 461
1149 3 2 1 6 461 346 347 460
1150 3 2 1 6 460 347 348 459
1151 3 2 1 6 459 348 349 458
1152 3 2 1 6 458 349 350 457
1153 3 2 1 6 457 350 351 456
1154 3 2 1 6 456 351 352 455
1155 3 2 1 6 455 352 353 454
1156 3 2 1 6 454 353 354 453
1157 3 2 1 6 453 354 355 452
1158 3 2 1 6 452 355 356 451
1159 3 2 1 6 451 356 357 450
1160 3 2 1 6 450 357 358 449
1161 3 2 1 6 449 358 359 448
1162 3 2 1 6 448 359 360 447
1163 3 2 1 6 447 360 361 446
1164 3 2 1 6 446 361 362 445
1165 3 2 1 6 445 362 363 444
1166 3 2 1 6 444 363 364 443
1167 3 2 1 6 443 364 365 442
1168 3 2 1 6 442 365 366 441
1169 3 2 1 6 441 366 367 440
1170 3 2 1 6 440 367 368 439
1171 3 2 1 6 439 368 369 438
1172 3 2 1 6 438 369 370 437
1173 3 2 1 6 437 370 371 436
1174 3 2 1 6 436 371 372 435
1175 3 2 1 6 435 372 373 434
1176 3 2 1 6 434 373 374 433
1177 3 2 1 6 433 374 375 432
1178 3 2 1 6 432 375 376 431
1179 3 2 1 6 431 376 377 430
1180 3 2 1 6 430 377 378 429
1181 3 2 1 6 429 378 379 428
1182 3 2 1 6 428 379 380 427
1183 3 2 1 6 427 380 381 426
1184 3 2 1 6 426 381 382 425
1185 3 2 1 6 425 382 383 424
1186 3 2 1 6 424 383 384 423
1187 3 2 1 6 423 384 385 422
1188 3 2 1 6 422 385 386 421
1189 3 2 1 6 421 386 387 420
1190 3 2 1 6 420 387 388 419
1191 3 2 1 6 419 388 389 418
1192 3 2 1 6 418 389 390 417
1193 3 2 1 6 417 390 391 416
1194 3 2 1 6 416 391 392 415
1195 3 2 1 6 415 392 393 414
1196 3 2 1 6 414 393 394 413
1197 3 2 1 6 413 394 395 412
1198 3 2 1 6 412 395 396 411
1199 3 2 1 6 411 396 397 410
1200 3 2 1 6 410 397 398 409
1201 3 2 1 6 409 398 399 408
1202 3 2 1 6 408 399 400 407
1203 3 2 1 6 407 400 401 406
1204 3 2 1 6 406 401 402 405
1205 3 2 1 6 405 402 403 404
1206 3 2 1 6 404 403 3 4
$EndElements
