$MeshFormat
2.2 0 8
$EndMeshFormat
$Nodes
47
1 0 0 0
2 2 0 0
3 2 1 0
4 2 3 0
5 1 3 0
6 0 3 0
7 0.4999999999988388 0 0
8 0.999999999997388 0 0
9 1.499999999998694 0 0
10 2 0.4999999999986717 0
11 2 1.500000000001097 0
12 2 2.000000000001388 0
13 2 2.500000000000334 0
14 1.500000000001586 3 0
15 0.5000000000013305 3 0
16 0 2.500000000003276 0
17 0 2.000000000007357 0
18 0 1.500000000006936 0
19 0 1.000000000003713 0
20 0 0.5000000000018561 0
21 0.9177066973163406 1.500000000003289 0
22 1.27038799069947 0.6653542725670539 0
23 1.270387990702192 2.334645727435562 0
24 0.6084726712651808 0.6054406158742434 0
25 0.6084726712678295 2.394559384128572 0
26 1.45885334865817 1.750000000002338 0
27 1.45885334865817 1.250000000001645 0
28 1.094047344007905 1.082677136285171 0
29 1.635193995349735 0.832677136283527 0
30 1.635193995351096 2.167322863718475 0
31 1.094047344009267 1.917322863719425 0
32 0.4588533486581703 1.250000000003501 0
33 0.4588533486581703 1.750000000005323 0
34 1.635193995349735 0.332677136283527 0
35 1.135193995348429 0.332677136283527 0
36 1.635193995351096 2.667322863717781 0
37 1.135193995351096 2.667322863717781 0
38 0.3042363356325904 0.802720307938978 0
39 0.7630896842907606 1.052720307938766 0
40 0.763089684292085 1.94727969206593 0
41 0.3042363356339147 2.197279692067965 0
42 0.9394303309823253 0.6353974442206487 0
43 0.9394303309850109 2.364602555782067 0
44 0.3042363356339147 2.697279692064286 0
45 0.8042363356339147 2.697279692064286 0
46 0.3042363356325904 0.3027203079371217 0
47 0.8042363356312844 0.3027203079371217 0
$EndNodes
$Elements
98
1 15 2 201 1 1
2 15 2 101 2 2
3 15 2 101 3 3
4 15 2 201 4 4
5 15 2 102 5 5
6 15 2 102 6 6
7 1 2 201 1 1 7
8 1 2 201 1 7 8
9 1 2 201 1 8 9
10 1 2 201 1 9 2
11 1 2 101 2 2 10
12 1 2 101 2 10 3
13 1 2 201 3 3 11
14 1 2 201 3 11 12
15 1 2 201 3 12 13
16 1 2 201 3 13 4
17 1 2 201 4 4 14
18 1 2 201 4 14 5
19 1 2 102 5 5 15
20 1 2 102 5 15 6
21 1 2 201 6 6 16
22 1 2 201 6 16 17
23 1 2 201 6 17 18
24 1 2 201 6 18 19
25 1 2 201 6 19 20
26 1 2 201 6 20 1
27 2 2 0 8 12 26 11
28 2 2 0 8 26 27 11
29 2 2 0 8 26 21 27
30 2 2 0 8 11 27 3
31 2 2 0 8 21 28 27
32 2 2 0 8 28 29 27
33 2 2 0 8 28 22 29
34 2 2 0 8 27 29 3
35 2 2 0 8 12 30 26
36 2 2 0 8 30 31 26
37 2 2 0 8 30 23 31
38 2 2 0 8 26 31 21
39 2 2 0 8 17 18 33
40 2 2 0 8 18 32 33
41 2 2 0 8 18 19 32
42 2 2 0 8 33 32 21
43 2 2 0 8 8 9 35
44 2 2 0 8 9 34 35
45 2 2 0 8 9 2 34
46 2 2 0 8 35 34 22
47 2 2 0 8 3 29 10
48 2 2 0 8 29 34 10
49 2 2 0 8 29 22 34
50 2 2 0 8 10 34 2
51 2 2 0 8 12 13 30
52 2 2 0 8 13 36 30
53 2 2 0 8 13 4 36
54 2 2 0 8 30 36 23
55 2 2 0 8 5 37 14
56 2 2 0 8 37 36 14
57 2 2 0 8 37 23 36
58 2 2 0 8 14 36 4
59 2 2 0 8 19 38 32
60 2 2 0 8 38 39 32
61 2 2 0 8 38 24 39
62 2 2 0 8 32 39 21
63 2 2 0 8 17 33 41
64 2 2 0 8 33 40 41
65 2 2 0 8 33 21 40
66 2 2 0 8 41 40 25
67 2 2 0 8 21 39 28
68 2 2 0 8 39 42 28
69 2 2 0 8 39 24 42
70 2 2 0 8 28 42 22
71 2 2 0 8 21 31 40
72 2 2 0 8 31 43 40
73 2 2 0 8 31 23 43
74 2 2 0 8 40 43 25
75 2 2 0 8 5 15 45
76 2 2 0 8 15 44 45
77 2 2 0 8 15 6 44
78 2 2 0 8 45 44 25
79 2 2 0 8 19 20 38
80 2 2 0 8 20 46 38
81 2 2 0 8 20 1 46
82 2 2 0 8 38 46 24
83 2 2 0 8 17 41 16
84 2 2 0 8 41 44 16
85 2 2 0 8 41 25 44
86 2 2 0 8 16 44 6
87 2 2 0 8 8 47 7
88 2 2 0 8 47 46 7
89 2 2 0 8 47 24 46
90 2 2 0 8 7 46 1
91 2 2 0 8 8 35 47
92 2 2 0 8 35 42 47
93 2 2 0 8 35 22 42
94 2 2 0 8 47 42 24
95 2 2 0 8 23 37 43
96 2 2 0 8 37 45 43
97 2 2 0 8 37 5 45
98 2 2 0 8 43 45 25
$EndElements
