$MeshFormat
2.2 0 8
$EndMeshFormat
$Nodes
1089
1 0 0 0
2 7.62 0 0
3 15.24 0 0
4 15.24 1.587 0
5 15.24 7.62 0
6 15.24 13.716 0
7 15.24 15.24 0
8 7.62 15.24 0
9 0 15.24 0
10 0 13.487 0
11 0 7.62 0
12 0 2.4734 0
13 9.144 7.62 0
14 12.192 12.192 0
15 6.096 3.81 0
16 0.4762499999990097 0 0
17 0.9524999999982753 0 0
18 1.428749999996871 0 0
19 1.904999999995465 0 0
20 2.381249999994052 0 0
21 2.857499999992637 0 0
22 3.333749999991266 0 0
23 3.809999999989896 0 0
24 4.286249999991026 0 0
25 4.76249999999253 0 0
26 5.238749999993904 0 0
27 5.714999999994904 0 0
28 6.191249999996368 0 0
29 6.667499999997625 0 0
30 7.143749999998964 0 0
31 8.096250000000326 0 0
32 8.572499999999435 0 0
33 9.048749999998256 0 0
34 9.524999999996442 0 0
35 10.00124999999441 0 0
36 10.4774999999931 0 0
37 10.95374999999161 0 0
38 11.42999999999011 0 0
39 11.90624999999139 0 0
40 12.38249999999267 0 0
41 12.85874999999365 0 0
42 13.33499999999523 0 0
43 13.81124999999651 0 0
44 14.28749999999779 0 0
45 14.7637499999989 0 0
46 15.24 0.1983749999996678 0
47 15.24 0.3967499999990443 0
48 15.24 0.5951249999985451 0
49 15.24 0.7934999999979253 0
50 15.24 0.9918749999985048 0
51 15.24 1.190249999998974 0
52 15.24 1.388624999999487 0
53 15.24 2.341124999998494 0
54 15.24 3.095249999996294 0
55 15.24 3.849374999993923 0
56 15.24 4.603499999991804 0
57 15.24 5.357624999993897 0
58 15.24 6.111749999995989 0
59 15.24 6.865874999997994 0
60 15.24 8.381999999996825 0
61 15.24 9.143999999992451 0
62 15.24 9.905999999990856 0
63 15.24 10.66799999999185 0
64 15.24 11.42999999999548 0
65 15.24 12.19199999999748 0
66 15.24 12.95399999999874 0
67 15.24 13.90650000000158 0
68 15.24 14.097 0
69 15.24 14.2875 0
70 15.24 14.478 0
71 15.24 14.66850000000054 0
72 15.24 14.859 0
73 15.24 15.04949999999943 0
74 14.7637500000007 15.24 0
75 14.28750000000057 15.24 0
76 13.81125000000247 15.24 0
77 13.33500000000356 15.24 0
78 12.85875000000603 15.24 0
79 12.3825000000062 15.24 0
80 11.90625000000692 15.24 0
81 11.43000000000885 15.24 0
82 10.95375000000771 15.24 0
83 10.47750000000698 15.24 0
84 10.00125000000571 15.24 0
85 9.525000000004424 15.24 0
86 9.048750000003492 15.24 0
87 8.572500000002558 15.24 0
88 8.096250000001279 15.24 0
89 7.14375000000151 15.24 0
90 6.66750000000193 15.24 0
91 6.191250000003329 15.24 0
92 5.715000000004728 15.24 0
93 5.238750000006126 15.24 0
94 4.762500000007524 15.24 0
95 4.286250000008908 15.24 0
96 3.810000000010234 15.24 0
97 3.333750000009078 15.24 0
98 2.857500000007736 15.24 0
99 2.38125000000651 15.24 0
100 1.90500000000515 15.24 0
101 1.428750000003831 15.24 0
102 0.9525000000025659 15.24 0
103 0.4762500000013316 15.24 0
104 0 15.02087500000046 0
105 0 14.80175000000139 0
106 0 14.58262500000208 0
107 0 14.36350000000278 0
108 0 14.14437500000222 0
109 0 13.92525000000139 0
110 0 13.70612500000174 0
111 0 12.75362500000079 0
112 0 12.02025000000321 0
113 0 11.28687500000693 0
114 0 10.55350000000816 0
115 0 9.820125000007268 0
116 0 9.086750000004425 0
117 0 8.353375000003707 0
118 0 6.97667500000153 0
119 0 6.333350000002644 0
120 0 5.690025000004853 0
121 0 5.046700000006851 0
122 0 4.403375000005421 0
123 0 3.760050000003339 0
124 0 3.116725000001623 0
125 0 2.164225000000373 0
126 0 1.855050000001532 0
127 0 1.545875000002383 0
128 0 1.236700000003235 0
129 0 0.927525000002467 0
130 0 0.6183500000016015 0
131 0 0.3091750000007513 0
132 7.429499999999973 0.4762500000000661 0
133 7.239000000000314 0.9524999999992136 0
134 7.048500000001116 1.42874999999721 0
135 6.858000000002029 1.904999999994927 0
136 6.667500000001957 2.381249999995107 0
137 6.477000000001657 2.857499999995859 0
138 6.286500000000711 3.333749999998223 0
139 6.476999999999012 4.286249999998764 0
140 6.857999999997812 4.762499999997266 0
141 7.238999999996337 5.238749999995421 0
142 7.619999999994742 5.714999999993428 0
143 8.000999999994251 6.191249999992814 0
144 8.381999999995214 6.667499999994018 0
145 8.762999999997838 7.143749999997297 0
146 9.525000000000802 8.191500000001202 0
147 9.905999999999722 8.762999999999583 0
148 10.28699999999706 9.33449999999559 0
149 10.66799999999528 9.905999999992918 0
150 11.04899999999483 10.47749999999224 0
151 11.42999999999521 11.04899999999282 0
152 11.81099999999846 11.62049999999769 0
153 11.62049999999866 12.57300000000089 0
154 11.04899999999922 12.95400000000052 0
155 10.47750000000295 13.33499999999804 0
156 9.906000000005401 13.7159999999964 0
157 9.334500000004766 14.09699999999682 0
158 8.763000000005745 14.47799999999617 0
159 8.191500000006048 14.85899999999597 0
160 0.7619999999985381 13.40606250000016 0
161 1.523999999997581 13.32512500000026 0
162 2.285999999995646 13.24418750000046 0
163 3.047999999993427 13.1632500000007 0
164 3.809999999991096 13.08231250000095 0
165 4.571999999989279 13.00137500000114 0
166 5.333999999987874 12.92043750000129 0
167 6.095999999985167 12.83950000000158 0
168 6.85799999998769 12.75856250000131 0
169 7.619999999989432 12.67762500000112 0
170 8.381999999990111 12.59668750000105 0
171 9.143999999991461 12.51575000000091 0
172 9.905999999993648 12.43481250000068 0
173 10.6679999999958 12.35387500000045 0
174 11.42999999999848 12.27293750000016 0
175 12.38250000000157 12.28725000000078 0
176 12.57300000000344 12.38250000000172 0
177 12.76350000000402 12.47775000000201 0
178 12.95400000000493 12.57300000000246 0
179 13.14450000000236 12.66825000000118 0
180 13.33500000000129 12.76350000000064 0
181 13.52549999999876 12.85874999999938 0
182 13.71599999999584 12.95399999999792 0
183 13.90649999999333 13.04924999999667 0
184 14.09699999999081 13.1444999999954 0
185 14.28749999999045 13.23974999999522 0
186 14.47799999999064 13.33499999999532 0
187 14.66849999999351 13.43024999999676 0
188 14.85899999999629 13.52549999999815 0
189 15.04949999999817 13.62074999999908 0
190 0.5714999999989052 7.62 0
191 1.142999999998002 7.62 0
192 1.714499999996487 7.62 0
193 2.285999999994843 7.62 0
194 2.857499999993199 7.62 0
195 3.428999999991601 7.62 0
196 4.00049999998895 7.62 0
197 4.571999999987837 7.62 0
198 5.143499999989222 7.62 0
199 5.714999999989712 7.62 0
200 6.286499999991688 7.62 0
201 6.857999999993663 7.62 0
202 7.429499999995199 7.62 0
203 8.000999999997612 7.62 0
204 8.572499999999456 7.62 0
205 9.524999999998236 7.62 0
206 9.905999999996878 7.62 0
207 10.28699999999671 7.62 0
208 10.66799999999688 7.62 0
209 11.04899999999675 7.62 0
210 11.42999999999688 7.62 0
211 11.81099999999427 7.62 0
212 12.19199999999271 7.62 0
213 12.57299999999442 7.62 0
214 12.95399999999618 7.62 0
215 13.33499999999564 7.62 0
216 13.71599999999618 7.62 0
217 14.09699999999617 7.62 0
218 14.47799999999618 7.62 0
219 14.85899999999809 7.62 0
220 0.3809999999993321 2.556937499999854 0
221 0.7619999999987924 2.640474999999735 0
222 1.142999999997767 2.72401249999951 0
223 1.523999999996766 2.807549999999291 0
224 1.904999999995739 2.891087499999066 0
225 2.285999999994669 2.974624999998831 0
226 2.666999999993494 3.058162499998574 0
227 3.047999999992572 3.141699999998371 0
228 3.428999999993637 3.225237499998605 0
229 3.809999999994629 3.308774999998823 0
230 4.190999999995365 3.392312499998984 0
231 4.571999999995764 3.475849999999071 0
232 4.952999999996795 3.559387499999297 0
233 5.333999999997891 3.642924999999538 0
234 5.714999999999009 3.726462499999783 0
235 6.667499999998983 3.671062500000248 0
236 7.238999999998718 3.532125000000312 0
237 7.81049999999697 3.393187500000737 0
238 8.381999999993814 3.254250000001504 0
239 8.953499999990704 3.11531250000226 0
240 9.524999999988728 2.976375000002741 0
241 10.09649999998765 2.837437500003003 0
242 10.66799999998657 2.698500000003266 0
243 11.23949999998953 2.559562500002546 0
244 11.8109999999923 2.420625000001871 0
245 12.38249999999355 2.281687500001567 0
246 12.95399999999148 2.142750000002071 0
247 13.5254999999944 2.003812500001363 0
248 14.09699999999722 1.864875000000677 0
249 14.66849999999809 1.725937500000464 0
250 0.9048749999984438 0.6601187500012368 0
251 0.8572499999987875 1.320237500002064 0
252 0.8096249999988703 1.980356250000624 0
253 1.809749999995869 0.7018875000008272 0
254 1.714499999996623 1.403775000000803 0
255 1.619249999996855 2.105662499999582 0
256 2.714624999993263 0.7436562500004138 0
257 2.571749999994414 1.487312499999534 0
258 2.428874999994782 2.230968749998528 0
259 3.619499999990722 0.7854250000000003 0
260 3.428999999992248 1.570849999998266 0
261 3.238499999992731 2.356274999997474 0
262 4.524374999993251 0.8271937499998147 0
263 4.286249999994848 1.654387499997453 0
264 4.04812499999514 2.481581249997102 0
265 5.429249999995355 0.8689624999995783 0
266 5.143499999996855 1.737924999996539 0
267 4.857749999996791 2.60688749999658 0
268 6.334124999997967 0.9107312499993965 0
269 6.000749999999534 1.821462499995734 0
270 5.667374999999274 2.732193749996222 0
271 0.9286874999983595 0.3300593750006184 0
272 0.4524374999992219 0.6392343750014191 0
273 0.4643437499991158 0.3196171875006848 0
274 0.8810624999986156 0.9901781250016501 0
275 0.4286249999993937 1.278468750002649 0
276 0.4405312499993078 0.9588515625020584 0
277 0.8334374999988289 1.650296875001344 0
278 0.4048124999994351 1.917703125001078 0
279 0.4167187499994144 1.598085937501864 0
280 0.7858124999988314 2.31041562500018 0
281 0.3929062499993836 2.237320312500269 0
282 1.857374999995667 0.3509437500004136 0
283 1.357312499997156 0.681003125001032 0
284 1.393031249997013 0.340501562500516 0
285 1.762124999996246 1.052831250000815 0
286 1.285874999997705 1.362006250001433 0
287 1.321593749997431 1.021504687501233 0
288 1.666874999996739 1.754718750000193 0
289 1.214437499997863 2.043009375000103 0
290 1.250156249997784 1.702507812500768 0
291 1.571624999996811 2.456606249999436 0
292 1.178718749997815 2.383510937499806 0
293 2.78606249999295 0.3718281250002069 0
294 2.262187499994566 0.7227718750006205 0
295 2.321718749994309 0.3613859375003102 0
296 2.643187499993839 1.115484374999974 0
297 2.143124999995519 1.445543750000169 0
298 2.202656249995043 1.084157812500395 0
299 2.500312499994598 1.859140624999031 0
300 2.024062499995819 2.168315624999055 0
301 2.083593749995668 1.806929687499612 0
302 2.357437499994726 2.602796874998679 0
303 1.964531249995779 2.52970156249906 0
304 3.714749999990309 0.3927125000000001 0
305 3.167062499991992 0.764540625000207 0
306 3.250406249991631 0.3822703125001035 0
307 3.524249999991485 1.178137499999133 0
308 3.000374999993331 1.5290812499989 0
309 3.083718749992662 1.146810937499554 0
310 3.33374999999249 1.96356249999787 0
311 2.833687499993757 2.293621874998001 0
312 2.917031249993544 1.911351562498451 0
313 3.143249999992651 2.748987499997923 0
314 2.750343749993625 2.675892187498287 0
315 4.64343749999289 0.4135968749999073 0
316 4.071937499991986 0.8063093749999075 0
317 4.179093749991506 0.4031546874999538 0
318 4.405312499994049 1.240790624998634 0
319 3.857624999993548 1.61261874999786 0
320 3.964781249992767 1.209464062498884 0
321 4.167187499994993 2.067984374997278 0
322 3.643312499993936 2.418928124997288 0
323 3.750468749993742 2.015773437497574 0
324 3.929062499994885 2.895178124997963 0
325 3.536156249993787 2.822082812497947 0
326 5.572124999995129 0.4344812499997892 0
327 4.976812499994303 0.8480781249996965 0
328 5.107781249994103 0.4240390624998482 0
329 5.286374999996105 1.303443749998059 0
330 4.714874999995852 1.696156249996996 0
331 4.845843749995079 1.272117187498346 0
332 5.000624999996823 2.17240624999656 0
333 4.452937499995965 2.544234374996841 0
334 4.583906249995909 2.120195312496919 0
335 4.714874999996278 3.041368749997826 0
336 4.321968749995667 2.968273437497913 0
337 6.500812499997796 0.4553656249996982 0
338 5.88168749999666 0.8898468749994875 0
339 6.036468749996514 0.4449234374997437 0
340 6.167437499998751 1.366096874997565 0
341 5.572124999998195 1.779693749996136 0
342 5.726906249997426 1.334770312497812 0
343 5.834062499999404 2.276828124995978 0
344 5.262562499998033 2.669540624996401 0
345 5.417343749998113 2.224617187496268 0
346 5.500687499998582 3.18755937499788 0
347 5.107781249997414 3.114464062497849 0
348 6.786562499999141 0.9316156249993051 0
349 6.965156249998961 0.4658078124998822 0
350 6.429375000000782 1.86323124999533 0
351 6.607968749999934 1.397423437497388 0
352 6.072187500000466 2.79484687499604 0
353 6.250781250000681 2.329039062495542 0
354 5.893593749999678 3.260654687498058 0
355 8.239124999999531 0.8830312499992703 0
356 9.239249999996021 0.8135624999995471 0
357 10.23937499999221 0.7440937499998354 0
358 11.23949999998938 0.6746249999999452 0
359 12.2396249999927 0.6051562499995756 0
360 13.23974999999437 0.5356874999996045 0
361 14.23987499999769 0.4662187499992347 0
362 7.905750000000852 1.766062499995457 0
363 8.95349999999665 1.627124999996428 0
364 10.00124999999218 1.488187499997421 0
365 11.04899999998935 1.349249999998058 0
366 12.09674999999325 1.210312499997736 0
367 13.14449999999386 1.071374999998211 0
368 14.19224999999776 0.9324374999978891 0
369 7.572375000000347 2.649093749996482 0
370 8.667749999995714 2.440687499997766 0
371 9.763124999990858 2.232281249999082 0
372 10.85849999998828 2.023874999999865 0
373 11.95387499999302 1.81546874999921 0
374 13.04924999999283 1.607062499999749 0
375 14.14462499999757 1.398656249999092 0
376 7.739062499999923 0.917765624999242 0
377 8.405812499999483 0.4415156249996352 0
378 7.917656250000031 0.4588828124998506 0
379 8.739187499997776 0.8482968749994087 0
380 9.382124999996233 0.4067812499997736 0
381 8.893968749998017 0.4241484374997043 0
382 9.739312499994114 0.7788281249996912 0
383 10.35843749999265 0.3720468749999177 0
384 9.87028124999426 0.3894140624998456 0
385 10.7394374999908 0.7093593749998903 0
386 11.33474999998975 0.3373124999999726 0
387 10.8465937499912 0.3546796874999452 0
388 11.73956249999104 0.6398906249997605 0
389 12.31106249999268 0.3025781249997878 0
390 11.82290624999122 0.3199453124998802 0
391 12.73968749999354 0.5704218749995901 0
392 13.2873749999948 0.2678437499998023 0
393 12.79921874999359 0.285210937499795 0
394 13.73981249999603 0.5009531249994196 0
395 14.26368749999774 0.2331093749996173 0
396 13.77553124999627 0.2504765624997098 0
397 14.73993749999884 0.4314843749991395 0
398 14.75184374999886 0.2157421874996426 0
399 7.381875000001441 1.835531249995192 0
400 8.072437500000191 1.324546874997364 0
401 7.560468750000654 1.376648437497287 0
402 8.429624999998751 1.696593749995943 0
403 9.096374999996336 1.220343749997988 0
404 8.584406249998263 1.272445312497676 0
405 9.477374999994417 1.557656249996925 0
406 10.1203124999922 1.116140624998628 0
407 9.608343749994267 1.168242187498308 0
408 10.52512499999077 1.41871874999774 0
409 11.14424999998937 1.011937499999002 0
410 10.63228124999078 1.064039062498815 0
411 11.5728749999913 1.279781249997897 0
412 12.16818749999297 0.907734374998656 0
413 11.65621874999117 0.9598359374988289 0
414 12.62062499999356 1.140843749997974 0
415 13.19212499999412 0.8035312499989078 0
416 12.68015624999354 0.8556328124987818 0
417 13.66837499999581 1.00190624999805 0
418 14.21606249999772 0.6993281249985619 0
419 13.70409374999592 0.7514296874987347 0
420 14.71612499999888 0.8629687499979072 0
421 14.72803124999886 0.6472265624985534 0
422 7.024687500001002 2.75329687499617 0
423 7.7390625000006 2.20757812499597 0
424 7.203281250001279 2.294414062495538 0
425 8.12006249999803 2.544890624997124 0
426 8.810624999996183 2.033906249997097 0
427 8.274843749998389 2.120742187496533 0
428 9.215437499993286 2.336484374998424 0
429 9.88218749999152 1.860234374998252 0
430 9.346406249993851 1.947070312497674 0
431 10.31081249998957 2.128078124999474 0
432 10.95374999998882 1.686562499998962 0
433 10.41796874999017 1.773398437498607 0
434 11.40618749999065 1.919671874999537 0
435 12.02531249999313 1.512890624998473 0
436 11.48953124999098 1.599726562498718 0
437 12.50156249999293 1.711265624999479 0
438 13.09687499999335 1.33921874999898 0
439 12.56109374999324 1.426054687498726 0
440 13.5969374999952 1.50285937499942 0
441 14.16843749999766 1.165546874998491 0
442 13.63265624999551 1.252382812498735 0
443 14.69231249999878 1.294453124999033 0
444 14.70421874999883 1.078710937498498 0
445 7.405687499999532 3.090609374998397 0
446 6.846093749999934 3.212179687498356 0
447 8.524874999994765 2.847468749999635 0
448 7.965281249997501 2.96903906249893 0
449 9.644062499989794 2.604328125000912 0
450 9.084468749991995 2.725898437500342 0
451 10.76324999998743 2.361187500001566 0
452 10.20365624998861 2.482757812501238 0
453 11.88243749999266 2.11804687500054 0
454 11.32284374999009 2.239617187501042 0
455 13.00162499999216 1.87490625000091 0
456 12.44203124999324 1.996476562500523 0
457 14.12081249999739 1.631765624999884 0
458 13.56121874999479 1.753335937500391 0
459 14.68040624999844 1.510195312499748 0
460 7.905749999996344 4.554093749997378 0
461 8.572499999993198 5.57606249999338 0
462 9.239249999993151 6.598031249994342 0
463 8.953499999992939 4.345687499998151 0
464 9.524999999991401 5.437124999993775 0
465 10.09649999999252 6.528562499994886 0
466 10.0012499999894 4.137281249998956 0
467 10.47749999998952 5.29818749999419 0
468 10.95374999999185 6.459093749995441 0
469 11.04899999998701 3.928874999999229 0
470 11.42999999998701 5.15924999999425 0
471 11.81099999998878 6.389624999995819 0
472 12.09674999999245 3.720468749998062 0
473 12.38249999999227 5.020312499993349 0
474 12.66824999999342 6.320156249995717 0
475 13.14449999999211 3.512062499998091 0
476 13.33499999999252 4.881374999993246 0
477 13.52549999999381 6.250687499996014 0
478 14.19224999999669 3.303656249996924 0
479 14.28749999999604 4.742437499992346 0
480 14.38274999999584 6.181218749995911 0
481 7.572374999997531 4.043109374998845 0
482 7.381874999997078 4.658296874997322 0
483 7.024687499998084 4.16467968749885 0
484 8.239124999994772 5.065078124995379 0
485 8.096249999993971 5.645531249993404 0
486 7.739062499995555 5.1519140624954 0
487 8.905874999993173 6.087046874993861 0
488 8.810624999994182 6.63276562499418 0
489 8.453437499993711 6.139148437493337 0
490 9.572624999995014 7.109015624997172 0
491 9.167812499996325 7.126382812497234 0
492 8.667749999993376 3.799968749999827 0
493 8.42962499999464 4.449890624997765 0
494 8.120062499995806 3.92153906249925 0
495 9.23924999999217 4.891406249995963 0
496 9.0487499999923 5.506593749993577 0
497 8.739187499993468 4.97824218749567 0
498 9.810749999991961 5.982843749994331 0
499 9.667874999992836 6.563296874994615 0
500 9.358312499992568 6.034945312494096 0
501 10.3822499999947 7.074281249997443 0
502 9.977437499994773 7.091648437497308 0
503 9.763124999989064 3.556828125000848 0
504 9.477374999991168 4.241484374998554 0
505 9.215437499990939 3.678398437500407 0
506 10.23937499998946 4.717734374996573 0
507 10.00124999999046 5.367656249993982 0
508 9.739312499990813 4.804570312496267 0
509 10.71562499999068 5.878640624994816 0
510 10.52512499999218 6.493828124995163 0
511 10.26318749999132 5.930742187494573 0
512 11.19187499999436 7.03954687499772 0
513 10.78706249999447 7.056914062497581 0
514 10.85849999998679 3.313687500001247 0
515 10.5251249999882 4.033078124999093 0
516 10.31081249998793 3.435257812501048 0
517 11.23949999998701 4.544062499996739 0
518 10.95374999998826 5.22871874999422 0
519 10.73943749998823 4.630898437496656 0
520 11.6204999999879 5.774437499995035 0
521 11.38237499999032 6.42435937499563 0
522 11.16806249998929 5.826539062494926 0
523 12.00149999999075 7.004812499997909 0
524 11.59668749999229 7.022179687497816 0
525 11.95387499999238 3.070546874999967 0
526 11.57287499998973 3.824671874998646 0
527 11.40618749998963 3.192117187500596 0
528 12.23962499999236 4.370390624995705 0
529 11.90624999998964 5.089781249993799 0
530 11.73956249998969 4.457226562496222 0
531 12.52537499999285 5.670234374994533 0
532 12.2396249999911 6.354890624995768 0
533 12.07293749999037 5.722335937494785 0
534 12.8111249999948 6.970078124997858 0
535 12.40631249999276 6.987445312497883 0
536 13.0492499999918 2.827406250000081 0
537 12.62062499999228 3.616265624998077 0
538 12.50156249999292 2.948976562499822 0
539 13.23974999999231 4.196718749995668 0
540 12.85874999999239 4.950843749993297 0
541 12.73968749999234 4.283554687495688 0
542 13.43024999999317 5.56603124999463 0
543 13.09687499999362 6.285421874995866 0
544 12.97781249999301 5.61813281249458 0
545 13.620749999995 6.935343749998006 0
546 13.21593749999463 6.95271093749793 0
547 14.14462499999695 2.584265624998801 0
548 13.6683749999944 3.407859374997507 0
549 13.5969374999944 2.705835937499435 0
550 14.23987499999636 4.023046874994635 0
551 13.81124999999428 4.811906249992796 0
552 13.73981249999434 4.109882812495153 0
553 14.33512499999594 5.461828124994129 0
554 13.95412499999483 6.215953124995963 0
555 13.88268749999456 5.51392968749438 0
556 14.43037499999601 6.900609374997956 0
557 14.0255624999955 6.91797656249798 0
558 14.71612499999834 3.199453124996609 0
559 14.69231249999822 2.462695312498711 0
560 14.76374999999802 4.672968749992075 0
561 14.73993749999818 3.936210937494278 0
562 14.81137499999792 6.14648437499595 0
563 14.78756249999798 5.409726562494015 0
564 14.83518749999801 6.883242187497975 0
565 10.57274999999827 8.810624999999122 0
566 11.23949999999603 10.00124999999365 0
567 11.90624999999761 11.19187499999469 0
568 11.23949999999868 8.858249999998414 0
569 11.81099999999736 10.09649999999388 0
570 12.38249999999932 11.33474999999583 0
571 11.90624999999781 8.905874999997069 0
572 12.38249999999613 10.19174999999284 0
573 12.85874999999719 11.47762499999505 0
574 12.57299999999336 8.953499999995497 0
575 12.95399999999192 10.28699999999134 0
576 13.33499999999266 11.62049999999359 0
577 13.23974999999473 9.001124999993975 0
578 13.52549999999173 10.38224999998995 0
579 13.81124999999036 11.76337499999229 0
580 13.90649999999473 9.048749999993063 0
581 14.09699999999223 10.47749999998977 0
582 14.28749999999083 11.9062499999928 0
583 14.57324999999618 9.096374999992879 0
584 14.66849999999565 10.57274999999105 0
585 14.76374999999566 12.04912499999551 0
586 10.23937499999758 8.215312499999561 0
587 10.239374999999 8.786812499999353 0
588 9.882187499999086 8.203406250000379 0
589 10.90612499999715 9.405937499996384 0
590 10.95374999999565 9.953624999993281 0
591 10.5965624999971 9.370218749995987 0
592 11.57287499999682 10.59656249999417 0
593 11.66812499999641 11.12043749999375 0
594 11.31093749999582 10.5370312499932 0
595 12.23962500000052 11.7871874999982 0
596 12.02531249999942 11.70384374999791 0
597 10.95374999999778 8.239124999999207 0
598 10.90612499999848 8.834437499998767 0
599 10.5965624999976 8.227218749999386 0
600 11.52524999999802 9.477374999996147 0
601 11.52524999999669 10.04887499999376 0
602 11.21568749999759 9.441656249996267 0
603 12.09674999999834 10.71562499999486 0
604 12.14437499999847 11.26331249999526 0
605 11.83481249999758 10.65609374999451 0
606 12.66825000000213 11.95387499999915 0
607 12.45393750000125 11.87053124999864 0
608 11.66812499999734 8.262937499998534 0
609 11.57287499999824 8.88206249999774 0
610 11.3109374999975 8.251031249998871 0
611 12.14437499999697 9.548812499994952 0
612 12.09674999999675 10.14412499999336 0
613 11.8348124999975 9.513093749995552 0
614 12.62062499999666 10.83468749999394 0
615 12.62062499999826 11.40618749999544 0
616 12.3586874999975 10.7751562499944 0
617 13.09687499999924 12.12056249999784 0
618 12.8825625000003 12.0372187499983 0
619 12.38249999999303 8.286749999997749 0
620 12.23962499999558 8.929687499996284 0
621 12.02531249999492 8.274843749998142 0
622 12.76349999999264 9.620249999993419 0
623 12.66824999999403 10.23937499999209 0
624 12.4539374999948 9.584531249994186 0
625 13.14449999999229 10.95374999999247 0
626 13.09687499999493 11.54906249999432 0
627 12.88256249999448 10.8942187499932 0
628 13.52549999999425 12.28724999999576 0
629 13.31118749999684 12.20390624999685 0
630 13.09687499999546 8.310562499996987 0
631 12.90637499999404 8.977312499994735 0
632 12.73968749999423 8.298656249997364 0
633 13.38262499999323 9.691687499991964 0
634 13.23974999999182 10.33462499999065 0
635 13.07306249999293 9.655968749992693 0
636 13.66837499999104 11.07281249999112 0
637 13.57312499999151 11.69193749999294 0
638 13.40643749999166 11.01328124999179 0
639 13.95412499999058 12.45393749999385 0
640 13.73981249999242 12.3705937499948 0
641 13.81124999999546 8.334374999996532 0
642 13.57312499999473 9.02493749999352 0
643 13.45406249999518 8.322468749996759 0
644 14.00174999999348 9.763124999991419 0
645 13.81124999999198 10.42987499998986 0
646 13.69218749999335 9.727406249991692 0
647 14.19224999999153 11.19187499999129 0
648 14.04937499999059 11.83481249999255 0
649 13.93031249999128 11.1323437499912 0
650 14.38274999999073 12.62062499999406 0
651 14.16843749999052 12.53728124999389 0
652 14.52562499999618 8.35818749999644 0
653 14.23987499999545 9.072562499992971 0
654 14.16843749999581 8.346281249996485 0
655 14.62087499999591 9.834562499991964 0
656 14.38274999999394 10.52512499999041 0
657 14.31131249999469 9.798843749991692 0
658 14.71612499999566 11.31093749999328 0
659 14.52562499999324 11.97768749999416 0
660 14.45418749999359 11.25140624999229 0
661 14.81137499999598 12.78731249999683 0
662 14.59706249999339 12.70396874999546 0
663 14.90662499999809 9.120187499992664 0
664 14.88281249999809 8.370093749996631 0
665 14.95424999999782 10.62037499999145 0
666 14.93043749999796 9.870281249991413 0
667 15.00187499999783 12.1205624999965 0
668 14.97806249999783 11.37046874999438 0
669 15.02568749999801 12.8706562499978 0
670 11.57287500000253 13.09687500000175 0
671 10.57275000000772 13.81124999999771 0
672 9.572625000007804 14.52562499999708 0
673 12.09675000000422 13.23975000000224 0
674 11.23950000000873 13.90649999999854 0
675 10.38225000000886 14.57324999999775 0
676 12.62062500000222 13.38262500000081 0
677 11.90625000000751 14.00174999999807 0
678 11.19187500000915 14.62087499999777 0
679 13.1444999999987 13.5254999999987 0
680 12.57300000000504 14.09699999999716 0
681 12.00150000000847 14.66849999999757 0
682 13.66837499999437 13.66837499999675 0
683 13.23975000000053 14.19224999999635 0
684 12.81112500000451 14.71612499999742 0
685 14.19224999999367 13.81124999999662 0
686 13.90649999999845 14.28749999999676 0
687 13.62075000000177 14.76374999999787 0
688 14.71612499999726 13.95412499999867 0
689 14.5732499999991 14.38274999999862 0
690 14.43037500000021 14.81137499999906 0
691 12.07293750000298 12.73968750000173 0
692 11.31093750000087 13.02543750000114 0
693 11.84671875000075 12.65634375000128 0
694 11.07281250000512 13.45406249999973 0
695 10.23937500000656 13.76362499999706 0
696 10.77515625000404 13.39453124999888 0
697 10.07268750000776 14.1684374999974 0
698 9.167812500006775 14.50181249999663 0
699 9.703593750006268 14.13271874999711 0
700 9.07256250000518 14.88281249999854 0
701 8.632031250005614 14.87090624999725 0
702 12.52537500000457 12.90637500000235 0
703 11.83481250000337 13.16831250000199 0
704 12.2991562500037 12.823031250002 0
705 11.66812500000647 13.57312500000039 0
706 10.90612500000822 13.85887499999812 0
707 11.37046875000579 13.51359375000005 0
708 10.81087500000879 14.23987499999814 0
709 9.977437500008332 14.54943749999741 0
710 10.44178125000827 14.20415624999777 0
711 9.953625000006641 14.90662499999887 0
712 9.513093750005913 14.89471874999871 0
713 12.97781250000175 13.07306250000072 0
714 12.35868750000322 13.31118750000152 0
715 12.75159375000279 12.98971875000135 0
716 12.26343750000487 13.69218749999944 0
717 11.57287500000812 13.9541249999983 0
718 11.96578125000568 13.63265624999992 0
719 11.54906250000833 14.31131249999792 0
720 10.787062500009 14.59706249999776 0
721 11.17996875000856 14.27559374999803 0
722 10.83468750000807 14.93043749999888 0
723 10.39415625000735 14.91853124999888 0
724 13.43024999999727 13.23974999999831 0
725 12.88256250000046 13.45406249999975 0
726 13.20403124999961 13.15640624999957 0
727 12.85875000000187 13.81124999999793 0
728 12.23962500000628 14.04937499999762 0
729 12.56109375000337 13.75171874999868 0
730 12.28725000000676 14.38274999999736 0
731 11.59668750000881 14.64468749999767 0
732 11.91815625000754 14.34703124999764 0
733 11.71575000000866 14.95424999999878 0
734 11.27521875000826 14.94234374999883 0
735 13.88268749999259 13.40643749999608 0
736 13.40643749999653 13.59693749999772 0
737 13.65646874999493 13.32309374999719 0
738 13.45406249999745 13.93031249999655 0
739 12.90637500000279 14.14462499999676 0
740 13.15640624999965 13.87078124999723 0
741 13.02543750000252 14.45418749999688 0
742 12.40631250000649 14.69231249999749 0
743 12.65634375000463 14.41846874999712 0
744 12.59681250000536 14.97806249999871 0
745 12.1562812500067 14.96615624999874 0
746 14.33512499999215 13.57312499999597 0
747 13.93031249999402 13.73981249999668 0
748 14.10890624999224 13.48978124999596 0
749 14.04937499999606 14.04937499999669 0
750 13.57312499999949 14.23987499999656 0
751 13.75171874999675 13.98984374999661 0
752 13.76362500000011 14.52562499999732 0
753 13.21593750000314 14.73993749999764 0
754 13.39453125000132 14.4899062499971 0
755 13.47787500000266 15.00187499999894 0
756 13.03734375000459 14.98996874999883 0
757 14.78756249999677 13.73981249999841 0
758 14.45418749999547 13.88268749999764 0
759 14.56134374999449 13.65646874999719 0
760 14.64468749999818 14.16843749999865 0
761 14.23987499999878 14.33512499999769 0
762 14.34703124999712 14.10890624999767 0
763 14.50181249999966 14.59706249999884 0
764 14.02556250000099 14.78756249999847 0
765 14.13271874999989 14.56134374999808 0
766 14.35893750000039 15.02568749999953 0
767 13.91840625000173 15.01378124999923 0
768 14.97806249999863 14.02556249999934 0
769 15.0137812499984 13.82315625 0
770 14.90662499999955 14.43037499999931 0
771 14.9423437499991 14.22796874999933 0
772 14.83518750000011 14.83518749999953 0
773 14.87090624999984 14.63278124999969 0
774 14.79946875000041 15.03759374999948 0
775 9.667874999996649 13.07540625000097 0
776 8.286749999994189 13.19681250000142 0
777 6.905624999993465 13.31821875000169 0
778 5.524499999991042 13.43962500000214 0
779 4.143374999993599 13.56103125000192 0
780 2.762249999996162 13.6824375000017 0
781 1.381124999998729 13.80384375000148 0
782 8.667750000003592 13.79693749999742 0
783 7.429500000002144 13.87787499999845 0
784 6.191250000001853 13.95881249999935 0
785 4.953000000000401 14.03975000000037 0
786 3.714750000000533 14.12068750000096 0
787 2.476500000000639 14.20162500000153 0
788 1.238250000000749 14.28256250000211 0
789 7.667625000005425 14.51846874999693 0
790 6.572250000005719 14.5589374999977 0
791 5.476875000006591 14.59940624999841 0
792 4.38150000000684 14.63987499999917 0
793 3.286125000005276 14.68034374999972 0
794 2.190750000003656 14.72081250000026 0
795 1.095375000002038 14.7612812500008 0
796 10.35843749999793 13.01470312500075 0
797 10.16793749999623 12.71464062500071 0
798 10.89421874999774 12.64382031250077 0
799 8.977312499995419 13.13610937500119 0
800 8.715374999992825 12.85628125000116 0
801 9.441656249994535 12.78546093750093 0
802 7.596187499993826 13.25751562500155 0
803 7.262812499991448 12.99792187500141 0
804 7.989093749991972 12.92710156250131 0
805 6.215062499992254 13.37892187500192 0
806 5.810249999988104 13.13956250000186 0
807 6.536531249989971 13.06874218750161 0
808 4.83393749999232 13.50032812500203 0
809 4.357687499991439 13.28120312500153 0
810 5.083968749990097 13.21038281250166 0
811 3.45281249999488 13.62173437500181 0
812 2.905124999994794 13.4228437500012 0
813 3.631406249992988 13.35202343750138 0
814 2.071687499997446 13.74314062500159 0
815 1.452562499998155 13.56448437500087 0
816 2.178843749996546 13.49366406250102 0
817 0.6905624999993647 13.86454687500143 0
818 0.7262812499989514 13.63530468750132 0
819 9.286875000004496 13.75646874999691 0
820 9.167812500000121 13.43617187499919 0
821 9.822656250001536 13.38558593749862 0
822 8.048625000002868 13.83740624999793 0
823 7.858124999998166 13.53734374999993 0
824 8.512968749999143 13.48675781249956 0
825 6.810375000001999 13.9183437499989 0
826 6.548437499997659 13.63851562500052 0
827 7.203281249997914 13.58792968750023 0
828 5.572125000001127 13.99928124999986 0
829 5.238749999995721 13.73968750000125 0
830 5.893593749996692 13.68910156250089 0
831 4.333875000000466 14.08021875000066 0
832 3.929062499997066 13.84085937500144 0
833 4.583906249996392 13.79027343750134 0
834 3.095625000000585 14.16115625000124 0
835 2.6193749999984 13.94203125000161 0
836 3.274218749997732 13.89144531250152 0
837 1.857375000000694 14.24209375000182 0
838 1.309687499999739 14.04320312500179 0
839 1.96453124999907 13.9926171875017 0
840 0.6191250000003743 14.32303125000244 0
841 0.6548437499998695 14.093789062502 0
842 8.215312500005584 14.49823437499655 0
843 8.167687500004508 14.15770312499718 0
844 8.751093750004635 14.127351562497 0
845 7.119937500005572 14.53870312499732 0
846 7.000875000003932 14.21840624999808 0
847 7.584281250004223 14.18805468749763 0
848 6.024562500006155 14.57917187499806 0
849 5.834062500004222 14.27910937499888 0
850 6.417468750004078 14.24875781249848 0
851 4.929187500006716 14.61964062499879 0
852 4.66725000000362 14.33981249999977 0
853 5.250656250003921 14.30946093749933 0
854 3.833812500006058 14.66010937499945 0
855 3.500437500002904 14.40051562500034 0
856 4.083843750003262 14.37016406250005 0
857 2.738437500004466 14.70057812499999 0
858 2.333625000002147 14.46121875000089 0
859 2.917031250002526 14.43086718750062 0
860 1.643062500002847 14.74104687500053 0
861 1.166812500001393 14.52192187500145 0
862 1.75021875000177 14.49157031250117 0
863 0.5476875000010189 14.78151562500109 0
864 0.5834062500006966 14.55227343750177 0
865 7.167562500003678 14.87923437499847 0
866 7.679531250005136 14.86911718749722 0
867 6.143625000005224 14.89946874999885 0
868 6.655593750004454 14.88935156249867 0
869 5.119687500007057 14.9197031249992 0
870 5.63165625000614 14.90958593749903 0
871 4.095750000008537 14.93993749999959 0
872 4.607718750007812 14.92982031249939 0
873 3.071812500006506 14.96017187499986 0
874 3.583781250007569 14.95005468749972 0
875 2.047875000004403 14.98040625000013 0
876 2.559843750005488 14.97028906249999 0
877 1.023937500002302 15.0006406250004 0
878 1.535906250003339 14.99052343750027 0
879 0.5119687500011753 15.01075781250043 0
880 1.428749999997088 11.89884375000211 0
881 1.333499999997202 10.47256250000638 0
882 1.238249999997862 9.046281250003885 0
883 2.857499999992584 11.77743750000114 0
884 2.666999999992955 10.3916250000047 0
885 2.476499999994419 9.005812500003389 0
886 4.286249999988064 11.65603125000017 0
887 4.000499999988669 10.31068750000301 0
888 3.714749999990916 8.965343750002894 0
889 5.71499999998344 11.53462499999919 0
890 5.333999999984142 10.22975000000133 0
891 4.95299999998703 8.924875000002396 0
892 7.143749999986508 11.41321874999756 0
893 6.667499999986622 10.1488124999992 0
894 6.191249999989468 8.88440625000168 0
895 8.57249999998842 11.29181249999609 0
896 8.000999999989022 10.06787499999718 0
897 7.429499999992903 8.843937500001021 0
898 10.00124999999207 11.17040624999445 0
899 9.334499999992577 9.986937499995047 0
900 8.667749999996916 8.803468750000297 0
901 1.476374999997335 12.61198437500118 0
902 0.7143749999985439 11.95954687500266 0
903 0.7381874999985409 12.682804687501 0
904 1.381124999997145 11.18570312500424 0
905 0.6667499999986007 10.51303125000727 0
906 0.6905624999985723 11.23628906250558 0
907 1.285874999997532 9.759421875005133 0
908 0.619124999998931 9.066515625004154 0
909 0.6429374999987658 9.789773437506199 0
910 1.190624999997932 8.333140625001942 0
911 0.5953124999989181 8.343257812502824 0
912 2.952749999993005 12.47034375000092 0
913 2.143124999994836 11.83814062500162 0
914 2.214562499995241 12.54116406250104 0
915 2.762249999992769 11.08453125000292 0
916 2.000249999995078 10.43209375000554 0
917 2.071687499994956 11.13511718750358 0
918 2.571749999993687 9.698718750004042 0
919 1.857374999996141 9.026046875003637 0
920 1.928812499995609 9.729070312504588 0
921 2.381249999994632 8.312906250001694 0
922 1.785937499996313 8.323023437501817 0
923 4.429124999988671 12.32870312500065 0
924 3.571874999990324 11.71673437500065 0
925 3.690937499990711 12.3995234375008 0
926 4.143374999988366 10.98335937500159 0
927 3.333749999990812 10.35115625000385 0
928 3.452812499990567 11.03394531250225 0
929 3.857624999989793 9.638015625002954 0
930 3.095624999992667 8.985578125003141 0
931 3.214687499991739 9.668367187503499 0
932 3.571874999991258 8.292671875001448 0
933 2.976562499992934 8.302789062501571 0
934 5.905499999984303 12.18706250000038 0
935 5.000624999985751 11.59532812499968 0
936 5.167312499986814 12.25788281250048 0
937 5.524499999983791 10.88218750000026 0
938 4.667249999986406 10.27021875000217 0
939 4.833937499986079 10.93277343750092 0
940 5.143499999985586 9.577312500001861 0
941 4.333874999988973 8.945109375002645 0
942 4.500562499987689 9.607664062502407 0
943 4.762499999987433 8.272437500001198 0
944 4.167187499988961 8.282554687501321 0
945 7.38187499998797 12.04542187499934 0
946 6.429374999984974 11.47392187499838 0
947 6.643687499986331 12.11624218749984 0
948 6.905624999986565 10.78101562499838 0
949 6.000749999985382 10.18928125000026 0
950 6.215062499985179 10.83160156249932 0
951 6.429374999988045 9.516609375000439 0
952 5.572124999988249 8.904640625002038 0
953 5.786437499986816 9.546960937501153 0
954 5.953124999989591 8.25220312500084 0
955 5.357812499988737 8.262320312501018 0
956 8.85824999998994 11.9037812499985 0
957 7.858124999987464 11.35251562499682 0
958 8.120062499988789 11.97460156249894 0
959 8.286749999988722 10.67984374999664 0
960 7.334249999987822 10.10834374999819 0
961 7.596187499987646 10.73042968749751 0
962 7.715249999990963 9.455906249999103 0
963 6.810374999991186 8.86417187500135 0
964 7.072312499989504 9.486257812499771 0
965 7.143749999993283 8.23196875000051 0
966 6.548437499991437 8.242085937500674 0
967 10.33462499999394 11.76214062499745 0
968 9.286874999990243 11.23110937499527 0
969 9.596437499991946 11.83296093749797 0
970 9.667874999992321 10.57867187499475 0
971 8.6677499999908 10.02740624999612 0
972 8.977312499990521 10.6292578124957 0
973 9.001124999994747 9.395203124997671 0
974 8.04862499999491 8.823703125000659 0
975 8.358187499992855 9.425554687498387 0
976 8.334374999997264 8.211734375000148 0
977 7.739062499995056 8.22185156250033 0
978 10.71562499999364 11.10970312499363 0
979 11.07281249999649 11.69132031249754 0
980 10.00124999999393 9.946468749993983 0
981 10.35843749999358 10.5280859374935 0
982 9.286874999998318 8.783234374999939 0
983 9.644062499995904 9.36485156249663 0
984 8.929687499999361 8.201617187500677 0
985 1.047749999997601 6.375118750001498 0
986 2.095499999994127 6.41688750000031 0
987 3.143249999990573 6.458656249999116 0
988 4.190999999986627 6.500424999997923 0
989 5.238749999987951 6.542193749996958 0
990 6.286499999990598 6.583962499995941 0
991 7.334249999993494 6.62573124999498 0
992 0.9524999999977399 5.130237500005041 0
993 1.90499999999449 5.213775000003142 0
994 2.857499999991163 5.297312500001233 0
995 3.809999999987576 5.380849999999326 0
996 4.762499999988885 5.464387499997873 0
997 5.71499999999077 5.54792499999632 0
998 6.667499999993151 5.631462499994874 0
999 0.8572499999983213 3.885356250002382 0
1000 1.714499999995738 4.010662500001288 0
1001 2.571749999993081 4.135968750000185 0
1002 3.428999999990294 4.261274999999082 0
1003 4.286249999992032 4.38658124999866 0
1004 5.143499999993598 4.511887499998088 0
1005 6.000749999995906 4.637193749997677 0
1006 0.5238749999988006 6.354234375002071 0
1007 1.095374999997802 6.997559375000749 0
1008 0.5476874999988529 6.98711718750114 0
1009 1.571624999995864 6.396003125000904 0
1010 2.190749999994485 7.018443750000155 0
1011 1.643062499996176 7.008001562500452 0
1012 2.61937499999235 6.437771874999713 0
1013 3.286124999991087 7.039328124999559 0
1014 2.738437499992775 7.028885937499856 0
1015 3.6671249999886 6.47954062499852 0
1016 4.381499999987232 7.060212499998961 0
1017 3.833812499988775 7.04977031249926 0
1018 4.714874999987289 6.521309374997441 0
1019 5.476874999988832 7.08109687499848 0
1020 4.929187499988256 7.07065468749872 0
1021 5.762624999989274 6.56307812499645 0
1022 6.57224999999213 7.101981249997971 0
1023 6.024562499990481 7.091539062498224 0
1024 6.810374999992046 6.604846874995461 0
1025 7.667624999995553 7.12286562499749 0
1026 7.119937499993622 7.112423437497731 0
1027 7.858124999994354 6.646615624994499 0
1028 8.215312499997021 7.133307812497395 0
1029 0.47624999999887 5.088468750005946 0
1030 1.000124999997671 5.75267812500327 0
1031 0.5000624999988352 5.721351562504063 0
1032 1.428749999996115 5.172006250004092 0
1033 2.000249999994309 5.815331250001726 0
1034 1.50018749999599 5.7840046875025 0
1035 2.381249999992827 5.255543750002188 0
1036 3.000374999990868 5.877984375000175 0
1037 2.500312499992588 5.846657812500951 0
1038 3.33374999998937 5.339081250000279 0
1039 4.000499999987102 5.940637499998624 0
1040 3.500437499988985 5.909310937499399 0
1041 4.286249999988231 5.422618749998599 0
1042 5.000624999988418 6.003290624997415 0
1043 4.50056249998776 5.97196406249802 0
1044 5.238749999989827 5.506156249997096 0
1045 6.000749999990684 6.06594374999613 0
1046 5.50068749998955 6.034617187496773 0
1047 6.19124999999196 5.589693749995597 0
1048 7.000874999993322 6.128596874994927 0
1049 6.500812499992003 6.097270312495528 0
1050 7.143749999993947 5.673231249994151 0
1051 7.500937499993787 6.159923437493871 0
1052 0.4286249999991607 3.822703125002861 0
1053 0.9048749999980306 4.507796875003711 0
1054 0.4524374999990153 4.455585937504567 0
1055 1.28587499999703 3.948009375001835 0
1056 1.809749999995114 4.612218750002215 0
1057 1.357312499996572 4.560007812502963 0
1058 2.14312499999441 4.073315625000737 0
1059 2.714624999992122 4.716640625000709 0
1060 2.262187499993619 4.664429687501464 0
1061 3.000374999991688 4.198621874999633 0
1062 3.619499999988935 4.821062499999204 0
1063 3.167062499990529 4.768851562499958 0
1064 3.857624999991163 4.32392812499887 0
1065 4.524374999990458 4.925484374998266 0
1066 4.071937499989698 4.873273437498734 0
1067 4.714874999992815 4.449234374998374 0
1068 5.429249999992184 5.029906249997204 0
1069 4.976812499991321 4.977695312497735 0
1070 5.572124999994752 4.574540624997883 0
1071 6.334124999994529 5.134328124996276 0
1072 5.881687499993356 5.082117187496739 0
1073 6.42937499999686 4.699846874997471 0
1074 6.786562499995434 5.186539062495848 0
1075 0.8096249999985569 3.262915625001059 0
1076 0.4048124999992464 3.189820312501333 0
1077 1.619249999996252 3.409106250000289 0
1078 1.214437499997398 3.336010937500673 0
1079 2.428874999993875 3.555296874999508 0
1080 2.024062499995075 3.482201562499902 0
1081 3.238499999991433 3.701487499998727 0
1082 2.833687499992591 3.628392187499103 0
1083 4.04812499999333 3.847678124998741 0
1084 3.643312499992401 3.774582812498739 0
1085 4.857749999994681 3.99386874999858 0
1086 4.452937499994091 3.920773437498681 0
1087 5.667374999996898 4.140059374998607 0
1088 5.262562499995774 4.06696406249859 0
1089 6.072187499997988 4.213154687498692 0
$EndNodes
$Elements
1295
1 15 2 101 1 1
2 15 2 101 2 2
3 15 2 101 3 3
4 15 2 101 4 4
5 15 2 101 5 5
6 15 2 101 6 6
7 15 2 101 7 7
8 15 2 102 8 8
9 15 2 101 9 9
10 15 2 101 10 10
11 15 2 101 11 11
12 15 2 101 12 12
13 15 2 101 14 13
14 15 2 101 15 14
15 15 2 101 16 15
16 1 2 101 1 1 16
17 1 2 101 1 16 17
18 1 2 101 1 17 18
19 1 2 101 1 18 19
20 1 2 101 1 19 20
21 1 2 101 1 20 21
22 1 2 101 1 21 22
23 1 2 101 1 22 23
24 1 2 101 1 23 24
25 1 2 101 1 24 25
26 1 2 101 1 25 26
27 1 2 101 1 26 27
28 1 2 101 1 27 28
29 1 2 101 1 28 29
30 1 2 101 1 29 30
31 1 2 101 1 30 2
32 1 2 101 2 2 31
33 1 2 101 2 31 32
34 1 2 101 2 32 33
35 1 2 101 2 33 34
36 1 2 101 2 34 35
37 1 2 101 2 35 36
38 1 2 101 2 36 37
39 1 2 101 2 37 38
40 1 2 101 2 38 39
41 1 2 101 2 39 40
42 1 2 101 2 40 41
43 1 2 101 2 41 42
44 1 2 101 2 42 43
45 1 2 101 2 43 44
46 1 2 101 2 44 45
47 1 2 101 2 45 3
48 1 2 101 3 3 46
49 1 2 101 3 46 47
50 1 2 101 3 47 48
51 1 2 101 3 48 49
52 1 2 101 3 49 50
53 1 2 101 3 50 51
54 1 2 101 3 51 52
55 1 2 101 3 52 4
56 1 2 101 4 4 53
57 1 2 101 4 53 54
58 1 2 101 4 54 55
59 1 2 101 4 55 56
60 1 2 101 4 56 57
61 1 2 101 4 57 58
62 1 2 101 4 58 59
63 1 2 101 4 59 5
64 1 2 101 5 5 60
65 1 2 101 5 60 61
66 1 2 101 5 61 62
67 1 2 101 5 62 63
68 1 2 101 5 63 64
69 1 2 101 5 64 65
70 1 2 101 5 65 66
71 1 2 101 5 66 6
72 1 2 101 6 6 67
73 1 2 101 6 67 68
74 1 2 101 6 68 69
75 1 2 101 6 69 70
76 1 2 101 6 70 71
77 1 2 101 6 71 72
78 1 2 101 6 72 73
79 1 2 101 6 73 7
80 1 2 102 7 7 74
81 1 2 102 7 74 75
82 1 2 102 7 75 76
83 1 2 102 7 76 77
84 1 2 102 7 77 78
85 1 2 102 7 78 79
86 1 2 102 7 79 80
87 1 2 102 7 80 81
88 1 2 102 7 81 82
89 1 2 102 7 82 83
90 1 2 102 7 83 84
91 1 2 102 7 84 85
92 1 2 102 7 85 86
93 1 2 102 7 86 87
94 1 2 102 7 87 88
95 1 2 102 7 88 8
96 1 2 102 8 8 89
97 1 2 102 8 89 90
98 1 2 102 8 90 91
99 1 2 102 8 91 92
100 1 2 102 8 92 93
101 1 2 102 8 93 94
102 1 2 102 8 94 95
103 1 2 102 8 95 96
104 1 2 102 8 96 97
105 1 2 102 8 97 98
106 1 2 102 8 98 99
107 1 2 102 8 99 100
108 1 2 102 8 100 101
109 1 2 102 8 101 102
110 1 2 102 8 102 103
111 1 2 102 8 103 9
112 1 2 101 9 9 104
113 1 2 101 9 104 105
114 1 2 101 9 105 106
115 1 2 101 9 106 107
116 1 2 101 9 107 108
117 1 2 101 9 108 109
118 1 2 101 9 109 110
119 1 2 101 9 110 10
120 1 2 101 10 10 111
121 1 2 101 10 111 112
122 1 2 101 10 112 113
123 1 2 101 10 113 114
124 1 2 101 10 114 115
125 1 2 101 10 115 116
126 1 2 101 10 116 117
127 1 2 101 10 117 11
128 1 2 101 11 11 118
129 1 2 101 11 118 119
130 1 2 101 11 119 120
131 1 2 101 11 120 121
132 1 2 101 11 121 122
133 1 2 101 11 122 123
134 1 2 101 11 123 124
135 1 2 101 11 124 12
136 1 2 101 12 12 125
137 1 2 101 12 125 126
138 1 2 101 12 126 127
139 1 2 101 12 127 128
140 1 2 101 12 128 129
141 1 2 101 12 129 130
142 1 2 101 12 130 131
143 1 2 101 12 131 1
144 1 2 0 13 2 132
145 1 2 0 13 132 133
146 1 2 0 13 133 134
147 1 2 0 13 134 135
148 1 2 0 13 135 136
149 1 2 0 13 136 137
150 1 2 0 13 137 138
151 1 2 0 13 138 15
152 1 2 0 14 15 139
153 1 2 0 14 139 140
154 1 2 0 14 140 141
155 1 2 0 14 141 142
156 1 2 0 14 142 143
157 1 2 0 14 143 144
158 1 2 0 14 144 145
159 1 2 0 14 145 13
160 1 2 0 15 13 146
161 1 2 0 15 146 147
162 1 2 0 15 147 148
163 1 2 0 15 148 149
164 1 2 0 15 149 150
165 1 2 0 15 150 151
166 1 2 0 15 151 152
167 1 2 0 15 152 14
168 1 2 0 16 14 153
169 1 2 0 16 153 154
170 1 2 0 16 154 155
171 1 2 0 16 155 156
172 1 2 0 16 156 157
173 1 2 0 16 157 158
174 1 2 0 16 158 159
175 1 2 0 16 159 8
176 1 2 0 17 10 160
177 1 2 0 17 160 161
178 1 2 0 17 161 162
179 1 2 0 17 162 163
180 1 2 0 17 163 164
181 1 2 0 17 164 165
182 1 2 0 17 165 166
183 1 2 0 17 166 167
184 1 2 0 17 167 168
185 1 2 0 17 168 169
186 1 2 0 17 169 170
187 1 2 0 17 170 171
188 1 2 0 17 171 172
189 1 2 0 17 172 173
190 1 2 0 17 173 174
191 1 2 0 17 174 14
192 1 2 0 18 14 175
193 1 2 0 18 175 176
194 1 2 0 18 176 177
195 1 2 0 18 177 178
196 1 2 0 18 178 179
197 1 2 0 18 179 180
198 1 2 0 18 180 181
199 1 2 0 18 181 182
200 1 2 0 18 182 183
201 1 2 0 18 183 184
202 1 2 0 18 184 185
203 1 2 0 18 185 186
204 1 2 0 18 186 187
205 1 2 0 18 187 188
206 1 2 0 18 188 189
207 1 2 0 18 189 6
208 1 2 0 19 11 190
209 1 2 0 19 190 191
210 1 2 0 19 191 192
211 1 2 0 19 192 193
212 1 2 0 19 193 194
213 1 2 0 19 194 195
214 1 2 0 19 195 196
215 1 2 0 19 196 197
216 1 2 0 19 197 198
217 1 2 0 19 198 199
218 1 2 0 19 199 200
219 1 2 0 19 200 201
220 1 2 0 19 201 202
221 1 2 0 19 202 203
222 1 2 0 19 203 204
223 1 2 0 19 204 13
224 1 2 0 20 13 205
225 1 2 0 20 205 206
226 1 2 0 20 206 207
227 1 2 0 20 207 208
228 1 2 0 20 208 209
229 1 2 0 20 209 210
230 1 2 0 20 210 211
231 1 2 0 20 211 212
232 1 2 0 20 212 213
233 1 2 0 20 213 214
234 1 2 0 20 214 215
235 1 2 0 20 215 216
236 1 2 0 20 216 217
237 1 2 0 20 217 218
238 1 2 0 20 218 219
239 1 2 0 20 219 5
240 1 2 0 21 12 220
241 1 2 0 21 220 221
242 1 2 0 21 221 222
243 1 2 0 21 222 223
244 1 2 0 21 223 224
245 1 2 0 21 224 225
246 1 2 0 21 225 226
247 1 2 0 21 226 227
248 1 2 0 21 227 228
249 1 2 0 21 228 229
250 1 2 0 21 229 230
251 1 2 0 21 230 231
252 1 2 0 21 231 232
253 1 2 0 21 232 233
254 1 2 0 21 233 234
255 1 2 0 21 234 15
256 1 2 0 22 15 235
257 1 2 0 22 235 236
258 1 2 0 22 236 237
259 1 2 0 22 237 238
260 1 2 0 22 238 239
261 1 2 0 22 239 240
262 1 2 0 22 240 241
263 1 2 0 22 241 242
264 1 2 0 22 242 243
265 1 2 0 22 243 244
266 1 2 0 22 244 245
267 1 2 0 22 245 246
268 1 2 0 22 246 247
269 1 2 0 22 247 248
270 1 2 0 22 248 249
271 1 2 0 22 249 4
272 3 2 0 24 1 16 273 131
273 3 2 0 24 16 17 271 273
274 3 2 0 24 273 271 250 272
275 3 2 0 24 131 273 272 130
276 3 2 0 24 130 272 276 129
277 3 2 0 24 272 250 274 276
278 3 2 0 24 276 274 251 275
279 3 2 0 24 129 276 275 128
280 3 2 0 24 128 275 279 127
281 3 2 0 24 275 251 277 279
282 3 2 0 24 279 277 252 278
283 3 2 0 24 127 279 278 126
284 3 2 0 24 126 278 281 125
285 3 2 0 24 278 252 280 281
286 3 2 0 24 281 280 221 220
287 3 2 0 24 125 281 220 12
288 3 2 0 24 17 18 284 271
289 3 2 0 24 18 19 282 284
290 3 2 0 24 284 282 253 283
291 3 2 0 24 271 284 283 250
292 3 2 0 24 250 283 287 274
293 3 2 0 24 283 253 285 287
294 3 2 0 24 287 285 254 286
295 3 2 0 24 274 287 286 251
296 3 2 0 24 251 286 290 277
297 3 2 0 24 286 254 288 290
298 3 2 0 24 290 288 255 289
299 3 2 0 24 277 290 289 252
300 3 2 0 24 252 289 292 280
301 3 2 0 24 289 255 291 292
302 3 2 0 24 292 291 223 222
303 3 2 0 24 280 292 222 221
304 3 2 0 24 19 20 295 282
305 3 2 0 24 20 21 293 295
306 3 2 0 24 295 293 256 294
307 3 2 0 24 282 295 294 253
308 3 2 0 24 253 294 298 285
309 3 2 0 24 294 256 296 298
310 3 2 0 24 298 296 257 297
311 3 2 0 24 285 298 297 254
312 3 2 0 24 254 297 301 288
313 3 2 0 24 297 257 299 301
314 3 2 0 24 301 299 258 300
315 3 2 0 24 288 301 300 255
316 3 2 0 24 255 300 303 291
317 3 2 0 24 300 258 302 303
318 3 2 0 24 303 302 225 224
319 3 2 0 24 291 303 224 223
320 3 2 0 24 21 22 306 293
321 3 2 0 24 22 23 304 306
322 3 2 0 24 306 304 259 305
323 3 2 0 24 293 306 305 256
324 3 2 0 24 256 305 309 296
325 3 2 0 24 305 259 307 309
326 3 2 0 24 309 307 260 308
327 3 2 0 24 296 309 308 257
328 3 2 0 24 257 308 312 299
329 3 2 0 24 308 260 310 312
330 3 2 0 24 312 310 261 311
331 3 2 0 24 299 312 311 258
332 3 2 0 24 258 311 314 302
333 3 2 0 24 311 261 313 314
334 3 2 0 24 314 313 227 226
335 3 2 0 24 302 314 226 225
336 3 2 0 24 23 24 317 304
337 3 2 0 24 24 25 315 317
338 3 2 0 24 317 315 262 316
339 3 2 0 24 304 317 316 259
340 3 2 0 24 259 316 320 307
341 3 2 0 24 316 262 318 320
342 3 2 0 24 320 318 263 319
343 3 2 0 24 307 320 319 260
344 3 2 0 24 260 319 323 310
345 3 2 0 24 319 263 321 323
346 3 2 0 24 323 321 264 322
347 3 2 0 24 310 323 322 261
348 3 2 0 24 261 322 325 313
349 3 2 0 24 322 264 324 325
350 3 2 0 24 325 324 229 228
351 3 2 0 24 313 325 228 227
352 3 2 0 24 25 26 328 315
353 3 2 0 24 26 27 326 328
354 3 2 0 24 328 326 265 327
355 3 2 0 24 315 328 327 262
356 3 2 0 24 262 327 331 318
357 3 2 0 24 327 265 329 331
358 3 2 0 24 331 329 266 330
359 3 2 0 24 318 331 330 263
360 3 2 0 24 263 330 334 321
361 3 2 0 24 330 266 332 334
362 3 2 0 24 334 332 267 333
363 3 2 0 24 321 334 333 264
364 3 2 0 24 264 333 336 324
365 3 2 0 24 333 267 335 336
366 3 2 0 24 336 335 231 230
367 3 2 0 24 324 336 230 229
368 3 2 0 24 27 28 339 326
369 3 2 0 24 28 29 337 339
370 3 2 0 24 339 337 268 338
371 3 2 0 24 326 339 338 265
372 3 2 0 24 265 338 342 329
373 3 2 0 24 338 268 340 342
374 3 2 0 24 342 340 269 341
375 3 2 0 24 329 342 341 266
376 3 2 0 24 266 341 345 332
377 3 2 0 24 341 269 343 345
378 3 2 0 24 345 343 270 344
379 3 2 0 24 332 345 344 267
380 3 2 0 24 267 344 347 335
381 3 2 0 24 344 270 346 347
382 3 2 0 24 347 346 233 232
383 3 2 0 24 335 347 232 231
384 3 2 0 24 29 30 349 337
385 3 2 0 24 30 2 132 349
386 3 2 0 24 349 132 133 348
387 3 2 0 24 337 349 348 268
388 3 2 0 24 268 348 351 340
389 3 2 0 24 348 133 134 351
390 3 2 0 24 351 134 135 350
391 3 2 0 24 340 351 350 269
392 3 2 0 24 269 350 353 343
393 3 2 0 24 350 135 136 353
394 3 2 0 24 353 136 137 352
395 3 2 0 24 343 353 352 270
396 3 2 0 24 270 352 354 346
397 3 2 0 24 352 137 138 354
398 3 2 0 24 354 138 15 234
399 3 2 0 24 346 354 234 233
400 3 2 0 26 2 132 378 31
401 3 2 0 26 132 133 376 378
402 3 2 0 26 378 376 355 377
403 3 2 0 26 31 378 377 32
404 3 2 0 26 32 377 381 33
405 3 2 0 26 377 355 379 381
406 3 2 0 26 381 379 356 380
407 3 2 0 26 33 381 380 34
408 3 2 0 26 34 380 384 35
409 3 2 0 26 380 356 382 384
410 3 2 0 26 384 382 357 383
411 3 2 0 26 35 384 383 36
412 3 2 0 26 36 383 387 37
413 3 2 0 26 383 357 385 387
414 3 2 0 26 387 385 358 386
415 3 2 0 26 37 387 386 38
416 3 2 0 26 38 386 390 39
417 3 2 0 26 386 358 388 390
418 3 2 0 26 390 388 359 389
419 3 2 0 26 39 390 389 40
420 3 2 0 26 40 389 393 41
421 3 2 0 26 389 359 391 393
422 3 2 0 26 393 391 360 392
423 3 2 0 26 41 393 392 42
424 3 2 0 26 42 392 396 43
425 3 2 0 26 392 360 394 396
426 3 2 0 26 396 394 361 395
427 3 2 0 26 43 396 395 44
428 3 2 0 26 44 395 398 45
429 3 2 0 26 395 361 397 398
430 3 2 0 26 398 397 47 46
431 3 2 0 26 45 398 46 3
432 3 2 0 26 133 134 401 376
433 3 2 0 26 134 135 399 401
434 3 2 0 26 401 399 362 400
435 3 2 0 26 376 401 400 355
436 3 2 0 26 355 400 404 379
437 3 2 0 26 400 362 402 404
438 3 2 0 26 404 402 363 403
439 3 2 0 26 379 404 403 356
440 3 2 0 26 356 403 407 382
441 3 2 0 26 403 363 405 407
442 3 2 0 26 407 405 364 406
443 3 2 0 26 382 407 406 357
444 3 2 0 26 357 406 410 385
445 3 2 0 26 406 364 408 410
446 3 2 0 26 410 408 365 409
447 3 2 0 26 385 410 409 358
448 3 2 0 26 358 409 413 388
449 3 2 0 26 409 365 411 413
450 3 2 0 26 413 411 366 412
451 3 2 0 26 388 413 412 359
452 3 2 0 26 359 412 416 391
453 3 2 0 26 412 366 414 416
454 3 2 0 26 416 414 367 415
455 3 2 0 26 391 416 415 360
456 3 2 0 26 360 415 419 394
457 3 2 0 26 415 367 417 419
458 3 2 0 26 419 417 368 418
459 3 2 0 26 394 419 418 361
460 3 2 0 26 361 418 421 397
461 3 2 0 26 418 368 420 421
462 3 2 0 26 421 420 49 48
463 3 2 0 26 397 421 48 47
464 3 2 0 26 135 136 424 399
465 3 2 0 26 136 137 422 424
466 3 2 0 26 424 422 369 423
467 3 2 0 26 399 424 423 362
468 3 2 0 26 362 423 427 402
469 3 2 0 26 423 369 425 427
470 3 2 0 26 427 425 370 426
471 3 2 0 26 402 427 426 363
472 3 2 0 26 363 426 430 405
473 3 2 0 26 426 370 428 430
474 3 2 0 26 430 428 371 429
475 3 2 0 26 405 430 429 364
476 3 2 0 26 364 429 433 408
477 3 2 0 26 429 371 431 433
478 3 2 0 26 433 431 372 432
479 3 2 0 26 408 433 432 365
480 3 2 0 26 365 432 436 411
481 3 2 0 26 432 372 434 436
482 3 2 0 26 436 434 373 435
483 3 2 0 26 411 436 435 366
484 3 2 0 26 366 435 439 414
485 3 2 0 26 435 373 437 439
486 3 2 0 26 439 437 374 438
487 3 2 0 26 414 439 438 367
488 3 2 0 26 367 438 442 417
489 3 2 0 26 438 374 440 442
490 3 2 0 26 442 440 375 441
491 3 2 0 26 417 442 441 368
492 3 2 0 26 368 441 444 420
493 3 2 0 26 441 375 443 444
494 3 2 0 26 444 443 51 50
495 3 2 0 26 420 444 50 49
496 3 2 0 26 137 138 446 422
497 3 2 0 26 138 15 235 446
498 3 2 0 26 446 235 236 445
499 3 2 0 26 422 446 445 369
500 3 2 0 26 369 445 448 425
501 3 2 0 26 445 236 237 448
502 3 2 0 26 448 237 238 447
503 3 2 0 26 425 448 447 370
504 3 2 0 26 370 447 450 428
505 3 2 0 26 447 238 239 450
506 3 2 0 26 450 239 240 449
507 3 2 0 26 428 450 449 371
508 3 2 0 26 371 449 452 431
509 3 2 0 26 449 240 241 452
510 3 2 0 26 452 241 242 451
511 3 2 0 26 431 452 451 372
512 3 2 0 26 372 451 454 434
513 3 2 0 26 451 242 243 454
514 3 2 0 26 454 243 244 453
515 3 2 0 26 434 454 453 373
516 3 2 0 26 373 453 456 437
517 3 2 0 26 453 244 245 456
518 3 2 0 26 456 245 246 455
519 3 2 0 26 437 456 455 374
520 3 2 0 26 374 455 458 440
521 3 2 0 26 455 246 247 458
522 3 2 0 26 458 247 248 457
523 3 2 0 26 440 458 457 375
524 3 2 0 26 375 457 459 443
525 3 2 0 26 457 248 249 459
526 3 2 0 26 459 249 4 52
527 3 2 0 26 443 459 52 51
528 3 2 0 28 15 235 483 139
529 3 2 0 28 235 236 481 483
530 3 2 0 28 483 481 460 482
531 3 2 0 28 139 483 482 140
532 3 2 0 28 140 482 486 141
533 3 2 0 28 482 460 484 486
534 3 2 0 28 486 484 461 485
535 3 2 0 28 141 486 485 142
536 3 2 0 28 142 485 489 143
537 3 2 0 28 485 461 487 489
538 3 2 0 28 489 487 462 488
539 3 2 0 28 143 489 488 144
540 3 2 0 28 144 488 491 145
541 3 2 0 28 488 462 490 491
542 3 2 0 28 491 490 206 205
543 3 2 0 28 145 491 205 13
544 3 2 0 28 236 237 494 481
545 3 2 0 28 237 238 492 494
546 3 2 0 28 494 492 463 493
547 3 2 0 28 481 494 493 460
548 3 2 0 28 460 493 497 484
549 3 2 0 28 493 463 495 497
550 3 2 0 28 497 495 464 496
551 3 2 0 28 484 497 496 461
552 3 2 0 28 461 496 500 487
553 3 2 0 28 496 464 498 500
554 3 2 0 28 500 498 465 499
555 3 2 0 28 487 500 499 462
556 3 2 0 28 462 499 502 490
557 3 2 0 28 499 465 501 502
558 3 2 0 28 502 501 208 207
559 3 2 0 28 490 502 207 206
560 3 2 0 28 238 239 505 492
561 3 2 0 28 239 240 503 505
562 3 2 0 28 505 503 466 504
563 3 2 0 28 492 505 504 463
564 3 2 0 28 463 504 508 495
565 3 2 0 28 504 466 506 508
566 3 2 0 28 508 506 467 507
567 3 2 0 28 495 508 507 464
568 3 2 0 28 464 507 511 498
569 3 2 0 28 507 467 509 511
570 3 2 0 28 511 509 468 510
571 3 2 0 28 498 511 510 465
572 3 2 0 28 465 510 513 501
573 3 2 0 28 510 468 512 513
574 3 2 0 28 513 512 210 209
575 3 2 0 28 501 513 209 208
576 3 2 0 28 240 241 516 503
577 3 2 0 28 241 242 514 516
578 3 2 0 28 516 514 469 515
579 3 2 0 28 503 516 515 466
580 3 2 0 28 466 515 519 506
581 3 2 0 28 515 469 517 519
582 3 2 0 28 519 517 470 518
583 3 2 0 28 506 519 518 467
584 3 2 0 28 467 518 522 509
585 3 2 0 28 518 470 520 522
586 3 2 0 28 522 520 471 521
587 3 2 0 28 509 522 521 468
588 3 2 0 28 468 521 524 512
589 3 2 0 28 521 471 523 524
590 3 2 0 28 524 523 212 211
591 3 2 0 28 512 524 211 210
592 3 2 0 28 242 243 527 514
593 3 2 0 28 243 244 525 527
594 3 2 0 28 527 525 472 526
595 3 2 0 28 514 527 526 469
596 3 2 0 28 469 526 530 517
597 3 2 0 28 526 472 528 530
598 3 2 0 28 530 528 473 529
599 3 2 0 28 517 530 529 470
600 3 2 0 28 470 529 533 520
601 3 2 0 28 529 473 531 533
602 3 2 0 28 533 531 474 532
603 3 2 0 28 520 533 532 471
604 3 2 0 28 471 532 535 523
605 3 2 0 28 532 474 534 535
606 3 2 0 28 535 534 214 213
607 3 2 0 28 523 535 213 212
608 3 2 0 28 244 245 538 525
609 3 2 0 28 245 246 536 538
610 3 2 0 28 538 536 475 537
611 3 2 0 28 525 538 537 472
612 3 2 0 28 472 537 541 528
613 3 2 0 28 537 475 539 541
614 3 2 0 28 541 539 476 540
615 3 2 0 28 528 541 540 473
616 3 2 0 28 473 540 544 531
617 3 2 0 28 540 476 542 544
618 3 2 0 28 544 542 477 543
619 3 2 0 28 531 544 543 474
620 3 2 0 28 474 543 546 534
621 3 2 0 28 543 477 545 546
622 3 2 0 28 546 545 216 215
623 3 2 0 28 534 546 215 214
624 3 2 0 28 246 247 549 536
625 3 2 0 28 247 248 547 549
626 3 2 0 28 549 547 478 548
627 3 2 0 28 536 549 548 475
628 3 2 0 28 475 548 552 539
629 3 2 0 28 548 478 550 552
630 3 2 0 28 552 550 479 551
631 3 2 0 28 539 552 551 476
632 3 2 0 28 476 551 555 542
633 3 2 0 28 551 479 553 555
634 3 2 0 28 555 553 480 554
635 3 2 0 28 542 555 554 477
636 3 2 0 28 477 554 557 545
637 3 2 0 28 554 480 556 557
638 3 2 0 28 557 556 218 217
639 3 2 0 28 545 557 217 216
640 3 2 0 28 248 249 559 547
641 3 2 0 28 249 4 53 559
642 3 2 0 28 559 53 54 558
643 3 2 0 28 547 559 558 478
644 3 2 0 28 478 558 561 550
645 3 2 0 28 558 54 55 561
646 3 2 0 28 561 55 56 560
647 3 2 0 28 550 561 560 479
648 3 2 0 28 479 560 563 553
649 3 2 0 28 560 56 57 563
650 3 2 0 28 563 57 58 562
651 3 2 0 28 553 563 562 480
652 3 2 0 28 480 562 564 556
653 3 2 0 28 562 58 59 564
654 3 2 0 28 564 59 5 219
655 3 2 0 28 556 564 219 218
656 3 2 0 30 13 205 588 146
657 3 2 0 30 205 206 586 588
658 3 2 0 30 588 586 565 587
659 3 2 0 30 146 588 587 147
660 3 2 0 30 147 587 591 148
661 3 2 0 30 587 565 589 591
662 3 2 0 30 591 589 566 590
663 3 2 0 30 148 591 590 149
664 3 2 0 30 149 590 594 150
665 3 2 0 30 590 566 592 594
666 3 2 0 30 594 592 567 593
667 3 2 0 30 150 594 593 151
668 3 2 0 30 151 593 596 152
669 3 2 0 30 593 567 595 596
670 3 2 0 30 596 595 176 175
671 3 2 0 30 152 596 175 14
672 3 2 0 30 206 207 599 586
673 3 2 0 30 207 208 597 599
674 3 2 0 30 599 597 568 598
675 3 2 0 30 586 599 598 565
676 3 2 0 30 565 598 602 589
677 3 2 0 30 598 568 600 602
678 3 2 0 30 602 600 569 601
679 3 2 0 30 589 602 601 566
680 3 2 0 30 566 601 605 592
681 3 2 0 30 601 569 603 605
682 3 2 0 30 605 603 570 604
683 3 2 0 30 592 605 604 567
684 3 2 0 30 567 604 607 595
685 3 2 0 30 604 570 606 607
686 3 2 0 30 607 606 178 177
687 3 2 0 30 595 607 177 176
688 3 2 0 30 208 209 610 597
689 3 2 0 30 209 210 608 610
690 3 2 0 30 610 608 571 609
691 3 2 0 30 597 610 609 568
692 3 2 0 30 568 609 613 600
693 3 2 0 30 609 571 611 613
694 3 2 0 30 613 611 572 612
695 3 2 0 30 600 613 612 569
696 3 2 0 30 569 612 616 603
697 3 2 0 30 612 572 614 616
698 3 2 0 30 616 614 573 615
699 3 2 0 30 603 616 615 570
700 3 2 0 30 570 615 618 606
701 3 2 0 30 615 573 617 618
702 3 2 0 30 618 617 180 179
703 3 2 0 30 606 618 179 178
704 3 2 0 30 210 211 621 608
705 3 2 0 30 211 212 619 621
706 3 2 0 30 621 619 574 620
707 3 2 0 30 608 621 620 571
708 3 2 0 30 571 620 624 611
709 3 2 0 30 620 574 622 624
710 3 2 0 30 624 622 575 623
711 3 2 0 30 611 624 623 572
712 3 2 0 30 572 623 627 614
713 3 2 0 30 623 575 625 627
714 3 2 0 30 627 625 576 626
715 3 2 0 30 614 627 626 573
716 3 2 0 30 573 626 629 617
717 3 2 0 30 626 576 628 629
718 3 2 0 30 629 628 182 181
719 3 2 0 30 617 629 181 180
720 3 2 0 30 212 213 632 619
721 3 2 0 30 213 214 630 632
722 3 2 0 30 632 630 577 631
723 3 2 0 30 619 632 631 574
724 3 2 0 30 574 631 635 622
725 3 2 0 30 631 577 633 635
726 3 2 0 30 635 633 578 634
727 3 2 0 30 622 635 634 575
728 3 2 0 30 575 634 638 625
729 3 2 0 30 634 578 636 638
730 3 2 0 30 638 636 579 637
731 3 2 0 30 625 638 637 576
732 3 2 0 30 576 637 640 628
733 3 2 0 30 637 579 639 640
734 3 2 0 30 640 639 184 183
735 3 2 0 30 628 640 183 182
736 3 2 0 30 214 215 643 630
737 3 2 0 30 215 216 641 643
738 3 2 0 30 643 641 580 642
739 3 2 0 30 630 643 642 577
740 3 2 0 30 577 642 646 633
741 3 2 0 30 642 580 644 646
742 3 2 0 30 646 644 581 645
743 3 2 0 30 633 646 645 578
744 3 2 0 30 578 645 649 636
745 3 2 0 30 645 581 647 649
746 3 2 0 30 649 647 582 648
747 3 2 0 30 636 649 648 579
748 3 2 0 30 579 648 651 639
749 3 2 0 30 648 582 650 651
750 3 2 0 30 651 650 186 185
751 3 2 0 30 639 651 185 184
752 3 2 0 30 216 217 654 641
753 3 2 0 30 217 218 652 654
754 3 2 0 30 654 652 583 653
755 3 2 0 30 641 654 653 580
756 3 2 0 30 580 653 657 644
757 3 2 0 30 653 583 655 657
758 3 2 0 30 657 655 584 656
759 3 2 0 30 644 657 656 581
760 3 2 0 30 581 656 660 647
761 3 2 0 30 656 584 658 660
762 3 2 0 30 660 658 585 659
763 3 2 0 30 647 660 659 582
764 3 2 0 30 582 659 662 650
765 3 2 0 30 659 585 661 662
766 3 2 0 30 662 661 188 187
767 3 2 0 30 650 662 187 186
768 3 2 0 30 218 219 664 652
769 3 2 0 30 219 5 60 664
770 3 2 0 30 664 60 61 663
771 3 2 0 30 652 664 663 583
772 3 2 0 30 583 663 666 655
773 3 2 0 30 663 61 62 666
774 3 2 0 30 666 62 63 665
775 3 2 0 30 655 666 665 584
776 3 2 0 30 584 665 668 658
777 3 2 0 30 665 63 64 668
778 3 2 0 30 668 64 65 667
779 3 2 0 30 658 668 667 585
780 3 2 0 30 585 667 669 661
781 3 2 0 30 667 65 66 669
782 3 2 0 30 669 66 6 189
783 3 2 0 30 661 669 189 188
784 3 2 0 32 14 175 693 153
785 3 2 0 32 175 176 691 693
786 3 2 0 32 693 691 670 692
787 3 2 0 32 153 693 692 154
788 3 2 0 32 154 692 696 155
789 3 2 0 32 692 670 694 696
790 3 2 0 32 696 694 671 695
791 3 2 0 32 155 696 695 156
792 3 2 0 32 156 695 699 157
793 3 2 0 32 695 671 697 699
794 3 2 0 32 699 697 672 698
795 3 2 0 32 157 699 698 158
796 3 2 0 32 158 698 701 159
797 3 2 0 32 698 672 700 701
798 3 2 0 32 701 700 87 88
799 3 2 0 32 159 701 88 8
800 3 2 0 32 176 177 704 691
801 3 2 0 32 177 178 702 704
802 3 2 0 32 704 702 673 703
803 3 2 0 32 691 704 703 670
804 3 2 0 32 670 703 707 694
805 3 2 0 32 703 673 705 707
806 3 2 0 32 707 705 674 706
807 3 2 0 32 694 707 706 671
808 3 2 0 32 671 706 710 697
809 3 2 0 32 706 674 708 710
810 3 2 0 32 710 708 675 709
811 3 2 0 32 697 710 709 672
812 3 2 0 32 672 709 712 700
813 3 2 0 32 709 675 711 712
814 3 2 0 32 712 711 85 86
815 3 2 0 32 700 712 86 87
816 3 2 0 32 178 179 715 702
817 3 2 0 32 179 180 713 715
818 3 2 0 32 715 713 676 714
819 3 2 0 32 702 715 714 673
820 3 2 0 32 673 714 718 705
821 3 2 0 32 714 676 716 718
822 3 2 0 32 718 716 677 717
823 3 2 0 32 705 718 717 674
824 3 2 0 32 674 717 721 708
825 3 2 0 32 717 677 719 721
826 3 2 0 32 721 719 678 720
827 3 2 0 32 708 721 720 675
828 3 2 0 32 675 720 723 711
829 3 2 0 32 720 678 722 723
830 3 2 0 32 723 722 83 84
831 3 2 0 32 711 723 84 85
832 3 2 0 32 180 181 726 713
833 3 2 0 32 181 182 724 726
834 3 2 0 32 726 724 679 725
835 3 2 0 32 713 726 725 676
836 3 2 0 32 676 725 729 716
837 3 2 0 32 725 679 727 729
838 3 2 0 32 729 727 680 728
839 3 2 0 32 716 729 728 677
840 3 2 0 32 677 728 732 719
841 3 2 0 32 728 680 730 732
842 3 2 0 32 732 730 681 731
843 3 2 0 32 719 732 731 678
844 3 2 0 32 678 731 734 722
845 3 2 0 32 731 681 733 734
846 3 2 0 32 734 733 81 82
847 3 2 0 32 722 734 82 83
848 3 2 0 32 182 183 737 724
849 3 2 0 32 183 184 735 737
850 3 2 0 32 737 735 682 736
851 3 2 0 32 724 737 736 679
852 3 2 0 32 679 736 740 727
853 3 2 0 32 736 682 738 740
854 3 2 0 32 740 738 683 739
855 3 2 0 32 727 740 739 680
856 3 2 0 32 680 739 743 730
857 3 2 0 32 739 683 741 743
858 3 2 0 32 743 741 684 742
859 3 2 0 32 730 743 742 681
860 3 2 0 32 681 742 745 733
861 3 2 0 32 742 684 744 745
862 3 2 0 32 745 744 79 80
863 3 2 0 32 733 745 80 81
864 3 2 0 32 184 185 748 735
865 3 2 0 32 185 186 746 748
866 3 2 0 32 748 746 685 747
867 3 2 0 32 735 748 747 682
868 3 2 0 32 682 747 751 738
869 3 2 0 32 747 685 749 751
870 3 2 0 32 751 749 686 750
871 3 2 0 32 738 751 750 683
872 3 2 0 32 683 750 754 741
873 3 2 0 32 750 686 752 754
874 3 2 0 32 754 752 687 753
875 3 2 0 32 741 754 753 684
876 3 2 0 32 684 753 756 744
877 3 2 0 32 753 687 755 756
878 3 2 0 32 756 755 77 78
879 3 2 0 32 744 756 78 79
880 3 2 0 32 186 187 759 746
881 3 2 0 32 187 188 757 759
882 3 2 0 32 759 757 688 758
883 3 2 0 32 746 759 758 685
884 3 2 0 32 685 758 762 749
885 3 2 0 32 758 688 760 762
886 3 2 0 32 762 760 689 761
887 3 2 0 32 749 762 761 686
888 3 2 0 32 686 761 765 752
889 3 2 0 32 761 689 763 765
890 3 2 0 32 765 763 690 764
891 3 2 0 32 752 765 764 687
892 3 2 0 32 687 764 767 755
893 3 2 0 32 764 690 766 767
894 3 2 0 32 767 766 75 76
895 3 2 0 32 755 767 76 77
896 3 2 0 32 188 189 769 757
897 3 2 0 32 189 6 67 769
898 3 2 0 32 769 67 68 768
899 3 2 0 32 757 769 768 688
900 3 2 0 32 688 768 771 760
901 3 2 0 32 768 68 69 771
902 3 2 0 32 771 69 70 770
903 3 2 0 32 760 771 770 689
904 3 2 0 32 689 770 773 763
905 3 2 0 32 770 70 71 773
906 3 2 0 32 773 71 72 772
907 3 2 0 32 763 773 772 690
908 3 2 0 32 690 772 774 766
909 3 2 0 32 772 72 73 774
910 3 2 0 32 774 73 7 74
911 3 2 0 32 766 774 74 75
912 3 2 0 34 14 153 798 174
913 3 2 0 34 153 154 796 798
914 3 2 0 34 798 796 775 797
915 3 2 0 34 174 798 797 173
916 3 2 0 34 173 797 801 172
917 3 2 0 34 797 775 799 801
918 3 2 0 34 801 799 776 800
919 3 2 0 34 172 801 800 171
920 3 2 0 34 171 800 804 170
921 3 2 0 34 800 776 802 804
922 3 2 0 34 804 802 777 803
923 3 2 0 34 170 804 803 169
924 3 2 0 34 169 803 807 168
925 3 2 0 34 803 777 805 807
926 3 2 0 34 807 805 778 806
927 3 2 0 34 168 807 806 167
928 3 2 0 34 167 806 810 166
929 3 2 0 34 806 778 808 810
930 3 2 0 34 810 808 779 809
931 3 2 0 34 166 810 809 165
932 3 2 0 34 165 809 813 164
933 3 2 0 34 809 779 811 813
934 3 2 0 34 813 811 780 812
935 3 2 0 34 164 813 812 163
936 3 2 0 34 163 812 816 162
937 3 2 0 34 812 780 814 816
938 3 2 0 34 816 814 781 815
939 3 2 0 34 162 816 815 161
940 3 2 0 34 161 815 818 160
941 3 2 0 34 815 781 817 818
942 3 2 0 34 818 817 109 110
943 3 2 0 34 160 818 110 10
944 3 2 0 34 154 155 821 796
945 3 2 0 34 155 156 819 821
946 3 2 0 34 821 819 782 820
947 3 2 0 34 796 821 820 775
948 3 2 0 34 775 820 824 799
949 3 2 0 34 820 782 822 824
950 3 2 0 34 824 822 783 823
951 3 2 0 34 799 824 823 776
952 3 2 0 34 776 823 827 802
953 3 2 0 34 823 783 825 827
954 3 2 0 34 827 825 784 826
955 3 2 0 34 802 827 826 777
956 3 2 0 34 777 826 830 805
957 3 2 0 34 826 784 828 830
958 3 2 0 34 830 828 785 829
959 3 2 0 34 805 830 829 778
960 3 2 0 34 778 829 833 808
961 3 2 0 34 829 785 831 833
962 3 2 0 34 833 831 786 832
963 3 2 0 34 808 833 832 779
964 3 2 0 34 779 832 836 811
965 3 2 0 34 832 786 834 836
966 3 2 0 34 836 834 787 835
967 3 2 0 34 811 836 835 780
968 3 2 0 34 780 835 839 814
969 3 2 0 34 835 787 837 839
970 3 2 0 34 839 837 788 838
971 3 2 0 34 814 839 838 781
972 3 2 0 34 781 838 841 817
973 3 2 0 34 838 788 840 841
974 3 2 0 34 841 840 107 108
975 3 2 0 34 817 841 108 109
976 3 2 0 34 156 157 844 819
977 3 2 0 34 157 158 842 844
978 3 2 0 34 844 842 789 843
979 3 2 0 34 819 844 843 782
980 3 2 0 34 782 843 847 822
981 3 2 0 34 843 789 845 847
982 3 2 0 34 847 845 790 846
983 3 2 0 34 822 847 846 783
984 3 2 0 34 783 846 850 825
985 3 2 0 34 846 790 848 850
986 3 2 0 34 850 848 791 849
987 3 2 0 34 825 850 849 784
988 3 2 0 34 784 849 853 828
989 3 2 0 34 849 791 851 853
990 3 2 0 34 853 851 792 852
991 3 2 0 34 828 853 852 785
992 3 2 0 34 785 852 856 831
993 3 2 0 34 852 792 854 856
994 3 2 0 34 856 854 793 855
995 3 2 0 34 831 856 855 786
996 3 2 0 34 786 855 859 834
997 3 2 0 34 855 793 857 859
998 3 2 0 34 859 857 794 858
999 3 2 0 34 834 859 858 787
1000 3 2 0 34 787 858 862 837
1001 3 2 0 34 858 794 860 862
1002 3 2 0 34 862 860 795 861
1003 3 2 0 34 837 862 861 788
1004 3 2 0 34 788 861 864 840
1005 3 2 0 34 861 795 863 864
1006 3 2 0 34 864 863 105 106
1007 3 2 0 34 840 864 106 107
1008 3 2 0 34 158 159 866 842
1009 3 2 0 34 159 8 89 866
1010 3 2 0 34 866 89 90 865
1011 3 2 0 34 842 866 865 789
1012 3 2 0 34 789 865 868 845
1013 3 2 0 34 865 90 91 868
1014 3 2 0 34 868 91 92 867
1015 3 2 0 34 845 868 867 790
1016 3 2 0 34 790 867 870 848
1017 3 2 0 34 867 92 93 870
1018 3 2 0 34 870 93 94 869
1019 3 2 0 34 848 870 869 791
1020 3 2 0 34 791 869 872 851
1021 3 2 0 34 869 94 95 872
1022 3 2 0 34 872 95 96 871
1023 3 2 0 34 851 872 871 792
1024 3 2 0 34 792 871 874 854
1025 3 2 0 34 871 96 97 874
1026 3 2 0 34 874 97 98 873
1027 3 2 0 34 854 874 873 793
1028 3 2 0 34 793 873 876 857
1029 3 2 0 34 873 98 99 876
1030 3 2 0 34 876 99 100 875
1031 3 2 0 34 857 876 875 794
1032 3 2 0 34 794 875 878 860
1033 3 2 0 34 875 100 101 878
1034 3 2 0 34 878 101 102 877
1035 3 2 0 34 860 878 877 795
1036 3 2 0 34 795 877 879 863
1037 3 2 0 34 877 102 103 879
1038 3 2 0 34 879 103 9 104
1039 3 2 0 34 863 879 104 105
1040 3 2 0 36 10 160 903 111
1041 3 2 0 36 160 161 901 903
1042 3 2 0 36 903 901 880 902
1043 3 2 0 36 111 903 902 112
1044 3 2 0 36 112 902 906 113
1045 3 2 0 36 902 880 904 906
1046 3 2 0 36 906 904 881 905
1047 3 2 0 36 113 906 905 114
1048 3 2 0 36 114 905 909 115
1049 3 2 0 36 905 881 907 909
1050 3 2 0 36 909 907 882 908
1051 3 2 0 36 115 909 908 116
1052 3 2 0 36 116 908 911 117
1053 3 2 0 36 908 882 910 911
1054 3 2 0 36 911 910 191 190
1055 3 2 0 36 117 911 190 11
1056 3 2 0 36 161 162 914 901
1057 3 2 0 36 162 163 912 914
1058 3 2 0 36 914 912 883 913
1059 3 2 0 36 901 914 913 880
1060 3 2 0 36 880 913 917 904
1061 3 2 0 36 913 883 915 917
1062 3 2 0 36 917 915 884 916
1063 3 2 0 36 904 917 916 881
1064 3 2 0 36 881 916 920 907
1065 3 2 0 36 916 884 918 920
1066 3 2 0 36 920 918 885 919
1067 3 2 0 36 907 920 919 882
1068 3 2 0 36 882 919 922 910
1069 3 2 0 36 919 885 921 922
1070 3 2 0 36 922 921 193 192
1071 3 2 0 36 910 922 192 191
1072 3 2 0 36 163 164 925 912
1073 3 2 0 36 164 165 923 925
1074 3 2 0 36 925 923 886 924
1075 3 2 0 36 912 925 924 883
1076 3 2 0 36 883 924 928 915
1077 3 2 0 36 924 886 926 928
1078 3 2 0 36 928 926 887 927
1079 3 2 0 36 915 928 927 884
1080 3 2 0 36 884 927 931 918
1081 3 2 0 36 927 887 929 931
1082 3 2 0 36 931 929 888 930
1083 3 2 0 36 918 931 930 885
1084 3 2 0 36 885 930 933 921
1085 3 2 0 36 930 888 932 933
1086 3 2 0 36 933 932 195 194
1087 3 2 0 36 921 933 194 193
1088 3 2 0 36 165 166 936 923
1089 3 2 0 36 166 167 934 936
1090 3 2 0 36 936 934 889 935
1091 3 2 0 36 923 936 935 886
1092 3 2 0 36 886 935 939 926
1093 3 2 0 36 935 889 937 939
1094 3 2 0 36 939 937 890 938
1095 3 2 0 36 926 939 938 887
1096 3 2 0 36 887 938 942 929
1097 3 2 0 36 938 890 940 942
1098 3 2 0 36 942 940 891 941
1099 3 2 0 36 929 942 941 888
1100 3 2 0 36 888 941 944 932
1101 3 2 0 36 941 891 943 944
1102 3 2 0 36 944 943 197 196
1103 3 2 0 36 932 944 196 195
1104 3 2 0 36 167 168 947 934
1105 3 2 0 36 168 169 945 947
1106 3 2 0 36 947 945 892 946
1107 3 2 0 36 934 947 946 889
1108 3 2 0 36 889 946 950 937
1109 3 2 0 36 946 892 948 950
1110 3 2 0 36 950 948 893 949
1111 3 2 0 36 937 950 949 890
1112 3 2 0 36 890 949 953 940
1113 3 2 0 36 949 893 951 953
1114 3 2 0 36 953 951 894 952
1115 3 2 0 36 940 953 952 891
1116 3 2 0 36 891 952 955 943
1117 3 2 0 36 952 894 954 955
1118 3 2 0 36 955 954 199 198
1119 3 2 0 36 943 955 198 197
1120 3 2 0 36 169 170 958 945
1121 3 2 0 36 170 171 956 958
1122 3 2 0 36 958 956 895 957
1123 3 2 0 36 945 958 957 892
1124 3 2 0 36 892 957 961 948
1125 3 2 0 36 957 895 959 961
1126 3 2 0 36 961 959 896 960
1127 3 2 0 36 948 961 960 893
1128 3 2 0 36 893 960 964 951
1129 3 2 0 36 960 896 962 964
1130 3 2 0 36 964 962 897 963
1131 3 2 0 36 951 964 963 894
1132 3 2 0 36 894 963 966 954
1133 3 2 0 36 963 897 965 966
1134 3 2 0 36 966 965 201 200
1135 3 2 0 36 954 966 200 199
1136 3 2 0 36 171 172 969 956
1137 3 2 0 36 172 173 967 969
1138 3 2 0 36 969 967 898 968
1139 3 2 0 36 956 969 968 895
1140 3 2 0 36 895 968 972 959
1141 3 2 0 36 968 898 970 972
1142 3 2 0 36 972 970 899 971
1143 3 2 0 36 959 972 971 896
1144 3 2 0 36 896 971 975 962
1145 3 2 0 36 971 899 973 975
1146 3 2 0 36 975 973 900 974
1147 3 2 0 36 962 975 974 897
1148 3 2 0 36 897 974 977 965
1149 3 2 0 36 974 900 976 977
1150 3 2 0 36 977 976 203 202
1151 3 2 0 36 965 977 202 201
1152 3 2 0 36 173 174 979 967
1153 3 2 0 36 174 14 152 979
1154 3 2 0 36 979 152 151 978
1155 3 2 0 36 967 979 978 898
1156 3 2 0 36 898 978 981 970
1157 3 2 0 36 978 151 150 981
1158 3 2 0 36 981 150 149 980
1159 3 2 0 36 970 981 980 899
1160 3 2 0 36 899 980 983 973
1161 3 2 0 36 980 149 148 983
1162 3 2 0 36 983 148 147 982
1163 3 2 0 36 973 983 982 900
1164 3 2 0 36 900 982 984 976
1165 3 2 0 36 982 147 146 984
1166 3 2 0 36 984 146 13 204
1167 3 2 0 36 976 984 204 203
1168 3 2 0 38 11 118 1008 190
1169 3 2 0 38 118 119 1006 1008
1170 3 2 0 38 1008 1006 985 1007
1171 3 2 0 38 190 1008 1007 191
1172 3 2 0 38 191 1007 1011 192
1173 3 2 0 38 1007 985 1009 1011
1174 3 2 0 38 1011 1009 986 1010
1175 3 2 0 38 192 1011 1010 193
1176 3 2 0 38 193 1010 1014 194
1177 3 2 0 38 1010 986 1012 1014
1178 3 2 0 38 1014 1012 987 1013
1179 3 2 0 38 194 1014 1013 195
1180 3 2 0 38 195 1013 1017 196
1181 3 2 0 38 1013 987 1015 1017
1182 3 2 0 38 1017 1015 988 1016
1183 3 2 0 38 196 1017 1016 197
1184 3 2 0 38 197 1016 1020 198
1185 3 2 0 38 1016 988 1018 1020
1186 3 2 0 38 1020 1018 989 1019
1187 3 2 0 38 198 1020 1019 199
1188 3 2 0 38 199 1019 1023 200
1189 3 2 0 38 1019 989 1021 1023
1190 3 2 0 38 1023 1021 990 1022
1191 3 2 0 38 200 1023 1022 201
1192 3 2 0 38 201 1022 1026 202
1193 3 2 0 38 1022 990 1024 1026
1194 3 2 0 38 1026 1024 991 1025
1195 3 2 0 38 202 1026 1025 203
1196 3 2 0 38 203 1025 1028 204
1197 3 2 0 38 1025 991 1027 1028
1198 3 2 0 38 1028 1027 144 145
1199 3 2 0 38 204 1028 145 13
1200 3 2 0 38 119 120 1031 1006
1201 3 2 0 38 120 121 1029 1031
1202 3 2 0 38 1031 1029 992 1030
1203 3 2 0 38 1006 1031 1030 985
1204 3 2 0 38 985 1030 1034 1009
1205 3 2 0 38 1030 992 1032 1034
1206 3 2 0 38 1034 1032 993 1033
1207 3 2 0 38 1009 1034 1033 986
1208 3 2 0 38 986 1033 1037 1012
1209 3 2 0 38 1033 993 1035 1037
1210 3 2 0 38 1037 1035 994 1036
1211 3 2 0 38 1012 1037 1036 987
1212 3 2 0 38 987 1036 1040 1015
1213 3 2 0 38 1036 994 1038 1040
1214 3 2 0 38 1040 1038 995 1039
1215 3 2 0 38 1015 1040 1039 988
1216 3 2 0 38 988 1039 1043 1018
1217 3 2 0 38 1039 995 1041 1043
1218 3 2 0 38 1043 1041 996 1042
1219 3 2 0 38 1018 1043 1042 989
1220 3 2 0 38 989 1042 1046 1021
1221 3 2 0 38 1042 996 1044 1046
1222 3 2 0 38 1046 1044 997 1045
1223 3 2 0 38 1021 1046 1045 990
1224 3 2 0 38 990 1045 1049 1024
1225 3 2 0 38 1045 997 1047 1049
1226 3 2 0 38 1049 1047 998 1048
1227 3 2 0 38 1024 1049 1048 991
1228 3 2 0 38 991 1048 1051 1027
1229 3 2 0 38 1048 998 1050 1051
1230 3 2 0 38 1051 1050 142 143
1231 3 2 0 38 1027 1051 143 144
1232 3 2 0 38 121 122 1054 1029
1233 3 2 0 38 122 123 1052 1054
1234 3 2 0 38 1054 1052 999 1053
1235 3 2 0 38 1029 1054 1053 992
1236 3 2 0 38 992 1053 1057 1032
1237 3 2 0 38 1053 999 1055 1057
1238 3 2 0 38 1057 1055 1000 1056
1239 3 2 0 38 1032 1057 1056 993
1240 3 2 0 38 993 1056 1060 1035
1241 3 2 0 38 1056 1000 1058 1060
1242 3 2 0 38 1060 1058 1001 1059
1243 3 2 0 38 1035 1060 1059 994
1244 3 2 0 38 994 1059 1063 1038
1245 3 2 0 38 1059 1001 1061 1063
1246 3 2 0 38 1063 1061 1002 1062
1247 3 2 0 38 1038 1063 1062 995
1248 3 2 0 38 995 1062 1066 1041
1249 3 2 0 38 1062 1002 1064 1066
1250 3 2 0 38 1066 1064 1003 1065
1251 3 2 0 38 1041 1066 1065 996
1252 3 2 0 38 996 1065 1069 1044
1253 3 2 0 38 1065 1003 1067 1069
1254 3 2 0 38 1069 1067 1004 1068
1255 3 2 0 38 1044 1069 1068 997
1256 3 2 0 38 997 1068 1072 1047
1257 3 2 0 38 1068 1004 1070 1072
1258 3 2 0 38 1072 1070 1005 1071
1259 3 2 0 38 1047 1072 1071 998
1260 3 2 0 38 998 1071 1074 1050
1261 3 2 0 38 1071 1005 1073 1074
1262 3 2 0 38 1074 1073 140 141
1263 3 2 0 38 1050 1074 141 142
1264 3 2 0 38 123 124 1076 1052
1265 3 2 0 38 124 12 220 1076
1266 3 2 0 38 1076 220 221 1075
1267 3 2 0 38 1052 1076 1075 999
1268 3 2 0 38 999 1075 1078 1055
1269 3 2 0 38 1075 221 222 1078
1270 3 2 0 38 1078 222 223 1077
1271 3 2 0 38 1055 1078 1077 1000
1272 3 2 0 38 1000 1077 1080 1058
1273 3 2 0 38 1077 223 224 1080
1274 3 2 0 38 1080 224 225 1079
1275 3 2 0 38 1058 1080 1079 1001
1276 3 2 0 38 1001 1079 1082 1061
1277 3 2 0 38 1079 225 226 1082
1278 3 2 0 38 1082 226 227 1081
1279 3 2 0 38 1061 1082 1081 1002
1280 3 2 0 38 1002 1081 1084 1064
1281 3 2 0 38 1081 227 228 1084
1282 3 2 0 38 1084 228 229 1083
1283 3 2 0 38 1064 1084 1083 1003
1284 3 2 0 38 1003 1083 1086 1067
1285 3 2 0 38 1083 229 230 1086
1286 3 2 0 38 1086 230 231 1085
1287 3 2 0 38 1067 1086 1085 1004
1288 3 2 0 38 1004 1085 1088 1070
1289 3 2 0 38 1085 231 232 1088
1290 3 2 0 38 1088 232 233 1087
1291 3 2 0 38 1070 1088 1087 1005
1292 3 2 0 38 1005 1087 1089 1073
1293 3 2 0 38 1087 233 234 1089
1294 3 2 0 38 1089 234 15 139
1295 3 2 0 38 1073 1089 139 140
$EndElements
