$MeshFormat
2.2 0 8
$EndMeshFormat
$Nodes
676
1 0 0 0
2 15.24 0 0
3 15.24 15.24 0
4 0 15.24 0
5 0.6095999999988052 0 0
6 1.219199999997632 0 0
7 1.828799999996694 0 0
8 2.438399999995008 0 0
9 3.047999999993196 0 0
10 3.657599999991384 0 0
11 4.267199999989574 0 0
12 4.876799999987764 0 0
13 5.486399999985953 0 0
14 6.095999999984143 0 0
15 6.705599999982334 0 0
16 7.315199999980523 0 0
17 7.924799999980489 0 0
18 8.534399999982231 0 0
19 9.143999999983972 0 0
20 9.753599999985713 0 0
21 10.36319999998745 0 0
22 10.9727999999885 0 0
23 11.58239999999024 0 0
24 12.19199999999199 0 0
25 12.80159999999373 0 0
26 13.41119999999547 0 0
27 14.02079999999652 0 0
28 14.63039999999826 0 0
29 15.24 0.6095999999988052 0
30 15.24 1.219199999997632 0
31 15.24 1.828799999996694 0
32 15.24 2.438399999995008 0
33 15.24 3.047999999993196 0
34 15.24 3.657599999991384 0
35 15.24 4.267199999989574 0
36 15.24 4.876799999987764 0
37 15.24 5.486399999985953 0
38 15.24 6.095999999984143 0
39 15.24 6.705599999982334 0
40 15.24 7.315199999980523 0
41 15.24 7.924799999980489 0
42 15.24 8.534399999982231 0
43 15.24 9.143999999983972 0
44 15.24 9.753599999985713 0
45 15.24 10.36319999998745 0
46 15.24 10.9727999999885 0
47 15.24 11.58239999999024 0
48 15.24 12.19199999999199 0
49 15.24 12.80159999999373 0
50 15.24 13.41119999999547 0
51 15.24 14.02079999999652 0
52 15.24 14.63039999999826 0
53 14.63040000000006 15.24 0
54 14.02080000000185 15.24 0
55 13.41120000000364 15.24 0
56 12.80160000000543 15.24 0
57 12.19200000000722 15.24 0
58 11.58240000000901 15.24 0
59 10.9728000000108 15.24 0
60 10.36320000001259 15.24 0
61 9.753600000014377 15.24 0
62 9.144000000016167 15.24 0
63 8.534400000017957 15.24 0
64 7.924800000019746 15.24 0
65 7.315200000019758 15.24 0
66 6.705600000018342 15.24 0
67 6.096000000016575 15.24 0
68 5.486400000014808 15.24 0
69 4.876800000013391 15.24 0
70 4.267200000011624 15.24 0
71 3.657600000009859 15.24 0
72 3.048000000008268 15.24 0
73 2.438400000006677 15.24 0
74 1.828800000004912 15.24 0
75 1.219200000003311 15.24 0
76 0.6096000000016401 15.24 0
77 0 14.63040000000006 0
78 0 14.02080000000185 0
79 0 13.41120000000364 0
80 0 12.80160000000543 0
81 0 12.19200000000722 0
82 0 11.58240000000901 0
83 0 10.9728000000108 0
84 0 10.36320000001259 0
85 0 9.753600000014377 0
86 0 9.144000000016167 0
87 0 8.534400000017957 0
88 0 7.924800000019746 0
89 0 7.315200000019758 0
90 0 6.705600000018342 0
91 0 6.096000000016575 0
92 0 5.486400000014808 0
93 0 4.876800000013391 0
94 0 4.267200000011624 0
95 0 3.657600000009859 0
96 0 3.048000000008268 0
97 0 2.438400000006677 0
98 0 1.828800000004912 0
99 0 1.219200000003311 0
100 0 0.6096000000016401 0
101 0.6095999999989186 0.6096000000015266 0
102 0.609599999999032 1.219200000003083 0
103 0.6095999999991454 1.828800000004583 0
104 0.6095999999992587 2.43840000000621 0
105 0.6095999999993722 3.048000000007666 0
106 0.6095999999994856 3.65760000000912 0
107 0.609599999999599 4.267200000010742 0
108 0.6095999999997124 4.876800000012366 0
109 0.6095999999998257 5.486400000013654 0
110 0.6095999999999392 6.096000000015278 0
111 0.6096000000000525 6.7056000000169 0
112 0.6096000000001659 7.315200000018189 0
113 0.6096000000002794 7.924800000018176 0
114 0.6096000000003927 8.534400000016529 0
115 0.6096000000005061 9.144000000014881 0
116 0.6096000000006195 9.753600000013229 0
117 0.6096000000007329 10.36320000001158 0
118 0.6096000000008462 10.9728000000099 0
119 0.6096000000009597 11.58240000000826 0
120 0.6096000000010731 12.19200000000661 0
121 0.6096000000011865 12.80160000000496 0
122 0.6096000000012999 13.41120000000331 0
123 0.6096000000014132 14.02080000000163 0
124 0.6096000000015267 14.63039999999998 0
125 1.21919999999786 0.6096000000014133 0
126 1.219199999998087 1.219200000002857 0
127 1.219199999998314 1.828800000004255 0
128 1.219199999998541 2.438400000005744 0
129 1.219199999998768 3.048000000007062 0
130 1.219199999998995 3.657600000008381 0
131 1.219199999999222 4.26720000000986 0
132 1.219199999999449 4.876800000011341 0
133 1.219199999999677 5.486400000012501 0
134 1.219199999999904 6.096000000013981 0
135 1.219200000000131 6.705600000015461 0
136 1.219200000000358 7.315200000016619 0
137 1.219200000000585 7.924800000016606 0
138 1.219200000000812 8.534400000015101 0
139 1.219200000001039 9.144000000013591 0
140 1.219200000001266 9.753600000012082 0
141 1.219200000001494 10.36320000001058 0
142 1.219200000001721 10.97280000000902 0
143 1.219200000001948 11.58240000000751 0
144 1.219200000002175 12.192000000006 0
145 1.219200000002402 12.80160000000449 0
146 1.219200000002629 13.41120000000298 0
147 1.219200000002856 14.02080000000142 0
148 1.219200000003083 14.63039999999991 0
149 1.828799999997022 0.6096000000012999 0
150 1.828799999997351 1.219200000002629 0
151 1.82879999999768 1.828800000003926 0
152 1.828799999998009 2.438400000005277 0
153 1.828799999998337 3.048000000006459 0
154 1.828799999998666 3.657600000007642 0
155 1.828799999998995 4.267200000008979 0
156 1.828799999999323 4.876800000010316 0
157 1.828799999999652 5.486400000011346 0
158 1.828799999999981 6.096000000012684 0
159 1.82880000000031 6.705600000014022 0
160 1.828800000000638 7.31520000001505 0
161 1.828800000000967 7.924800000015035 0
162 1.828800000001296 8.534400000013672 0
163 1.828800000001625 9.144000000012301 0
164 1.828800000001953 9.753600000010938 0
165 1.828800000002282 10.36320000000957 0
166 1.828800000002611 10.97280000000812 0
167 1.828800000002939 11.58240000000676 0
168 1.828800000003268 12.19200000000539 0
169 1.828800000003597 12.80160000000402 0
170 1.828800000003926 13.41120000000266 0
171 1.828800000004254 14.02080000000121 0
172 1.828800000004583 14.63039999999984 0
173 2.438399999995475 0.6096000000011866 0
174 2.438399999995942 1.219200000002402 0
175 2.438399999996408 1.828800000003597 0
176 2.438399999996875 2.43840000000481 0
177 2.438399999997342 3.048000000005857 0
178 2.438399999997809 3.657600000006903 0
179 2.438399999998275 4.267200000008097 0
180 2.438399999998742 4.876800000009292 0
181 2.438399999999209 5.486400000010192 0
182 2.438399999999676 6.096000000011387 0
183 2.438400000000142 6.705600000012582 0
184 2.438400000000609 7.315200000013482 0
185 2.438400000001076 7.924800000013467 0
186 2.438400000001543 8.534400000012244 0
187 2.43840000000201 9.144000000011015 0
188 2.438400000002476 9.75360000000979 0
189 2.438400000002943 10.36320000000857 0
190 2.43840000000341 10.97280000000723 0
191 2.438400000003877 11.582400000006 0
192 2.438400000004343 12.19200000000478 0
193 2.43840000000481 12.80160000000356 0
194 2.438400000005277 13.41120000000233 0
195 2.438400000005744 14.02080000000099 0
196 2.43840000000621 14.63039999999977 0
197 3.047999999993799 0.609600000001073 0
198 3.047999999994402 1.219200000002175 0
199 3.047999999995005 1.828800000003268 0
200 3.047999999995608 2.438400000004343 0
201 3.047999999996211 3.048000000005254 0
202 3.047999999996813 3.657600000006164 0
203 3.047999999997416 4.267200000007215 0
204 3.047999999998019 4.876800000008267 0
205 3.047999999998622 5.486400000009037 0
206 3.047999999999225 6.096000000010089 0
207 3.047999999999828 6.705600000011141 0
208 3.048000000000431 7.315200000011911 0
209 3.048000000001033 7.924800000011895 0
210 3.048000000001637 8.534400000010812 0
211 3.048000000002239 9.144000000009729 0
212 3.048000000002842 9.753600000008643 0
213 3.048000000003445 10.36320000000756 0
214 3.048000000004048 10.97280000000634 0
215 3.048000000004651 11.58240000000525 0
216 3.048000000005254 12.19200000000417 0
217 3.048000000005857 12.80160000000309 0
218 3.048000000006459 13.411200000002 0
219 3.048000000007062 14.02080000000078 0
220 3.048000000007665 14.6303999999997 0
221 3.657599999992123 0.6096000000009597 0
222 3.657599999992862 1.219200000001948 0
223 3.657599999993601 1.828800000002939 0
224 3.65759999999434 2.438400000003877 0
225 3.657599999995079 3.048000000004651 0
226 3.657599999995818 3.657600000005425 0
227 3.657599999996557 4.267200000006332 0
228 3.657599999997296 4.87680000000724 0
229 3.657599999998035 5.486400000007882 0
230 3.657599999998774 6.096000000008792 0
231 3.657599999999513 6.7056000000097 0
232 3.657600000000252 7.315200000010341 0
233 3.657600000000991 7.924800000010325 0
234 3.65760000000173 8.534400000009381 0
235 3.657600000002469 9.14400000000844 0
236 3.657600000003208 9.753600000007499 0
237 3.657600000003947 10.36320000000655 0
238 3.657600000004686 10.97280000000545 0
239 3.657600000005425 11.58240000000451 0
240 3.657600000006164 12.19200000000356 0
241 3.657600000006903 12.80160000000262 0
242 3.657600000007642 13.41120000000168 0
243 3.657600000008381 14.02080000000057 0
244 3.65760000000912 14.63039999999962 0
245 4.267199999990456 0.6096000000008465 0
246 4.267199999991338 1.219200000001721 0
247 4.267199999992219 1.828800000002611 0
248 4.267199999993101 2.43840000000341 0
249 4.267199999993983 3.048000000004049 0
250 4.267199999994865 3.657600000004686 0
251 4.267199999995748 4.267200000005451 0
252 4.26719999999663 4.876800000006217 0
253 4.267199999997512 5.486400000006729 0
254 4.267199999998394 6.096000000007495 0
255 4.267199999999276 6.70560000000826 0
256 4.267200000000158 7.315200000008774 0
257 4.26720000000104 7.924800000008754 0
258 4.267200000001922 8.534400000007953 0
259 4.267200000002804 9.14400000000715 0
260 4.267200000003686 9.753600000006351 0
261 4.267200000004568 10.36320000000555 0
262 4.26720000000545 10.97280000000455 0
263 4.267200000006333 11.58240000000376 0
264 4.267200000007215 12.19200000000295 0
265 4.267200000008097 12.80160000000215 0
266 4.267200000008979 13.41120000000135 0
267 4.26720000000986 14.02080000000036 0
268 4.267200000010742 14.63039999999956 0
269 4.876799999988789 0.6096000000007328 0
270 4.876799999989814 1.219200000001493 0
271 4.876799999990839 1.828800000002282 0
272 4.876799999991865 2.438400000002943 0
273 4.87679999999289 3.048000000003445 0
274 4.876799999993914 3.657600000003947 0
275 4.876799999994939 4.267200000004568 0
276 4.876799999995964 4.87680000000519 0
277 4.876799999996989 5.486400000005575 0
278 4.876799999998015 6.096000000006197 0
279 4.87679999999904 6.705600000006819 0
280 4.876800000000065 7.315200000007204 0
281 4.87680000000109 7.924800000007184 0
282 4.876800000002115 8.534400000006524 0
283 4.87680000000314 9.144000000005864 0
284 4.876800000004166 9.753600000005203 0
285 4.876800000005191 10.36320000000454 0
286 4.876800000006216 10.97280000000366 0
287 4.876800000007241 11.58240000000301 0
288 4.876800000008266 12.19200000000235 0
289 4.876800000009291 12.80160000000168 0
290 4.876800000010316 13.41120000000102 0
291 4.876800000011341 14.02080000000014 0
292 4.876800000012366 14.63039999999948 0
293 5.486399999987108 0.6096000000006195 0
294 5.486399999988262 1.219200000001266 0
295 5.486399999989416 1.828800000001953 0
296 5.48639999999057 2.438400000002476 0
297 5.486399999991725 3.048000000002843 0
298 5.486399999992878 3.657600000003208 0
299 5.486399999994033 4.267200000003685 0
300 5.486399999995187 4.876800000004167 0
301 5.486399999996341 5.48640000000442 0
302 5.486399999997495 6.0960000000049 0
303 5.48639999999865 6.705600000005378 0
304 5.486399999999803 7.315200000005634 0
305 5.486400000000958 7.924800000005614 0
306 5.486400000002112 8.534400000005096 0
307 5.486400000003266 9.144000000004578 0
308 5.48640000000442 9.75360000000406 0
309 5.486400000005575 10.36320000000354 0
310 5.486400000006729 10.97280000000277 0
311 5.486400000007883 11.58240000000225 0
312 5.486400000009037 12.19200000000173 0
313 5.486400000010192 12.80160000000121 0
314 5.486400000011345 13.4112000000007 0
315 5.4864000000125 14.02079999999993 0
316 5.486400000013654 14.63039999999941 0
317 6.095999999985441 0.6096000000005061 0
318 6.095999999986738 1.21920000000104 0
319 6.095999999988035 1.828800000001625 0
320 6.095999999989332 2.43840000000201 0
321 6.09599999999063 3.048000000002239 0
322 6.095999999991927 3.657600000002469 0
323 6.095999999993224 4.267200000002804 0
324 6.095999999994522 4.87680000000314 0
325 6.095999999995819 5.486400000003267 0
326 6.095999999997116 6.096000000003603 0
327 6.095999999998414 6.70560000000394 0
328 6.095999999999711 7.315200000004063 0
329 6.096000000001008 7.924800000004043 0
330 6.096000000002305 8.534400000003668 0
331 6.096000000003603 9.144000000003292 0
332 6.0960000000049 9.753600000002908 0
333 6.096000000006197 10.36320000000253 0
334 6.096000000007495 10.97280000000188 0
335 6.096000000008791 11.5824000000015 0
336 6.096000000010089 12.19200000000112 0
337 6.096000000011387 12.80160000000075 0
338 6.096000000012683 13.41120000000037 0
339 6.096000000013981 14.02079999999972 0
340 6.096000000015278 14.63039999999934 0
341 6.705599999983774 0.6096000000003926 0
342 6.705599999985214 1.219200000000812 0
343 6.705599999986655 1.828800000001296 0
344 6.705599999988095 2.438400000001543 0
345 6.705599999989535 3.048000000001637 0
346 6.705599999990976 3.65760000000173 0
347 6.705599999992416 4.267200000001923 0
348 6.705599999993856 4.876800000002115 0
349 6.705599999995297 5.486400000002113 0
350 6.705599999996737 6.096000000002307 0
351 6.705599999998177 6.705600000002497 0
352 6.705599999999618 7.315200000002495 0
353 6.705600000001058 7.924800000002473 0
354 6.705600000002499 8.534400000002236 0
355 6.705600000003939 9.144000000001999 0
356 6.705600000005379 9.753600000001764 0
357 6.70560000000682 10.36320000000153 0
358 6.70560000000826 10.97280000000099 0
359 6.7056000000097 11.58240000000075 0
360 6.705600000011141 12.19200000000052 0
361 6.705600000012581 12.80160000000028 0
362 6.705600000014021 13.41120000000004 0
363 6.705600000015462 14.0207999999995 0
364 6.705600000016902 14.63039999999926 0
365 7.315199999982093 0.6096000000002794 0
366 7.315199999983662 1.219200000000585 0
367 7.315199999985231 1.828800000000967 0
368 7.315199999986801 2.438400000001076 0
369 7.31519999998837 3.048000000001033 0
370 7.31519999998994 3.657600000000991 0
371 7.315199999991509 4.26720000000104 0
372 7.315199999993078 4.87680000000109 0
373 7.315199999994648 5.486400000000958 0
374 7.315199999996217 6.096000000001008 0
375 7.315199999997787 6.705600000001058 0
376 7.315199999999356 7.315200000000926 0
377 7.315200000000925 7.924800000000903 0
378 7.315200000002495 8.534400000000808 0
379 7.315200000004064 9.144000000000712 0
380 7.315200000005634 9.753600000000617 0
381 7.315200000007203 10.36320000000052 0
382 7.315200000008773 10.9728000000001 0
383 7.315200000010342 11.5824 0
384 7.315200000011911 12.19199999999991 0
385 7.315200000013481 12.80159999999981 0
386 7.31520000001505 13.41119999999972 0
387 7.31520000001662 14.02079999999929 0
388 7.315200000018189 14.63039999999919 0
389 7.924799999982059 0.6096000000001659 0
390 7.924799999983629 1.219200000000358 0
391 7.9247999999852 1.828800000000638 0
392 7.92479999998677 2.438400000000609 0
393 7.92479999998834 3.04800000000043 0
394 7.924799999989911 3.657600000000252 0
395 7.924799999991481 4.267200000000157 0
396 7.924799999993051 4.876800000000065 0
397 7.924799999994622 5.486399999999803 0
398 7.924799999996192 6.09599999999971 0
399 7.924799999997762 6.705599999999618 0
400 7.924799999999332 7.315199999999356 0
401 7.924800000000903 7.924799999999332 0
402 7.924800000002473 8.53439999999938 0
403 7.924800000004043 9.143999999999426 0
404 7.924800000005614 9.753599999999473 0
405 7.924800000007184 10.36319999999952 0
406 7.924800000008754 10.9727999999992 0
407 7.924800000010325 11.58239999999925 0
408 7.924800000011895 12.1919999999993 0
409 7.924800000013465 12.80159999999935 0
410 7.924800000015035 13.41119999999939 0
411 7.924800000016606 14.02079999999908 0
412 7.924800000018176 14.63039999999912 0
413 8.534399999983659 0.6096000000000524 0
414 8.534399999985089 1.219200000000131 0
415 8.534399999986517 1.828800000000309 0
416 8.534399999987947 2.438400000000142 0
417 8.534399999989375 3.047999999999828 0
418 8.534399999990805 3.657599999999513 0
419 8.534399999992234 4.267199999999276 0
420 8.534399999993664 4.87679999999904 0
421 8.534399999995092 5.486399999998649 0
422 8.534399999996522 6.095999999998413 0
423 8.53439999999795 6.705599999998177 0
424 8.53439999999938 7.315199999997786 0
425 8.534400000000808 7.924799999997762 0
426 8.534400000002238 8.534399999997948 0
427 8.534400000003666 9.143999999998137 0
428 8.534400000005096 9.753599999998325 0
429 8.534400000006524 10.36319999999851 0
430 8.534400000007954 10.97279999999831 0
431 8.534400000009383 11.5823999999985 0
432 8.534400000010812 12.19199999999869 0
433 8.534400000012241 12.80159999999888 0
434 8.534400000013671 13.41119999999906 0
435 8.534400000015099 14.02079999999886 0
436 8.534400000016529 14.63039999999905 0
437 9.14399999998526 0.6095999999999392 0
438 9.143999999986548 1.219199999999904 0
439 9.143999999987836 1.828799999999981 0
440 9.143999999989124 2.438399999999676 0
441 9.143999999990411 3.047999999999224 0
442 9.143999999991699 3.657599999998774 0
443 9.143999999992987 4.267199999998395 0
444 9.143999999994275 4.876799999998015 0
445 9.143999999995563 5.486399999997494 0
446 9.143999999996851 6.095999999997116 0
447 9.143999999998139 6.705599999996738 0
448 9.143999999999426 7.315199999996217 0
449 9.144000000000712 7.924799999996192 0
450 9.144000000002 8.53439999999652 0
451 9.144000000003288 9.143999999996851 0
452 9.144000000004576 9.753599999997178 0
453 9.144000000005864 10.36319999999751 0
454 9.144000000007152 10.97279999999742 0
455 9.14400000000844 11.58239999999775 0
456 9.144000000009728 12.19199999999808 0
457 9.144000000011015 12.80159999999841 0
458 9.144000000012303 13.41119999999873 0
459 9.144000000013591 14.02079999999865 0
460 9.144000000014879 14.63039999999898 0
461 9.753599999986859 0.6095999999998257 0
462 9.753599999988007 1.219199999999677 0
463 9.753599999989152 1.828799999999652 0
464 9.7535999999903 2.438399999999209 0
465 9.753599999991446 3.047999999998622 0
466 9.753599999992593 3.657599999998035 0
467 9.753599999993739 4.267199999997512 0
468 9.753599999994886 4.87679999999699 0
469 9.753599999996032 5.486399999996341 0
470 9.753599999997178 6.095999999995819 0
471 9.753599999998325 6.705599999995296 0
472 9.753599999999471 7.315199999994649 0
473 9.753600000000619 7.924799999994622 0
474 9.753600000001764 8.534399999995092 0
475 9.753600000002912 9.143999999995561 0
476 9.753600000004058 9.75359999999603 0
477 9.753600000005203 10.3631999999965 0
478 9.753600000006351 10.97279999999653 0
479 9.753600000007497 11.582399999997 0
480 9.753600000008644 12.19199999999747 0
481 9.75360000000979 12.80159999999794 0
482 9.753600000010938 13.41119999999841 0
483 9.753600000012083 14.02079999999844 0
484 9.753600000013231 14.63039999999891 0
485 10.36319999998846 0.6095999999997123 0
486 10.36319999998947 1.21919999999945 0
487 10.36319999999047 1.828799999999323 0
488 10.36319999999148 2.438399999998742 0
489 10.36319999999248 3.04799999999802 0
490 10.36319999999349 3.657599999997296 0
491 10.36319999999449 4.267199999996629 0
492 10.3631999999955 4.876799999995964 0
493 10.3631999999965 5.486399999995187 0
494 10.36319999999751 6.095999999994523 0
495 10.36319999999851 6.705599999993857 0
496 10.36319999999952 7.315199999993078 0
497 10.36320000000052 7.924799999993051 0
498 10.36320000000153 8.534399999993664 0
499 10.36320000000253 9.143999999994275 0
500 10.36320000000354 9.753599999994886 0
501 10.36320000000455 10.3631999999955 0
502 10.36320000000555 10.97279999999564 0
503 10.36320000000655 11.58239999999625 0
504 10.36320000000756 12.19199999999686 0
505 10.36320000000857 12.80159999999747 0
506 10.36320000000957 13.41119999999808 0
507 10.36320000001058 14.02079999999822 0
508 10.36320000001158 14.63039999999884 0
509 10.9727999999894 0.609599999999599 0
510 10.97279999999029 1.219199999999222 0
511 10.97279999999118 1.828799999998995 0
512 10.97279999999207 2.438399999998275 0
513 10.97279999999296 3.047999999997416 0
514 10.97279999999385 3.657599999996557 0
515 10.97279999999475 4.267199999995748 0
516 10.97279999999564 4.87679999999494 0
517 10.97279999999653 5.486399999994034 0
518 10.97279999999742 6.095999999993224 0
519 10.97279999999831 6.705599999992416 0
520 10.9727999999992 7.315199999991508 0
521 10.9728000000001 7.924799999991481 0
522 10.97280000000099 8.534399999992235 0
523 10.97280000000188 9.143999999992989 0
524 10.97280000000277 9.753599999993739 0
525 10.97280000000366 10.36319999999449 0
526 10.97280000000456 10.97279999999475 0
527 10.97280000000545 11.5823999999955 0
528 10.97280000000634 12.19199999999625 0
529 10.97280000000723 12.801599999997 0
530 10.97280000000812 13.41119999999776 0
531 10.97280000000901 14.02079999999801 0
532 10.97280000000991 14.63039999999876 0
533 11.582399999991 0.6095999999994856 0
534 11.58239999999175 1.219199999998995 0
535 11.5823999999925 1.828799999998666 0
536 11.58239999999325 2.438399999997809 0
537 11.582399999994 3.047999999996814 0
538 11.58239999999475 3.657599999995818 0
539 11.5823999999955 4.267199999994867 0
540 11.58239999999625 4.876799999993914 0
541 11.582399999997 5.486399999992879 0
542 11.58239999999775 6.095999999991927 0
543 11.5823999999985 6.705599999990976 0
544 11.58239999999925 7.31519999998994 0
545 11.5824 7.924799999989911 0
546 11.58240000000075 8.534399999990807 0
547 11.5824000000015 9.143999999991699 0
548 11.58240000000225 9.753599999992591 0
549 11.582400000003 10.36319999999349 0
550 11.58240000000375 10.97279999999385 0
551 11.58240000000451 11.58239999999475 0
552 11.58240000000525 12.19199999999564 0
553 11.58240000000601 12.80159999999654 0
554 11.58240000000676 13.41119999999743 0
555 11.58240000000751 14.0207999999978 0
556 11.58240000000826 14.63039999999869 0
557 12.1919999999926 0.6095999999993721 0
558 12.1919999999932 1.219199999998768 0
559 12.19199999999381 1.828799999998338 0
560 12.19199999999442 2.438399999997342 0
561 12.19199999999503 3.047999999996211 0
562 12.19199999999564 3.65759999999508 0
563 12.19199999999625 4.267199999993984 0
564 12.19199999999686 4.87679999999289 0
565 12.19199999999747 5.486399999991725 0
566 12.19199999999808 6.095999999990629 0
567 12.19199999999869 6.705599999989537 0
568 12.1919999999993 7.315199999988371 0
569 12.19199999999991 7.92479999998834 0
570 12.19200000000052 8.534399999989379 0
571 12.19200000000113 9.14399999999041 0
572 12.19200000000173 9.753599999991447 0
573 12.19200000000234 10.36319999999248 0
574 12.19200000000295 10.97279999999297 0
575 12.19200000000356 11.582399999994 0
576 12.19200000000417 12.19199999999503 0
577 12.19200000000478 12.80159999999607 0
578 12.19200000000539 13.4111999999971 0
579 12.192000000006 14.02079999999758 0
580 12.19200000000661 14.63039999999862 0
581 12.8015999999942 0.6095999999992589 0
582 12.80159999999466 1.219199999998541 0
583 12.80159999999513 1.828799999998009 0
584 12.8015999999956 2.438399999996875 0
585 12.80159999999607 3.047999999995608 0
586 12.80159999999654 3.65759999999434 0
587 12.801599999997 4.267199999993101 0
588 12.80159999999747 4.876799999991864 0
589 12.80159999999794 5.48639999999057 0
590 12.80159999999841 6.095999999989332 0
591 12.80159999999888 6.705599999988094 0
592 12.80159999999934 7.315199999986801 0
593 12.80159999999981 7.92479999998677 0
594 12.80160000000028 8.534399999987947 0
595 12.80160000000075 9.143999999989124 0
596 12.80160000000122 9.753599999990296 0
597 12.80160000000168 10.36319999999148 0
598 12.80160000000215 10.97279999999207 0
599 12.80160000000262 11.58239999999325 0
600 12.80160000000309 12.19199999999442 0
601 12.80160000000356 12.8015999999956 0
602 12.80160000000402 13.41119999999677 0
603 12.80160000000449 14.02079999999737 0
604 12.80160000000496 14.63039999999855 0
605 13.4111999999958 0.6095999999991454 0
606 13.41119999999612 1.219199999998314 0
607 13.41119999999645 1.828799999997679 0
608 13.41119999999678 2.438399999996408 0
609 13.4111999999971 3.047999999995005 0
610 13.41119999999743 3.657599999993601 0
611 13.41119999999776 4.26719999999222 0
612 13.41119999999808 4.876799999990839 0
613 13.41119999999841 5.486399999989415 0
614 13.41119999999874 6.095999999988035 0
615 13.41119999999906 6.705599999986656 0
616 13.41119999999939 7.31519999998523 0
617 13.41119999999972 7.9247999999852 0
618 13.41120000000004 8.534399999986515 0
619 13.41120000000037 9.143999999987837 0
620 13.4112000000007 9.753599999989152 0
621 13.41120000000102 10.36319999999047 0
622 13.41120000000135 10.97279999999118 0
623 13.41120000000168 11.5823999999925 0
624 13.411200000002 12.19199999999381 0
625 13.41120000000233 12.80159999999513 0
626 13.41120000000266 13.41119999999645 0
627 13.41120000000298 14.02079999999716 0
628 13.41120000000331 14.63039999999848 0
629 14.02079999999673 0.6095999999990319 0
630 14.02079999999694 1.219199999998086 0
631 14.02079999999716 1.828799999997351 0
632 14.02079999999737 2.438399999995942 0
633 14.02079999999758 3.047999999994401 0
634 14.0207999999978 3.657599999992862 0
635 14.02079999999801 4.267199999991338 0
636 14.02079999999822 4.876799999989814 0
637 14.02079999999844 5.486399999988261 0
638 14.02079999999865 6.095999999986739 0
639 14.02079999999886 6.705599999985213 0
640 14.02079999999908 7.31519999998366 0
641 14.02079999999929 7.924799999983628 0
642 14.0207999999995 8.534399999985087 0
643 14.02079999999972 9.143999999986548 0
644 14.02079999999993 9.753599999988008 0
645 14.02080000000014 10.36319999998947 0
646 14.02080000000036 10.97279999999029 0
647 14.02080000000057 11.58239999999174 0
648 14.02080000000078 12.1919999999932 0
649 14.02080000000099 12.80159999999466 0
650 14.02080000000121 13.41119999999612 0
651 14.02080000000142 14.02079999999694 0
652 14.02080000000163 14.63039999999841 0
653 14.63039999999833 0.6095999999989187 0
654 14.6303999999984 1.21919999999786 0
655 14.63039999999847 1.828799999997022 0
656 14.63039999999855 2.438399999995475 0
657 14.63039999999862 3.047999999993799 0
658 14.63039999999869 3.657599999992123 0
659 14.63039999999876 4.267199999990455 0
660 14.63039999999884 4.876799999988789 0
661 14.63039999999891 5.486399999987106 0
662 14.63039999999898 6.09599999998544 0
663 14.63039999999905 6.705599999983774 0
664 14.63039999999912 7.315199999982093 0
665 14.63039999999919 7.924799999982059 0
666 14.63039999999927 8.534399999983659 0
667 14.63039999999934 9.143999999985258 0
668 14.63039999999941 9.753599999986857 0
669 14.63039999999948 10.36319999998846 0
670 14.63039999999955 10.9727999999894 0
671 14.63039999999963 11.58239999999099 0
672 14.6303999999997 12.1919999999926 0
673 14.63039999999977 12.80159999999419 0
674 14.63039999999984 13.4111999999958 0
675 14.63039999999991 14.02079999999673 0
676 14.63039999999999 14.63039999999833 0
$EndNodes
$Elements
729
1 15 2 101 1 1
2 15 2 101 2 2
3 15 2 102 3 3
4 15 2 102 4 4
5 1 2 101 1 1 5
6 1 2 101 1 5 6
7 1 2 101 1 6 7
8 1 2 101 1 7 8
9 1 2 101 1 8 9
10 1 2 101 1 9 10
11 1 2 101 1 10 11
12 1 2 101 1 11 12
13 1 2 101 1 12 13
14 1 2 101 1 13 14
15 1 2 101 1 14 15
16 1 2 101 1 15 16
17 1 2 101 1 16 17
18 1 2 101 1 17 18
19 1 2 101 1 18 19
20 1 2 101 1 19 20
21 1 2 101 1 20 21
22 1 2 101 1 21 22
23 1 2 101 1 22 23
24 1 2 101 1 23 24
25 1 2 101 1 24 25
26 1 2 101 1 25 26
27 1 2 101 1 26 27
28 1 2 101 1 27 28
29 1 2 101 1 28 2
30 1 2 101 2 2 29
31 1 2 101 2 29 30
32 1 2 101 2 30 31
33 1 2 101 2 31 32
34 1 2 101 2 32 33
35 1 2 101 2 33 34
36 1 2 101 2 34 35
37 1 2 101 2 35 36
38 1 2 101 2 36 37
39 1 2 101 2 37 38
40 1 2 101 2 38 39
41 1 2 101 2 39 40
42 1 2 101 2 40 41
43 1 2 101 2 41 42
44 1 2 101 2 42 43
45 1 2 101 2 43 44
46 1 2 101 2 44 45
47 1 2 101 2 45 46
48 1 2 101 2 46 47
49 1 2 101 2 47 48
50 1 2 101 2 48 49
51 1 2 101 2 49 50
52 1 2 101 2 50 51
53 1 2 101 2 51 52
54 1 2 101 2 52 3
55 1 2 102 3 3 53
56 1 2 102 3 53 54
57 1 2 102 3 54 55
58 1 2 102 3 55 56
59 1 2 102 3 56 57
60 1 2 102 3 57 58
61 1 2 102 3 58 59
62 1 2 102 3 59 60
63 1 2 102 3 60 61
64 1 2 102 3 61 62
65 1 2 102 3 62 63
66 1 2 102 3 63 64
67 1 2 102 3 64 65
68 1 2 102 3 65 66
69 1 2 102 3 66 67
70 1 2 102 3 67 68
71 1 2 102 3 68 69
72 1 2 102 3 69 70
73 1 2 102 3 70 71
74 1 2 102 3 71 72
75 1 2 102 3 72 73
76 1 2 102 3 73 74
77 1 2 102 3 74 75
78 1 2 102 3 75 76
79 1 2 102 3 76 4
80 1 2 101 4 4 77
81 1 2 101 4 77 78
82 1 2 101 4 78 79
83 1 2 101 4 79 80
84 1 2 101 4 80 81
85 1 2 101 4 81 82
86 1 2 101 4 82 83
87 1 2 101 4 83 84
88 1 2 101 4 84 85
89 1 2 101 4 85 86
90 1 2 101 4 86 87
91 1 2 101 4 87 88
92 1 2 101 4 88 89
93 1 2 101 4 89 90
94 1 2 101 4 90 91
95 1 2 101 4 91 92
96 1 2 101 4 92 93
97 1 2 101 4 93 94
98 1 2 101 4 94 95
99 1 2 101 4 95 96
100 1 2 101 4 96 97
101 1 2 101 4 97 98
102 1 2 101 4 98 99
103 1 2 101 4 99 100
104 1 2 101 4 100 1
105 3 2 0 6 1 5 101 100
106 3 2 0 6 100 101 102 99
107 3 2 0 6 99 102 103 98
108 3 2 0 6 98 103 104 97
109 3 2 0 6 97 104 105 96
110 3 2 0 6 96 105 106 95
111 3 2 0 6 95 106 107 94
112 3 2 0 6 94 107 108 93
113 3 2 0 6 93 108 109 92
114 3 2 0 6 92 109 110 91
115 3 2 0 6 91 110 111 90
116 3 2 0 6 90 111 112 89
117 3 2 0 6 89 112 113 88
118 3 2 0 6 88 113 114 87
119 3 2 0 6 87 114 115 86
120 3 2 0 6 86 115 116 85
121 3 2 0 6 85 116 117 84
122 3 2 0 6 84 117 118 83
123 3 2 0 6 83 118 119 82
124 3 2 0 6 82 119 120 81
125 3 2 0 6 81 120 121 80
126 3 2 0 6 80 121 122 79
127 3 2 0 6 79 122 123 78
128 3 2 0 6 78 123 124 77
129 3 2 0 6 77 124 76 4
130 3 2 0 6 5 6 125 101
131 3 2 0 6 101 125 126 102
132 3 2 0 6 102 126 127 103
133 3 2 0 6 103 127 128 104
134 3 2 0 6 104 128 129 105
135 3 2 0 6 105 129 130 106
136 3 2 0 6 106 130 131 107
137 3 2 0 6 107 131 132 108
138 3 2 0 6 108 132 133 109
139 3 2 0 6 109 133 134 110
140 3 2 0 6 110 134 135 111
141 3 2 0 6 111 135 136 112
142 3 2 0 6 112 136 137 113
143 3 2 0 6 113 137 138 114
144 3 2 0 6 114 138 139 115
145 3 2 0 6 115 139 140 116
146 3 2 0 6 116 140 141 117
147 3 2 0 6 117 141 142 118
148 3 2 0 6 118 142 143 119
149 3 2 0 6 119 143 144 120
150 3 2 0 6 120 144 145 121
151 3 2 0 6 121 145 146 122
152 3 2 0 6 122 146 147 123
153 3 2 0 6 123 147 148 124
154 3 2 0 6 124 148 75 76
155 3 2 0 6 6 7 149 125
156 3 2 0 6 125 149 150 126
157 3 2 0 6 126 150 151 127
158 3 2 0 6 127 151 152 128
159 3 2 0 6 128 152 153 129
160 3 2 0 6 129 153 154 130
161 3 2 0 6 130 154 155 131
162 3 2 0 6 131 155 156 132
163 3 2 0 6 132 156 157 133
164 3 2 0 6 133 157 158 134
165 3 2 0 6 134 158 159 135
166 3 2 0 6 135 159 160 136
167 3 2 0 6 136 160 161 137
168 3 2 0 6 137 161 162 138
169 3 2 0 6 138 162 163 139
170 3 2 0 6 139 163 164 140
171 3 2 0 6 140 164 165 141
172 3 2 0 6 141 165 166 142
173 3 2 0 6 142 166 167 143
174 3 2 0 6 143 167 168 144
175 3 2 0 6 144 168 169 145
176 3 2 0 6 145 169 170 146
177 3 2 0 6 146 170 171 147
178 3 2 0 6 147 171 172 148
179 3 2 0 6 148 172 74 75
180 3 2 0 6 7 8 173 149
181 3 2 0 6 149 173 174 150
182 3 2 0 6 150 174 175 151
183 3 2 0 6 151 175 176 152
184 3 2 0 6 152 176 177 153
185 3 2 0 6 153 177 178 154
186 3 2 0 6 154 178 179 155
187 3 2 0 6 155 179 180 156
188 3 2 0 6 156 180 181 157
189 3 2 0 6 157 181 182 158
190 3 2 0 6 158 182 183 159
191 3 2 0 6 159 183 184 160
192 3 2 0 6 160 184 185 161
193 3 2 0 6 161 185 186 162
194 3 2 0 6 162 186 187 163
195 3 2 0 6 163 187 188 164
196 3 2 0 6 164 188 189 165
197 3 2 0 6 165 189 190 166
198 3 2 0 6 166 190 191 167
199 3 2 0 6 167 191 192 168
200 3 2 0 6 168 192 193 169
201 3 2 0 6 169 193 194 170
202 3 2 0 6 170 194 195 171
203 3 2 0 6 171 195 196 172
204 3 2 0 6 172 196 73 74
205 3 2 0 6 8 9 197 173
206 3 2 0 6 173 197 198 174
207 3 2 0 6 174 198 199 175
208 3 2 0 6 175 199 200 176
209 3 2 0 6 176 200 201 177
210 3 2 0 6 177 201 202 178
211 3 2 0 6 178 202 203 179
212 3 2 0 6 179 203 204 180
213 3 2 0 6 180 204 205 181
214 3 2 0 6 181 205 206 182
215 3 2 0 6 182 206 207 183
216 3 2 0 6 183 207 208 184
217 3 2 0 6 184 208 209 185
218 3 2 0 6 185 209 210 186
219 3 2 0 6 186 210 211 187
220 3 2 0 6 187 211 212 188
221 3 2 0 6 188 212 213 189
222 3 2 0 6 189 213 214 190
223 3 2 0 6 190 214 215 191
224 3 2 0 6 191 215 216 192
225 3 2 0 6 192 216 217 193
226 3 2 0 6 193 217 218 194
227 3 2 0 6 194 218 219 195
228 3 2 0 6 195 219 220 196
229 3 2 0 6 196 220 72 73
230 3 2 0 6 9 10 221 197
231 3 2 0 6 197 221 222 198
232 3 2 0 6 198 222 223 199
233 3 2 0 6 199 223 224 200
234 3 2 0 6 200 224 225 201
235 3 2 0 6 201 225 226 202
236 3 2 0 6 202 226 227 203
237 3 2 0 6 203 227 228 204
238 3 2 0 6 204 228 229 205
239 3 2 0 6 205 229 230 206
240 3 2 0 6 206 230 231 207
241 3 2 0 6 207 231 232 208
242 3 2 0 6 208 232 233 209
243 3 2 0 6 209 233 234 210
244 3 2 0 6 210 234 235 211
245 3 2 0 6 211 235 236 212
246 3 2 0 6 212 236 237 213
247 3 2 0 6 213 237 238 214
248 3 2 0 6 214 238 239 215
249 3 2 0 6 215 239 240 216
250 3 2 0 6 216 240 241 217
251 3 2 0 6 217 241 242 218
252 3 2 0 6 218 242 243 219
253 3 2 0 6 219 243 244 220
254 3 2 0 6 220 244 71 72
255 3 2 0 6 10 11 245 221
256 3 2 0 6 221 245 246 222
257 3 2 0 6 222 246 247 223
258 3 2 0 6 223 247 248 224
259 3 2 0 6 224 248 249 225
260 3 2 0 6 225 249 250 226
261 3 2 0 6 226 250 251 227
262 3 2 0 6 227 251 252 228
263 3 2 0 6 228 252 253 229
264 3 2 0 6 229 253 254 230
265 3 2 0 6 230 254 255 231
266 3 2 0 6 231 255 256 232
267 3 2 0 6 232 256 257 233
268 3 2 0 6 233 257 258 234
269 3 2 0 6 234 258 259 235
270 3 2 0 6 235 259 260 236
271 3 2 0 6 236 260 261 237
272 3 2 0 6 237 261 262 238
273 3 2 0 6 238 262 263 239
274 3 2 0 6 239 263 264 240
275 3 2 0 6 240 264 265 241
276 3 2 0 6 241 265 266 242
277 3 2 0 6 242 266 267 243
278 3 2 0 6 243 267 268 244
279 3 2 0 6 244 268 70 71
280 3 2 0 6 11 12 269 245
281 3 2 0 6 245 269 270 246
282 3 2 0 6 246 270 271 247
283 3 2 0 6 247 271 272 248
284 3 2 0 6 248 272 273 249
285 3 2 0 6 249 273 274 250
286 3 2 0 6 250 274 275 251
287 3 2 0 6 251 275 276 252
288 3 2 0 6 252 276 277 253
289 3 2 0 6 253 277 278 254
290 3 2 0 6 254 278 279 255
291 3 2 0 6 255 279 280 256
292 3 2 0 6 256 280 281 257
293 3 2 0 6 257 281 282 258
294 3 2 0 6 258 282 283 259
295 3 2 0 6 259 283 284 260
296 3 2 0 6 260 284 285 261
297 3 2 0 6 261 285 286 262
298 3 2 0 6 262 286 287 263
299 3 2 0 6 263 287 288 264
300 3 2 0 6 264 288 289 265
301 3 2 0 6 265 289 290 266
302 3 2 0 6 266 290 291 267
303 3 2 0 6 267 291 292 268
304 3 2 0 6 268 292 69 70
305 3 2 0 6 12 13 293 269
306 3 2 0 6 269 293 294 270
307 3 2 0 6 270 294 295 271
308 3 2 0 6 271 295 296 272
309 3 2 0 6 272 296 297 273
310 3 2 0 6 273 297 298 274
311 3 2 0 6 274 298 299 275
312 3 2 0 6 275 299 300 276
313 3 2 0 6 276 300 301 277
314 3 2 0 6 277 301 302 278
315 3 2 0 6 278 302 303 279
316 3 2 0 6 279 303 304 280
317 3 2 0 6 280 304 305 281
318 3 2 0 6 281 305 306 282
319 3 2 0 6 282 306 307 283
320 3 2 0 6 283 307 308 284
321 3 2 0 6 284 308 309 285
322 3 2 0 6 285 309 310 286
323 3 2 0 6 286 310 311 287
324 3 2 0 6 287 311 312 288
325 3 2 0 6 288 312 313 289
326 3 2 0 6 289 313 314 290
327 3 2 0 6 290 314 315 291
328 3 2 0 6 291 315 316 292
329 3 2 0 6 292 316 68 69
330 3 2 0 6 13 14 317 293
331 3 2 0 6 293 317 318 294
332 3 2 0 6 294 318 319 295
333 3 2 0 6 295 319 320 296
334 3 2 0 6 296 320 321 297
335 3 2 0 6 297 321 322 298
336 3 2 0 6 298 322 323 299
337 3 2 0 6 299 323 324 300
338 3 2 0 6 300 324 325 301
339 3 2 0 6 301 325 326 302
340 3 2 0 6 302 326 327 303
341 3 2 0 6 303 327 328 304
342 3 2 0 6 304 328 329 305
343 3 2 0 6 305 329 330 306
344 3 2 0 6 306 330 331 307
345 3 2 0 6 307 331 332 308
346 3 2 0 6 308 332 333 309
347 3 2 0 6 309 333 334 310
348 3 2 0 6 310 334 335 311
349 3 2 0 6 311 335 336 312
350 3 2 0 6 312 336 337 313
351 3 2 0 6 313 337 338 314
352 3 2 0 6 314 338 339 315
353 3 2 0 6 315 339 340 316
354 3 2 0 6 316 340 67 68
355 3 2 0 6 14 15 341 317
356 3 2 0 6 317 341 342 318
357 3 2 0 6 318 342 343 319
358 3 2 0 6 319 343 344 320
359 3 2 0 6 320 344 345 321
360 3 2 0 6 321 345 346 322
361 3 2 0 6 322 346 347 323
362 3 2 0 6 323 347 348 324
363 3 2 0 6 324 348 349 325
364 3 2 0 6 325 349 350 326
365 3 2 0 6 326 350 351 327
366 3 2 0 6 327 351 352 328
367 3 2 0 6 328 352 353 329
368 3 2 0 6 329 353 354 330
369 3 2 0 6 330 354 355 331
370 3 2 0 6 331 355 356 332
371 3 2 0 6 332 356 357 333
372 3 2 0 6 333 357 358 334
373 3 2 0 6 334 358 359 335
374 3 2 0 6 335 359 360 336
375 3 2 0 6 336 360 361 337
376 3 2 0 6 337 361 362 338
377 3 2 0 6 338 362 363 339
378 3 2 0 6 339 363 364 340
379 3 2 0 6 340 364 66 67
380 3 2 0 6 15 16 365 341
381 3 2 0 6 341 365 366 342
382 3 2 0 6 342 366 367 343
383 3 2 0 6 343 367 368 344
384 3 2 0 6 344 368 369 345
385 3 2 0 6 345 369 370 346
386 3 2 0 6 346 370 371 347
387 3 2 0 6 347 371 372 348
388 3 2 0 6 348 372 373 349
389 3 2 0 6 349 373 374 350
390 3 2 0 6 350 374 375 351
391 3 2 0 6 351 375 376 352
392 3 2 0 6 352 376 377 353
393 3 2 0 6 353 377 378 354
394 3 2 0 6 354 378 379 355
395 3 2 0 6 355 379 380 356
396 3 2 0 6 356 380 381 357
397 3 2 0 6 357 381 382 358
398 3 2 0 6 358 382 383 359
399 3 2 0 6 359 383 384 360
400 3 2 0 6 360 384 385 361
401 3 2 0 6 361 385 386 362
402 3 2 0 6 362 386 387 363
403 3 2 0 6 363 387 388 364
404 3 2 0 6 364 388 65 66
405 3 2 0 6 16 17 389 365
406 3 2 0 6 365 389 390 366
407 3 2 0 6 366 390 391 367
408 3 2 0 6 367 391 392 368
409 3 2 0 6 368 392 393 369
410 3 2 0 6 369 393 394 370
411 3 2 0 6 370 394 395 371
412 3 2 0 6 371 395 396 372
413 3 2 0 6 372 396 397 373
414 3 2 0 6 373 397 398 374
415 3 2 0 6 374 398 399 375
416 3 2 0 6 375 399 400 376
417 3 2 0 6 376 400 401 377
418 3 2 0 6 377 401 402 378
419 3 2 0 6 378 402 403 379
420 3 2 0 6 379 403 404 380
421 3 2 0 6 380 404 405 381
422 3 2 0 6 381 405 406 382
423 3 2 0 6 382 406 407 383
424 3 2 0 6 383 407 408 384
425 3 2 0 6 384 408 409 385
426 3 2 0 6 385 409 410 386
427 3 2 0 6 386 410 411 387
428 3 2 0 6 387 411 412 388
429 3 2 0 6 388 412 64 65
430 3 2 0 6 17 18 413 389
431 3 2 0 6 389 413 414 390
432 3 2 0 6 390 414 415 391
433 3 2 0 6 391 415 416 392
434 3 2 0 6 392 416 417 393
435 3 2 0 6 393 417 418 394
436 3 2 0 6 394 418 419 395
437 3 2 0 6 395 419 420 396
438 3 2 0 6 396 420 421 397
439 3 2 0 6 397 421 422 398
440 3 2 0 6 398 422 423 399
441 3 2 0 6 399 423 424 400
442 3 2 0 6 400 424 425 401
443 3 2 0 6 401 425 426 402
444 3 2 0 6 402 426 427 403
445 3 2 0 6 403 427 428 404
446 3 2 0 6 404 428 429 405
447 3 2 0 6 405 429 430 406
448 3 2 0 6 406 430 431 407
449 3 2 0 6 407 431 432 408
450 3 2 0 6 408 432 433 409
451 3 2 0 6 409 433 434 410
452 3 2 0 6 410 434 435 411
453 3 2 0 6 411 435 436 412
454 3 2 0 6 412 436 63 64
455 3 2 0 6 18 19 437 413
456 3 2 0 6 413 437 438 414
457 3 2 0 6 414 438 439 415
458 3 2 0 6 415 439 440 416
459 3 2 0 6 416 440 441 417
460 3 2 0 6 417 441 442 418
461 3 2 0 6 418 442 443 419
462 3 2 0 6 419 443 444 420
463 3 2 0 6 420 444 445 421
464 3 2 0 6 421 445 446 422
465 3 2 0 6 422 446 447 423
466 3 2 0 6 423 447 448 424
467 3 2 0 6 424 448 449 425
468 3 2 0 6 425 449 450 426
469 3 2 0 6 426 450 451 427
470 3 2 0 6 427 451 452 428
471 3 2 0 6 428 452 453 429
472 3 2 0 6 429 453 454 430
473 3 2 0 6 430 454 455 431
474 3 2 0 6 431 455 456 432
475 3 2 0 6 432 456 457 433
476 3 2 0 6 433 457 458 434
477 3 2 0 6 434 458 459 435
478 3 2 0 6 435 459 460 436
479 3 2 0 6 436 460 62 63
480 3 2 0 6 19 20 461 437
481 3 2 0 6 437 461 462 438
482 3 2 0 6 438 462 463 439
483 3 2 0 6 439 463 464 440
484 3 2 0 6 440 464 465 441
485 3 2 0 6 441 465 466 442
486 3 2 0 6 442 466 467 443
487 3 2 0 6 443 467 468 444
488 3 2 0 6 444 468 469 445
489 3 2 0 6 445 469 470 446
490 3 2 0 6 446 470 471 447
491 3 2 0 6 447 471 472 448
492 3 2 0 6 448 472 473 449
493 3 2 0 6 449 473 474 450
494 3 2 0 6 450 474 475 451
495 3 2 0 6 451 475 476 452
496 3 2 0 6 452 476 477 453
497 3 2 0 6 453 477 478 454
498 3 2 0 6 454 478 479 455
499 3 2 0 6 455 479 480 456
500 3 2 0 6 456 480 481 457
501 3 2 0 6 457 481 482 458
502 3 2 0 6 458 482 483 459
503 3 2 0 6 459 483 484 460
504 3 2 0 6 460 484 61 62
505 3 2 0 6 20 21 485 461
506 3 2 0 6 461 485 486 462
507 3 2 0 6 462 486 487 463
508 3 2 0 6 463 487 488 464
509 3 2 0 6 464 488 489 465
510 3 2 0 6 465 489 490 466
511 3 2 0 6 466 490 491 467
512 3 2 0 6 467 491 492 468
513 3 2 0 6 468 492 493 469
514 3 2 0 6 469 493 494 470
515 3 2 0 6 470 494 495 471
516 3 2 0 6 471 495 496 472
517 3 2 0 6 472 496 497 473
518 3 2 0 6 473 497 498 474
519 3 2 0 6 474 498 499 475
520 3 2 0 6 475 499 500 476
521 3 2 0 6 476 500 501 477
522 3 2 0 6 477 501 502 478
523 3 2 0 6 478 502 503 479
524 3 2 0 6 479 503 504 480
525 3 2 0 6 480 504 505 481
526 3 2 0 6 481 505 506 482
527 3 2 0 6 482 506 507 483
528 3 2 0 6 483 507 508 484
529 3 2 0 6 484 508 60 61
530 3 2 0 6 21 22 509 485
531 3 2 0 6 485 509 510 486
532 3 2 0 6 486 510 511 487
533 3 2 0 6 487 511 512 488
534 3 2 0 6 488 512 513 489
535 3 2 0 6 489 513 514 490
536 3 2 0 6 490 514 515 491
537 3 2 0 6 491 515 516 492
538 3 2 0 6 492 516 517 493
539 3 2 0 6 493 517 518 494
540 3 2 0 6 494 518 519 495
541 3 2 0 6 495 519 520 496
542 3 2 0 6 496 520 521 497
543 3 2 0 6 497 521 522 498
544 3 2 0 6 498 522 523 499
545 3 2 0 6 499 523 524 500
546 3 2 0 6 500 524 525 501
547 3 2 0 6 501 525 526 502
548 3 2 0 6 502 526 527 503
549 3 2 0 6 503 527 528 504
550 3 2 0 6 504 528 529 505
551 3 2 0 6 505 529 530 506
552 3 2 0 6 506 530 531 507
553 3 2 0 6 507 531 532 508
554 3 2 0 6 508 532 59 60
555 3 2 0 6 22 23 533 509
556 3 2 0 6 509 533 534 510
557 3 2 0 6 510 534 535 511
558 3 2 0 6 511 535 536 512
559 3 2 0 6 512 536 537 513
560 3 2 0 6 513 537 538 514
561 3 2 0 6 514 538 539 515
562 3 2 0 6 515 539 540 516
563 3 2 0 6 516 540 541 517
564 3 2 0 6 517 541 542 518
565 3 2 0 6 518 542 543 519
566 3 2 0 6 519 543 544 520
567 3 2 0 6 520 544 545 521
568 3 2 0 6 521 545 546 522
569 3 2 0 6 522 546 547 523
570 3 2 0 6 523 547 548 524
571 3 2 0 6 524 548 549 525
572 3 2 0 6 525 549 550 526
573 3 2 0 6 526 550 551 527
574 3 2 0 6 527 551 552 528
575 3 2 0 6 528 552 553 529
576 3 2 0 6 529 553 554 530
577 3 2 0 6 530 554 555 531
578 3 2 0 6 531 555 556 532
579 3 2 0 6 532 556 58 59
580 3 2 0 6 23 24 557 533
581 3 2 0 6 533 557 558 534
582 3 2 0 6 534 558 559 535
583 3 2 0 6 535 559 560 536
584 3 2 0 6 536 560 561 537
585 3 2 0 6 537 561 562 538
586 3 2 0 6 538 562 563 539
587 3 2 0 6 539 563 564 540
588 3 2 0 6 540 564 565 541
589 3 2 0 6 541 565 566 542
590 3 2 0 6 542 566 567 543
591 3 2 0 6 543 567 568 544
592 3 2 0 6 544 568 569 545
593 3 2 0 6 545 569 570 546
594 3 2 0 6 546 570 571 547
595 3 2 0 6 547 571 572 548
596 3 2 0 6 548 572 573 549
597 3 2 0 6 549 573 574 550
598 3 2 0 6 550 574 575 551
599 3 2 0 6 551 575 576 552
600 3 2 0 6 552 576 577 553
601 3 2 0 6 553 577 578 554
602 3 2 0 6 554 578 579 555
603 3 2 0 6 555 579 580 556
604 3 2 0 6 556 580 57 58
605 3 2 0 6 24 25 581 557
606 3 2 0 6 557 581 582 558
607 3 2 0 6 558 582 583 559
608 3 2 0 6 559 583 584 560
609 3 2 0 6 560 584 585 561
610 3 2 0 6 561 585 586 562
611 3 2 0 6 562 586 587 563
612 3 2 0 6 563 587 588 564
613 3 2 0 6 564 588 589 565
614 3 2 0 6 565 589 590 566
615 3 2 0 6 566 590 591 567
616 3 2 0 6 567 591 592 568
617 3 2 0 6 568 592 593 569
618 3 2 0 6 569 593 594 570
619 3 2 0 6 570 594 595 571
620 3 2 0 6 571 595 596 572
621 3 2 0 6 572 596 597 573
622 3 2 0 6 573 597 598 574
623 3 2 0 6 574 598 599 575
624 3 2 0 6 575 599 600 576
625 3 2 0 6 576 600 601 577
626 3 2 0 6 577 601 602 578
627 3 2 0 6 578 602 603 579
628 3 2 0 6 579 603 604 580
629 3 2 0 6 580 604 56 57
630 3 2 0 6 25 26 605 581
631 3 2 0 6 581 605 606 582
632 3 2 0 6 582 606 607 583
633 3 2 0 6 583 607 608 584
634 3 2 0 6 584 608 609 585
635 3 2 0 6 585 609 610 586
636 3 2 0 6 586 610 611 587
637 3 2 0 6 587 611 612 588
638 3 2 0 6 588 612 613 589
639 3 2 0 6 589 613 614 590
640 3 2 0 6 590 614 615 591
641 3 2 0 6 591 615 616 592
642 3 2 0 6 592 616 617 593
643 3 2 0 6 593 617 618 594
644 3 2 0 6 594 618 619 595
645 3 2 0 6 595 619 620 596
646 3 2 0 6 596 620 621 597
647 3 2 0 6 597 621 622 598
648 3 2 0 6 598 622 623 599
649 3 2 0 6 599 623 624 600
650 3 2 0 6 600 624 625 601
651 3 2 0 6 601 625 626 602
652 3 2 0 6 602 626 627 603
653 3 2 0 6 603 627 628 604
654 3 2 0 6 604 628 55 56
655 3 2 0 6 26 27 629 605
656 3 2 0 6 605 629 630 606
657 3 2 0 6 606 630 631 607
658 3 2 0 6 607 631 632 608
659 3 2 0 6 608 632 633 609
660 3 2 0 6 609 633 634 610
661 3 2 0 6 610 634 635 611
662 3 2 0 6 611 635 636 612
663 3 2 0 6 612 636 637 613
664 3 2 0 6 613 637 638 614
665 3 2 0 6 614 638 639 615
666 3 2 0 6 615 639 640 616
667 3 2 0 6 616 640 641 617
668 3 2 0 6 617 641 642 618
669 3 2 0 6 618 642 643 619
670 3 2 0 6 619 643 644 620
671 3 2 0 6 620 644 645 621
672 3 2 0 6 621 645 646 622
673 3 2 0 6 622 646 647 623
674 3 2 0 6 623 647 648 624
675 3 2 0 6 624 648 649 625
676 3 2 0 6 625 649 650 626
677 3 2 0 6 626 650 651 627
678 3 2 0 6 627 651 652 628
679 3 2 0 6 628 652 54 55
680 3 2 0 6 27 28 653 629
681 3 2 0 6 629 653 654 630
682 3 2 0 6 630 654 655 631
683 3 2 0 6 631 655 656 632
684 3 2 0 6 632 656 657 633
685 3 2 0 6 633 657 658 634
686 3 2 0 6 634 658 659 635
687 3 2 0 6 635 659 660 636
688 3 2 0 6 636 660 661 637
689 3 2 0 6 637 661 662 638
690 3 2 0 6 638 662 663 639
691 3 2 0 6 639 663 664 640
692 3 2 0 6 640 664 665 641
693 3 2 0 6 641 665 666 642
694 3 2 0 6 642 666 667 643
695 3 2 0 6 643 667 668 644
696 3 2 0 6 644 668 669 645
697 3 2 0 6 645 669 670 646
698 3 2 0 6 646 670 671 647
699 3 2 0 6 647 671 672 648
700 3 2 0 6 648 672 673 649
701 3 2 0 6 649 673 674 650
702 3 2 0 6 650 674 675 651
703 3 2 0 6 651 675 676 652
704 3 2 0 6 652 676 53 54
705 3 2 0 6 28 2 29 653
706 3 2 0 6 653 29 30 654
707 3 2 0 6 654 30 31 655
708 3 2 0 6 655 31 32 656
709 3 2 0 6 656 32 33 657
710 3 2 0 6 657 33 34 658
711 3 2 0 6 658 34 35 659
712 3 2 0 6 659 35 36 660
713 3 2 0 6 660 36 37 661
714 3 2 0 6 661 37 38 662
715 3 2 0 6 662 38 39 663
716 3 2 0 6 663 39 40 664
717 3 2 0 6 664 40 41 665
718 3 2 0 6 665 41 42 666
719 3 2 0 6 666 42 43 667
720 3 2 0 6 667 43 44 668
721 3 2 0 6 668 44 45 669
722 3 2 0 6 669 45 46 670
723 3 2 0 6 670 46 47 671
724 3 2 0 6 671 47 48 672
725 3 2 0 6 672 48 49 673
726 3 2 0 6 673 49 50 674
727 3 2 0 6 674 50 51 675
728 3 2 0 6 675 51 52 676
729 3 2 0 6 676 52 3 53
$EndElements
