$MeshFormat
2.2 0 8
$EndMeshFormat
$Nodes
81
1 0 0 0
2 7.62 0 0
3 15.24 0 0
4 15.24 1.587 0
5 15.24 7.62 0
6 15.24 13.716 0
7 15.24 15.24 0
8 7.62 15.24 0
9 0 15.24 0
10 0 13.487 0
11 0 7.62 0
12 0 2.4734 0
13 9.144 7.62 0
14 12.192 12.192 0
15 6.096 3.81 0
16 1.904999999995465 0 0
17 3.809999999989896 0 0
18 5.714999999994904 0 0
19 9.524999999996442 0 0
20 11.42999999999011 0 0
21 13.33499999999523 0 0
22 15.24 0.7934999999979253 0
23 15.24 4.603499999991804 0
24 15.24 10.66799999999185 0
25 15.24 14.478 0
26 13.33500000000356 15.24 0
27 11.43000000000885 15.24 0
28 9.525000000004424 15.24 0
29 5.715000000004728 15.24 0
30 3.810000000010234 15.24 0
31 1.90500000000515 15.24 0
32 0 14.36350000000278 0
33 0 10.55350000000816 0
34 0 5.046700000006851 0
35 0 1.236700000003235 0
36 6.858000000002029 1.904999999994927 0
37 7.619999999994742 5.714999999993428 0
38 10.66799999999528 9.905999999992918 0
39 9.906000000005401 13.7159999999964 0
40 3.047999999993427 13.1632500000007 0
41 6.095999999985167 12.83950000000158 0
42 9.143999999991461 12.51575000000091 0
43 12.95400000000493 12.57300000000246 0
44 13.71599999999584 12.95399999999792 0
45 14.47799999999064 13.33499999999532 0
46 2.285999999994843 7.62 0
47 4.571999999987837 7.62 0
48 6.857999999993663 7.62 0
49 10.66799999999688 7.62 0
50 12.19199999999271 7.62 0
51 13.71599999999618 7.62 0
52 1.523999999996766 2.807549999999291 0
53 3.047999999992572 3.141699999998371 0
54 4.571999999995764 3.475849999999071 0
55 8.381999999993814 3.254250000001504 0
56 10.66799999998657 2.698500000003266 0
57 12.95399999999148 2.142750000002071 0
58 1.714499999996623 1.403775000000803 0
59 3.428999999992248 1.570849999998266 0
60 5.143499999996855 1.737924999996539 0
61 8.95349999999665 1.627124999996428 0
62 11.04899999998935 1.349249999998058 0
63 13.14449999999386 1.071374999998211 0
64 9.524999999991401 5.437124999993775 0
65 11.42999999998701 5.15924999999425 0
66 13.33499999999252 4.881374999993247 0
67 11.81099999999736 10.09649999999388 0
68 12.95399999999192 10.28699999999134 0
69 14.09699999999223 10.47749999998977 0
70 11.23950000000873 13.90649999999853 0
71 12.57300000000504 14.09699999999716 0
72 13.90649999999845 14.28749999999676 0
73 7.429500000002144 13.87787499999845 0
74 4.953000000000401 14.03975000000038 0
75 2.476500000000639 14.20162500000153 0
76 2.666999999992955 10.3916250000047 0
77 5.333999999984142 10.22975000000133 0
78 8.000999999989022 10.06787499999718 0
79 1.90499999999449 5.213775000003142 0
80 3.809999999987576 5.380849999999326 0
81 5.71499999999077 5.54792499999632 0
$EndNodes
$Elements
143
1 15 2 101 1 1
2 15 2 101 2 2
3 15 2 101 3 3
4 15 2 101 4 4
5 15 2 101 5 5
6 15 2 101 6 6
7 15 2 101 7 7
8 15 2 102 8 8
9 15 2 101 9 9
10 15 2 101 10 10
11 15 2 101 11 11
12 15 2 101 12 12
13 15 2 101   14 13
14 15 2 101   15 14
15 15 2 101   16 15
16 1 2 101 1 1 16
17 1 2 101 1 16 17
18 1 2 101 1 17 18
19 1 2 101 1 18 2
20 1 2 101 2 2 19
21 1 2 101 2 19 20
22 1 2 101 2 20 21
23 1 2 101 2 21 3
24 1 2 101 3 3 22
25 1 2 101 3 22 4
26 1 2 101 4 4 23
27 1 2 101 4 23 5
28 1 2 101 5 5 24
29 1 2 101 5 24 6
30 1 2 101 6 6 25
31 1 2 101 6 25 7
32 1 2 102 7 7 26
33 1 2 102 7 26 27
34 1 2 102 7 27 28
35 1 2 102 7 28 8
36 1 2 102 8 8 29
37 1 2 102 8 29 30
38 1 2 102 8 30 31
39 1 2 102 8 31 9
40 1 2 101 9 9 32
41 1 2 101 9 32 10
42 1 2 101 10 10 33
43 1 2 101 10 33 11
44 1 2 101 11 11 34
45 1 2 101 11 34 12
46 1 2 101 12 12 35
47 1 2 101 12 35 1
48 1 2 0 13 2 36
49 1 2 0 13 36 15
50 1 2 0 14 15 37
51 1 2 0 14 37 13
52 1 2 0 15 13 38
53 1 2 0 15 38 14
54 1 2 0 16 14 39
55 1 2 0 16 39 8
56 1 2 0 17 10 40
57 1 2 0 17 40 41
58 1 2 0 17 41 42
59 1 2 0 17 42 14
60 1 2 0 18 14 43
61 1 2 0 18 43 44
62 1 2 0 18 44 45
63 1 2 0 18 45 6
64 1 2 0 19 11 46
65 1 2 0 19 46 47
66 1 2 0 19 47 48
67 1 2 0 19 48 13
68 1 2 0 20 13 49
69 1 2 0 20 49 50
70 1 2 0 20 50 51
71 1 2 0 20 51 5
72 1 2 0 21 12 52
73 1 2 0 21 52 53
74 1 2 0 21 53 54
75 1 2 0 21 54 15
76 1 2 0 22 15 55
77 1 2 0 22 55 56
78 1 2 0 22 56 57
79 1 2 0 22 57 4
80 3 2 0 24 1 16 58 35
81 3 2 0 24 35 58 52 12
82 3 2 0 24 16 17 59 58
83 3 2 0 24 58 59 53 52
84 3 2 0 24 17 18 60 59
85 3 2 0 24 59 60 54 53
86 3 2 0 24 18 2 36 60
87 3 2 0 24 60 36 15 54
88 3 2 0 26 2 36 61 19
89 3 2 0 26 19 61 62 20
90 3 2 0 26 20 62 63 21
91 3 2 0 26 21 63 22 3
92 3 2 0 26 36 15 55 61
93 3 2 0 26 61 55 56 62
94 3 2 0 26 62 56 57 63
95 3 2 0 26 63 57 4 22
96 3 2 0 28 15 55 64 37
97 3 2 0 28 37 64 49 13
98 3 2 0 28 55 56 65 64
99 3 2 0 28 64 65 50 49
100 3 2 0 28 56 57 66 65
101 3 2 0 28 65 66 51 50
102 3 2 0 28 57 4 23 66
103 3 2 0 28 66 23 5 51
104 3 2 0 30 13 49 67 38
105 3 2 0 30 38 67 43 14
106 3 2 0 30 49 50 68 67
107 3 2 0 30 67 68 44 43
108 3 2 0 30 50 51 69 68
109 3 2 0 30 68 69 45 44
110 3 2 0 30 51 5 24 69
111 3 2 0 30 69 24 6 45
112 3 2 0 32 14 43 70 39
113 3 2 0 32 39 70 28 8
114 3 2 0 32 43 44 71 70
115 3 2 0 32 70 71 27 28
116 3 2 0 32 44 45 72 71
117 3 2 0 32 71 72 26 27
118 3 2 0 32 45 6 25 72
119 3 2 0 32 72 25 7 26
120 3 2 0 34 14 39 73 42
121 3 2 0 34 42 73 74 41
122 3 2 0 34 41 74 75 40
123 3 2 0 34 40 75 32 10
124 3 2 0 34 39 8 29 73
125 3 2 0 34 73 29 30 74
126 3 2 0 34 74 30 31 75
127 3 2 0 34 75 31 9 32
128 3 2 0 36 10 40 76 33
129 3 2 0 36 33 76 46 11
130 3 2 0 36 40 41 77 76
131 3 2 0 36 76 77 47 46
132 3 2 0 36 41 42 78 77
133 3 2 0 36 77 78 48 47
134 3 2 0 36 42 14 38 78
135 3 2 0 36 78 38 13 48
136 3 2 0 38 11 34 79 46
137 3 2 0 38 46 79 80 47
138 3 2 0 38 47 80 81 48
139 3 2 0 38 48 81 37 13
140 3 2 0 38 34 12 52 79
141 3 2 0 38 79 52 53 80
142 3 2 0 38 80 53 54 81
143 3 2 0 38 81 54 15 37
$EndElements
