$MeshFormat
2.2 0 8
$EndMeshFormat
$Nodes
617
1 0 0 0
2 2 0 0
3 2 1 0
4 2 3 0
5 1 3 0
6 0 3 0
7 0.4999999999988388 0 0
8 0.999999999997388 0 0
9 1.499999999998694 0 0
10 0.2499999999994194 0 0
11 0.7499999999981134 0 0
12 1.249999999998041 0 0
13 1.749999999999347 0 0
14 0.1249999999997097 0 0
15 0.3749999999991291 0 0
16 0.6249999999984761 0 0
17 0.8749999999977507 0 0
18 1.124999999997715 0 0
19 1.374999999998368 0 0
20 1.62499999999902 0 0
21 1.874999999999674 0 0
22 2 0.4999999999986717 0
23 2 0.2499999999993358 0
24 2 0.7499999999993359 0
25 2 0.1249999999996679 0
26 2 0.3749999999990037 0
27 2 0.6249999999990038 0
28 2 0.8749999999996679 0
29 2 1.500000000001097 0
30 2 2.000000000001388 0
31 2 2.500000000000334 0
32 2 1.250000000000549 0
33 2 1.750000000001242 0
34 2 2.250000000000861 0
35 2 2.750000000000167 0
36 2 1.125000000000274 0
37 2 1.375000000000823 0
38 2 1.62500000000117 0
39 2 1.875000000001315 0
40 2 2.125000000001124 0
41 2 2.375000000000597 0
42 2 2.625000000000251 0
43 2 2.875000000000084 0
44 1.500000000001586 3 0
45 1.750000000000793 3 0
46 1.250000000000793 3 0
47 1.875000000000397 3 0
48 1.62500000000119 3 0
49 1.37500000000119 3 0
50 1.125000000000397 3 0
51 0.5000000000013305 3 0
52 0.7500000000006653 3 0
53 0.2500000000006653 3 0
54 0.8750000000003326 3 0
55 0.6250000000009979 3 0
56 0.3750000000009979 3 0
57 0.1250000000003326 3 0
58 0 2.875000000000819 0
59 0 0.125000000000464 0
60 0 0.3750000000013921 0
61 0 0.6250000000023204 0
62 0 0.8750000000032487 0
63 0 1.125000000004519 0
64 0 1.37500000000613 0
65 0 1.625000000007041 0
66 0 1.875000000007252 0
67 0 2.125000000006337 0
68 0 2.375000000004296 0
69 0 2.625000000002457 0
70 0 2.500000000003276 0
71 0 0.250000000000928 0
72 0 0.7500000000027846 0
73 0 1.250000000005325 0
74 0 1.750000000007146 0
75 0 2.250000000005317 0
76 0 2.750000000001638 0
77 0 0.5000000000018561 0
78 0 1.000000000003713 0
79 0 1.500000000006936 0
80 0 2.000000000007357 0
81 0.9177066973163406 1.500000000003289 0
82 1.27038799069947 0.6653542725670539 0
83 1.270387990702192 2.334645727435562 0
84 0.6084726712651808 0.6054406158742434 0
85 0.6084726712678295 2.394559384128572 0
86 1.45885334865817 1.750000000002338 0
87 1.45885334865817 1.250000000001645 0
88 1.094047344007905 1.082677136285171 0
89 1.635193995349735 0.832677136283527 0
90 1.635193995351096 2.167322863718475 0
91 1.094047344009267 1.917322863719425 0
92 0.4588533486581703 1.250000000003501 0
93 0.4588533486581703 1.750000000005323 0
94 1.635193995349735 0.332677136283527 0
95 1.135193995348429 0.332677136283527 0
96 1.635193995351096 2.667322863717781 0
97 1.135193995351096 2.667322863717781 0
98 0.3042363356325904 0.802720307938978 0
99 0.7630896842907606 1.052720307938766 0
100 0.763089684292085 1.94727969206593 0
101 0.3042363356339147 2.197279692067965 0
102 0.9394303309823253 0.6353974442206487 0
103 0.9394303309850109 2.364602555782067 0
104 0.3042363356339147 2.697279692064286 0
105 0.8042363356339147 2.697279692064286 0
106 0.3042363356325904 0.3027203079371217 0
107 0.8042363356312844 0.3027203079371217 0
108 1.729426674329085 1.875000000001863 0
109 1.729426674329085 1.625000000001717 0
110 1.45885334865817 1.500000000001991 0
111 1.729426674329085 1.375000000001371 0
112 1.188280022987255 1.625000000002813 0
113 1.188280022987255 1.375000000002467 0
114 1.729426674329085 1.125000000000823 0
115 1.005877020662123 1.29133856814423 0
116 1.276450346333037 1.166338568143408 0
117 1.36462066967882 0.957677136284349 0
118 1.547023672003953 1.041338568142586 0
119 1.182217667353688 0.8740157044261125 0
120 1.452790993024602 0.7490157044252905 0
121 1.817596997674868 0.9163385681417635 0
122 1.817596997675548 2.083661431859931 0
123 1.547023672004633 1.958661431860406 0
124 1.364620669680182 2.04232286371895 0
125 1.276450346333719 1.833661431860882 0
126 1.452790993026644 2.250984295577019 0
127 1.182217667355729 2.125984295577494 0
128 1.005877020662804 1.708661431861357 0
129 0.2294266743290852 1.62500000000613 0
130 0.2294266743290852 1.87500000000634 0
131 0.2294266743290852 1.375000000005219 0
132 0.4588533486581703 1.500000000004412 0
133 0.2294266743290852 1.125000000003607 0
134 0.6882800229872554 1.375000000003395 0
135 0.6882800229872554 1.625000000004306 0
136 1.317596997673562 0.1663385681417635 0
137 1.067596997672909 0.1663385681417635 0
138 1.567596997674214 0.1663385681417635 0
139 1.385193995349082 0.332677136283527 0
140 1.817596997674868 0.1663385681417635 0
141 1.452790993024602 0.4990157044252905 0
142 1.20279099302395 0.4990157044252905 0
143 1.817596997674868 0.6663385681410994 0
144 1.635193995349735 0.582677136283527 0
145 1.817596997674868 0.4163385681410994 0
146 1.817596997675548 2.333661431859404 0
147 1.817596997675548 2.583661431859057 0
148 1.635193995351096 2.417322863718128 0
149 1.817596997675548 2.83366143185889 0
150 1.452790993026644 2.500984295576672 0
151 1.067596997675548 2.83366143185889 0
152 1.317596997676341 2.83366143185889 0
153 1.385193995351096 2.667322863717781 0
154 1.567596997676341 2.83366143185889 0
155 1.202790993026644 2.500984295576672 0
156 0.1521181678162952 0.9013601539713455 0
157 0.3815448421453803 1.02636015397124 0
158 0.5336630099616755 0.927720307938872 0
159 0.6109715164744655 1.151360153971134 0
160 0.4563545034488856 0.7040804619066107 0
161 0.6857811777779708 0.8290804619065046 0
162 0.8403981908035506 1.276360153971027 0
163 0.3815448421460425 1.973639846036644 0
164 0.1521181678169574 2.098639846037661 0
165 0.6109715164751277 1.848639846035627 0
166 0.5336630099629999 2.072279692066948 0
167 0.8403981908042129 1.723639846034609 0
168 0.6857811777799572 2.170919538097251 0
169 0.4563545034508721 2.295919538098269 0
170 0.9285685141493328 1.067698722111969 0
171 0.851260007636543 0.8440588760797073 0
172 1.016738837495115 0.8590372902529099 0
173 0.773951501123753 0.620419030047446 0
174 1.104909160840898 0.6503758583938513 0
175 0.9285685141506761 1.932301277892678 0
176 1.016738837497139 2.140962709750746 0
177 0.8512600076385479 2.155941123923999 0
178 1.104909160843602 2.349624141608815 0
179 0.7739515011264202 2.379580969955319 0
180 0.6521181678176227 2.848639846032143 0
181 0.9021181678169574 2.848639846032143 0
182 0.4021181678176226 2.848639846032143 0
183 0.5542363356339147 2.697279692064286 0
184 0.1521181678169574 2.848639846032143 0
185 0.4563545034508721 2.545919538096429 0
186 0.706354503450872 2.545919538096429 0
187 0.1521181678162952 0.651360153970417 0
188 0.1521181678162952 0.4013601539694889 0
189 0.3042363356325904 0.5527203079380498 0
190 0.1521181678162952 0.1513601539685608 0
191 0.4563545034488856 0.4540804619056825 0
192 0.1521181678169574 2.348639846035621 0
193 0.3042363356339147 2.447279692066125 0
194 0.1521181678169574 2.598639846033781 0
195 0.9021181678143362 0.1513601539685608 0
196 0.6521181678150616 0.1513601539685608 0
197 0.5542363356319374 0.3027203079371217 0
198 0.4021181678157146 0.1513601539685608 0
199 0.7063545034482326 0.4540804619056825 0
200 0.9697151654898566 0.3176987221103244 0
201 1.037312163165377 0.4840372902520879 0
202 0.8718333333068049 0.4690588760788852 0
203 1.037312163168054 2.515962709749924 0
204 0.9697151654925054 2.682301277891034 0
205 0.8718333333094628 2.530941123923177 0
206 1.864713337164543 1.937500000001625 0
207 1.864713337164543 1.812500000001553 0
208 1.729426674329085 1.75000000000179 0
209 1.864713337164543 1.68750000000148 0
210 1.594140011493628 1.812500000002101 0
211 1.594140011493628 1.687500000002028 0
212 1.864713337164543 1.562500000001407 0
213 1.45885334865817 1.625000000002165 0
214 1.594140011493628 1.562500000001854 0
215 1.594140011493628 1.437500000001681 0
216 1.729426674329085 1.500000000001544 0
217 1.45885334865817 1.375000000001818 0
218 1.594140011493628 1.312500000001508 0
219 1.864713337164543 1.437500000001234 0
220 1.323566685822713 1.687500000002576 0
221 1.323566685822713 1.562500000002402 0
222 1.188280022987255 1.50000000000264 0
223 1.323566685822713 1.437500000002229 0
224 1.052993360151798 1.562500000003051 0
225 1.052993360151798 1.437500000002878 0
226 1.323566685822713 1.312500000002056 0
227 1.864713337164543 1.31250000000096 0
228 1.729426674329085 1.250000000001097 0
229 1.864713337164543 1.187500000000686 0
230 1.594140011493628 1.187500000001234 0
231 1.864713337164543 1.062500000000411 0
232 0.9617918589892317 1.39566928407376 0
233 1.097078521824689 1.333169284073348 0
234 1.14116368349758 1.228838568143819 0
235 1.232365184660146 1.270669284072937 0
236 1.049962182335014 1.187007852214701 0
237 1.185248845170471 1.12450785221429 0
238 1.367651847495604 1.208169284072526 0
239 1.229334006843363 1.02017713628476 0
240 1.320535508005929 1.062007852213879 0
241 1.455822170841386 0.9995078522134675 0
242 1.411737009168495 1.103838568142997 0
243 1.499907332514277 0.895177136283938 0
244 1.591108833676844 0.9370078522130565 0
245 1.502938510331061 1.145669284072115 0
246 1.138132505680796 0.9783464203556418 0
247 1.273419168516254 0.9158464203552308 0
248 1.317504330189145 0.8115157044257015 0
249 1.408705831351711 0.8533464203548198 0
250 1.226302829026579 0.7696849884965833 0
251 1.361589491862036 0.7071849884961723 0
252 1.543992494187169 0.7908464203544088 0
253 1.638225173166519 1.083169284071704 0
254 1.68231033483941 0.9788385681421747 0
255 1.773511836001976 1.020669284071293 0
256 1.726395496512301 0.8745078522126453 0
257 1.908798498837434 0.9581692840708818 0
258 1.908798498837774 2.04183071593066 0
259 1.773511836002317 1.979330715930897 0
260 1.682310334840091 2.021161431860169 0
261 1.638225173166859 1.916830715931135 0
262 1.726395496513322 2.125492147789203 0
263 1.591108833677865 2.062992147789441 0
264 1.502938510331402 1.854330715931372 0
265 1.499907332515639 2.104822863718713 0
266 1.455822170842407 2.000492147789678 0
267 1.32053550800695 1.937992147789916 0
268 1.411737009169176 1.896161431860644 0
269 1.229334006844724 1.979822863719188 0
270 1.185248845171493 1.875492147790153 0
271 1.367651847495945 1.79183071593161 0
272 1.54399249418887 2.209153579647747 0
273 1.408705831353413 2.146653579647984 0
274 1.317504330191187 2.188484295577256 0
275 1.273419168517955 2.084153579648222 0
276 1.361589491864418 2.29281501150629 0
277 1.226302829028961 2.230315011506528 0
278 1.138132505682498 2.021653579648459 0
279 1.232365184660487 1.729330715931847 0
280 1.141163683498261 1.771161431861119 0
281 1.09707852182503 1.666830715932085 0
282 1.049962182336035 1.812992147790391 0
283 0.9617918589895722 1.604330715932323 0
284 0.1147133371645426 1.812500000006743 0
285 0.1147133371645426 1.937500000006848 0
286 0.1147133371645426 1.687500000006638 0
287 0.2294266743290852 1.750000000006235 0
288 0.1147133371645426 1.562500000006533 0
289 0.3441400114936277 1.687500000005726 0
290 0.3441400114936277 1.812500000005831 0
291 0.1147133371645426 1.437500000006077 0
292 0.2294266743290852 1.500000000005674 0
293 0.3441400114936277 1.437500000004815 0
294 0.3441400114936277 1.562500000005271 0
295 0.3441400114936277 1.31250000000436 0
296 0.4588533486581703 1.375000000003956 0
297 0.4588533486581703 1.625000000004868 0
298 0.1147133371645426 1.312500000005272 0
299 0.1147133371645426 1.187500000004466 0
300 0.2294266743290852 1.250000000004413 0
301 0.1147133371645426 1.06250000000366 0
302 0.3441400114936277 1.187500000003554 0
303 0.5735666858227129 1.562500000004359 0
304 0.5735666858227129 1.687500000004814 0
305 0.5735666858227129 1.437500000003904 0
306 0.6882800229872554 1.500000000003851 0
307 0.5735666858227129 1.312500000003448 0
308 0.802993360151798 1.437500000003342 0
309 0.802993360151798 1.562500000003797 0
310 1.158798498835475 0.08316928407088176 0
311 1.033798498835148 0.08316928407088176 0
312 1.283798498835801 0.08316928407088176 0
313 1.192596997673235 0.1663385681417635 0
314 1.408798498836128 0.08316928407088176 0
315 1.226395496510995 0.2495078522126453 0
316 1.101395496510669 0.2495078522126453 0
317 1.533798498836454 0.08316928407088176 0
318 1.442596997673888 0.1663385681417635 0
319 1.476395496511648 0.2495078522126453 0
320 1.351395496511322 0.2495078522126453 0
321 1.601395496511975 0.2495078522126453 0
322 1.510193995349408 0.332677136283527 0
323 1.260193995348756 0.332677136283527 0
324 1.658798498836781 0.08316928407088176 0
325 1.783798498837107 0.08316928407088176 0
326 1.692596997674541 0.1663385681417635 0
327 1.908798498837434 0.08316928407088176 0
328 1.726395496512301 0.2495078522126453 0
329 1.293992494186516 0.4158464203544088 0
330 1.168992494186189 0.4158464203544088 0
331 1.418992494186842 0.4158464203544088 0
332 1.327790993024276 0.4990157044252905 0
333 1.543992494187169 0.4158464203544088 0
334 1.361589491862036 0.5821849884961722 0
335 1.23658949186171 0.5821849884961722 0
336 1.908798498837434 0.8331692840705497 0
337 1.817596997674868 0.7913385681414314 0
338 1.908798498837434 0.7081692840702176 0
339 1.726395496512301 0.7495078522123132 0
340 1.908798498837434 0.5831692840698856 0
341 1.635193995349735 0.707677136283527 0
342 1.726395496512301 0.6245078522123132 0
343 1.726395496512301 0.4995078522123132 0
344 1.817596997674868 0.5413385681410994 0
345 1.635193995349735 0.457677136283527 0
346 1.726395496512301 0.3745078522123132 0
347 1.908798498837434 0.4581692840698856 0
348 1.543992494187169 0.6658464203544088 0
349 1.452790993024602 0.6240157044252905 0
350 1.543992494187169 0.5408464203544088 0
351 1.908798498837434 0.3331692840702176 0
352 1.817596997674868 0.2913385681414314 0
353 1.908798498837434 0.2081692840705497 0
354 1.908798498837774 2.166830715930396 0
355 1.908798498837774 2.291830715930133 0
356 1.817596997675548 2.208661431859668 0
357 1.908798498837774 2.416830715929869 0
358 1.726395496513322 2.25049214778894 0
359 1.908798498837774 2.541830715929696 0
360 1.817596997675548 2.458661431859231 0
361 1.726395496513322 2.500492147788592 0
362 1.726395496513322 2.375492147788766 0
363 1.726395496513322 2.625492147788419 0
364 1.635193995351096 2.542322863717955 0
365 1.635193995351096 2.292322863718301 0
366 1.908798498837774 2.666830715929612 0
367 1.908798498837774 2.791830715929529 0
368 1.817596997675548 2.708661431858974 0
369 1.908798498837774 2.916830715929445 0
370 1.726395496513322 2.750492147788336 0
371 1.54399249418887 2.334153579647573 0
372 1.54399249418887 2.4591535796474 0
373 1.452790993026644 2.375984295576845 0
374 1.54399249418887 2.584153579647226 0
375 1.361589491864418 2.417815011506117 0
376 1.033798498837774 2.916830715929445 0
377 1.158798498838171 2.916830715929445 0
378 1.192596997675945 2.83366143185889 0
379 1.283798498838567 2.916830715929445 0
380 1.101395496513322 2.750492147788336 0
381 1.226395496513719 2.750492147788336 0
382 1.408798498838964 2.916830715929445 0
383 1.260193995351096 2.667322863717781 0
384 1.351395496513719 2.750492147788336 0
385 1.476395496513719 2.750492147788336 0
386 1.442596997676341 2.83366143185889 0
387 1.510193995351096 2.667322863717781 0
388 1.601395496513719 2.750492147788336 0
389 1.533798498838964 2.916830715929445 0
390 1.16899249418887 2.584153579647226 0
391 1.29399249418887 2.584153579647226 0
392 1.327790993026644 2.500984295576672 0
393 1.41899249418887 2.584153579647226 0
394 1.236589491864418 2.417815011506117 0
395 1.658798498838567 2.916830715929445 0
396 1.692596997675945 2.83366143185889 0
397 1.783798498838171 2.916830715929445 0
398 0.0760590839081476 0.9506800769875292 0
399 0.1907724210726902 1.013180076987476 0
400 0.2668315049808377 0.9638601539712925 0
401 0.3054857582372327 1.075680076987423 0
402 0.2281772517244428 0.8520402309551618 0
403 0.3428905888889854 0.9145402309551087 0
404 0.4201990954017753 1.13818007698737 0
405 0.4189496727971329 0.8652203079389249 0
406 0.4576039260535279 0.9770402309550557 0
407 0.5723172632180704 1.039540230955003 0
408 0.4962581793099229 1.088860153971186 0
409 0.6483763471262181 0.990220307938819 0
410 0.687030600382613 1.10204023095495 0
411 0.5349124325663179 1.200680076987317 0
412 0.380295419540738 0.7534003849227944 0
413 0.4950087567052806 0.8159003849227413 0
414 0.5710678406134282 0.7665804619065577 0
415 0.6097220938698231 0.8784003849226882 0
416 0.5324135873570333 0.654760538890427 0
417 0.6471269245215758 0.717260538890374 0
418 0.7244354310343657 0.9409003849226353 0
419 0.6496257697308605 1.263180076987264 0
420 0.725684853639008 1.213860153971081 0
421 0.7643391068954031 1.325680076987211 0
422 0.8017439375471556 1.164540230954897 0
423 0.8790524440599457 1.388180076987158 0
424 0.1907724210730213 1.986819923022 0
425 0.07605908390847868 2.049319923022509 0
426 0.3054857582375639 1.924319923021492 0
427 0.2668315049814999 2.036139846037153 0
428 0.4201990954021064 1.861819923020984 0
429 0.3428905888899786 2.085459769052305 0
430 0.228177251725436 2.147959769052813 0
431 0.534912432566649 1.799319923020475 0
432 0.4962581793105851 1.911139846036135 0
433 0.5723172632190638 1.960459769051287 0
434 0.4576039260545212 2.022959769051796 0
435 0.6870306003836064 1.897959769050778 0
436 0.6483763471275424 2.009779692066439 0
437 0.4189496727984573 2.134779692067457 0
438 0.6496257697311916 1.736819923019966 0
439 0.7643391068957341 1.674319923019458 0
440 0.7256848536396703 1.786139846035118 0
441 0.8790524440602767 1.611819923018949 0
442 0.801743937548149 1.83545976905027 0
443 0.495008756706936 2.184099615082608 0
444 0.3802954195423934 2.246599615083117 0
445 0.6097220938714785 2.1215996150821 0
446 0.5710678406154146 2.23341953809776 0
447 0.724435431036021 2.059099615081591 0
448 0.6471269245238933 2.282739461112912 0
449 0.5324135873593507 2.345239461113421 0
450 0.9231376057328367 1.283849361057629 0
451 0.8844833524764417 1.172029438041498 0
452 0.9672227674057279 1.179518645128099 0
453 0.8458290992200468 1.060209515025367 0
454 1.011307929078619 1.07518792919857 0
455 0.8071748459636519 0.9483895920092367 0
456 0.8899142608929379 0.955878799095838 0
457 0.933999422565829 0.8515480831663086 0
458 0.972653675822224 0.9633680061824392 0
459 0.8953451693094341 0.739728160150178 0
460 0.9780845842387202 0.7472173672367792 0
461 1.05539309075151 0.9708572132690405 0
462 0.7685205927072569 0.8365696689931059 0
463 0.7298663394508619 0.7247497459769754 0
464 0.8126057543801479 0.7322389530635767 0
465 0.6912120861944668 0.6129298229608446 0
466 0.8566909160530392 0.6279082371340474 0
467 1.099478252424401 0.8665264973395113 0
468 1.060823999168006 0.7547065743233805 0
469 1.143563414097293 0.7621957814099819 0
470 1.022169745911612 0.64288665130725 0
471 1.187648575770184 0.6578650654804525 0
472 0.9231376057335083 1.716150638947983 0
473 0.96722276740674 1.820481354877017 0
474 0.8844833524774445 1.827970561963644 0
475 1.011307929079972 1.924812070806051 0
476 0.8458290992213806 1.939790484979304 0
477 1.055393090753203 2.029142786735086 0
478 0.9726536758239075 2.036631993821712 0
479 0.9339994225678434 2.148451916837372 0
480 0.889914260894612 2.044121200908338 0
481 0.9780845842410749 2.252782632766407 0
482 0.8953451693117794 2.260271839853033 0
483 0.8071748459653165 2.051610407994964 0
484 1.099478252426434 2.13347350266412 0
485 1.143563414099666 2.237804218593154 0
486 1.06082399917037 2.245293425679781 0
487 1.187648575772897 2.342134934522188 0
488 1.022169745914306 2.357113348695441 0
489 0.7685205927092526 2.163430331010625 0
490 0.8126057543824841 2.267761046939659 0
491 0.7298663394531887 2.275250254026285 0
492 0.8566909160557156 2.372091762868693 0
493 0.6912120861971248 2.387070177041946 0
494 0.8260590839088113 2.924319923016071 0
495 0.9510590839084787 2.924319923016071 0
496 0.701059083909144 2.924319923016071 0
497 0.77711816781729 2.848639846032143 0
498 0.5760590839094766 2.924319923016071 0
499 0.7281772517257688 2.772959769048215 0
500 0.8531772517254361 2.772959769048215 0
501 0.4510590839094766 2.924319923016071 0
502 0.5271181678176227 2.848639846032143 0
503 0.4781772517257686 2.772959769048215 0
504 0.6031772517257688 2.772959769048215 0
505 0.3531772517257686 2.772959769048215 0
506 0.4292363356339147 2.697279692064286 0
507 0.6792363356339147 2.697279692064286 0
508 0.326059083909144 2.924319923016071 0
509 0.2010590839088113 2.924319923016071 0
510 0.27711816781729 2.848639846032143 0
511 0.07605908390847868 2.924319923016071 0
512 0.228177251725436 2.772959769048215 0
513 0.6302954195423933 2.621599615080358 0
514 0.7552954195423933 2.621599615080358 0
515 0.5052954195423934 2.621599615080358 0
516 0.581354503450872 2.545919538096429 0
517 0.3802954195423934 2.621599615080358 0
518 0.5324135873593507 2.470239461112501 0
519 0.6574135873593507 2.470239461112501 0
520 0.0760590839081476 0.825680076987065 0
521 0.0760590839081476 0.7006800769866008 0
522 0.1521181678162952 0.7763601539708813 0
523 0.0760590839081476 0.5756800769861366 0
524 0.2281772517244428 0.7270402309546975 0
525 0.0760590839081476 0.4506800769856725 0
526 0.1521181678162952 0.526360153969953 0
527 0.2281772517244428 0.4770402309537694 0
528 0.2281772517244428 0.6020402309542334 0
529 0.2281772517244428 0.3520402309533053 0
530 0.3042363356325904 0.4277203079375858 0
531 0.3042363356325904 0.6777203079385139 0
532 0.0760590839081476 0.3256800769852085 0
533 0.0760590839081476 0.2006800769847444 0
534 0.1521181678162952 0.2763601539690249 0
535 0.0760590839081476 0.07568007698428042 0
536 0.2281772517244428 0.2270402309528413 0
537 0.380295419540738 0.6284003849223303 0
538 0.380295419540738 0.5034003849218662 0
539 0.4563545034488856 0.5790804619061466 0
540 0.380295419540738 0.3784003849214021 0
541 0.5324135873570333 0.5297605388899629 0
542 0.07605908390847868 2.174319923021489 0
543 0.1521181678169574 2.223639846036641 0
544 0.07605908390847868 2.299319923020469 0
545 0.228177251725436 2.272959769051793 0
546 0.07605908390847868 2.424319923019448 0
547 0.3042363356339147 2.322279692067045 0
548 0.228177251725436 2.397959769050873 0
549 0.228177251725436 2.522959769049953 0
550 0.1521181678169574 2.473639846034701 0
551 0.3042363356339147 2.572279692065206 0
552 0.228177251725436 2.647959769049034 0
553 0.07605908390847868 2.549319923018529 0
554 0.3802954195423934 2.371599615082197 0
555 0.4563545034508721 2.420919538097349 0
556 0.3802954195423934 2.496599615081277 0
557 0.07605908390847868 2.67431992301771 0
558 0.1521181678169574 2.723639846032962 0
559 0.07605908390847868 2.79931992301689 0
560 0.9510590839058621 0.07568007698428042 0
561 0.8260590839062247 0.07568007698428042 0
562 0.7771181678146989 0.1513601539685608 0
563 0.7010590839065876 0.07568007698428042 0
564 0.8531772517228102 0.2270402309528413 0
565 0.7281772517231731 0.2270402309528413 0
566 0.5760590839069502 0.07568007698428042 0
567 0.6792363356316109 0.3027203079371217 0
568 0.6031772517234995 0.2270402309528413 0
569 0.478177251723826 0.2270402309528413 0
570 0.5271181678153881 0.1513601539685608 0
571 0.4292363356322639 0.3027203079371217 0
572 0.3531772517241525 0.2270402309528413 0
573 0.4510590839072767 0.07568007698428042 0
574 0.7552954195397585 0.3784003849214021 0
575 0.6302954195400849 0.3784003849214021 0
576 0.5813545034485591 0.4540804619056825 0
577 0.5052954195404116 0.3784003849214021 0
578 0.6574135873567066 0.5297605388899629 0
579 0.326059083907567 0.07568007698428042 0
580 0.2771181678160049 0.1513601539685608 0
581 0.2010590839078573 0.07568007698428042 0
582 0.9848575827436223 0.1588493610551622 0
583 1.018656081581383 0.2420186451260439 0
584 0.9359166666520964 0.2345294380394426 0
585 1.052454580419143 0.3251879291969257 0
586 0.8869757505605704 0.310209515023723 0
587 1.086253079256903 0.4083572132678074 0
588 1.003513664327617 0.4008680061812061 0
589 0.9545727482360911 0.4765480831654865 0
590 0.9207742493983308 0.3933787990946048 0
591 0.9883712470738513 0.5597173672363682 0
592 0.9056318321445651 0.5522281601497669 0
593 0.8380348344690447 0.3858895920080034 0
594 1.120051578094663 0.4915264973386891 0
595 1.153850076932424 0.5746957814095709 0
596 1.071110662003137 0.5672065743229695 0
597 0.7890939183775187 0.4615696689922839 0
598 0.822892417215279 0.5447389530631657 0
599 0.7401530022859928 0.5372497459765643 0
600 1.153850076935123 2.425304218592743 0
601 1.120051578097349 2.508473502663298 0
602 1.071110662005828 2.432793425679369 0
603 1.086253079259575 2.591642786733853 0
604 0.9883712470765322 2.440282632765995 0
605 1.052454580421801 2.674812070804407 0
606 1.00351366433028 2.599131993820479 0
607 0.9207742494009841 2.606621200907105 0
608 0.9545727482387582 2.52345191683655 0
609 0.8869757505632101 2.68979048497766 0
610 0.8380348344716888 2.614110407993731 0
611 0.9056318321472369 2.447771839852622 0
612 1.018656081584027 2.757981354874962 0
613 0.9848575827462527 2.841150638945517 0
614 0.9359166666547314 2.765470561961588 0
615 0.8228924172179415 2.455261046939248 0
616 0.7890939183801674 2.538430331009803 0
617 0.7401530022886461 2.462750254025874 0
$EndNodes
$Elements
1238
1 15 2 201 1 1
2 15 2 101 2 2
3 15 2 101 3 3
4 15 2 201 4 4
5 15 2 102 5 5
6 15 2 102 6 6
7 1 2 201 1 1 14
8 1 2 201 1 14 10
9 1 2 201 1 10 15
10 1 2 201 1 15 7
11 1 2 201 1 7 16
12 1 2 201 1 16 11
13 1 2 201 1 11 17
14 1 2 201 1 17 8
15 1 2 201 1 8 18
16 1 2 201 1 18 12
17 1 2 201 1 12 19
18 1 2 201 1 19 9
19 1 2 201 1 9 20
20 1 2 201 1 20 13
21 1 2 201 1 13 21
22 1 2 201 1 21 2
23 1 2 101 2 2 25
24 1 2 101 2 25 23
25 1 2 101 2 23 26
26 1 2 101 2 26 22
27 1 2 101 2 22 27
28 1 2 101 2 27 24
29 1 2 101 2 24 28
30 1 2 101 2 28 3
31 1 2 201 3 3 36
32 1 2 201 3 36 32
33 1 2 201 3 32 37
34 1 2 201 3 37 29
35 1 2 201 3 29 38
36 1 2 201 3 38 33
37 1 2 201 3 33 39
38 1 2 201 3 39 30
39 1 2 201 3 30 40
40 1 2 201 3 40 34
41 1 2 201 3 34 41
42 1 2 201 3 41 31
43 1 2 201 3 31 42
44 1 2 201 3 42 35
45 1 2 201 3 35 43
46 1 2 201 3 43 4
47 1 2 201 4 4 47
48 1 2 201 4 47 45
49 1 2 201 4 45 48
50 1 2 201 4 48 44
51 1 2 201 4 44 49
52 1 2 201 4 49 46
53 1 2 201 4 46 50
54 1 2 201 4 50 5
55 1 2 102 5 5 54
56 1 2 102 5 54 52
57 1 2 102 5 52 55
58 1 2 102 5 55 51
59 1 2 102 5 51 56
60 1 2 102 5 56 53
61 1 2 102 5 53 57
62 1 2 102 5 57 6
63 1 2 201 6 6 58
64 1 2 201 6 58 76
65 1 2 201 6 76 69
66 1 2 201 6 69 70
67 1 2 201 6 70 68
68 1 2 201 6 68 75
69 1 2 201 6 75 67
70 1 2 201 6 67 80
71 1 2 201 6 80 66
72 1 2 201 6 66 74
73 1 2 201 6 74 65
74 1 2 201 6 65 79
75 1 2 201 6 79 64
76 1 2 201 6 64 73
77 1 2 201 6 73 63
78 1 2 201 6 63 78
79 1 2 201 6 78 62
80 1 2 201 6 62 72
81 1 2 201 6 72 61
82 1 2 201 6 61 77
83 1 2 201 6 77 60
84 1 2 201 6 60 71
85 1 2 201 6 71 59
86 1 2 201 6 59 1
87 2 2 0 8 30 206 39
88 2 2 0 8 206 207 39
89 2 2 0 8 206 108 207
90 2 2 0 8 39 207 33
91 2 2 0 8 108 208 207
92 2 2 0 8 208 209 207
93 2 2 0 8 208 109 209
94 2 2 0 8 207 209 33
95 2 2 0 8 108 210 208
96 2 2 0 8 210 211 208
97 2 2 0 8 210 86 211
98 2 2 0 8 208 211 109
99 2 2 0 8 33 209 38
100 2 2 0 8 209 212 38
101 2 2 0 8 209 109 212
102 2 2 0 8 38 212 29
103 2 2 0 8 86 213 211
104 2 2 0 8 213 214 211
105 2 2 0 8 213 110 214
106 2 2 0 8 211 214 109
107 2 2 0 8 110 215 214
108 2 2 0 8 215 216 214
109 2 2 0 8 215 111 216
110 2 2 0 8 214 216 109
111 2 2 0 8 110 217 215
112 2 2 0 8 217 218 215
113 2 2 0 8 217 87 218
114 2 2 0 8 215 218 111
115 2 2 0 8 109 216 212
116 2 2 0 8 216 219 212
117 2 2 0 8 216 111 219
118 2 2 0 8 212 219 29
119 2 2 0 8 86 220 213
120 2 2 0 8 220 221 213
121 2 2 0 8 220 112 221
122 2 2 0 8 213 221 110
123 2 2 0 8 112 222 221
124 2 2 0 8 222 223 221
125 2 2 0 8 222 113 223
126 2 2 0 8 221 223 110
127 2 2 0 8 112 224 222
128 2 2 0 8 224 225 222
129 2 2 0 8 224 81 225
130 2 2 0 8 222 225 113
131 2 2 0 8 110 223 217
132 2 2 0 8 223 226 217
133 2 2 0 8 223 113 226
134 2 2 0 8 217 226 87
135 2 2 0 8 29 219 37
136 2 2 0 8 219 227 37
137 2 2 0 8 219 111 227
138 2 2 0 8 37 227 32
139 2 2 0 8 111 228 227
140 2 2 0 8 228 229 227
141 2 2 0 8 228 114 229
142 2 2 0 8 227 229 32
143 2 2 0 8 111 218 228
144 2 2 0 8 218 230 228
145 2 2 0 8 218 87 230
146 2 2 0 8 228 230 114
147 2 2 0 8 32 229 36
148 2 2 0 8 229 231 36
149 2 2 0 8 229 114 231
150 2 2 0 8 36 231 3
151 2 2 0 8 81 232 225
152 2 2 0 8 232 233 225
153 2 2 0 8 232 115 233
154 2 2 0 8 225 233 113
155 2 2 0 8 115 234 233
156 2 2 0 8 234 235 233
157 2 2 0 8 234 116 235
158 2 2 0 8 233 235 113
159 2 2 0 8 115 236 234
160 2 2 0 8 236 237 234
161 2 2 0 8 236 88 237
162 2 2 0 8 234 237 116
163 2 2 0 8 113 235 226
164 2 2 0 8 235 238 226
165 2 2 0 8 235 116 238
166 2 2 0 8 226 238 87
167 2 2 0 8 88 239 237
168 2 2 0 8 239 240 237
169 2 2 0 8 239 117 240
170 2 2 0 8 237 240 116
171 2 2 0 8 117 241 240
172 2 2 0 8 241 242 240
173 2 2 0 8 241 118 242
174 2 2 0 8 240 242 116
175 2 2 0 8 117 243 241
176 2 2 0 8 243 244 241
177 2 2 0 8 243 89 244
178 2 2 0 8 241 244 118
179 2 2 0 8 116 242 238
180 2 2 0 8 242 245 238
181 2 2 0 8 242 118 245
182 2 2 0 8 238 245 87
183 2 2 0 8 88 246 239
184 2 2 0 8 246 247 239
185 2 2 0 8 246 119 247
186 2 2 0 8 239 247 117
187 2 2 0 8 119 248 247
188 2 2 0 8 248 249 247
189 2 2 0 8 248 120 249
190 2 2 0 8 247 249 117
191 2 2 0 8 119 250 248
192 2 2 0 8 250 251 248
193 2 2 0 8 250 82 251
194 2 2 0 8 248 251 120
195 2 2 0 8 117 249 243
196 2 2 0 8 249 252 243
197 2 2 0 8 249 120 252
198 2 2 0 8 243 252 89
199 2 2 0 8 87 245 230
200 2 2 0 8 245 253 230
201 2 2 0 8 245 118 253
202 2 2 0 8 230 253 114
203 2 2 0 8 118 254 253
204 2 2 0 8 254 255 253
205 2 2 0 8 254 121 255
206 2 2 0 8 253 255 114
207 2 2 0 8 118 244 254
208 2 2 0 8 244 256 254
209 2 2 0 8 244 89 256
210 2 2 0 8 254 256 121
211 2 2 0 8 114 255 231
212 2 2 0 8 255 257 231
213 2 2 0 8 255 121 257
214 2 2 0 8 231 257 3
215 2 2 0 8 30 258 206
216 2 2 0 8 258 259 206
217 2 2 0 8 258 122 259
218 2 2 0 8 206 259 108
219 2 2 0 8 122 260 259
220 2 2 0 8 260 261 259
221 2 2 0 8 260 123 261
222 2 2 0 8 259 261 108
223 2 2 0 8 122 262 260
224 2 2 0 8 262 263 260
225 2 2 0 8 262 90 263
226 2 2 0 8 260 263 123
227 2 2 0 8 108 261 210
228 2 2 0 8 261 264 210
229 2 2 0 8 261 123 264
230 2 2 0 8 210 264 86
231 2 2 0 8 90 265 263
232 2 2 0 8 265 266 263
233 2 2 0 8 265 124 266
234 2 2 0 8 263 266 123
235 2 2 0 8 124 267 266
236 2 2 0 8 267 268 266
237 2 2 0 8 267 125 268
238 2 2 0 8 266 268 123
239 2 2 0 8 124 269 267
240 2 2 0 8 269 270 267
241 2 2 0 8 269 91 270
242 2 2 0 8 267 270 125
243 2 2 0 8 123 268 264
244 2 2 0 8 268 271 264
245 2 2 0 8 268 125 271
246 2 2 0 8 264 271 86
247 2 2 0 8 90 272 265
248 2 2 0 8 272 273 265
249 2 2 0 8 272 126 273
250 2 2 0 8 265 273 124
251 2 2 0 8 126 274 273
252 2 2 0 8 274 275 273
253 2 2 0 8 274 127 275
254 2 2 0 8 273 275 124
255 2 2 0 8 126 276 274
256 2 2 0 8 276 277 274
257 2 2 0 8 276 83 277
258 2 2 0 8 274 277 127
259 2 2 0 8 124 275 269
260 2 2 0 8 275 278 269
261 2 2 0 8 275 127 278
262 2 2 0 8 269 278 91
263 2 2 0 8 86 271 220
264 2 2 0 8 271 279 220
265 2 2 0 8 271 125 279
266 2 2 0 8 220 279 112
267 2 2 0 8 125 280 279
268 2 2 0 8 280 281 279
269 2 2 0 8 280 128 281
270 2 2 0 8 279 281 112
271 2 2 0 8 125 270 280
272 2 2 0 8 270 282 280
273 2 2 0 8 270 91 282
274 2 2 0 8 280 282 128
275 2 2 0 8 112 281 224
276 2 2 0 8 281 283 224
277 2 2 0 8 281 128 283
278 2 2 0 8 224 283 81
279 2 2 0 8 80 66 285
280 2 2 0 8 66 284 285
281 2 2 0 8 66 74 284
282 2 2 0 8 285 284 130
283 2 2 0 8 74 286 284
284 2 2 0 8 286 287 284
285 2 2 0 8 286 129 287
286 2 2 0 8 284 287 130
287 2 2 0 8 74 65 286
288 2 2 0 8 65 288 286
289 2 2 0 8 65 79 288
290 2 2 0 8 286 288 129
291 2 2 0 8 130 287 290
292 2 2 0 8 287 289 290
293 2 2 0 8 287 129 289
294 2 2 0 8 290 289 93
295 2 2 0 8 79 291 288
296 2 2 0 8 291 292 288
297 2 2 0 8 291 131 292
298 2 2 0 8 288 292 129
299 2 2 0 8 131 293 292
300 2 2 0 8 293 294 292
301 2 2 0 8 293 132 294
302 2 2 0 8 292 294 129
303 2 2 0 8 131 295 293
304 2 2 0 8 295 296 293
305 2 2 0 8 295 92 296
306 2 2 0 8 293 296 132
307 2 2 0 8 129 294 289
308 2 2 0 8 294 297 289
309 2 2 0 8 294 132 297
310 2 2 0 8 289 297 93
311 2 2 0 8 79 64 291
312 2 2 0 8 64 298 291
313 2 2 0 8 64 73 298
314 2 2 0 8 291 298 131
315 2 2 0 8 73 299 298
316 2 2 0 8 299 300 298
317 2 2 0 8 299 133 300
318 2 2 0 8 298 300 131
319 2 2 0 8 73 63 299
320 2 2 0 8 63 301 299
321 2 2 0 8 63 78 301
322 2 2 0 8 299 301 133
323 2 2 0 8 131 300 295
324 2 2 0 8 300 302 295
325 2 2 0 8 300 133 302
326 2 2 0 8 295 302 92
327 2 2 0 8 93 297 304
328 2 2 0 8 297 303 304
329 2 2 0 8 297 132 303
330 2 2 0 8 304 303 135
331 2 2 0 8 132 305 303
332 2 2 0 8 305 306 303
333 2 2 0 8 305 134 306
334 2 2 0 8 303 306 135
335 2 2 0 8 132 296 305
336 2 2 0 8 296 307 305
337 2 2 0 8 296 92 307
338 2 2 0 8 305 307 134
339 2 2 0 8 135 306 309
340 2 2 0 8 306 308 309
341 2 2 0 8 306 134 308
342 2 2 0 8 309 308 81
343 2 2 0 8 8 18 311
344 2 2 0 8 18 310 311
345 2 2 0 8 18 12 310
346 2 2 0 8 311 310 137
347 2 2 0 8 12 312 310
348 2 2 0 8 312 313 310
349 2 2 0 8 312 136 313
350 2 2 0 8 310 313 137
351 2 2 0 8 12 19 312
352 2 2 0 8 19 314 312
353 2 2 0 8 19 9 314
354 2 2 0 8 312 314 136
355 2 2 0 8 137 313 316
356 2 2 0 8 313 315 316
357 2 2 0 8 313 136 315
358 2 2 0 8 316 315 95
359 2 2 0 8 9 317 314
360 2 2 0 8 317 318 314
361 2 2 0 8 317 138 318
362 2 2 0 8 314 318 136
363 2 2 0 8 138 319 318
364 2 2 0 8 319 320 318
365 2 2 0 8 319 139 320
366 2 2 0 8 318 320 136
367 2 2 0 8 138 321 319
368 2 2 0 8 321 322 319
369 2 2 0 8 321 94 322
370 2 2 0 8 319 322 139
371 2 2 0 8 136 320 315
372 2 2 0 8 320 323 315
373 2 2 0 8 320 139 323
374 2 2 0 8 315 323 95
375 2 2 0 8 9 20 317
376 2 2 0 8 20 324 317
377 2 2 0 8 20 13 324
378 2 2 0 8 317 324 138
379 2 2 0 8 13 325 324
380 2 2 0 8 325 326 324
381 2 2 0 8 325 140 326
382 2 2 0 8 324 326 138
383 2 2 0 8 13 21 325
384 2 2 0 8 21 327 325
385 2 2 0 8 21 2 327
386 2 2 0 8 325 327 140
387 2 2 0 8 138 326 321
388 2 2 0 8 326 328 321
389 2 2 0 8 326 140 328
390 2 2 0 8 321 328 94
391 2 2 0 8 95 323 330
392 2 2 0 8 323 329 330
393 2 2 0 8 323 139 329
394 2 2 0 8 330 329 142
395 2 2 0 8 139 331 329
396 2 2 0 8 331 332 329
397 2 2 0 8 331 141 332
398 2 2 0 8 329 332 142
399 2 2 0 8 139 322 331
400 2 2 0 8 322 333 331
401 2 2 0 8 322 94 333
402 2 2 0 8 331 333 141
403 2 2 0 8 142 332 335
404 2 2 0 8 332 334 335
405 2 2 0 8 332 141 334
406 2 2 0 8 335 334 82
407 2 2 0 8 3 257 28
408 2 2 0 8 257 336 28
409 2 2 0 8 257 121 336
410 2 2 0 8 28 336 24
411 2 2 0 8 121 337 336
412 2 2 0 8 337 338 336
413 2 2 0 8 337 143 338
414 2 2 0 8 336 338 24
415 2 2 0 8 121 256 337
416 2 2 0 8 256 339 337
417 2 2 0 8 256 89 339
418 2 2 0 8 337 339 143
419 2 2 0 8 24 338 27
420 2 2 0 8 338 340 27
421 2 2 0 8 338 143 340
422 2 2 0 8 27 340 22
423 2 2 0 8 89 341 339
424 2 2 0 8 341 342 339
425 2 2 0 8 341 144 342
426 2 2 0 8 339 342 143
427 2 2 0 8 144 343 342
428 2 2 0 8 343 344 342
429 2 2 0 8 343 145 344
430 2 2 0 8 342 344 143
431 2 2 0 8 144 345 343
432 2 2 0 8 345 346 343
433 2 2 0 8 345 94 346
434 2 2 0 8 343 346 145
435 2 2 0 8 143 344 340
436 2 2 0 8 344 347 340
437 2 2 0 8 344 145 347
438 2 2 0 8 340 347 22
439 2 2 0 8 89 252 341
440 2 2 0 8 252 348 341
441 2 2 0 8 252 120 348
442 2 2 0 8 341 348 144
443 2 2 0 8 120 349 348
444 2 2 0 8 349 350 348
445 2 2 0 8 349 141 350
446 2 2 0 8 348 350 144
447 2 2 0 8 120 251 349
448 2 2 0 8 251 334 349
449 2 2 0 8 251 82 334
450 2 2 0 8 349 334 141
451 2 2 0 8 144 350 345
452 2 2 0 8 350 333 345
453 2 2 0 8 350 141 333
454 2 2 0 8 345 333 94
455 2 2 0 8 22 347 26
456 2 2 0 8 347 351 26
457 2 2 0 8 347 145 351
458 2 2 0 8 26 351 23
459 2 2 0 8 145 352 351
460 2 2 0 8 352 353 351
461 2 2 0 8 352 140 353
462 2 2 0 8 351 353 23
463 2 2 0 8 145 346 352
464 2 2 0 8 346 328 352
465 2 2 0 8 346 94 328
466 2 2 0 8 352 328 140
467 2 2 0 8 23 353 25
468 2 2 0 8 353 327 25
469 2 2 0 8 353 140 327
470 2 2 0 8 25 327 2
471 2 2 0 8 30 40 258
472 2 2 0 8 40 354 258
473 2 2 0 8 40 34 354
474 2 2 0 8 258 354 122
475 2 2 0 8 34 355 354
476 2 2 0 8 355 356 354
477 2 2 0 8 355 146 356
478 2 2 0 8 354 356 122
479 2 2 0 8 34 41 355
480 2 2 0 8 41 357 355
481 2 2 0 8 41 31 357
482 2 2 0 8 355 357 146
483 2 2 0 8 122 356 262
484 2 2 0 8 356 358 262
485 2 2 0 8 356 146 358
486 2 2 0 8 262 358 90
487 2 2 0 8 31 359 357
488 2 2 0 8 359 360 357
489 2 2 0 8 359 147 360
490 2 2 0 8 357 360 146
491 2 2 0 8 147 361 360
492 2 2 0 8 361 362 360
493 2 2 0 8 361 148 362
494 2 2 0 8 360 362 146
495 2 2 0 8 147 363 361
496 2 2 0 8 363 364 361
497 2 2 0 8 363 96 364
498 2 2 0 8 361 364 148
499 2 2 0 8 146 362 358
500 2 2 0 8 362 365 358
501 2 2 0 8 362 148 365
502 2 2 0 8 358 365 90
503 2 2 0 8 31 42 359
504 2 2 0 8 42 366 359
505 2 2 0 8 42 35 366
506 2 2 0 8 359 366 147
507 2 2 0 8 35 367 366
508 2 2 0 8 367 368 366
509 2 2 0 8 367 149 368
510 2 2 0 8 366 368 147
511 2 2 0 8 35 43 367
512 2 2 0 8 43 369 367
513 2 2 0 8 43 4 369
514 2 2 0 8 367 369 149
515 2 2 0 8 147 368 363
516 2 2 0 8 368 370 363
517 2 2 0 8 368 149 370
518 2 2 0 8 363 370 96
519 2 2 0 8 90 365 272
520 2 2 0 8 365 371 272
521 2 2 0 8 365 148 371
522 2 2 0 8 272 371 126
523 2 2 0 8 148 372 371
524 2 2 0 8 372 373 371
525 2 2 0 8 372 150 373
526 2 2 0 8 371 373 126
527 2 2 0 8 148 364 372
528 2 2 0 8 364 374 372
529 2 2 0 8 364 96 374
530 2 2 0 8 372 374 150
531 2 2 0 8 126 373 276
532 2 2 0 8 373 375 276
533 2 2 0 8 373 150 375
534 2 2 0 8 276 375 83
535 2 2 0 8 5 376 50
536 2 2 0 8 376 377 50
537 2 2 0 8 376 151 377
538 2 2 0 8 50 377 46
539 2 2 0 8 151 378 377
540 2 2 0 8 378 379 377
541 2 2 0 8 378 152 379
542 2 2 0 8 377 379 46
543 2 2 0 8 151 380 378
544 2 2 0 8 380 381 378
545 2 2 0 8 380 97 381
546 2 2 0 8 378 381 152
547 2 2 0 8 46 379 49
548 2 2 0 8 379 382 49
549 2 2 0 8 379 152 382
550 2 2 0 8 49 382 44
551 2 2 0 8 97 383 381
552 2 2 0 8 383 384 381
553 2 2 0 8 383 153 384
554 2 2 0 8 381 384 152
555 2 2 0 8 153 385 384
556 2 2 0 8 385 386 384
557 2 2 0 8 385 154 386
558 2 2 0 8 384 386 152
559 2 2 0 8 153 387 385
560 2 2 0 8 387 388 385
561 2 2 0 8 387 96 388
562 2 2 0 8 385 388 154
563 2 2 0 8 152 386 382
564 2 2 0 8 386 389 382
565 2 2 0 8 386 154 389
566 2 2 0 8 382 389 44
567 2 2 0 8 97 390 383
568 2 2 0 8 390 391 383
569 2 2 0 8 390 155 391
570 2 2 0 8 383 391 153
571 2 2 0 8 155 392 391
572 2 2 0 8 392 393 391
573 2 2 0 8 392 150 393
574 2 2 0 8 391 393 153
575 2 2 0 8 155 394 392
576 2 2 0 8 394 375 392
577 2 2 0 8 394 83 375
578 2 2 0 8 392 375 150
579 2 2 0 8 153 393 387
580 2 2 0 8 393 374 387
581 2 2 0 8 393 150 374
582 2 2 0 8 387 374 96
583 2 2 0 8 44 389 48
584 2 2 0 8 389 395 48
585 2 2 0 8 389 154 395
586 2 2 0 8 48 395 45
587 2 2 0 8 154 396 395
588 2 2 0 8 396 397 395
589 2 2 0 8 396 149 397
590 2 2 0 8 395 397 45
591 2 2 0 8 154 388 396
592 2 2 0 8 388 370 396
593 2 2 0 8 388 96 370
594 2 2 0 8 396 370 149
595 2 2 0 8 45 397 47
596 2 2 0 8 397 369 47
597 2 2 0 8 397 149 369
598 2 2 0 8 47 369 4
599 2 2 0 8 78 398 301
600 2 2 0 8 398 399 301
601 2 2 0 8 398 156 399
602 2 2 0 8 301 399 133
603 2 2 0 8 156 400 399
604 2 2 0 8 400 401 399
605 2 2 0 8 400 157 401
606 2 2 0 8 399 401 133
607 2 2 0 8 156 402 400
608 2 2 0 8 402 403 400
609 2 2 0 8 402 98 403
610 2 2 0 8 400 403 157
611 2 2 0 8 133 401 302
612 2 2 0 8 401 404 302
613 2 2 0 8 401 157 404
614 2 2 0 8 302 404 92
615 2 2 0 8 98 405 403
616 2 2 0 8 405 406 403
617 2 2 0 8 405 158 406
618 2 2 0 8 403 406 157
619 2 2 0 8 158 407 406
620 2 2 0 8 407 408 406
621 2 2 0 8 407 159 408
622 2 2 0 8 406 408 157
623 2 2 0 8 158 409 407
624 2 2 0 8 409 410 407
625 2 2 0 8 409 99 410
626 2 2 0 8 407 410 159
627 2 2 0 8 157 408 404
628 2 2 0 8 408 411 404
629 2 2 0 8 408 159 411
630 2 2 0 8 404 411 92
631 2 2 0 8 98 412 405
632 2 2 0 8 412 413 405
633 2 2 0 8 412 160 413
634 2 2 0 8 405 413 158
635 2 2 0 8 160 414 413
636 2 2 0 8 414 415 413
637 2 2 0 8 414 161 415
638 2 2 0 8 413 415 158
639 2 2 0 8 160 416 414
640 2 2 0 8 416 417 414
641 2 2 0 8 416 84 417
642 2 2 0 8 414 417 161
643 2 2 0 8 158 415 409
644 2 2 0 8 415 418 409
645 2 2 0 8 415 161 418
646 2 2 0 8 409 418 99
647 2 2 0 8 92 411 307
648 2 2 0 8 411 419 307
649 2 2 0 8 411 159 419
650 2 2 0 8 307 419 134
651 2 2 0 8 159 420 419
652 2 2 0 8 420 421 419
653 2 2 0 8 420 162 421
654 2 2 0 8 419 421 134
655 2 2 0 8 159 410 420
656 2 2 0 8 410 422 420
657 2 2 0 8 410 99 422
658 2 2 0 8 420 422 162
659 2 2 0 8 134 421 308
660 2 2 0 8 421 423 308
661 2 2 0 8 421 162 423
662 2 2 0 8 308 423 81
663 2 2 0 8 80 285 425
664 2 2 0 8 285 424 425
665 2 2 0 8 285 130 424
666 2 2 0 8 425 424 164
667 2 2 0 8 130 426 424
668 2 2 0 8 426 427 424
669 2 2 0 8 426 163 427
670 2 2 0 8 424 427 164
671 2 2 0 8 130 290 426
672 2 2 0 8 290 428 426
673 2 2 0 8 290 93 428
674 2 2 0 8 426 428 163
675 2 2 0 8 164 427 430
676 2 2 0 8 427 429 430
677 2 2 0 8 427 163 429
678 2 2 0 8 430 429 101
679 2 2 0 8 93 431 428
680 2 2 0 8 431 432 428
681 2 2 0 8 431 165 432
682 2 2 0 8 428 432 163
683 2 2 0 8 165 433 432
684 2 2 0 8 433 434 432
685 2 2 0 8 433 166 434
686 2 2 0 8 432 434 163
687 2 2 0 8 165 435 433
688 2 2 0 8 435 436 433
689 2 2 0 8 435 100 436
690 2 2 0 8 433 436 166
691 2 2 0 8 163 434 429
692 2 2 0 8 434 437 429
693 2 2 0 8 434 166 437
694 2 2 0 8 429 437 101
695 2 2 0 8 93 304 431
696 2 2 0 8 304 438 431
697 2 2 0 8 304 135 438
698 2 2 0 8 431 438 165
699 2 2 0 8 135 439 438
700 2 2 0 8 439 440 438
701 2 2 0 8 439 167 440
702 2 2 0 8 438 440 165
703 2 2 0 8 135 309 439
704 2 2 0 8 309 441 439
705 2 2 0 8 309 81 441
706 2 2 0 8 439 441 167
707 2 2 0 8 165 440 435
708 2 2 0 8 440 442 435
709 2 2 0 8 440 167 442
710 2 2 0 8 435 442 100
711 2 2 0 8 101 437 444
712 2 2 0 8 437 443 444
713 2 2 0 8 437 166 443
714 2 2 0 8 444 443 169
715 2 2 0 8 166 445 443
716 2 2 0 8 445 446 443
717 2 2 0 8 445 168 446
718 2 2 0 8 443 446 169
719 2 2 0 8 166 436 445
720 2 2 0 8 436 447 445
721 2 2 0 8 436 100 447
722 2 2 0 8 445 447 168
723 2 2 0 8 169 446 449
724 2 2 0 8 446 448 449
725 2 2 0 8 446 168 448
726 2 2 0 8 449 448 85
727 2 2 0 8 81 423 232
728 2 2 0 8 423 450 232
729 2 2 0 8 423 162 450
730 2 2 0 8 232 450 115
731 2 2 0 8 162 451 450
732 2 2 0 8 451 452 450
733 2 2 0 8 451 170 452
734 2 2 0 8 450 452 115
735 2 2 0 8 162 422 451
736 2 2 0 8 422 453 451
737 2 2 0 8 422 99 453
738 2 2 0 8 451 453 170
739 2 2 0 8 115 452 236
740 2 2 0 8 452 454 236
741 2 2 0 8 452 170 454
742 2 2 0 8 236 454 88
743 2 2 0 8 99 455 453
744 2 2 0 8 455 456 453
745 2 2 0 8 455 171 456
746 2 2 0 8 453 456 170
747 2 2 0 8 171 457 456
748 2 2 0 8 457 458 456
749 2 2 0 8 457 172 458
750 2 2 0 8 456 458 170
751 2 2 0 8 171 459 457
752 2 2 0 8 459 460 457
753 2 2 0 8 459 102 460
754 2 2 0 8 457 460 172
755 2 2 0 8 170 458 454
756 2 2 0 8 458 461 454
757 2 2 0 8 458 172 461
758 2 2 0 8 454 461 88
759 2 2 0 8 99 418 455
760 2 2 0 8 418 462 455
761 2 2 0 8 418 161 462
762 2 2 0 8 455 462 171
763 2 2 0 8 161 463 462
764 2 2 0 8 463 464 462
765 2 2 0 8 463 173 464
766 2 2 0 8 462 464 171
767 2 2 0 8 161 417 463
768 2 2 0 8 417 465 463
769 2 2 0 8 417 84 465
770 2 2 0 8 463 465 173
771 2 2 0 8 171 464 459
772 2 2 0 8 464 466 459
773 2 2 0 8 464 173 466
774 2 2 0 8 459 466 102
775 2 2 0 8 88 461 246
776 2 2 0 8 461 467 246
777 2 2 0 8 461 172 467
778 2 2 0 8 246 467 119
779 2 2 0 8 172 468 467
780 2 2 0 8 468 469 467
781 2 2 0 8 468 174 469
782 2 2 0 8 467 469 119
783 2 2 0 8 172 460 468
784 2 2 0 8 460 470 468
785 2 2 0 8 460 102 470
786 2 2 0 8 468 470 174
787 2 2 0 8 119 469 250
788 2 2 0 8 469 471 250
789 2 2 0 8 469 174 471
790 2 2 0 8 250 471 82
791 2 2 0 8 81 283 441
792 2 2 0 8 283 472 441
793 2 2 0 8 283 128 472
794 2 2 0 8 441 472 167
795 2 2 0 8 128 473 472
796 2 2 0 8 473 474 472
797 2 2 0 8 473 175 474
798 2 2 0 8 472 474 167
799 2 2 0 8 128 282 473
800 2 2 0 8 282 475 473
801 2 2 0 8 282 91 475
802 2 2 0 8 473 475 175
803 2 2 0 8 167 474 442
804 2 2 0 8 474 476 442
805 2 2 0 8 474 175 476
806 2 2 0 8 442 476 100
807 2 2 0 8 91 477 475
808 2 2 0 8 477 478 475
809 2 2 0 8 477 176 478
810 2 2 0 8 475 478 175
811 2 2 0 8 176 479 478
812 2 2 0 8 479 480 478
813 2 2 0 8 479 177 480
814 2 2 0 8 478 480 175
815 2 2 0 8 176 481 479
816 2 2 0 8 481 482 479
817 2 2 0 8 481 103 482
818 2 2 0 8 479 482 177
819 2 2 0 8 175 480 476
820 2 2 0 8 480 483 476
821 2 2 0 8 480 177 483
822 2 2 0 8 476 483 100
823 2 2 0 8 91 278 477
824 2 2 0 8 278 484 477
825 2 2 0 8 278 127 484
826 2 2 0 8 477 484 176
827 2 2 0 8 127 485 484
828 2 2 0 8 485 486 484
829 2 2 0 8 485 178 486
830 2 2 0 8 484 486 176
831 2 2 0 8 127 277 485
832 2 2 0 8 277 487 485
833 2 2 0 8 277 83 487
834 2 2 0 8 485 487 178
835 2 2 0 8 176 486 481
836 2 2 0 8 486 488 481
837 2 2 0 8 486 178 488
838 2 2 0 8 481 488 103
839 2 2 0 8 100 483 447
840 2 2 0 8 483 489 447
841 2 2 0 8 483 177 489
842 2 2 0 8 447 489 168
843 2 2 0 8 177 490 489
844 2 2 0 8 490 491 489
845 2 2 0 8 490 179 491
846 2 2 0 8 489 491 168
847 2 2 0 8 177 482 490
848 2 2 0 8 482 492 490
849 2 2 0 8 482 103 492
850 2 2 0 8 490 492 179
851 2 2 0 8 168 491 448
852 2 2 0 8 491 493 448
853 2 2 0 8 491 179 493
854 2 2 0 8 448 493 85
855 2 2 0 8 5 54 495
856 2 2 0 8 54 494 495
857 2 2 0 8 54 52 494
858 2 2 0 8 495 494 181
859 2 2 0 8 52 496 494
860 2 2 0 8 496 497 494
861 2 2 0 8 496 180 497
862 2 2 0 8 494 497 181
863 2 2 0 8 52 55 496
864 2 2 0 8 55 498 496
865 2 2 0 8 55 51 498
866 2 2 0 8 496 498 180
867 2 2 0 8 181 497 500
868 2 2 0 8 497 499 500
869 2 2 0 8 497 180 499
870 2 2 0 8 500 499 105
871 2 2 0 8 51 501 498
872 2 2 0 8 501 502 498
873 2 2 0 8 501 182 502
874 2 2 0 8 498 502 180
875 2 2 0 8 182 503 502
876 2 2 0 8 503 504 502
877 2 2 0 8 503 183 504
878 2 2 0 8 502 504 180
879 2 2 0 8 182 505 503
880 2 2 0 8 505 506 503
881 2 2 0 8 505 104 506
882 2 2 0 8 503 506 183
883 2 2 0 8 180 504 499
884 2 2 0 8 504 507 499
885 2 2 0 8 504 183 507
886 2 2 0 8 499 507 105
887 2 2 0 8 51 56 501
888 2 2 0 8 56 508 501
889 2 2 0 8 56 53 508
890 2 2 0 8 501 508 182
891 2 2 0 8 53 509 508
892 2 2 0 8 509 510 508
893 2 2 0 8 509 184 510
894 2 2 0 8 508 510 182
895 2 2 0 8 53 57 509
896 2 2 0 8 57 511 509
897 2 2 0 8 57 6 511
898 2 2 0 8 509 511 184
899 2 2 0 8 182 510 505
900 2 2 0 8 510 512 505
901 2 2 0 8 510 184 512
902 2 2 0 8 505 512 104
903 2 2 0 8 105 507 514
904 2 2 0 8 507 513 514
905 2 2 0 8 507 183 513
906 2 2 0 8 514 513 186
907 2 2 0 8 183 515 513
908 2 2 0 8 515 516 513
909 2 2 0 8 515 185 516
910 2 2 0 8 513 516 186
911 2 2 0 8 183 506 515
912 2 2 0 8 506 517 515
913 2 2 0 8 506 104 517
914 2 2 0 8 515 517 185
915 2 2 0 8 186 516 519
916 2 2 0 8 516 518 519
917 2 2 0 8 516 185 518
918 2 2 0 8 519 518 85
919 2 2 0 8 78 62 398
920 2 2 0 8 62 520 398
921 2 2 0 8 62 72 520
922 2 2 0 8 398 520 156
923 2 2 0 8 72 521 520
924 2 2 0 8 521 522 520
925 2 2 0 8 521 187 522
926 2 2 0 8 520 522 156
927 2 2 0 8 72 61 521
928 2 2 0 8 61 523 521
929 2 2 0 8 61 77 523
930 2 2 0 8 521 523 187
931 2 2 0 8 156 522 402
932 2 2 0 8 522 524 402
933 2 2 0 8 522 187 524
934 2 2 0 8 402 524 98
935 2 2 0 8 77 525 523
936 2 2 0 8 525 526 523
937 2 2 0 8 525 188 526
938 2 2 0 8 523 526 187
939 2 2 0 8 188 527 526
940 2 2 0 8 527 528 526
941 2 2 0 8 527 189 528
942 2 2 0 8 526 528 187
943 2 2 0 8 188 529 527
944 2 2 0 8 529 530 527
945 2 2 0 8 529 106 530
946 2 2 0 8 527 530 189
947 2 2 0 8 187 528 524
948 2 2 0 8 528 531 524
949 2 2 0 8 528 189 531
950 2 2 0 8 524 531 98
951 2 2 0 8 77 60 525
952 2 2 0 8 60 532 525
953 2 2 0 8 60 71 532
954 2 2 0 8 525 532 188
955 2 2 0 8 71 533 532
956 2 2 0 8 533 534 532
957 2 2 0 8 533 190 534
958 2 2 0 8 532 534 188
959 2 2 0 8 71 59 533
960 2 2 0 8 59 535 533
961 2 2 0 8 59 1 535
962 2 2 0 8 533 535 190
963 2 2 0 8 188 534 529
964 2 2 0 8 534 536 529
965 2 2 0 8 534 190 536
966 2 2 0 8 529 536 106
967 2 2 0 8 98 531 412
968 2 2 0 8 531 537 412
969 2 2 0 8 531 189 537
970 2 2 0 8 412 537 160
971 2 2 0 8 189 538 537
972 2 2 0 8 538 539 537
973 2 2 0 8 538 191 539
974 2 2 0 8 537 539 160
975 2 2 0 8 189 530 538
976 2 2 0 8 530 540 538
977 2 2 0 8 530 106 540
978 2 2 0 8 538 540 191
979 2 2 0 8 160 539 416
980 2 2 0 8 539 541 416
981 2 2 0 8 539 191 541
982 2 2 0 8 416 541 84
983 2 2 0 8 80 425 67
984 2 2 0 8 425 542 67
985 2 2 0 8 425 164 542
986 2 2 0 8 67 542 75
987 2 2 0 8 164 543 542
988 2 2 0 8 543 544 542
989 2 2 0 8 543 192 544
990 2 2 0 8 542 544 75
991 2 2 0 8 164 430 543
992 2 2 0 8 430 545 543
993 2 2 0 8 430 101 545
994 2 2 0 8 543 545 192
995 2 2 0 8 75 544 68
996 2 2 0 8 544 546 68
997 2 2 0 8 544 192 546
998 2 2 0 8 68 546 70
999 2 2 0 8 101 547 545
1000 2 2 0 8 547 548 545
1001 2 2 0 8 547 193 548
1002 2 2 0 8 545 548 192
1003 2 2 0 8 193 549 548
1004 2 2 0 8 549 550 548
1005 2 2 0 8 549 194 550
1006 2 2 0 8 548 550 192
1007 2 2 0 8 193 551 549
1008 2 2 0 8 551 552 549
1009 2 2 0 8 551 104 552
1010 2 2 0 8 549 552 194
1011 2 2 0 8 192 550 546
1012 2 2 0 8 550 553 546
1013 2 2 0 8 550 194 553
1014 2 2 0 8 546 553 70
1015 2 2 0 8 101 444 547
1016 2 2 0 8 444 554 547
1017 2 2 0 8 444 169 554
1018 2 2 0 8 547 554 193
1019 2 2 0 8 169 555 554
1020 2 2 0 8 555 556 554
1021 2 2 0 8 555 185 556
1022 2 2 0 8 554 556 193
1023 2 2 0 8 169 449 555
1024 2 2 0 8 449 518 555
1025 2 2 0 8 449 85 518
1026 2 2 0 8 555 518 185
1027 2 2 0 8 193 556 551
1028 2 2 0 8 556 517 551
1029 2 2 0 8 556 185 517
1030 2 2 0 8 551 517 104
1031 2 2 0 8 70 553 69
1032 2 2 0 8 553 557 69
1033 2 2 0 8 553 194 557
1034 2 2 0 8 69 557 76
1035 2 2 0 8 194 558 557
1036 2 2 0 8 558 559 557
1037 2 2 0 8 558 184 559
1038 2 2 0 8 557 559 76
1039 2 2 0 8 194 552 558
1040 2 2 0 8 552 512 558
1041 2 2 0 8 552 104 512
1042 2 2 0 8 558 512 184
1043 2 2 0 8 76 559 58
1044 2 2 0 8 559 511 58
1045 2 2 0 8 559 184 511
1046 2 2 0 8 58 511 6
1047 2 2 0 8 8 560 17
1048 2 2 0 8 560 561 17
1049 2 2 0 8 560 195 561
1050 2 2 0 8 17 561 11
1051 2 2 0 8 195 562 561
1052 2 2 0 8 562 563 561
1053 2 2 0 8 562 196 563
1054 2 2 0 8 561 563 11
1055 2 2 0 8 195 564 562
1056 2 2 0 8 564 565 562
1057 2 2 0 8 564 107 565
1058 2 2 0 8 562 565 196
1059 2 2 0 8 11 563 16
1060 2 2 0 8 563 566 16
1061 2 2 0 8 563 196 566
1062 2 2 0 8 16 566 7
1063 2 2 0 8 107 567 565
1064 2 2 0 8 567 568 565
1065 2 2 0 8 567 197 568
1066 2 2 0 8 565 568 196
1067 2 2 0 8 197 569 568
1068 2 2 0 8 569 570 568
1069 2 2 0 8 569 198 570
1070 2 2 0 8 568 570 196
1071 2 2 0 8 197 571 569
1072 2 2 0 8 571 572 569
1073 2 2 0 8 571 106 572
1074 2 2 0 8 569 572 198
1075 2 2 0 8 196 570 566
1076 2 2 0 8 570 573 566
1077 2 2 0 8 570 198 573
1078 2 2 0 8 566 573 7
1079 2 2 0 8 107 574 567
1080 2 2 0 8 574 575 567
1081 2 2 0 8 574 199 575
1082 2 2 0 8 567 575 197
1083 2 2 0 8 199 576 575
1084 2 2 0 8 576 577 575
1085 2 2 0 8 576 191 577
1086 2 2 0 8 575 577 197
1087 2 2 0 8 199 578 576
1088 2 2 0 8 578 541 576
1089 2 2 0 8 578 84 541
1090 2 2 0 8 576 541 191
1091 2 2 0 8 197 577 571
1092 2 2 0 8 577 540 571
1093 2 2 0 8 577 191 540
1094 2 2 0 8 571 540 106
1095 2 2 0 8 7 573 15
1096 2 2 0 8 573 579 15
1097 2 2 0 8 573 198 579
1098 2 2 0 8 15 579 10
1099 2 2 0 8 198 580 579
1100 2 2 0 8 580 581 579
1101 2 2 0 8 580 190 581
1102 2 2 0 8 579 581 10
1103 2 2 0 8 198 572 580
1104 2 2 0 8 572 536 580
1105 2 2 0 8 572 106 536
1106 2 2 0 8 580 536 190
1107 2 2 0 8 10 581 14
1108 2 2 0 8 581 535 14
1109 2 2 0 8 581 190 535
1110 2 2 0 8 14 535 1
1111 2 2 0 8 8 311 560
1112 2 2 0 8 311 582 560
1113 2 2 0 8 311 137 582
1114 2 2 0 8 560 582 195
1115 2 2 0 8 137 583 582
1116 2 2 0 8 583 584 582
1117 2 2 0 8 583 200 584
1118 2 2 0 8 582 584 195
1119 2 2 0 8 137 316 583
1120 2 2 0 8 316 585 583
1121 2 2 0 8 316 95 585
1122 2 2 0 8 583 585 200
1123 2 2 0 8 195 584 564
1124 2 2 0 8 584 586 564
1125 2 2 0 8 584 200 586
1126 2 2 0 8 564 586 107
1127 2 2 0 8 95 587 585
1128 2 2 0 8 587 588 585
1129 2 2 0 8 587 201 588
1130 2 2 0 8 585 588 200
1131 2 2 0 8 201 589 588
1132 2 2 0 8 589 590 588
1133 2 2 0 8 589 202 590
1134 2 2 0 8 588 590 200
1135 2 2 0 8 201 591 589
1136 2 2 0 8 591 592 589
1137 2 2 0 8 591 102 592
1138 2 2 0 8 589 592 202
1139 2 2 0 8 200 590 586
1140 2 2 0 8 590 593 586
1141 2 2 0 8 590 202 593
1142 2 2 0 8 586 593 107
1143 2 2 0 8 95 330 587
1144 2 2 0 8 330 594 587
1145 2 2 0 8 330 142 594
1146 2 2 0 8 587 594 201
1147 2 2 0 8 142 595 594
1148 2 2 0 8 595 596 594
1149 2 2 0 8 595 174 596
1150 2 2 0 8 594 596 201
1151 2 2 0 8 142 335 595
1152 2 2 0 8 335 471 595
1153 2 2 0 8 335 82 471
1154 2 2 0 8 595 471 174
1155 2 2 0 8 201 596 591
1156 2 2 0 8 596 470 591
1157 2 2 0 8 596 174 470
1158 2 2 0 8 591 470 102
1159 2 2 0 8 107 593 574
1160 2 2 0 8 593 597 574
1161 2 2 0 8 593 202 597
1162 2 2 0 8 574 597 199
1163 2 2 0 8 202 598 597
1164 2 2 0 8 598 599 597
1165 2 2 0 8 598 173 599
1166 2 2 0 8 597 599 199
1167 2 2 0 8 202 592 598
1168 2 2 0 8 592 466 598
1169 2 2 0 8 592 102 466
1170 2 2 0 8 598 466 173
1171 2 2 0 8 199 599 578
1172 2 2 0 8 599 465 578
1173 2 2 0 8 599 173 465
1174 2 2 0 8 578 465 84
1175 2 2 0 8 83 394 487
1176 2 2 0 8 394 600 487
1177 2 2 0 8 394 155 600
1178 2 2 0 8 487 600 178
1179 2 2 0 8 155 601 600
1180 2 2 0 8 601 602 600
1181 2 2 0 8 601 203 602
1182 2 2 0 8 600 602 178
1183 2 2 0 8 155 390 601
1184 2 2 0 8 390 603 601
1185 2 2 0 8 390 97 603
1186 2 2 0 8 601 603 203
1187 2 2 0 8 178 602 488
1188 2 2 0 8 602 604 488
1189 2 2 0 8 602 203 604
1190 2 2 0 8 488 604 103
1191 2 2 0 8 97 605 603
1192 2 2 0 8 605 606 603
1193 2 2 0 8 605 204 606
1194 2 2 0 8 603 606 203
1195 2 2 0 8 204 607 606
1196 2 2 0 8 607 608 606
1197 2 2 0 8 607 205 608
1198 2 2 0 8 606 608 203
1199 2 2 0 8 204 609 607
1200 2 2 0 8 609 610 607
1201 2 2 0 8 609 105 610
1202 2 2 0 8 607 610 205
1203 2 2 0 8 203 608 604
1204 2 2 0 8 608 611 604
1205 2 2 0 8 608 205 611
1206 2 2 0 8 604 611 103
1207 2 2 0 8 97 380 605
1208 2 2 0 8 380 612 605
1209 2 2 0 8 380 151 612
1210 2 2 0 8 605 612 204
1211 2 2 0 8 151 613 612
1212 2 2 0 8 613 614 612
1213 2 2 0 8 613 181 614
1214 2 2 0 8 612 614 204
1215 2 2 0 8 151 376 613
1216 2 2 0 8 376 495 613
1217 2 2 0 8 376 5 495
1218 2 2 0 8 613 495 181
1219 2 2 0 8 204 614 609
1220 2 2 0 8 614 500 609
1221 2 2 0 8 614 181 500
1222 2 2 0 8 609 500 105
1223 2 2 0 8 103 611 492
1224 2 2 0 8 611 615 492
1225 2 2 0 8 611 205 615
1226 2 2 0 8 492 615 179
1227 2 2 0 8 205 616 615
1228 2 2 0 8 616 617 615
1229 2 2 0 8 616 186 617
1230 2 2 0 8 615 617 179
1231 2 2 0 8 205 610 616
1232 2 2 0 8 610 514 616
1233 2 2 0 8 610 105 514
1234 2 2 0 8 616 514 186
1235 2 2 0 8 179 617 493
1236 2 2 0 8 617 519 493
1237 2 2 0 8 617 186 519
1238 2 2 0 8 493 519 85
$EndElements
