$MeshFormat
2.2 0 8
$EndMeshFormat
$Nodes
147
1 0 0 0
2 1 0 0
3 1 0.5 0
4 1 1 0
5 0.5 1 0
6 0 1 0
7 0 0.5 0
8 0.09999999999981414 0 0
9 0.1999999999995569 0 0
10 0.299999999999265 0 0
11 0.3999999999989731 0 0
12 0.4999999999986921 0 0
13 0.599999999998945 0 0
14 0.6999999999992087 0 0
15 0.7999999999994725 0 0
16 0.8999999999997362 0 0
17 1 0.09999999999977846 0
18 1 0.1999999999994866 0
19 1 0.2999999999994725 0
20 1 0.3999999999997362 0
21 1 0.6 0
22 1 0.7 0
23 1 0.8 0
24 1 0.9 0
25 0.9 1 0
26 0.8 1 0
27 0.7 1 0
28 0.6 1 0
29 0.4 1 0
30 0.3000000000006937 1 0
31 0.2000000000008325 1 0
32 0.1000000000004163 1 0
33 0 0.9 0
34 0 0.8 0
35 0 0.7 0
36 0 0.6 0
37 0 0.4 0
38 0 0.3000000000006937 0
39 0 0.2000000000008325 0
40 0 0.1000000000004163 0
41 0.09999999999981414 0.5 0
42 0.1999999999995569 0.5 0
43 0.299999999999265 0.5 0
44 0.3999999999989731 0.5 0
45 0.4999999999986921 0.5 0
46 0.599999999998945 0.5 0
47 0.6999999999992087 0.5 0
48 0.7999999999994725 0.5 0
49 0.8999999999997362 0.5 0
50 0.349141146757567 0.08870418462590184 0
51 0.5427873184703511 0.09110927095258932 0
52 0.7430477053460067 0.4065668747424755 0
53 0.2449026296834405 0.4125651531062094 0
54 0.4533897666398526 0.4215150108303941 0
55 0.748098192670984 0.08584679419057452 0
56 0.08628796078355101 0.250544867841565 0
57 0.9211209422084534 0.2490075581118406 0
58 0.1583567210934637 0.09033405946753856 0
59 0.08304550599967492 0.3492853847844868 0
60 0.1793641407369686 0.3106716740627129 0
61 0.1709615455651002 0.2003025436506593 0
62 0.2610607574901718 0.249240268521291 0
63 0.2571222288296748 0.1495920095398689 0
64 0.347226225228795 0.1981395552804239 0
65 0.3470106148309182 0.2976446632690386 0
66 0.4322614419882777 0.2473978108769919 0
67 0.4384580927213382 0.14807487156248 0
68 0.5228198896751828 0.2015678017859335 0
69 0.6180456861537065 0.1682106617429498 0
70 0.5991384518227965 0.265029885083426 0
71 0.6919295643891915 0.2339093526016788 0
72 0.6724786331781144 0.3307952123039676 0
73 0.5808571906787603 0.3562797286684815 0
74 0.7647780094369978 0.3037409176800484 0
75 0.8358229643187461 0.3752566054221682 0
76 0.7824729206077956 0.195326229005641 0
77 0.921565054938788 0.1506648847659368 0
78 0.348922327542526 0.4042647787766184 0
79 0.0822361422533868 0.1532331092691452 0
80 0.1494698654308381 0.4164447954572995 0
81 0.8475515296697277 0.09468771669876516 0
82 0.6443905909095926 0.4214134155173737 0
83 0.6509275030058054 0.08103133805061463 0
84 0.5118708494857838 0.2966552019536736 0
85 0.9213657353613173 0.3430863785681997 0
86 0.4299373283660354 0.3375977302136912 0
87 0.2519493462237407 0.06614646652062042 0
88 0.2741199679880915 0.3341169348424334 0
89 0.4473848743925337 0.06547053146277446 0
90 0.698668625497605 0.152140962008218 0
91 0.5481819864840776 0.4310823669700895 0
92 0.8474983416719804 0.2817333511490963 0
93 0.0687370764429155 0.4310289971133498 0
94 0.06981407536509589 0.07021064941720771 0
95 0.9314805176955179 0.07044870711413652 0
96 0.906830669862126 0.4317420717448985 0
97 0.8625233110606829 0.1959784025226542 0
98 0.5050003301343994 0.3692677984999413 0
99 0.3503212775997154 0.9156572963984365 0
100 0.5500056198802281 0.5865666298280183 0
101 0.7541199288989984 0.911623621937091 0
102 0.2499999999993826 0.5866025403784012 0
103 0.5503376975488702 0.91548021753063 0
104 0.7499483483982516 0.5850111153482218 0
105 0.08318762356676904 0.7543335229292213 0
106 0.9145355886236355 0.7550012672616427 0
107 0.1531910619410042 0.9083435583175572 0
108 0.4499999999989009 0.5866025403784161 0
109 0.4999999999988842 0.6732050807568477 0
110 0.399934216388435 0.6729671212864039 0
111 0.6000505789311776 0.6728818858031498 0
112 0.4499999999990211 0.7576281497718462 0
113 0.3496561322029569 0.7574819519031526 0
114 0.2994079475040266 0.6732429168865275 0
115 0.2446715275425304 0.7601481463020321 0
116 0.1992662245612929 0.6676964816275242 0
117 0.1512391627317781 0.5830499900234585 0
118 0.2533557604262586 0.9162646136500826 0
119 0.4500732194608024 0.9160594415057558 0
120 0.550165581877219 0.7571895550812069 0
121 0.6520930367861797 0.7533390715182504 0
122 0.3499269070984736 0.5865803044515864 0
123 0.8487524118436086 0.5830624312327438 0
124 0.8003275133552962 0.6653311192131772 0
125 0.6515996199691425 0.9139717244309872 0
126 0.9179321462234297 0.8496022257458887 0
127 0.8222699443261076 0.8114171927597443 0
128 0.700455210389658 0.6702963261735996 0
129 0.6499999999989984 0.5866025403784585 0
130 0.08026877576032121 0.8476324728756328 0
131 0.9086824119248004 0.6576452410469429 0
132 0.8502528740449739 0.9154309340870255 0
133 0.712956921750761 0.8236003672913952 0
134 0.0912506802972551 0.6575464432087118 0
135 0.1605348319299098 0.8047597347012967 0
136 0.3999999999994694 0.8366025403785168 0
137 0.3028914983957492 0.8373258290974701 0
138 0.4999999999991662 0.8366025403783495 0
139 0.6014396579715213 0.835157854479708 0
140 0.7537693801588744 0.7415027914292403 0
141 0.06890453678951766 0.9300641262881488 0
142 0.9300892946708435 0.5703013977757671 0
143 0.06990178429177853 0.5702882247305769 0
144 0.930751684236575 0.9309890976259742 0
145 0.2237980058968756 0.8448624601727326 0
146 0.8417434162737126 0.726346745802208 0
147 0.1568267029781037 0.729063055577351 0
$EndNodes
$Elements
309
1 15 2 201 1 1
2 15 2 101 2 2
3 15 2 101 3 3
4 15 2 201 4 4
5 15 2 102 5 5
6 15 2 102 6 6
7 15 2 201 7 7
8 1 2 201 1 1 8
9 1 2 201 1 8 9
10 1 2 201 1 9 10
11 1 2 201 1 10 11
12 1 2 201 1 11 12
13 1 2 201 1 12 13
14 1 2 201 1 13 14
15 1 2 201 1 14 15
16 1 2 201 1 15 16
17 1 2 201 1 16 2
18 1 2 101 2 2 17
19 1 2 101 2 17 18
20 1 2 101 2 18 19
21 1 2 101 2 19 20
22 1 2 101 2 20 3
23 1 2 201 3 3 21
24 1 2 201 3 21 22
25 1 2 201 3 22 23
26 1 2 201 3 23 24
27 1 2 201 3 24 4
28 1 2 201 4 4 25
29 1 2 201 4 25 26
30 1 2 201 4 26 27
31 1 2 201 4 27 28
32 1 2 201 4 28 5
33 1 2 102 5 5 29
34 1 2 102 5 29 30
35 1 2 102 5 30 31
36 1 2 102 5 31 32
37 1 2 102 5 32 6
38 1 2 201 6 6 33
39 1 2 201 6 33 34
40 1 2 201 6 34 35
41 1 2 201 6 35 36
42 1 2 201 6 36 7
43 1 2 201 7 7 37
44 1 2 201 7 37 38
45 1 2 201 7 38 39
46 1 2 201 7 39 40
47 1 2 201 7 40 1
48 1 2 0 8 7 41
49 1 2 0 8 41 42
50 1 2 0 8 42 43
51 1 2 0 8 43 44
52 1 2 0 8 44 45
53 1 2 0 8 45 46
54 1 2 0 8 46 47
55 1 2 0 8 47 48
56 1 2 0 8 48 49
57 1 2 0 8 49 3
58 2 2 0 10 48 75 96
59 2 2 0 10 60 53 80
60 2 2 0 10 52 75 48
61 2 2 0 10 60 88 53
62 2 2 0 10 51 68 67
63 2 2 0 10 55 81 76
64 2 2 0 10 61 58 63
65 2 2 0 10 76 81 97
66 2 2 0 10 51 67 89
67 2 2 0 10 3 96 20
68 2 2 0 10 49 48 96
69 2 2 0 10 52 72 74
70 2 2 0 10 58 87 63
71 2 2 0 10 51 69 68
72 2 2 0 10 52 74 75
73 2 2 0 10 3 49 96
74 2 2 0 10 50 64 63
75 2 2 0 10 50 67 64
76 2 2 0 10 59 60 80
77 2 2 0 10 65 78 88
78 2 2 0 10 55 76 90
79 2 2 0 10 61 79 58
80 2 2 0 10 65 86 78
81 2 2 0 10 52 82 72
82 2 2 0 10 64 67 66
83 2 2 0 10 68 69 70
84 2 2 0 10 67 68 66
85 2 2 0 10 77 97 81
86 2 2 0 10 53 88 78
87 2 2 0 10 69 71 70
88 2 2 0 10 50 63 87
89 2 2 0 10 71 72 70
90 2 2 0 10 70 72 73
91 2 2 0 10 71 74 72
92 2 2 0 10 71 76 74
93 2 2 0 10 13 51 12
94 2 2 0 10 39 56 38
95 2 2 0 10 60 61 62
96 2 2 0 10 61 63 62
97 2 2 0 10 63 64 62
98 2 2 0 10 8 9 58
99 2 2 0 10 11 50 10
100 2 2 0 10 42 53 43
101 2 2 0 10 47 52 48
102 2 2 0 10 14 15 55
103 2 2 0 10 62 64 65
104 2 2 0 10 19 57 18
105 2 2 0 10 43 53 78
106 2 2 0 10 43 78 44
107 2 2 0 10 56 61 60
108 2 2 0 10 45 44 54
109 2 2 0 10 54 44 78
110 2 2 0 10 65 64 66
111 2 2 0 10 17 18 77
112 2 2 0 10 18 57 77
113 2 2 0 10 56 60 59
114 2 2 0 10 56 59 38
115 2 2 0 10 37 38 59
116 2 2 0 10 51 83 69
117 2 2 0 10 54 78 86
118 2 2 0 10 39 40 79
119 2 2 0 10 56 79 61
120 2 2 0 10 42 41 80
121 2 2 0 10 16 81 15
122 2 2 0 10 13 83 51
123 2 2 0 10 14 55 83
124 2 2 0 10 52 47 82
125 2 2 0 10 68 70 84
126 2 2 0 10 68 84 66
127 2 2 0 10 74 76 92
128 2 2 0 10 50 89 67
129 2 2 0 10 56 39 79
130 2 2 0 10 42 80 53
131 2 2 0 10 15 81 55
132 2 2 0 10 19 85 57
133 2 2 0 10 9 87 58
134 2 2 0 10 10 50 87
135 2 2 0 10 60 62 88
136 2 2 0 10 47 46 82
137 2 2 0 10 12 51 89
138 2 2 0 10 11 89 50
139 2 2 0 10 45 54 91
140 2 2 0 10 72 82 73
141 2 2 0 10 71 90 76
142 2 2 0 10 7 37 93
143 2 2 0 10 7 93 41
144 2 2 0 10 1 8 94
145 2 2 0 10 1 94 40
146 2 2 0 10 2 17 95
147 2 2 0 10 2 95 16
148 2 2 0 10 57 85 92
149 2 2 0 10 13 14 83
150 2 2 0 10 70 73 84
151 2 2 0 10 76 97 92
152 2 2 0 10 46 91 82
153 2 2 0 10 73 82 91
154 2 2 0 10 20 85 19
155 2 2 0 10 55 90 83
156 2 2 0 10 66 84 86
157 2 2 0 10 75 74 92
158 2 2 0 10 75 92 85
159 2 2 0 10 65 66 86
160 2 2 0 10 20 96 85
161 2 2 0 10 9 10 87
162 2 2 0 10 62 65 88
163 2 2 0 10 12 89 11
164 2 2 0 10 71 69 90
165 2 2 0 10 54 98 91
166 2 2 0 10 16 95 81
167 2 2 0 10 40 94 79
168 2 2 0 10 41 93 80
169 2 2 0 10 45 91 46
170 2 2 0 10 8 58 94
171 2 2 0 10 59 93 37
172 2 2 0 10 17 77 95
173 2 2 0 10 69 83 90
174 2 2 0 10 86 84 98
175 2 2 0 10 57 97 77
176 2 2 0 10 58 79 94
177 2 2 0 10 77 81 95
178 2 2 0 10 59 80 93
179 2 2 0 10 54 86 98
180 2 2 0 10 57 92 97
181 2 2 0 10 73 98 84
182 2 2 0 10 75 85 96
183 2 2 0 10 73 91 98
184 2 2 0 12 127 132 101
185 2 2 0 12 133 125 139
186 2 2 0 12 127 101 133
187 2 2 0 12 133 139 121
188 2 2 0 12 125 133 101
189 2 2 0 12 123 131 124
190 2 2 0 12 126 132 127
191 2 2 0 12 117 116 134
192 2 2 0 12 131 146 124
193 2 2 0 12 130 135 107
194 2 2 0 12 134 116 147
195 2 2 0 12 135 145 107
196 2 2 0 12 102 114 116
197 2 2 0 12 102 122 114
198 2 2 0 12 30 31 118
199 2 2 0 12 42 117 41
200 2 2 0 12 30 118 99
201 2 2 0 12 114 122 110
202 2 2 0 12 102 116 117
203 2 2 0 12 42 102 117
204 2 2 0 12 31 32 107
205 2 2 0 12 31 107 118
206 2 2 0 12 108 110 122
207 2 2 0 12 45 46 100
208 2 2 0 12 124 128 104
209 2 2 0 12 5 29 119
210 2 2 0 12 45 108 44
211 2 2 0 12 112 113 110
212 2 2 0 12 29 99 119
213 2 2 0 12 45 100 108
214 2 2 0 12 109 112 110
215 2 2 0 12 110 113 114
216 2 2 0 12 109 110 108
217 2 2 0 12 123 124 104
218 2 2 0 12 35 105 34
219 2 2 0 12 44 108 122
220 2 2 0 12 48 123 104
221 2 2 0 12 47 104 129
222 2 2 0 12 42 43 102
223 2 2 0 12 49 123 48
224 2 2 0 12 47 48 104
225 2 2 0 12 114 113 115
226 2 2 0 12 5 103 28
227 2 2 0 12 23 24 126
228 2 2 0 12 28 125 27
229 2 2 0 12 23 106 22
230 2 2 0 12 28 103 125
231 2 2 0 12 43 122 102
232 2 2 0 12 26 27 101
233 2 2 0 12 5 119 103
234 2 2 0 12 23 126 106
235 2 2 0 12 111 121 120
236 2 2 0 12 115 116 114
237 2 2 0 12 109 120 112
238 2 2 0 12 108 100 109
239 2 2 0 12 126 127 106
240 2 2 0 12 29 30 99
241 2 2 0 12 27 125 101
242 2 2 0 12 43 44 122
243 2 2 0 12 109 100 111
244 2 2 0 12 109 111 120
245 2 2 0 12 128 129 104
246 2 2 0 12 111 100 129
247 2 2 0 12 111 128 121
248 2 2 0 12 46 129 100
249 2 2 0 12 47 129 46
250 2 2 0 12 128 111 129
251 2 2 0 12 34 130 33
252 2 2 0 12 26 132 25
253 2 2 0 12 21 22 131
254 2 2 0 12 35 36 134
255 2 2 0 12 34 105 130
256 2 2 0 12 22 106 131
257 2 2 0 12 26 101 132
258 2 2 0 12 35 134 105
259 2 2 0 12 128 140 121
260 2 2 0 12 6 141 32
261 2 2 0 12 6 33 141
262 2 2 0 12 3 142 49
263 2 2 0 12 3 21 142
264 2 2 0 12 4 25 144
265 2 2 0 12 4 144 24
266 2 2 0 12 7 41 143
267 2 2 0 12 7 143 36
268 2 2 0 12 133 121 140
269 2 2 0 12 107 145 118
270 2 2 0 12 99 136 119
271 2 2 0 12 115 113 137
272 2 2 0 12 136 138 119
273 2 2 0 12 103 119 138
274 2 2 0 12 125 103 139
275 2 2 0 12 112 136 113
276 2 2 0 12 99 118 137
277 2 2 0 12 136 112 138
278 2 2 0 12 138 139 103
279 2 2 0 12 112 120 138
280 2 2 0 12 138 120 139
281 2 2 0 12 120 121 139
282 2 2 0 12 136 99 137
283 2 2 0 12 136 137 113
284 2 2 0 12 130 105 135
285 2 2 0 12 133 140 127
286 2 2 0 12 131 106 146
287 2 2 0 12 115 147 116
288 2 2 0 12 134 147 105
289 2 2 0 12 135 147 115
290 2 2 0 12 140 146 127
291 2 2 0 12 124 140 128
292 2 2 0 12 36 143 134
293 2 2 0 12 25 132 144
294 2 2 0 12 33 130 141
295 2 2 0 12 21 131 142
296 2 2 0 12 41 117 143
297 2 2 0 12 32 141 107
298 2 2 0 12 49 142 123
299 2 2 0 12 24 144 126
300 2 2 0 12 127 146 106
301 2 2 0 12 134 143 117
302 2 2 0 12 130 107 141
303 2 2 0 12 132 126 144
304 2 2 0 12 131 123 142
305 2 2 0 12 135 115 145
306 2 2 0 12 137 145 115
307 2 2 0 12 140 124 146
308 2 2 0 12 135 105 147
309 2 2 0 12 137 118 145
$EndElements
